M48
; DRILL file {KiCad 7.0.11+dfsg-1build4} date lun 29 dic 2025 15:54:26
; FORMAT={-:-/ absolute / metric / decimal}
; #@! TF.CreationDate,2025-12-29T15:54:26-05:00
; #@! TF.GenerationSoftware,Kicad,Pcbnew,7.0.11+dfsg-1build4
; #@! TF.FileFunction,Plated,1,2,PTH
FMAT,2
METRIC
; #@! TA.AperFunction,Plated,PTH,ComponentDrill
T1C0.800
; #@! TA.AperFunction,Plated,PTH,ComponentDrill
T2C0.900
; #@! TA.AperFunction,Plated,PTH,ComponentDrill
T3C1.000
%
G90
G05
T1
X157.45Y-108.0
X157.45Y-110.0
X157.45Y-112.0
T2
X102.35Y-104.67
X102.35Y-107.21
X102.35Y-109.75
X102.35Y-120.52
X102.35Y-123.06
X102.35Y-125.6
X104.3Y-103.4
X104.3Y-105.94
X104.3Y-108.48
X104.3Y-119.25
X104.3Y-121.79
X104.3Y-124.33
T3
X108.32Y-108.08
X108.32Y-110.62
X108.32Y-113.16
X108.32Y-115.7
X108.32Y-118.24
X108.32Y-120.78
X110.86Y-108.08
X110.86Y-110.62
X110.86Y-113.16
X110.86Y-115.7
X110.86Y-118.24
X110.86Y-120.78
X113.4Y-103.0
X113.4Y-105.54
X113.4Y-108.08
X113.4Y-110.62
X113.4Y-110.62
X113.4Y-113.16
X113.4Y-113.16
X113.4Y-115.7
X113.4Y-115.7
X113.4Y-118.24
X113.4Y-118.24
X113.4Y-120.78
X113.4Y-120.78
X113.4Y-123.32
X113.4Y-125.86
X115.94Y-103.0
X115.94Y-105.54
X115.94Y-108.08
X115.94Y-110.62
X115.94Y-113.16
X115.94Y-115.7
X115.94Y-118.24
X115.94Y-120.78
X115.94Y-123.32
X115.94Y-125.86
X118.48Y-103.0
X118.48Y-105.54
X118.48Y-108.08
X118.48Y-110.62
X118.48Y-113.16
X118.48Y-115.7
X118.48Y-118.24
X118.48Y-120.78
X118.48Y-123.32
X118.48Y-125.86
X121.02Y-103.0
X121.02Y-105.54
X121.02Y-108.08
X121.02Y-110.62
X121.02Y-113.16
X121.02Y-115.7
X121.02Y-118.24
X121.02Y-120.78
X121.02Y-123.32
X121.02Y-125.86
X123.56Y-110.62
X123.56Y-113.16
X123.56Y-115.7
X123.56Y-118.24
X123.56Y-120.78
X123.56Y-123.32
X123.56Y-125.86
X126.1Y-110.62
X126.1Y-113.16
X126.1Y-115.7
X126.1Y-118.24
X126.1Y-120.78
X126.1Y-123.32
X126.1Y-125.86
X128.64Y-110.62
X128.64Y-113.16
X128.64Y-115.7
X128.64Y-118.24
X128.64Y-120.78
X128.64Y-123.32
X128.64Y-125.86
X131.18Y-110.62
X131.18Y-113.16
X131.18Y-115.7
X131.18Y-118.24
X131.18Y-120.78
X131.18Y-123.32
X131.18Y-125.86
X133.72Y-110.62
X133.72Y-113.16
X133.72Y-115.7
X133.72Y-118.24
X133.72Y-120.78
X133.72Y-123.32
X133.72Y-125.86
X136.26Y-110.62
X136.26Y-113.16
X136.26Y-115.7
X136.26Y-118.24
X136.26Y-120.78
X136.26Y-123.32
X136.26Y-125.86
X138.8Y-110.62
X138.8Y-113.16
X138.8Y-115.7
X138.8Y-118.24
X138.8Y-120.78
X138.8Y-123.32
X138.8Y-125.86
X141.34Y-110.62
X141.34Y-113.16
X141.34Y-115.7
X141.34Y-118.24
X141.34Y-120.78
X141.34Y-123.32
X141.34Y-125.86
X143.88Y-120.78
X143.88Y-123.32
X143.88Y-125.86
X146.42Y-120.78
X146.42Y-123.32
X146.42Y-125.86
X148.96Y-120.78
X148.96Y-123.32
X148.96Y-125.86
X151.5Y-103.0
X151.5Y-105.54
X151.5Y-108.08
X151.5Y-110.62
X151.5Y-118.24
X151.5Y-120.78
X151.5Y-123.32
X151.5Y-125.86
X154.04Y-103.0
X154.04Y-105.54
X154.04Y-118.24
X154.04Y-120.78
X154.04Y-123.32
X154.04Y-125.86
X156.58Y-115.7
X156.58Y-118.24
X156.58Y-120.78
X156.58Y-123.32
M30
