%TF.GenerationSoftware,KiCad,Pcbnew,7.0.11+dfsg-1build4*%
%TF.CreationDate,2025-11-13T13:22:06-05:00*%
%TF.ProjectId,wedo-pcb-components,7765646f-2d70-4636-922d-636f6d706f6e,rev?*%
%TF.SameCoordinates,Original*%
%TF.FileFunction,Legend,Bot*%
%TF.FilePolarity,Positive*%
%FSLAX46Y46*%
G04 Gerber Fmt 4.6, Leading zero omitted, Abs format (unit mm)*
G04 Created by KiCad (PCBNEW 7.0.11+dfsg-1build4) date 2025-11-13 13:22:06*
%MOMM*%
%LPD*%
G01*
G04 APERTURE LIST*
%ADD10C,0.100000*%
%ADD11C,0.200000*%
%ADD12C,0.150000*%
%ADD13C,0.120000*%
%TA.AperFunction,Profile*%
%ADD14C,0.050000*%
%TD*%
G04 APERTURE END LIST*
D10*
X106400000Y-114500000D02*
X112100000Y-114500000D01*
X112100000Y-122320000D01*
X106400000Y-122320000D01*
X106400000Y-114500000D01*
X106400000Y-106680000D02*
X112100000Y-106680000D01*
X112100000Y-114500000D01*
X106400000Y-114500000D01*
X106400000Y-106680000D01*
X142600000Y-119500000D02*
X148000000Y-119500000D01*
X148000000Y-122400000D01*
X142600000Y-122400000D01*
X142600000Y-119500000D01*
D11*
X145276041Y-121467885D02*
X145237945Y-121429790D01*
X145237945Y-121429790D02*
X145161755Y-121391695D01*
X145161755Y-121391695D02*
X144971279Y-121391695D01*
X144971279Y-121391695D02*
X144895088Y-121429790D01*
X144895088Y-121429790D02*
X144856993Y-121467885D01*
X144856993Y-121467885D02*
X144818898Y-121544076D01*
X144818898Y-121544076D02*
X144818898Y-121620266D01*
X144818898Y-121620266D02*
X144856993Y-121734552D01*
X144856993Y-121734552D02*
X145314136Y-122191695D01*
X145314136Y-122191695D02*
X144818898Y-122191695D01*
X147358898Y-122191695D02*
X147816041Y-122191695D01*
X147587469Y-122191695D02*
X147587469Y-121391695D01*
X147587469Y-121391695D02*
X147663660Y-121505980D01*
X147663660Y-121505980D02*
X147739850Y-121582171D01*
X147739850Y-121582171D02*
X147816041Y-121620266D01*
D10*
X143000000Y-109400000D02*
X149860000Y-109400000D01*
X149860000Y-119500000D01*
X143000000Y-119500000D01*
X143000000Y-109400000D01*
X155300000Y-114300000D02*
X159500000Y-114300000D01*
X159500000Y-121920000D01*
X155300000Y-121920000D01*
X155300000Y-114300000D01*
X149860000Y-117000000D02*
X154940000Y-117000000D01*
X154940000Y-122300000D01*
X149860000Y-122300000D01*
X149860000Y-117000000D01*
D11*
X144216041Y-118567885D02*
X144177945Y-118529790D01*
X144177945Y-118529790D02*
X144101755Y-118491695D01*
X144101755Y-118491695D02*
X143911279Y-118491695D01*
X143911279Y-118491695D02*
X143835088Y-118529790D01*
X143835088Y-118529790D02*
X143796993Y-118567885D01*
X143796993Y-118567885D02*
X143758898Y-118644076D01*
X143758898Y-118644076D02*
X143758898Y-118720266D01*
X143758898Y-118720266D02*
X143796993Y-118834552D01*
X143796993Y-118834552D02*
X144254136Y-119291695D01*
X144254136Y-119291695D02*
X143758898Y-119291695D01*
X148758898Y-119291695D02*
X149216041Y-119291695D01*
X148987469Y-119291695D02*
X148987469Y-118491695D01*
X148987469Y-118491695D02*
X149063660Y-118605980D01*
X149063660Y-118605980D02*
X149139850Y-118682171D01*
X149139850Y-118682171D02*
X149216041Y-118720266D01*
X144216041Y-109867885D02*
X144177945Y-109829790D01*
X144177945Y-109829790D02*
X144101755Y-109791695D01*
X144101755Y-109791695D02*
X143911279Y-109791695D01*
X143911279Y-109791695D02*
X143835088Y-109829790D01*
X143835088Y-109829790D02*
X143796993Y-109867885D01*
X143796993Y-109867885D02*
X143758898Y-109944076D01*
X143758898Y-109944076D02*
X143758898Y-110020266D01*
X143758898Y-110020266D02*
X143796993Y-110134552D01*
X143796993Y-110134552D02*
X144254136Y-110591695D01*
X144254136Y-110591695D02*
X143758898Y-110591695D01*
X148758898Y-110591695D02*
X149216041Y-110591695D01*
X148987469Y-110591695D02*
X148987469Y-109791695D01*
X148987469Y-109791695D02*
X149063660Y-109905980D01*
X149063660Y-109905980D02*
X149139850Y-109982171D01*
X149139850Y-109982171D02*
X149216041Y-110020266D01*
X150895088Y-116198361D02*
X150895088Y-116731695D01*
X151085564Y-115893600D02*
X151276041Y-116465028D01*
X151276041Y-116465028D02*
X150780802Y-116465028D01*
X151276041Y-112727885D02*
X151237945Y-112689790D01*
X151237945Y-112689790D02*
X151161755Y-112651695D01*
X151161755Y-112651695D02*
X150971279Y-112651695D01*
X150971279Y-112651695D02*
X150895088Y-112689790D01*
X150895088Y-112689790D02*
X150856993Y-112727885D01*
X150856993Y-112727885D02*
X150818898Y-112804076D01*
X150818898Y-112804076D02*
X150818898Y-112880266D01*
X150818898Y-112880266D02*
X150856993Y-112994552D01*
X150856993Y-112994552D02*
X151314136Y-113451695D01*
X151314136Y-113451695D02*
X150818898Y-113451695D01*
X155354136Y-115931695D02*
X154858898Y-115931695D01*
X154858898Y-115931695D02*
X155125564Y-116236457D01*
X155125564Y-116236457D02*
X155011279Y-116236457D01*
X155011279Y-116236457D02*
X154935088Y-116274552D01*
X154935088Y-116274552D02*
X154896993Y-116312647D01*
X154896993Y-116312647D02*
X154858898Y-116388838D01*
X154858898Y-116388838D02*
X154858898Y-116579314D01*
X154858898Y-116579314D02*
X154896993Y-116655504D01*
X154896993Y-116655504D02*
X154935088Y-116693600D01*
X154935088Y-116693600D02*
X155011279Y-116731695D01*
X155011279Y-116731695D02*
X155239850Y-116731695D01*
X155239850Y-116731695D02*
X155316041Y-116693600D01*
X155316041Y-116693600D02*
X155354136Y-116655504D01*
X154858898Y-113451695D02*
X155316041Y-113451695D01*
X155087469Y-113451695D02*
X155087469Y-112651695D01*
X155087469Y-112651695D02*
X155163660Y-112765980D01*
X155163660Y-112765980D02*
X155239850Y-112842171D01*
X155239850Y-112842171D02*
X155316041Y-112880266D01*
X152916041Y-121407885D02*
X152877945Y-121369790D01*
X152877945Y-121369790D02*
X152801755Y-121331695D01*
X152801755Y-121331695D02*
X152611279Y-121331695D01*
X152611279Y-121331695D02*
X152535088Y-121369790D01*
X152535088Y-121369790D02*
X152496993Y-121407885D01*
X152496993Y-121407885D02*
X152458898Y-121484076D01*
X152458898Y-121484076D02*
X152458898Y-121560266D01*
X152458898Y-121560266D02*
X152496993Y-121674552D01*
X152496993Y-121674552D02*
X152954136Y-122131695D01*
X152954136Y-122131695D02*
X152458898Y-122131695D01*
X149918898Y-122131695D02*
X150376041Y-122131695D01*
X150147469Y-122131695D02*
X150147469Y-121331695D01*
X150147469Y-121331695D02*
X150223660Y-121445980D01*
X150223660Y-121445980D02*
X150299850Y-121522171D01*
X150299850Y-121522171D02*
X150376041Y-121560266D01*
X152954136Y-118791695D02*
X152458898Y-118791695D01*
X152458898Y-118791695D02*
X152725564Y-119096457D01*
X152725564Y-119096457D02*
X152611279Y-119096457D01*
X152611279Y-119096457D02*
X152535088Y-119134552D01*
X152535088Y-119134552D02*
X152496993Y-119172647D01*
X152496993Y-119172647D02*
X152458898Y-119248838D01*
X152458898Y-119248838D02*
X152458898Y-119439314D01*
X152458898Y-119439314D02*
X152496993Y-119515504D01*
X152496993Y-119515504D02*
X152535088Y-119553600D01*
X152535088Y-119553600D02*
X152611279Y-119591695D01*
X152611279Y-119591695D02*
X152839850Y-119591695D01*
X152839850Y-119591695D02*
X152916041Y-119553600D01*
X152916041Y-119553600D02*
X152954136Y-119515504D01*
X149995088Y-119058361D02*
X149995088Y-119591695D01*
X150185564Y-118753600D02*
X150376041Y-119325028D01*
X150376041Y-119325028D02*
X149880802Y-119325028D01*
X158954136Y-120311695D02*
X158458898Y-120311695D01*
X158458898Y-120311695D02*
X158725564Y-120616457D01*
X158725564Y-120616457D02*
X158611279Y-120616457D01*
X158611279Y-120616457D02*
X158535088Y-120654552D01*
X158535088Y-120654552D02*
X158496993Y-120692647D01*
X158496993Y-120692647D02*
X158458898Y-120768838D01*
X158458898Y-120768838D02*
X158458898Y-120959314D01*
X158458898Y-120959314D02*
X158496993Y-121035504D01*
X158496993Y-121035504D02*
X158535088Y-121073600D01*
X158535088Y-121073600D02*
X158611279Y-121111695D01*
X158611279Y-121111695D02*
X158839850Y-121111695D01*
X158839850Y-121111695D02*
X158916041Y-121073600D01*
X158916041Y-121073600D02*
X158954136Y-121035504D01*
X158916041Y-117847885D02*
X158877945Y-117809790D01*
X158877945Y-117809790D02*
X158801755Y-117771695D01*
X158801755Y-117771695D02*
X158611279Y-117771695D01*
X158611279Y-117771695D02*
X158535088Y-117809790D01*
X158535088Y-117809790D02*
X158496993Y-117847885D01*
X158496993Y-117847885D02*
X158458898Y-117924076D01*
X158458898Y-117924076D02*
X158458898Y-118000266D01*
X158458898Y-118000266D02*
X158496993Y-118114552D01*
X158496993Y-118114552D02*
X158954136Y-118571695D01*
X158954136Y-118571695D02*
X158458898Y-118571695D01*
X158458898Y-116031695D02*
X158916041Y-116031695D01*
X158687469Y-116031695D02*
X158687469Y-115231695D01*
X158687469Y-115231695D02*
X158763660Y-115345980D01*
X158763660Y-115345980D02*
X158839850Y-115422171D01*
X158839850Y-115422171D02*
X158916041Y-115460266D01*
X158954136Y-107591695D02*
X158458898Y-107591695D01*
X158458898Y-107591695D02*
X158725564Y-107896457D01*
X158725564Y-107896457D02*
X158611279Y-107896457D01*
X158611279Y-107896457D02*
X158535088Y-107934552D01*
X158535088Y-107934552D02*
X158496993Y-107972647D01*
X158496993Y-107972647D02*
X158458898Y-108048838D01*
X158458898Y-108048838D02*
X158458898Y-108239314D01*
X158458898Y-108239314D02*
X158496993Y-108315504D01*
X158496993Y-108315504D02*
X158535088Y-108353600D01*
X158535088Y-108353600D02*
X158611279Y-108391695D01*
X158611279Y-108391695D02*
X158839850Y-108391695D01*
X158839850Y-108391695D02*
X158916041Y-108353600D01*
X158916041Y-108353600D02*
X158954136Y-108315504D01*
X158916041Y-109667885D02*
X158877945Y-109629790D01*
X158877945Y-109629790D02*
X158801755Y-109591695D01*
X158801755Y-109591695D02*
X158611279Y-109591695D01*
X158611279Y-109591695D02*
X158535088Y-109629790D01*
X158535088Y-109629790D02*
X158496993Y-109667885D01*
X158496993Y-109667885D02*
X158458898Y-109744076D01*
X158458898Y-109744076D02*
X158458898Y-109820266D01*
X158458898Y-109820266D02*
X158496993Y-109934552D01*
X158496993Y-109934552D02*
X158954136Y-110391695D01*
X158954136Y-110391695D02*
X158458898Y-110391695D01*
X158458898Y-112391695D02*
X158916041Y-112391695D01*
X158687469Y-112391695D02*
X158687469Y-111591695D01*
X158687469Y-111591695D02*
X158763660Y-111705980D01*
X158763660Y-111705980D02*
X158839850Y-111782171D01*
X158839850Y-111782171D02*
X158916041Y-111820266D01*
X106816992Y-113851695D02*
X106969373Y-113851695D01*
X106969373Y-113851695D02*
X107045564Y-113889790D01*
X107045564Y-113889790D02*
X107083659Y-113927885D01*
X107083659Y-113927885D02*
X107159849Y-114042171D01*
X107159849Y-114042171D02*
X107197945Y-114194552D01*
X107197945Y-114194552D02*
X107197945Y-114499314D01*
X107197945Y-114499314D02*
X107159849Y-114575504D01*
X107159849Y-114575504D02*
X107121754Y-114613600D01*
X107121754Y-114613600D02*
X107045564Y-114651695D01*
X107045564Y-114651695D02*
X106893183Y-114651695D01*
X106893183Y-114651695D02*
X106816992Y-114613600D01*
X106816992Y-114613600D02*
X106778897Y-114575504D01*
X106778897Y-114575504D02*
X106740802Y-114499314D01*
X106740802Y-114499314D02*
X106740802Y-114308838D01*
X106740802Y-114308838D02*
X106778897Y-114232647D01*
X106778897Y-114232647D02*
X106816992Y-114194552D01*
X106816992Y-114194552D02*
X106893183Y-114156457D01*
X106893183Y-114156457D02*
X107045564Y-114156457D01*
X107045564Y-114156457D02*
X107121754Y-114194552D01*
X107121754Y-114194552D02*
X107159849Y-114232647D01*
X107159849Y-114232647D02*
X107197945Y-114308838D01*
X109318897Y-113851695D02*
X109699849Y-113851695D01*
X109699849Y-113851695D02*
X109737945Y-114232647D01*
X109737945Y-114232647D02*
X109699849Y-114194552D01*
X109699849Y-114194552D02*
X109623659Y-114156457D01*
X109623659Y-114156457D02*
X109433183Y-114156457D01*
X109433183Y-114156457D02*
X109356992Y-114194552D01*
X109356992Y-114194552D02*
X109318897Y-114232647D01*
X109318897Y-114232647D02*
X109280802Y-114308838D01*
X109280802Y-114308838D02*
X109280802Y-114499314D01*
X109280802Y-114499314D02*
X109318897Y-114575504D01*
X109318897Y-114575504D02*
X109356992Y-114613600D01*
X109356992Y-114613600D02*
X109433183Y-114651695D01*
X109433183Y-114651695D02*
X109623659Y-114651695D01*
X109623659Y-114651695D02*
X109699849Y-114613600D01*
X109699849Y-114613600D02*
X109737945Y-114575504D01*
X106816992Y-111578361D02*
X106816992Y-112111695D01*
X107007468Y-111273600D02*
X107197945Y-111845028D01*
X107197945Y-111845028D02*
X106702706Y-111845028D01*
X109776040Y-111311695D02*
X109280802Y-111311695D01*
X109280802Y-111311695D02*
X109547468Y-111616457D01*
X109547468Y-111616457D02*
X109433183Y-111616457D01*
X109433183Y-111616457D02*
X109356992Y-111654552D01*
X109356992Y-111654552D02*
X109318897Y-111692647D01*
X109318897Y-111692647D02*
X109280802Y-111768838D01*
X109280802Y-111768838D02*
X109280802Y-111959314D01*
X109280802Y-111959314D02*
X109318897Y-112035504D01*
X109318897Y-112035504D02*
X109356992Y-112073600D01*
X109356992Y-112073600D02*
X109433183Y-112111695D01*
X109433183Y-112111695D02*
X109661754Y-112111695D01*
X109661754Y-112111695D02*
X109737945Y-112073600D01*
X109737945Y-112073600D02*
X109776040Y-112035504D01*
X107197945Y-108847885D02*
X107159849Y-108809790D01*
X107159849Y-108809790D02*
X107083659Y-108771695D01*
X107083659Y-108771695D02*
X106893183Y-108771695D01*
X106893183Y-108771695D02*
X106816992Y-108809790D01*
X106816992Y-108809790D02*
X106778897Y-108847885D01*
X106778897Y-108847885D02*
X106740802Y-108924076D01*
X106740802Y-108924076D02*
X106740802Y-109000266D01*
X106740802Y-109000266D02*
X106778897Y-109114552D01*
X106778897Y-109114552D02*
X107236040Y-109571695D01*
X107236040Y-109571695D02*
X106740802Y-109571695D01*
X109280802Y-109571695D02*
X109737945Y-109571695D01*
X109509373Y-109571695D02*
X109509373Y-108771695D01*
X109509373Y-108771695D02*
X109585564Y-108885980D01*
X109585564Y-108885980D02*
X109661754Y-108962171D01*
X109661754Y-108962171D02*
X109737945Y-109000266D01*
X106816992Y-121471695D02*
X106969373Y-121471695D01*
X106969373Y-121471695D02*
X107045564Y-121509790D01*
X107045564Y-121509790D02*
X107083659Y-121547885D01*
X107083659Y-121547885D02*
X107159849Y-121662171D01*
X107159849Y-121662171D02*
X107197945Y-121814552D01*
X107197945Y-121814552D02*
X107197945Y-122119314D01*
X107197945Y-122119314D02*
X107159849Y-122195504D01*
X107159849Y-122195504D02*
X107121754Y-122233600D01*
X107121754Y-122233600D02*
X107045564Y-122271695D01*
X107045564Y-122271695D02*
X106893183Y-122271695D01*
X106893183Y-122271695D02*
X106816992Y-122233600D01*
X106816992Y-122233600D02*
X106778897Y-122195504D01*
X106778897Y-122195504D02*
X106740802Y-122119314D01*
X106740802Y-122119314D02*
X106740802Y-121928838D01*
X106740802Y-121928838D02*
X106778897Y-121852647D01*
X106778897Y-121852647D02*
X106816992Y-121814552D01*
X106816992Y-121814552D02*
X106893183Y-121776457D01*
X106893183Y-121776457D02*
X107045564Y-121776457D01*
X107045564Y-121776457D02*
X107121754Y-121814552D01*
X107121754Y-121814552D02*
X107159849Y-121852647D01*
X107159849Y-121852647D02*
X107197945Y-121928838D01*
X109318897Y-121471695D02*
X109699849Y-121471695D01*
X109699849Y-121471695D02*
X109737945Y-121852647D01*
X109737945Y-121852647D02*
X109699849Y-121814552D01*
X109699849Y-121814552D02*
X109623659Y-121776457D01*
X109623659Y-121776457D02*
X109433183Y-121776457D01*
X109433183Y-121776457D02*
X109356992Y-121814552D01*
X109356992Y-121814552D02*
X109318897Y-121852647D01*
X109318897Y-121852647D02*
X109280802Y-121928838D01*
X109280802Y-121928838D02*
X109280802Y-122119314D01*
X109280802Y-122119314D02*
X109318897Y-122195504D01*
X109318897Y-122195504D02*
X109356992Y-122233600D01*
X109356992Y-122233600D02*
X109433183Y-122271695D01*
X109433183Y-122271695D02*
X109623659Y-122271695D01*
X109623659Y-122271695D02*
X109699849Y-122233600D01*
X109699849Y-122233600D02*
X109737945Y-122195504D01*
X106816992Y-119198361D02*
X106816992Y-119731695D01*
X107007468Y-118893600D02*
X107197945Y-119465028D01*
X107197945Y-119465028D02*
X106702706Y-119465028D01*
X109776040Y-118931695D02*
X109280802Y-118931695D01*
X109280802Y-118931695D02*
X109547468Y-119236457D01*
X109547468Y-119236457D02*
X109433183Y-119236457D01*
X109433183Y-119236457D02*
X109356992Y-119274552D01*
X109356992Y-119274552D02*
X109318897Y-119312647D01*
X109318897Y-119312647D02*
X109280802Y-119388838D01*
X109280802Y-119388838D02*
X109280802Y-119579314D01*
X109280802Y-119579314D02*
X109318897Y-119655504D01*
X109318897Y-119655504D02*
X109356992Y-119693600D01*
X109356992Y-119693600D02*
X109433183Y-119731695D01*
X109433183Y-119731695D02*
X109661754Y-119731695D01*
X109661754Y-119731695D02*
X109737945Y-119693600D01*
X109737945Y-119693600D02*
X109776040Y-119655504D01*
X107197945Y-116467885D02*
X107159849Y-116429790D01*
X107159849Y-116429790D02*
X107083659Y-116391695D01*
X107083659Y-116391695D02*
X106893183Y-116391695D01*
X106893183Y-116391695D02*
X106816992Y-116429790D01*
X106816992Y-116429790D02*
X106778897Y-116467885D01*
X106778897Y-116467885D02*
X106740802Y-116544076D01*
X106740802Y-116544076D02*
X106740802Y-116620266D01*
X106740802Y-116620266D02*
X106778897Y-116734552D01*
X106778897Y-116734552D02*
X107236040Y-117191695D01*
X107236040Y-117191695D02*
X106740802Y-117191695D01*
X109280802Y-117191695D02*
X109737945Y-117191695D01*
X109509373Y-117191695D02*
X109509373Y-116391695D01*
X109509373Y-116391695D02*
X109585564Y-116505980D01*
X109585564Y-116505980D02*
X109661754Y-116582171D01*
X109661754Y-116582171D02*
X109737945Y-116620266D01*
D12*
X98928819Y-120006666D02*
X99643104Y-120006666D01*
X99643104Y-120006666D02*
X99785961Y-119959047D01*
X99785961Y-119959047D02*
X99881200Y-119863809D01*
X99881200Y-119863809D02*
X99928819Y-119720952D01*
X99928819Y-119720952D02*
X99928819Y-119625714D01*
X99928819Y-121006666D02*
X99928819Y-120435238D01*
X99928819Y-120720952D02*
X98928819Y-120720952D01*
X98928819Y-120720952D02*
X99071676Y-120625714D01*
X99071676Y-120625714D02*
X99166914Y-120530476D01*
X99166914Y-120530476D02*
X99214533Y-120435238D01*
X154438094Y-110554819D02*
X154438094Y-109554819D01*
X154438094Y-109554819D02*
X154199999Y-109554819D01*
X154199999Y-109554819D02*
X154057142Y-109602438D01*
X154057142Y-109602438D02*
X153961904Y-109697676D01*
X153961904Y-109697676D02*
X153914285Y-109792914D01*
X153914285Y-109792914D02*
X153866666Y-109983390D01*
X153866666Y-109983390D02*
X153866666Y-110126247D01*
X153866666Y-110126247D02*
X153914285Y-110316723D01*
X153914285Y-110316723D02*
X153961904Y-110411961D01*
X153961904Y-110411961D02*
X154057142Y-110507200D01*
X154057142Y-110507200D02*
X154199999Y-110554819D01*
X154199999Y-110554819D02*
X154438094Y-110554819D01*
X152914285Y-110554819D02*
X153485713Y-110554819D01*
X153199999Y-110554819D02*
X153199999Y-109554819D01*
X153199999Y-109554819D02*
X153295237Y-109697676D01*
X153295237Y-109697676D02*
X153390475Y-109792914D01*
X153390475Y-109792914D02*
X153485713Y-109840533D01*
X98928819Y-105656666D02*
X99643104Y-105656666D01*
X99643104Y-105656666D02*
X99785961Y-105609047D01*
X99785961Y-105609047D02*
X99881200Y-105513809D01*
X99881200Y-105513809D02*
X99928819Y-105370952D01*
X99928819Y-105370952D02*
X99928819Y-105275714D01*
X99024057Y-106085238D02*
X98976438Y-106132857D01*
X98976438Y-106132857D02*
X98928819Y-106228095D01*
X98928819Y-106228095D02*
X98928819Y-106466190D01*
X98928819Y-106466190D02*
X98976438Y-106561428D01*
X98976438Y-106561428D02*
X99024057Y-106609047D01*
X99024057Y-106609047D02*
X99119295Y-106656666D01*
X99119295Y-106656666D02*
X99214533Y-106656666D01*
X99214533Y-106656666D02*
X99357390Y-106609047D01*
X99357390Y-106609047D02*
X99928819Y-106037619D01*
X99928819Y-106037619D02*
X99928819Y-106656666D01*
X147833332Y-110407200D02*
X147690475Y-110454819D01*
X147690475Y-110454819D02*
X147452380Y-110454819D01*
X147452380Y-110454819D02*
X147357142Y-110407200D01*
X147357142Y-110407200D02*
X147309523Y-110359580D01*
X147309523Y-110359580D02*
X147261904Y-110264342D01*
X147261904Y-110264342D02*
X147261904Y-110169104D01*
X147261904Y-110169104D02*
X147309523Y-110073866D01*
X147309523Y-110073866D02*
X147357142Y-110026247D01*
X147357142Y-110026247D02*
X147452380Y-109978628D01*
X147452380Y-109978628D02*
X147642856Y-109931009D01*
X147642856Y-109931009D02*
X147738094Y-109883390D01*
X147738094Y-109883390D02*
X147785713Y-109835771D01*
X147785713Y-109835771D02*
X147833332Y-109740533D01*
X147833332Y-109740533D02*
X147833332Y-109645295D01*
X147833332Y-109645295D02*
X147785713Y-109550057D01*
X147785713Y-109550057D02*
X147738094Y-109502438D01*
X147738094Y-109502438D02*
X147642856Y-109454819D01*
X147642856Y-109454819D02*
X147404761Y-109454819D01*
X147404761Y-109454819D02*
X147261904Y-109502438D01*
X146928570Y-109454819D02*
X146690475Y-110454819D01*
X146690475Y-110454819D02*
X146499999Y-109740533D01*
X146499999Y-109740533D02*
X146309523Y-110454819D01*
X146309523Y-110454819D02*
X146071428Y-109454819D01*
X145738094Y-109550057D02*
X145690475Y-109502438D01*
X145690475Y-109502438D02*
X145595237Y-109454819D01*
X145595237Y-109454819D02*
X145357142Y-109454819D01*
X145357142Y-109454819D02*
X145261904Y-109502438D01*
X145261904Y-109502438D02*
X145214285Y-109550057D01*
X145214285Y-109550057D02*
X145166666Y-109645295D01*
X145166666Y-109645295D02*
X145166666Y-109740533D01*
X145166666Y-109740533D02*
X145214285Y-109883390D01*
X145214285Y-109883390D02*
X145785713Y-110454819D01*
X145785713Y-110454819D02*
X145166666Y-110454819D01*
%TO.C,REF\u002A\u002A261*%
D10*
X141840000Y-120030000D02*
X141764929Y-119983652D01*
X141601368Y-119917569D01*
X141428203Y-119883909D01*
X141251797Y-119883909D01*
X141078632Y-119917569D01*
X140915071Y-119983652D01*
X140840000Y-120030000D01*
X140840000Y-118990000D01*
X140915072Y-119036348D01*
X141078632Y-119102430D01*
X141251797Y-119136090D01*
X141428203Y-119136090D01*
X141601368Y-119102430D01*
X141764928Y-119036348D01*
X141840000Y-118990000D01*
X141840000Y-120030000D01*
G36*
X141840000Y-120030000D02*
G01*
X141764929Y-119983652D01*
X141601368Y-119917569D01*
X141428203Y-119883909D01*
X141251797Y-119883909D01*
X141078632Y-119917569D01*
X140915071Y-119983652D01*
X140840000Y-120030000D01*
X140840000Y-118990000D01*
X140915072Y-119036348D01*
X141078632Y-119102430D01*
X141251797Y-119136090D01*
X141428203Y-119136090D01*
X141601368Y-119102430D01*
X141764928Y-119036348D01*
X141840000Y-118990000D01*
X141840000Y-120030000D01*
G37*
%TO.C,REF\u002A\u002A260*%
X139300000Y-120030000D02*
X139224929Y-119983652D01*
X139061368Y-119917569D01*
X138888203Y-119883909D01*
X138711797Y-119883909D01*
X138538632Y-119917569D01*
X138375071Y-119983652D01*
X138300000Y-120030000D01*
X138300000Y-118990000D01*
X138375072Y-119036348D01*
X138538632Y-119102430D01*
X138711797Y-119136090D01*
X138888203Y-119136090D01*
X139061368Y-119102430D01*
X139224928Y-119036348D01*
X139300000Y-118990000D01*
X139300000Y-120030000D01*
G36*
X139300000Y-120030000D02*
G01*
X139224929Y-119983652D01*
X139061368Y-119917569D01*
X138888203Y-119883909D01*
X138711797Y-119883909D01*
X138538632Y-119917569D01*
X138375071Y-119983652D01*
X138300000Y-120030000D01*
X138300000Y-118990000D01*
X138375072Y-119036348D01*
X138538632Y-119102430D01*
X138711797Y-119136090D01*
X138888203Y-119136090D01*
X139061368Y-119102430D01*
X139224928Y-119036348D01*
X139300000Y-118990000D01*
X139300000Y-120030000D01*
G37*
%TO.C,REF\u002A\u002A259*%
X136760000Y-120030000D02*
X136684929Y-119983652D01*
X136521368Y-119917569D01*
X136348203Y-119883909D01*
X136171797Y-119883909D01*
X135998632Y-119917569D01*
X135835071Y-119983652D01*
X135760000Y-120030000D01*
X135760000Y-118990000D01*
X135835072Y-119036348D01*
X135998632Y-119102430D01*
X136171797Y-119136090D01*
X136348203Y-119136090D01*
X136521368Y-119102430D01*
X136684928Y-119036348D01*
X136760000Y-118990000D01*
X136760000Y-120030000D01*
G36*
X136760000Y-120030000D02*
G01*
X136684929Y-119983652D01*
X136521368Y-119917569D01*
X136348203Y-119883909D01*
X136171797Y-119883909D01*
X135998632Y-119917569D01*
X135835071Y-119983652D01*
X135760000Y-120030000D01*
X135760000Y-118990000D01*
X135835072Y-119036348D01*
X135998632Y-119102430D01*
X136171797Y-119136090D01*
X136348203Y-119136090D01*
X136521368Y-119102430D01*
X136684928Y-119036348D01*
X136760000Y-118990000D01*
X136760000Y-120030000D01*
G37*
%TO.C,REF\u002A\u002A258*%
X134220000Y-120030000D02*
X134144929Y-119983652D01*
X133981368Y-119917569D01*
X133808203Y-119883909D01*
X133631797Y-119883909D01*
X133458632Y-119917569D01*
X133295071Y-119983652D01*
X133220000Y-120030000D01*
X133220000Y-118990000D01*
X133295072Y-119036348D01*
X133458632Y-119102430D01*
X133631797Y-119136090D01*
X133808203Y-119136090D01*
X133981368Y-119102430D01*
X134144928Y-119036348D01*
X134220000Y-118990000D01*
X134220000Y-120030000D01*
G36*
X134220000Y-120030000D02*
G01*
X134144929Y-119983652D01*
X133981368Y-119917569D01*
X133808203Y-119883909D01*
X133631797Y-119883909D01*
X133458632Y-119917569D01*
X133295071Y-119983652D01*
X133220000Y-120030000D01*
X133220000Y-118990000D01*
X133295072Y-119036348D01*
X133458632Y-119102430D01*
X133631797Y-119136090D01*
X133808203Y-119136090D01*
X133981368Y-119102430D01*
X134144928Y-119036348D01*
X134220000Y-118990000D01*
X134220000Y-120030000D01*
G37*
%TO.C,REF\u002A\u002A257*%
X131680000Y-120030000D02*
X131604929Y-119983652D01*
X131441368Y-119917569D01*
X131268203Y-119883909D01*
X131091797Y-119883909D01*
X130918632Y-119917569D01*
X130755071Y-119983652D01*
X130680000Y-120030000D01*
X130680000Y-118990000D01*
X130755072Y-119036348D01*
X130918632Y-119102430D01*
X131091797Y-119136090D01*
X131268203Y-119136090D01*
X131441368Y-119102430D01*
X131604928Y-119036348D01*
X131680000Y-118990000D01*
X131680000Y-120030000D01*
G36*
X131680000Y-120030000D02*
G01*
X131604929Y-119983652D01*
X131441368Y-119917569D01*
X131268203Y-119883909D01*
X131091797Y-119883909D01*
X130918632Y-119917569D01*
X130755071Y-119983652D01*
X130680000Y-120030000D01*
X130680000Y-118990000D01*
X130755072Y-119036348D01*
X130918632Y-119102430D01*
X131091797Y-119136090D01*
X131268203Y-119136090D01*
X131441368Y-119102430D01*
X131604928Y-119036348D01*
X131680000Y-118990000D01*
X131680000Y-120030000D01*
G37*
%TO.C,REF\u002A\u002A256*%
X129140000Y-120030000D02*
X129064929Y-119983652D01*
X128901368Y-119917569D01*
X128728203Y-119883909D01*
X128551797Y-119883909D01*
X128378632Y-119917569D01*
X128215071Y-119983652D01*
X128140000Y-120030000D01*
X128140000Y-118990000D01*
X128215072Y-119036348D01*
X128378632Y-119102430D01*
X128551797Y-119136090D01*
X128728203Y-119136090D01*
X128901368Y-119102430D01*
X129064928Y-119036348D01*
X129140000Y-118990000D01*
X129140000Y-120030000D01*
G36*
X129140000Y-120030000D02*
G01*
X129064929Y-119983652D01*
X128901368Y-119917569D01*
X128728203Y-119883909D01*
X128551797Y-119883909D01*
X128378632Y-119917569D01*
X128215071Y-119983652D01*
X128140000Y-120030000D01*
X128140000Y-118990000D01*
X128215072Y-119036348D01*
X128378632Y-119102430D01*
X128551797Y-119136090D01*
X128728203Y-119136090D01*
X128901368Y-119102430D01*
X129064928Y-119036348D01*
X129140000Y-118990000D01*
X129140000Y-120030000D01*
G37*
%TO.C,REF\u002A\u002A255*%
X126600000Y-120030000D02*
X126524929Y-119983652D01*
X126361368Y-119917569D01*
X126188203Y-119883909D01*
X126011797Y-119883909D01*
X125838632Y-119917569D01*
X125675071Y-119983652D01*
X125600000Y-120030000D01*
X125600000Y-118990000D01*
X125675072Y-119036348D01*
X125838632Y-119102430D01*
X126011797Y-119136090D01*
X126188203Y-119136090D01*
X126361368Y-119102430D01*
X126524928Y-119036348D01*
X126600000Y-118990000D01*
X126600000Y-120030000D01*
G36*
X126600000Y-120030000D02*
G01*
X126524929Y-119983652D01*
X126361368Y-119917569D01*
X126188203Y-119883909D01*
X126011797Y-119883909D01*
X125838632Y-119917569D01*
X125675071Y-119983652D01*
X125600000Y-120030000D01*
X125600000Y-118990000D01*
X125675072Y-119036348D01*
X125838632Y-119102430D01*
X126011797Y-119136090D01*
X126188203Y-119136090D01*
X126361368Y-119102430D01*
X126524928Y-119036348D01*
X126600000Y-118990000D01*
X126600000Y-120030000D01*
G37*
%TO.C,REF\u002A\u002A254*%
X124060000Y-120030000D02*
X123984929Y-119983652D01*
X123821368Y-119917569D01*
X123648203Y-119883909D01*
X123471797Y-119883909D01*
X123298632Y-119917569D01*
X123135071Y-119983652D01*
X123060000Y-120030000D01*
X123060000Y-118990000D01*
X123135072Y-119036348D01*
X123298632Y-119102430D01*
X123471797Y-119136090D01*
X123648203Y-119136090D01*
X123821368Y-119102430D01*
X123984928Y-119036348D01*
X124060000Y-118990000D01*
X124060000Y-120030000D01*
G36*
X124060000Y-120030000D02*
G01*
X123984929Y-119983652D01*
X123821368Y-119917569D01*
X123648203Y-119883909D01*
X123471797Y-119883909D01*
X123298632Y-119917569D01*
X123135071Y-119983652D01*
X123060000Y-120030000D01*
X123060000Y-118990000D01*
X123135072Y-119036348D01*
X123298632Y-119102430D01*
X123471797Y-119136090D01*
X123648203Y-119136090D01*
X123821368Y-119102430D01*
X123984928Y-119036348D01*
X124060000Y-118990000D01*
X124060000Y-120030000D01*
G37*
%TO.C,REF\u002A\u002A253*%
X121520000Y-120030000D02*
X121444929Y-119983652D01*
X121281368Y-119917569D01*
X121108203Y-119883909D01*
X120931797Y-119883909D01*
X120758632Y-119917569D01*
X120595071Y-119983652D01*
X120520000Y-120030000D01*
X120520000Y-118990000D01*
X120595072Y-119036348D01*
X120758632Y-119102430D01*
X120931797Y-119136090D01*
X121108203Y-119136090D01*
X121281368Y-119102430D01*
X121444928Y-119036348D01*
X121520000Y-118990000D01*
X121520000Y-120030000D01*
G36*
X121520000Y-120030000D02*
G01*
X121444929Y-119983652D01*
X121281368Y-119917569D01*
X121108203Y-119883909D01*
X120931797Y-119883909D01*
X120758632Y-119917569D01*
X120595071Y-119983652D01*
X120520000Y-120030000D01*
X120520000Y-118990000D01*
X120595072Y-119036348D01*
X120758632Y-119102430D01*
X120931797Y-119136090D01*
X121108203Y-119136090D01*
X121281368Y-119102430D01*
X121444928Y-119036348D01*
X121520000Y-118990000D01*
X121520000Y-120030000D01*
G37*
%TO.C,REF\u002A\u002A252*%
X118980000Y-120030000D02*
X118904929Y-119983652D01*
X118741368Y-119917569D01*
X118568203Y-119883909D01*
X118391797Y-119883909D01*
X118218632Y-119917569D01*
X118055071Y-119983652D01*
X117980000Y-120030000D01*
X117980000Y-118990000D01*
X118055072Y-119036348D01*
X118218632Y-119102430D01*
X118391797Y-119136090D01*
X118568203Y-119136090D01*
X118741368Y-119102430D01*
X118904928Y-119036348D01*
X118980000Y-118990000D01*
X118980000Y-120030000D01*
G36*
X118980000Y-120030000D02*
G01*
X118904929Y-119983652D01*
X118741368Y-119917569D01*
X118568203Y-119883909D01*
X118391797Y-119883909D01*
X118218632Y-119917569D01*
X118055071Y-119983652D01*
X117980000Y-120030000D01*
X117980000Y-118990000D01*
X118055072Y-119036348D01*
X118218632Y-119102430D01*
X118391797Y-119136090D01*
X118568203Y-119136090D01*
X118741368Y-119102430D01*
X118904928Y-119036348D01*
X118980000Y-118990000D01*
X118980000Y-120030000D01*
G37*
%TO.C,REF\u002A\u002A251*%
X116440000Y-120030000D02*
X116364929Y-119983652D01*
X116201368Y-119917569D01*
X116028203Y-119883909D01*
X115851797Y-119883909D01*
X115678632Y-119917569D01*
X115515071Y-119983652D01*
X115440000Y-120030000D01*
X115440000Y-118990000D01*
X115515072Y-119036348D01*
X115678632Y-119102430D01*
X115851797Y-119136090D01*
X116028203Y-119136090D01*
X116201368Y-119102430D01*
X116364928Y-119036348D01*
X116440000Y-118990000D01*
X116440000Y-120030000D01*
G36*
X116440000Y-120030000D02*
G01*
X116364929Y-119983652D01*
X116201368Y-119917569D01*
X116028203Y-119883909D01*
X115851797Y-119883909D01*
X115678632Y-119917569D01*
X115515071Y-119983652D01*
X115440000Y-120030000D01*
X115440000Y-118990000D01*
X115515072Y-119036348D01*
X115678632Y-119102430D01*
X115851797Y-119136090D01*
X116028203Y-119136090D01*
X116201368Y-119102430D01*
X116364928Y-119036348D01*
X116440000Y-118990000D01*
X116440000Y-120030000D01*
G37*
%TO.C,REF\u002A\u002A250*%
X113900000Y-120030000D02*
X113824929Y-119983652D01*
X113661368Y-119917569D01*
X113488203Y-119883909D01*
X113311797Y-119883909D01*
X113138632Y-119917569D01*
X112975071Y-119983652D01*
X112900000Y-120030000D01*
X112900000Y-118990000D01*
X112975072Y-119036348D01*
X113138632Y-119102430D01*
X113311797Y-119136090D01*
X113488203Y-119136090D01*
X113661368Y-119102430D01*
X113824928Y-119036348D01*
X113900000Y-118990000D01*
X113900000Y-120030000D01*
G36*
X113900000Y-120030000D02*
G01*
X113824929Y-119983652D01*
X113661368Y-119917569D01*
X113488203Y-119883909D01*
X113311797Y-119883909D01*
X113138632Y-119917569D01*
X112975071Y-119983652D01*
X112900000Y-120030000D01*
X112900000Y-118990000D01*
X112975072Y-119036348D01*
X113138632Y-119102430D01*
X113311797Y-119136090D01*
X113488203Y-119136090D01*
X113661368Y-119102430D01*
X113824928Y-119036348D01*
X113900000Y-118990000D01*
X113900000Y-120030000D01*
G37*
%TO.C,REF\u002A\u002A249*%
X141840000Y-117490000D02*
X141764929Y-117443652D01*
X141601368Y-117377569D01*
X141428203Y-117343909D01*
X141251797Y-117343909D01*
X141078632Y-117377569D01*
X140915071Y-117443652D01*
X140840000Y-117490000D01*
X140840000Y-116450000D01*
X140915072Y-116496348D01*
X141078632Y-116562430D01*
X141251797Y-116596090D01*
X141428203Y-116596090D01*
X141601368Y-116562430D01*
X141764928Y-116496348D01*
X141840000Y-116450000D01*
X141840000Y-117490000D01*
G36*
X141840000Y-117490000D02*
G01*
X141764929Y-117443652D01*
X141601368Y-117377569D01*
X141428203Y-117343909D01*
X141251797Y-117343909D01*
X141078632Y-117377569D01*
X140915071Y-117443652D01*
X140840000Y-117490000D01*
X140840000Y-116450000D01*
X140915072Y-116496348D01*
X141078632Y-116562430D01*
X141251797Y-116596090D01*
X141428203Y-116596090D01*
X141601368Y-116562430D01*
X141764928Y-116496348D01*
X141840000Y-116450000D01*
X141840000Y-117490000D01*
G37*
%TO.C,REF\u002A\u002A248*%
X139300000Y-117490000D02*
X139224929Y-117443652D01*
X139061368Y-117377569D01*
X138888203Y-117343909D01*
X138711797Y-117343909D01*
X138538632Y-117377569D01*
X138375071Y-117443652D01*
X138300000Y-117490000D01*
X138300000Y-116450000D01*
X138375072Y-116496348D01*
X138538632Y-116562430D01*
X138711797Y-116596090D01*
X138888203Y-116596090D01*
X139061368Y-116562430D01*
X139224928Y-116496348D01*
X139300000Y-116450000D01*
X139300000Y-117490000D01*
G36*
X139300000Y-117490000D02*
G01*
X139224929Y-117443652D01*
X139061368Y-117377569D01*
X138888203Y-117343909D01*
X138711797Y-117343909D01*
X138538632Y-117377569D01*
X138375071Y-117443652D01*
X138300000Y-117490000D01*
X138300000Y-116450000D01*
X138375072Y-116496348D01*
X138538632Y-116562430D01*
X138711797Y-116596090D01*
X138888203Y-116596090D01*
X139061368Y-116562430D01*
X139224928Y-116496348D01*
X139300000Y-116450000D01*
X139300000Y-117490000D01*
G37*
%TO.C,REF\u002A\u002A247*%
X136760000Y-117490000D02*
X136684929Y-117443652D01*
X136521368Y-117377569D01*
X136348203Y-117343909D01*
X136171797Y-117343909D01*
X135998632Y-117377569D01*
X135835071Y-117443652D01*
X135760000Y-117490000D01*
X135760000Y-116450000D01*
X135835072Y-116496348D01*
X135998632Y-116562430D01*
X136171797Y-116596090D01*
X136348203Y-116596090D01*
X136521368Y-116562430D01*
X136684928Y-116496348D01*
X136760000Y-116450000D01*
X136760000Y-117490000D01*
G36*
X136760000Y-117490000D02*
G01*
X136684929Y-117443652D01*
X136521368Y-117377569D01*
X136348203Y-117343909D01*
X136171797Y-117343909D01*
X135998632Y-117377569D01*
X135835071Y-117443652D01*
X135760000Y-117490000D01*
X135760000Y-116450000D01*
X135835072Y-116496348D01*
X135998632Y-116562430D01*
X136171797Y-116596090D01*
X136348203Y-116596090D01*
X136521368Y-116562430D01*
X136684928Y-116496348D01*
X136760000Y-116450000D01*
X136760000Y-117490000D01*
G37*
%TO.C,REF\u002A\u002A246*%
X134220000Y-117490000D02*
X134144929Y-117443652D01*
X133981368Y-117377569D01*
X133808203Y-117343909D01*
X133631797Y-117343909D01*
X133458632Y-117377569D01*
X133295071Y-117443652D01*
X133220000Y-117490000D01*
X133220000Y-116450000D01*
X133295072Y-116496348D01*
X133458632Y-116562430D01*
X133631797Y-116596090D01*
X133808203Y-116596090D01*
X133981368Y-116562430D01*
X134144928Y-116496348D01*
X134220000Y-116450000D01*
X134220000Y-117490000D01*
G36*
X134220000Y-117490000D02*
G01*
X134144929Y-117443652D01*
X133981368Y-117377569D01*
X133808203Y-117343909D01*
X133631797Y-117343909D01*
X133458632Y-117377569D01*
X133295071Y-117443652D01*
X133220000Y-117490000D01*
X133220000Y-116450000D01*
X133295072Y-116496348D01*
X133458632Y-116562430D01*
X133631797Y-116596090D01*
X133808203Y-116596090D01*
X133981368Y-116562430D01*
X134144928Y-116496348D01*
X134220000Y-116450000D01*
X134220000Y-117490000D01*
G37*
%TO.C,REF\u002A\u002A245*%
X131680000Y-117490000D02*
X131604929Y-117443652D01*
X131441368Y-117377569D01*
X131268203Y-117343909D01*
X131091797Y-117343909D01*
X130918632Y-117377569D01*
X130755071Y-117443652D01*
X130680000Y-117490000D01*
X130680000Y-116450000D01*
X130755072Y-116496348D01*
X130918632Y-116562430D01*
X131091797Y-116596090D01*
X131268203Y-116596090D01*
X131441368Y-116562430D01*
X131604928Y-116496348D01*
X131680000Y-116450000D01*
X131680000Y-117490000D01*
G36*
X131680000Y-117490000D02*
G01*
X131604929Y-117443652D01*
X131441368Y-117377569D01*
X131268203Y-117343909D01*
X131091797Y-117343909D01*
X130918632Y-117377569D01*
X130755071Y-117443652D01*
X130680000Y-117490000D01*
X130680000Y-116450000D01*
X130755072Y-116496348D01*
X130918632Y-116562430D01*
X131091797Y-116596090D01*
X131268203Y-116596090D01*
X131441368Y-116562430D01*
X131604928Y-116496348D01*
X131680000Y-116450000D01*
X131680000Y-117490000D01*
G37*
%TO.C,REF\u002A\u002A244*%
X129140000Y-117490000D02*
X129064929Y-117443652D01*
X128901368Y-117377569D01*
X128728203Y-117343909D01*
X128551797Y-117343909D01*
X128378632Y-117377569D01*
X128215071Y-117443652D01*
X128140000Y-117490000D01*
X128140000Y-116450000D01*
X128215072Y-116496348D01*
X128378632Y-116562430D01*
X128551797Y-116596090D01*
X128728203Y-116596090D01*
X128901368Y-116562430D01*
X129064928Y-116496348D01*
X129140000Y-116450000D01*
X129140000Y-117490000D01*
G36*
X129140000Y-117490000D02*
G01*
X129064929Y-117443652D01*
X128901368Y-117377569D01*
X128728203Y-117343909D01*
X128551797Y-117343909D01*
X128378632Y-117377569D01*
X128215071Y-117443652D01*
X128140000Y-117490000D01*
X128140000Y-116450000D01*
X128215072Y-116496348D01*
X128378632Y-116562430D01*
X128551797Y-116596090D01*
X128728203Y-116596090D01*
X128901368Y-116562430D01*
X129064928Y-116496348D01*
X129140000Y-116450000D01*
X129140000Y-117490000D01*
G37*
%TO.C,REF\u002A\u002A243*%
X126600000Y-117490000D02*
X126524929Y-117443652D01*
X126361368Y-117377569D01*
X126188203Y-117343909D01*
X126011797Y-117343909D01*
X125838632Y-117377569D01*
X125675071Y-117443652D01*
X125600000Y-117490000D01*
X125600000Y-116450000D01*
X125675072Y-116496348D01*
X125838632Y-116562430D01*
X126011797Y-116596090D01*
X126188203Y-116596090D01*
X126361368Y-116562430D01*
X126524928Y-116496348D01*
X126600000Y-116450000D01*
X126600000Y-117490000D01*
G36*
X126600000Y-117490000D02*
G01*
X126524929Y-117443652D01*
X126361368Y-117377569D01*
X126188203Y-117343909D01*
X126011797Y-117343909D01*
X125838632Y-117377569D01*
X125675071Y-117443652D01*
X125600000Y-117490000D01*
X125600000Y-116450000D01*
X125675072Y-116496348D01*
X125838632Y-116562430D01*
X126011797Y-116596090D01*
X126188203Y-116596090D01*
X126361368Y-116562430D01*
X126524928Y-116496348D01*
X126600000Y-116450000D01*
X126600000Y-117490000D01*
G37*
%TO.C,REF\u002A\u002A242*%
X124060000Y-117490000D02*
X123984929Y-117443652D01*
X123821368Y-117377569D01*
X123648203Y-117343909D01*
X123471797Y-117343909D01*
X123298632Y-117377569D01*
X123135071Y-117443652D01*
X123060000Y-117490000D01*
X123060000Y-116450000D01*
X123135072Y-116496348D01*
X123298632Y-116562430D01*
X123471797Y-116596090D01*
X123648203Y-116596090D01*
X123821368Y-116562430D01*
X123984928Y-116496348D01*
X124060000Y-116450000D01*
X124060000Y-117490000D01*
G36*
X124060000Y-117490000D02*
G01*
X123984929Y-117443652D01*
X123821368Y-117377569D01*
X123648203Y-117343909D01*
X123471797Y-117343909D01*
X123298632Y-117377569D01*
X123135071Y-117443652D01*
X123060000Y-117490000D01*
X123060000Y-116450000D01*
X123135072Y-116496348D01*
X123298632Y-116562430D01*
X123471797Y-116596090D01*
X123648203Y-116596090D01*
X123821368Y-116562430D01*
X123984928Y-116496348D01*
X124060000Y-116450000D01*
X124060000Y-117490000D01*
G37*
%TO.C,REF\u002A\u002A241*%
X121520000Y-117490000D02*
X121444929Y-117443652D01*
X121281368Y-117377569D01*
X121108203Y-117343909D01*
X120931797Y-117343909D01*
X120758632Y-117377569D01*
X120595071Y-117443652D01*
X120520000Y-117490000D01*
X120520000Y-116450000D01*
X120595072Y-116496348D01*
X120758632Y-116562430D01*
X120931797Y-116596090D01*
X121108203Y-116596090D01*
X121281368Y-116562430D01*
X121444928Y-116496348D01*
X121520000Y-116450000D01*
X121520000Y-117490000D01*
G36*
X121520000Y-117490000D02*
G01*
X121444929Y-117443652D01*
X121281368Y-117377569D01*
X121108203Y-117343909D01*
X120931797Y-117343909D01*
X120758632Y-117377569D01*
X120595071Y-117443652D01*
X120520000Y-117490000D01*
X120520000Y-116450000D01*
X120595072Y-116496348D01*
X120758632Y-116562430D01*
X120931797Y-116596090D01*
X121108203Y-116596090D01*
X121281368Y-116562430D01*
X121444928Y-116496348D01*
X121520000Y-116450000D01*
X121520000Y-117490000D01*
G37*
%TO.C,REF\u002A\u002A240*%
X118980000Y-117490000D02*
X118904929Y-117443652D01*
X118741368Y-117377569D01*
X118568203Y-117343909D01*
X118391797Y-117343909D01*
X118218632Y-117377569D01*
X118055071Y-117443652D01*
X117980000Y-117490000D01*
X117980000Y-116450000D01*
X118055072Y-116496348D01*
X118218632Y-116562430D01*
X118391797Y-116596090D01*
X118568203Y-116596090D01*
X118741368Y-116562430D01*
X118904928Y-116496348D01*
X118980000Y-116450000D01*
X118980000Y-117490000D01*
G36*
X118980000Y-117490000D02*
G01*
X118904929Y-117443652D01*
X118741368Y-117377569D01*
X118568203Y-117343909D01*
X118391797Y-117343909D01*
X118218632Y-117377569D01*
X118055071Y-117443652D01*
X117980000Y-117490000D01*
X117980000Y-116450000D01*
X118055072Y-116496348D01*
X118218632Y-116562430D01*
X118391797Y-116596090D01*
X118568203Y-116596090D01*
X118741368Y-116562430D01*
X118904928Y-116496348D01*
X118980000Y-116450000D01*
X118980000Y-117490000D01*
G37*
%TO.C,REF\u002A\u002A239*%
X116440000Y-117490000D02*
X116364929Y-117443652D01*
X116201368Y-117377569D01*
X116028203Y-117343909D01*
X115851797Y-117343909D01*
X115678632Y-117377569D01*
X115515071Y-117443652D01*
X115440000Y-117490000D01*
X115440000Y-116450000D01*
X115515072Y-116496348D01*
X115678632Y-116562430D01*
X115851797Y-116596090D01*
X116028203Y-116596090D01*
X116201368Y-116562430D01*
X116364928Y-116496348D01*
X116440000Y-116450000D01*
X116440000Y-117490000D01*
G36*
X116440000Y-117490000D02*
G01*
X116364929Y-117443652D01*
X116201368Y-117377569D01*
X116028203Y-117343909D01*
X115851797Y-117343909D01*
X115678632Y-117377569D01*
X115515071Y-117443652D01*
X115440000Y-117490000D01*
X115440000Y-116450000D01*
X115515072Y-116496348D01*
X115678632Y-116562430D01*
X115851797Y-116596090D01*
X116028203Y-116596090D01*
X116201368Y-116562430D01*
X116364928Y-116496348D01*
X116440000Y-116450000D01*
X116440000Y-117490000D01*
G37*
%TO.C,REF\u002A\u002A238*%
X113900000Y-117490000D02*
X113824929Y-117443652D01*
X113661368Y-117377569D01*
X113488203Y-117343909D01*
X113311797Y-117343909D01*
X113138632Y-117377569D01*
X112975071Y-117443652D01*
X112900000Y-117490000D01*
X112900000Y-116450000D01*
X112975072Y-116496348D01*
X113138632Y-116562430D01*
X113311797Y-116596090D01*
X113488203Y-116596090D01*
X113661368Y-116562430D01*
X113824928Y-116496348D01*
X113900000Y-116450000D01*
X113900000Y-117490000D01*
G36*
X113900000Y-117490000D02*
G01*
X113824929Y-117443652D01*
X113661368Y-117377569D01*
X113488203Y-117343909D01*
X113311797Y-117343909D01*
X113138632Y-117377569D01*
X112975071Y-117443652D01*
X112900000Y-117490000D01*
X112900000Y-116450000D01*
X112975072Y-116496348D01*
X113138632Y-116562430D01*
X113311797Y-116596090D01*
X113488203Y-116596090D01*
X113661368Y-116562430D01*
X113824928Y-116496348D01*
X113900000Y-116450000D01*
X113900000Y-117490000D01*
G37*
%TO.C,REF\u002A\u002A237*%
X141840000Y-114950000D02*
X141764929Y-114903652D01*
X141601368Y-114837569D01*
X141428203Y-114803909D01*
X141251797Y-114803909D01*
X141078632Y-114837569D01*
X140915071Y-114903652D01*
X140840000Y-114950000D01*
X140840000Y-113910000D01*
X140915072Y-113956348D01*
X141078632Y-114022430D01*
X141251797Y-114056090D01*
X141428203Y-114056090D01*
X141601368Y-114022430D01*
X141764928Y-113956348D01*
X141840000Y-113910000D01*
X141840000Y-114950000D01*
G36*
X141840000Y-114950000D02*
G01*
X141764929Y-114903652D01*
X141601368Y-114837569D01*
X141428203Y-114803909D01*
X141251797Y-114803909D01*
X141078632Y-114837569D01*
X140915071Y-114903652D01*
X140840000Y-114950000D01*
X140840000Y-113910000D01*
X140915072Y-113956348D01*
X141078632Y-114022430D01*
X141251797Y-114056090D01*
X141428203Y-114056090D01*
X141601368Y-114022430D01*
X141764928Y-113956348D01*
X141840000Y-113910000D01*
X141840000Y-114950000D01*
G37*
%TO.C,REF\u002A\u002A236*%
X139300000Y-114950000D02*
X139224929Y-114903652D01*
X139061368Y-114837569D01*
X138888203Y-114803909D01*
X138711797Y-114803909D01*
X138538632Y-114837569D01*
X138375071Y-114903652D01*
X138300000Y-114950000D01*
X138300000Y-113910000D01*
X138375072Y-113956348D01*
X138538632Y-114022430D01*
X138711797Y-114056090D01*
X138888203Y-114056090D01*
X139061368Y-114022430D01*
X139224928Y-113956348D01*
X139300000Y-113910000D01*
X139300000Y-114950000D01*
G36*
X139300000Y-114950000D02*
G01*
X139224929Y-114903652D01*
X139061368Y-114837569D01*
X138888203Y-114803909D01*
X138711797Y-114803909D01*
X138538632Y-114837569D01*
X138375071Y-114903652D01*
X138300000Y-114950000D01*
X138300000Y-113910000D01*
X138375072Y-113956348D01*
X138538632Y-114022430D01*
X138711797Y-114056090D01*
X138888203Y-114056090D01*
X139061368Y-114022430D01*
X139224928Y-113956348D01*
X139300000Y-113910000D01*
X139300000Y-114950000D01*
G37*
%TO.C,REF\u002A\u002A235*%
X136760000Y-114950000D02*
X136684929Y-114903652D01*
X136521368Y-114837569D01*
X136348203Y-114803909D01*
X136171797Y-114803909D01*
X135998632Y-114837569D01*
X135835071Y-114903652D01*
X135760000Y-114950000D01*
X135760000Y-113910000D01*
X135835072Y-113956348D01*
X135998632Y-114022430D01*
X136171797Y-114056090D01*
X136348203Y-114056090D01*
X136521368Y-114022430D01*
X136684928Y-113956348D01*
X136760000Y-113910000D01*
X136760000Y-114950000D01*
G36*
X136760000Y-114950000D02*
G01*
X136684929Y-114903652D01*
X136521368Y-114837569D01*
X136348203Y-114803909D01*
X136171797Y-114803909D01*
X135998632Y-114837569D01*
X135835071Y-114903652D01*
X135760000Y-114950000D01*
X135760000Y-113910000D01*
X135835072Y-113956348D01*
X135998632Y-114022430D01*
X136171797Y-114056090D01*
X136348203Y-114056090D01*
X136521368Y-114022430D01*
X136684928Y-113956348D01*
X136760000Y-113910000D01*
X136760000Y-114950000D01*
G37*
%TO.C,REF\u002A\u002A234*%
X134220000Y-114950000D02*
X134144929Y-114903652D01*
X133981368Y-114837569D01*
X133808203Y-114803909D01*
X133631797Y-114803909D01*
X133458632Y-114837569D01*
X133295071Y-114903652D01*
X133220000Y-114950000D01*
X133220000Y-113910000D01*
X133295072Y-113956348D01*
X133458632Y-114022430D01*
X133631797Y-114056090D01*
X133808203Y-114056090D01*
X133981368Y-114022430D01*
X134144928Y-113956348D01*
X134220000Y-113910000D01*
X134220000Y-114950000D01*
G36*
X134220000Y-114950000D02*
G01*
X134144929Y-114903652D01*
X133981368Y-114837569D01*
X133808203Y-114803909D01*
X133631797Y-114803909D01*
X133458632Y-114837569D01*
X133295071Y-114903652D01*
X133220000Y-114950000D01*
X133220000Y-113910000D01*
X133295072Y-113956348D01*
X133458632Y-114022430D01*
X133631797Y-114056090D01*
X133808203Y-114056090D01*
X133981368Y-114022430D01*
X134144928Y-113956348D01*
X134220000Y-113910000D01*
X134220000Y-114950000D01*
G37*
%TO.C,REF\u002A\u002A233*%
X131680000Y-114950000D02*
X131604929Y-114903652D01*
X131441368Y-114837569D01*
X131268203Y-114803909D01*
X131091797Y-114803909D01*
X130918632Y-114837569D01*
X130755071Y-114903652D01*
X130680000Y-114950000D01*
X130680000Y-113910000D01*
X130755072Y-113956348D01*
X130918632Y-114022430D01*
X131091797Y-114056090D01*
X131268203Y-114056090D01*
X131441368Y-114022430D01*
X131604928Y-113956348D01*
X131680000Y-113910000D01*
X131680000Y-114950000D01*
G36*
X131680000Y-114950000D02*
G01*
X131604929Y-114903652D01*
X131441368Y-114837569D01*
X131268203Y-114803909D01*
X131091797Y-114803909D01*
X130918632Y-114837569D01*
X130755071Y-114903652D01*
X130680000Y-114950000D01*
X130680000Y-113910000D01*
X130755072Y-113956348D01*
X130918632Y-114022430D01*
X131091797Y-114056090D01*
X131268203Y-114056090D01*
X131441368Y-114022430D01*
X131604928Y-113956348D01*
X131680000Y-113910000D01*
X131680000Y-114950000D01*
G37*
%TO.C,REF\u002A\u002A232*%
X129140000Y-114950000D02*
X129064929Y-114903652D01*
X128901368Y-114837569D01*
X128728203Y-114803909D01*
X128551797Y-114803909D01*
X128378632Y-114837569D01*
X128215071Y-114903652D01*
X128140000Y-114950000D01*
X128140000Y-113910000D01*
X128215072Y-113956348D01*
X128378632Y-114022430D01*
X128551797Y-114056090D01*
X128728203Y-114056090D01*
X128901368Y-114022430D01*
X129064928Y-113956348D01*
X129140000Y-113910000D01*
X129140000Y-114950000D01*
G36*
X129140000Y-114950000D02*
G01*
X129064929Y-114903652D01*
X128901368Y-114837569D01*
X128728203Y-114803909D01*
X128551797Y-114803909D01*
X128378632Y-114837569D01*
X128215071Y-114903652D01*
X128140000Y-114950000D01*
X128140000Y-113910000D01*
X128215072Y-113956348D01*
X128378632Y-114022430D01*
X128551797Y-114056090D01*
X128728203Y-114056090D01*
X128901368Y-114022430D01*
X129064928Y-113956348D01*
X129140000Y-113910000D01*
X129140000Y-114950000D01*
G37*
%TO.C,REF\u002A\u002A231*%
X126600000Y-114950000D02*
X126524929Y-114903652D01*
X126361368Y-114837569D01*
X126188203Y-114803909D01*
X126011797Y-114803909D01*
X125838632Y-114837569D01*
X125675071Y-114903652D01*
X125600000Y-114950000D01*
X125600000Y-113910000D01*
X125675072Y-113956348D01*
X125838632Y-114022430D01*
X126011797Y-114056090D01*
X126188203Y-114056090D01*
X126361368Y-114022430D01*
X126524928Y-113956348D01*
X126600000Y-113910000D01*
X126600000Y-114950000D01*
G36*
X126600000Y-114950000D02*
G01*
X126524929Y-114903652D01*
X126361368Y-114837569D01*
X126188203Y-114803909D01*
X126011797Y-114803909D01*
X125838632Y-114837569D01*
X125675071Y-114903652D01*
X125600000Y-114950000D01*
X125600000Y-113910000D01*
X125675072Y-113956348D01*
X125838632Y-114022430D01*
X126011797Y-114056090D01*
X126188203Y-114056090D01*
X126361368Y-114022430D01*
X126524928Y-113956348D01*
X126600000Y-113910000D01*
X126600000Y-114950000D01*
G37*
%TO.C,REF\u002A\u002A230*%
X124060000Y-114950000D02*
X123984929Y-114903652D01*
X123821368Y-114837569D01*
X123648203Y-114803909D01*
X123471797Y-114803909D01*
X123298632Y-114837569D01*
X123135071Y-114903652D01*
X123060000Y-114950000D01*
X123060000Y-113910000D01*
X123135072Y-113956348D01*
X123298632Y-114022430D01*
X123471797Y-114056090D01*
X123648203Y-114056090D01*
X123821368Y-114022430D01*
X123984928Y-113956348D01*
X124060000Y-113910000D01*
X124060000Y-114950000D01*
G36*
X124060000Y-114950000D02*
G01*
X123984929Y-114903652D01*
X123821368Y-114837569D01*
X123648203Y-114803909D01*
X123471797Y-114803909D01*
X123298632Y-114837569D01*
X123135071Y-114903652D01*
X123060000Y-114950000D01*
X123060000Y-113910000D01*
X123135072Y-113956348D01*
X123298632Y-114022430D01*
X123471797Y-114056090D01*
X123648203Y-114056090D01*
X123821368Y-114022430D01*
X123984928Y-113956348D01*
X124060000Y-113910000D01*
X124060000Y-114950000D01*
G37*
%TO.C,REF\u002A\u002A229*%
X121520000Y-114950000D02*
X121444929Y-114903652D01*
X121281368Y-114837569D01*
X121108203Y-114803909D01*
X120931797Y-114803909D01*
X120758632Y-114837569D01*
X120595071Y-114903652D01*
X120520000Y-114950000D01*
X120520000Y-113910000D01*
X120595072Y-113956348D01*
X120758632Y-114022430D01*
X120931797Y-114056090D01*
X121108203Y-114056090D01*
X121281368Y-114022430D01*
X121444928Y-113956348D01*
X121520000Y-113910000D01*
X121520000Y-114950000D01*
G36*
X121520000Y-114950000D02*
G01*
X121444929Y-114903652D01*
X121281368Y-114837569D01*
X121108203Y-114803909D01*
X120931797Y-114803909D01*
X120758632Y-114837569D01*
X120595071Y-114903652D01*
X120520000Y-114950000D01*
X120520000Y-113910000D01*
X120595072Y-113956348D01*
X120758632Y-114022430D01*
X120931797Y-114056090D01*
X121108203Y-114056090D01*
X121281368Y-114022430D01*
X121444928Y-113956348D01*
X121520000Y-113910000D01*
X121520000Y-114950000D01*
G37*
%TO.C,REF\u002A\u002A228*%
X118980000Y-114950000D02*
X118904929Y-114903652D01*
X118741368Y-114837569D01*
X118568203Y-114803909D01*
X118391797Y-114803909D01*
X118218632Y-114837569D01*
X118055071Y-114903652D01*
X117980000Y-114950000D01*
X117980000Y-113910000D01*
X118055072Y-113956348D01*
X118218632Y-114022430D01*
X118391797Y-114056090D01*
X118568203Y-114056090D01*
X118741368Y-114022430D01*
X118904928Y-113956348D01*
X118980000Y-113910000D01*
X118980000Y-114950000D01*
G36*
X118980000Y-114950000D02*
G01*
X118904929Y-114903652D01*
X118741368Y-114837569D01*
X118568203Y-114803909D01*
X118391797Y-114803909D01*
X118218632Y-114837569D01*
X118055071Y-114903652D01*
X117980000Y-114950000D01*
X117980000Y-113910000D01*
X118055072Y-113956348D01*
X118218632Y-114022430D01*
X118391797Y-114056090D01*
X118568203Y-114056090D01*
X118741368Y-114022430D01*
X118904928Y-113956348D01*
X118980000Y-113910000D01*
X118980000Y-114950000D01*
G37*
%TO.C,REF\u002A\u002A227*%
X116440000Y-114950000D02*
X116364929Y-114903652D01*
X116201368Y-114837569D01*
X116028203Y-114803909D01*
X115851797Y-114803909D01*
X115678632Y-114837569D01*
X115515071Y-114903652D01*
X115440000Y-114950000D01*
X115440000Y-113910000D01*
X115515072Y-113956348D01*
X115678632Y-114022430D01*
X115851797Y-114056090D01*
X116028203Y-114056090D01*
X116201368Y-114022430D01*
X116364928Y-113956348D01*
X116440000Y-113910000D01*
X116440000Y-114950000D01*
G36*
X116440000Y-114950000D02*
G01*
X116364929Y-114903652D01*
X116201368Y-114837569D01*
X116028203Y-114803909D01*
X115851797Y-114803909D01*
X115678632Y-114837569D01*
X115515071Y-114903652D01*
X115440000Y-114950000D01*
X115440000Y-113910000D01*
X115515072Y-113956348D01*
X115678632Y-114022430D01*
X115851797Y-114056090D01*
X116028203Y-114056090D01*
X116201368Y-114022430D01*
X116364928Y-113956348D01*
X116440000Y-113910000D01*
X116440000Y-114950000D01*
G37*
%TO.C,REF\u002A\u002A226*%
X113900000Y-114950000D02*
X113824929Y-114903652D01*
X113661368Y-114837569D01*
X113488203Y-114803909D01*
X113311797Y-114803909D01*
X113138632Y-114837569D01*
X112975071Y-114903652D01*
X112900000Y-114950000D01*
X112900000Y-113910000D01*
X112975072Y-113956348D01*
X113138632Y-114022430D01*
X113311797Y-114056090D01*
X113488203Y-114056090D01*
X113661368Y-114022430D01*
X113824928Y-113956348D01*
X113900000Y-113910000D01*
X113900000Y-114950000D01*
G36*
X113900000Y-114950000D02*
G01*
X113824929Y-114903652D01*
X113661368Y-114837569D01*
X113488203Y-114803909D01*
X113311797Y-114803909D01*
X113138632Y-114837569D01*
X112975071Y-114903652D01*
X112900000Y-114950000D01*
X112900000Y-113910000D01*
X112975072Y-113956348D01*
X113138632Y-114022430D01*
X113311797Y-114056090D01*
X113488203Y-114056090D01*
X113661368Y-114022430D01*
X113824928Y-113956348D01*
X113900000Y-113910000D01*
X113900000Y-114950000D01*
G37*
%TO.C,REF\u002A\u002A225*%
X141840000Y-112410000D02*
X141764929Y-112363652D01*
X141601368Y-112297569D01*
X141428203Y-112263909D01*
X141251797Y-112263909D01*
X141078632Y-112297569D01*
X140915071Y-112363652D01*
X140840000Y-112410000D01*
X140840000Y-111370000D01*
X140915072Y-111416348D01*
X141078632Y-111482430D01*
X141251797Y-111516090D01*
X141428203Y-111516090D01*
X141601368Y-111482430D01*
X141764928Y-111416348D01*
X141840000Y-111370000D01*
X141840000Y-112410000D01*
G36*
X141840000Y-112410000D02*
G01*
X141764929Y-112363652D01*
X141601368Y-112297569D01*
X141428203Y-112263909D01*
X141251797Y-112263909D01*
X141078632Y-112297569D01*
X140915071Y-112363652D01*
X140840000Y-112410000D01*
X140840000Y-111370000D01*
X140915072Y-111416348D01*
X141078632Y-111482430D01*
X141251797Y-111516090D01*
X141428203Y-111516090D01*
X141601368Y-111482430D01*
X141764928Y-111416348D01*
X141840000Y-111370000D01*
X141840000Y-112410000D01*
G37*
%TO.C,REF\u002A\u002A224*%
X139300000Y-112410000D02*
X139224929Y-112363652D01*
X139061368Y-112297569D01*
X138888203Y-112263909D01*
X138711797Y-112263909D01*
X138538632Y-112297569D01*
X138375071Y-112363652D01*
X138300000Y-112410000D01*
X138300000Y-111370000D01*
X138375072Y-111416348D01*
X138538632Y-111482430D01*
X138711797Y-111516090D01*
X138888203Y-111516090D01*
X139061368Y-111482430D01*
X139224928Y-111416348D01*
X139300000Y-111370000D01*
X139300000Y-112410000D01*
G36*
X139300000Y-112410000D02*
G01*
X139224929Y-112363652D01*
X139061368Y-112297569D01*
X138888203Y-112263909D01*
X138711797Y-112263909D01*
X138538632Y-112297569D01*
X138375071Y-112363652D01*
X138300000Y-112410000D01*
X138300000Y-111370000D01*
X138375072Y-111416348D01*
X138538632Y-111482430D01*
X138711797Y-111516090D01*
X138888203Y-111516090D01*
X139061368Y-111482430D01*
X139224928Y-111416348D01*
X139300000Y-111370000D01*
X139300000Y-112410000D01*
G37*
%TO.C,REF\u002A\u002A223*%
X136760000Y-112410000D02*
X136684929Y-112363652D01*
X136521368Y-112297569D01*
X136348203Y-112263909D01*
X136171797Y-112263909D01*
X135998632Y-112297569D01*
X135835071Y-112363652D01*
X135760000Y-112410000D01*
X135760000Y-111370000D01*
X135835072Y-111416348D01*
X135998632Y-111482430D01*
X136171797Y-111516090D01*
X136348203Y-111516090D01*
X136521368Y-111482430D01*
X136684928Y-111416348D01*
X136760000Y-111370000D01*
X136760000Y-112410000D01*
G36*
X136760000Y-112410000D02*
G01*
X136684929Y-112363652D01*
X136521368Y-112297569D01*
X136348203Y-112263909D01*
X136171797Y-112263909D01*
X135998632Y-112297569D01*
X135835071Y-112363652D01*
X135760000Y-112410000D01*
X135760000Y-111370000D01*
X135835072Y-111416348D01*
X135998632Y-111482430D01*
X136171797Y-111516090D01*
X136348203Y-111516090D01*
X136521368Y-111482430D01*
X136684928Y-111416348D01*
X136760000Y-111370000D01*
X136760000Y-112410000D01*
G37*
%TO.C,REF\u002A\u002A222*%
X134220000Y-112410000D02*
X134144929Y-112363652D01*
X133981368Y-112297569D01*
X133808203Y-112263909D01*
X133631797Y-112263909D01*
X133458632Y-112297569D01*
X133295071Y-112363652D01*
X133220000Y-112410000D01*
X133220000Y-111370000D01*
X133295072Y-111416348D01*
X133458632Y-111482430D01*
X133631797Y-111516090D01*
X133808203Y-111516090D01*
X133981368Y-111482430D01*
X134144928Y-111416348D01*
X134220000Y-111370000D01*
X134220000Y-112410000D01*
G36*
X134220000Y-112410000D02*
G01*
X134144929Y-112363652D01*
X133981368Y-112297569D01*
X133808203Y-112263909D01*
X133631797Y-112263909D01*
X133458632Y-112297569D01*
X133295071Y-112363652D01*
X133220000Y-112410000D01*
X133220000Y-111370000D01*
X133295072Y-111416348D01*
X133458632Y-111482430D01*
X133631797Y-111516090D01*
X133808203Y-111516090D01*
X133981368Y-111482430D01*
X134144928Y-111416348D01*
X134220000Y-111370000D01*
X134220000Y-112410000D01*
G37*
%TO.C,REF\u002A\u002A221*%
X131680000Y-112410000D02*
X131604929Y-112363652D01*
X131441368Y-112297569D01*
X131268203Y-112263909D01*
X131091797Y-112263909D01*
X130918632Y-112297569D01*
X130755071Y-112363652D01*
X130680000Y-112410000D01*
X130680000Y-111370000D01*
X130755072Y-111416348D01*
X130918632Y-111482430D01*
X131091797Y-111516090D01*
X131268203Y-111516090D01*
X131441368Y-111482430D01*
X131604928Y-111416348D01*
X131680000Y-111370000D01*
X131680000Y-112410000D01*
G36*
X131680000Y-112410000D02*
G01*
X131604929Y-112363652D01*
X131441368Y-112297569D01*
X131268203Y-112263909D01*
X131091797Y-112263909D01*
X130918632Y-112297569D01*
X130755071Y-112363652D01*
X130680000Y-112410000D01*
X130680000Y-111370000D01*
X130755072Y-111416348D01*
X130918632Y-111482430D01*
X131091797Y-111516090D01*
X131268203Y-111516090D01*
X131441368Y-111482430D01*
X131604928Y-111416348D01*
X131680000Y-111370000D01*
X131680000Y-112410000D01*
G37*
%TO.C,REF\u002A\u002A220*%
X129140000Y-112410000D02*
X129064929Y-112363652D01*
X128901368Y-112297569D01*
X128728203Y-112263909D01*
X128551797Y-112263909D01*
X128378632Y-112297569D01*
X128215071Y-112363652D01*
X128140000Y-112410000D01*
X128140000Y-111370000D01*
X128215072Y-111416348D01*
X128378632Y-111482430D01*
X128551797Y-111516090D01*
X128728203Y-111516090D01*
X128901368Y-111482430D01*
X129064928Y-111416348D01*
X129140000Y-111370000D01*
X129140000Y-112410000D01*
G36*
X129140000Y-112410000D02*
G01*
X129064929Y-112363652D01*
X128901368Y-112297569D01*
X128728203Y-112263909D01*
X128551797Y-112263909D01*
X128378632Y-112297569D01*
X128215071Y-112363652D01*
X128140000Y-112410000D01*
X128140000Y-111370000D01*
X128215072Y-111416348D01*
X128378632Y-111482430D01*
X128551797Y-111516090D01*
X128728203Y-111516090D01*
X128901368Y-111482430D01*
X129064928Y-111416348D01*
X129140000Y-111370000D01*
X129140000Y-112410000D01*
G37*
%TO.C,REF\u002A\u002A219*%
X126600000Y-112410000D02*
X126524929Y-112363652D01*
X126361368Y-112297569D01*
X126188203Y-112263909D01*
X126011797Y-112263909D01*
X125838632Y-112297569D01*
X125675071Y-112363652D01*
X125600000Y-112410000D01*
X125600000Y-111370000D01*
X125675072Y-111416348D01*
X125838632Y-111482430D01*
X126011797Y-111516090D01*
X126188203Y-111516090D01*
X126361368Y-111482430D01*
X126524928Y-111416348D01*
X126600000Y-111370000D01*
X126600000Y-112410000D01*
G36*
X126600000Y-112410000D02*
G01*
X126524929Y-112363652D01*
X126361368Y-112297569D01*
X126188203Y-112263909D01*
X126011797Y-112263909D01*
X125838632Y-112297569D01*
X125675071Y-112363652D01*
X125600000Y-112410000D01*
X125600000Y-111370000D01*
X125675072Y-111416348D01*
X125838632Y-111482430D01*
X126011797Y-111516090D01*
X126188203Y-111516090D01*
X126361368Y-111482430D01*
X126524928Y-111416348D01*
X126600000Y-111370000D01*
X126600000Y-112410000D01*
G37*
%TO.C,REF\u002A\u002A218*%
X124060000Y-112410000D02*
X123984929Y-112363652D01*
X123821368Y-112297569D01*
X123648203Y-112263909D01*
X123471797Y-112263909D01*
X123298632Y-112297569D01*
X123135071Y-112363652D01*
X123060000Y-112410000D01*
X123060000Y-111370000D01*
X123135072Y-111416348D01*
X123298632Y-111482430D01*
X123471797Y-111516090D01*
X123648203Y-111516090D01*
X123821368Y-111482430D01*
X123984928Y-111416348D01*
X124060000Y-111370000D01*
X124060000Y-112410000D01*
G36*
X124060000Y-112410000D02*
G01*
X123984929Y-112363652D01*
X123821368Y-112297569D01*
X123648203Y-112263909D01*
X123471797Y-112263909D01*
X123298632Y-112297569D01*
X123135071Y-112363652D01*
X123060000Y-112410000D01*
X123060000Y-111370000D01*
X123135072Y-111416348D01*
X123298632Y-111482430D01*
X123471797Y-111516090D01*
X123648203Y-111516090D01*
X123821368Y-111482430D01*
X123984928Y-111416348D01*
X124060000Y-111370000D01*
X124060000Y-112410000D01*
G37*
%TO.C,REF\u002A\u002A217*%
X121520000Y-112410000D02*
X121444929Y-112363652D01*
X121281368Y-112297569D01*
X121108203Y-112263909D01*
X120931797Y-112263909D01*
X120758632Y-112297569D01*
X120595071Y-112363652D01*
X120520000Y-112410000D01*
X120520000Y-111370000D01*
X120595072Y-111416348D01*
X120758632Y-111482430D01*
X120931797Y-111516090D01*
X121108203Y-111516090D01*
X121281368Y-111482430D01*
X121444928Y-111416348D01*
X121520000Y-111370000D01*
X121520000Y-112410000D01*
G36*
X121520000Y-112410000D02*
G01*
X121444929Y-112363652D01*
X121281368Y-112297569D01*
X121108203Y-112263909D01*
X120931797Y-112263909D01*
X120758632Y-112297569D01*
X120595071Y-112363652D01*
X120520000Y-112410000D01*
X120520000Y-111370000D01*
X120595072Y-111416348D01*
X120758632Y-111482430D01*
X120931797Y-111516090D01*
X121108203Y-111516090D01*
X121281368Y-111482430D01*
X121444928Y-111416348D01*
X121520000Y-111370000D01*
X121520000Y-112410000D01*
G37*
%TO.C,REF\u002A\u002A216*%
X118980000Y-112410000D02*
X118904929Y-112363652D01*
X118741368Y-112297569D01*
X118568203Y-112263909D01*
X118391797Y-112263909D01*
X118218632Y-112297569D01*
X118055071Y-112363652D01*
X117980000Y-112410000D01*
X117980000Y-111370000D01*
X118055072Y-111416348D01*
X118218632Y-111482430D01*
X118391797Y-111516090D01*
X118568203Y-111516090D01*
X118741368Y-111482430D01*
X118904928Y-111416348D01*
X118980000Y-111370000D01*
X118980000Y-112410000D01*
G36*
X118980000Y-112410000D02*
G01*
X118904929Y-112363652D01*
X118741368Y-112297569D01*
X118568203Y-112263909D01*
X118391797Y-112263909D01*
X118218632Y-112297569D01*
X118055071Y-112363652D01*
X117980000Y-112410000D01*
X117980000Y-111370000D01*
X118055072Y-111416348D01*
X118218632Y-111482430D01*
X118391797Y-111516090D01*
X118568203Y-111516090D01*
X118741368Y-111482430D01*
X118904928Y-111416348D01*
X118980000Y-111370000D01*
X118980000Y-112410000D01*
G37*
%TO.C,REF\u002A\u002A215*%
X116440000Y-112410000D02*
X116364929Y-112363652D01*
X116201368Y-112297569D01*
X116028203Y-112263909D01*
X115851797Y-112263909D01*
X115678632Y-112297569D01*
X115515071Y-112363652D01*
X115440000Y-112410000D01*
X115440000Y-111370000D01*
X115515072Y-111416348D01*
X115678632Y-111482430D01*
X115851797Y-111516090D01*
X116028203Y-111516090D01*
X116201368Y-111482430D01*
X116364928Y-111416348D01*
X116440000Y-111370000D01*
X116440000Y-112410000D01*
G36*
X116440000Y-112410000D02*
G01*
X116364929Y-112363652D01*
X116201368Y-112297569D01*
X116028203Y-112263909D01*
X115851797Y-112263909D01*
X115678632Y-112297569D01*
X115515071Y-112363652D01*
X115440000Y-112410000D01*
X115440000Y-111370000D01*
X115515072Y-111416348D01*
X115678632Y-111482430D01*
X115851797Y-111516090D01*
X116028203Y-111516090D01*
X116201368Y-111482430D01*
X116364928Y-111416348D01*
X116440000Y-111370000D01*
X116440000Y-112410000D01*
G37*
%TO.C,REF\u002A\u002A214*%
X113900000Y-112410000D02*
X113824929Y-112363652D01*
X113661368Y-112297569D01*
X113488203Y-112263909D01*
X113311797Y-112263909D01*
X113138632Y-112297569D01*
X112975071Y-112363652D01*
X112900000Y-112410000D01*
X112900000Y-111370000D01*
X112975072Y-111416348D01*
X113138632Y-111482430D01*
X113311797Y-111516090D01*
X113488203Y-111516090D01*
X113661368Y-111482430D01*
X113824928Y-111416348D01*
X113900000Y-111370000D01*
X113900000Y-112410000D01*
G36*
X113900000Y-112410000D02*
G01*
X113824929Y-112363652D01*
X113661368Y-112297569D01*
X113488203Y-112263909D01*
X113311797Y-112263909D01*
X113138632Y-112297569D01*
X112975071Y-112363652D01*
X112900000Y-112410000D01*
X112900000Y-111370000D01*
X112975072Y-111416348D01*
X113138632Y-111482430D01*
X113311797Y-111516090D01*
X113488203Y-111516090D01*
X113661368Y-111482430D01*
X113824928Y-111416348D01*
X113900000Y-111370000D01*
X113900000Y-112410000D01*
G37*
%TO.C,REF\u002A\u002A205*%
X121520000Y-109870000D02*
X121444929Y-109823652D01*
X121281368Y-109757569D01*
X121108203Y-109723909D01*
X120931797Y-109723909D01*
X120758632Y-109757569D01*
X120595071Y-109823652D01*
X120520000Y-109870000D01*
X120520000Y-108830000D01*
X120595072Y-108876348D01*
X120758632Y-108942430D01*
X120931797Y-108976090D01*
X121108203Y-108976090D01*
X121281368Y-108942430D01*
X121444928Y-108876348D01*
X121520000Y-108830000D01*
X121520000Y-109870000D01*
G36*
X121520000Y-109870000D02*
G01*
X121444929Y-109823652D01*
X121281368Y-109757569D01*
X121108203Y-109723909D01*
X120931797Y-109723909D01*
X120758632Y-109757569D01*
X120595071Y-109823652D01*
X120520000Y-109870000D01*
X120520000Y-108830000D01*
X120595072Y-108876348D01*
X120758632Y-108942430D01*
X120931797Y-108976090D01*
X121108203Y-108976090D01*
X121281368Y-108942430D01*
X121444928Y-108876348D01*
X121520000Y-108830000D01*
X121520000Y-109870000D01*
G37*
%TO.C,REF\u002A\u002A204*%
X118980000Y-109870000D02*
X118904929Y-109823652D01*
X118741368Y-109757569D01*
X118568203Y-109723909D01*
X118391797Y-109723909D01*
X118218632Y-109757569D01*
X118055071Y-109823652D01*
X117980000Y-109870000D01*
X117980000Y-108830000D01*
X118055072Y-108876348D01*
X118218632Y-108942430D01*
X118391797Y-108976090D01*
X118568203Y-108976090D01*
X118741368Y-108942430D01*
X118904928Y-108876348D01*
X118980000Y-108830000D01*
X118980000Y-109870000D01*
G36*
X118980000Y-109870000D02*
G01*
X118904929Y-109823652D01*
X118741368Y-109757569D01*
X118568203Y-109723909D01*
X118391797Y-109723909D01*
X118218632Y-109757569D01*
X118055071Y-109823652D01*
X117980000Y-109870000D01*
X117980000Y-108830000D01*
X118055072Y-108876348D01*
X118218632Y-108942430D01*
X118391797Y-108976090D01*
X118568203Y-108976090D01*
X118741368Y-108942430D01*
X118904928Y-108876348D01*
X118980000Y-108830000D01*
X118980000Y-109870000D01*
G37*
%TO.C,REF\u002A\u002A203*%
X116440000Y-109870000D02*
X116364929Y-109823652D01*
X116201368Y-109757569D01*
X116028203Y-109723909D01*
X115851797Y-109723909D01*
X115678632Y-109757569D01*
X115515071Y-109823652D01*
X115440000Y-109870000D01*
X115440000Y-108830000D01*
X115515072Y-108876348D01*
X115678632Y-108942430D01*
X115851797Y-108976090D01*
X116028203Y-108976090D01*
X116201368Y-108942430D01*
X116364928Y-108876348D01*
X116440000Y-108830000D01*
X116440000Y-109870000D01*
G36*
X116440000Y-109870000D02*
G01*
X116364929Y-109823652D01*
X116201368Y-109757569D01*
X116028203Y-109723909D01*
X115851797Y-109723909D01*
X115678632Y-109757569D01*
X115515071Y-109823652D01*
X115440000Y-109870000D01*
X115440000Y-108830000D01*
X115515072Y-108876348D01*
X115678632Y-108942430D01*
X115851797Y-108976090D01*
X116028203Y-108976090D01*
X116201368Y-108942430D01*
X116364928Y-108876348D01*
X116440000Y-108830000D01*
X116440000Y-109870000D01*
G37*
%TO.C,REF\u002A\u002A202*%
X113900000Y-109870000D02*
X113824929Y-109823652D01*
X113661368Y-109757569D01*
X113488203Y-109723909D01*
X113311797Y-109723909D01*
X113138632Y-109757569D01*
X112975071Y-109823652D01*
X112900000Y-109870000D01*
X112900000Y-108830000D01*
X112975072Y-108876348D01*
X113138632Y-108942430D01*
X113311797Y-108976090D01*
X113488203Y-108976090D01*
X113661368Y-108942430D01*
X113824928Y-108876348D01*
X113900000Y-108830000D01*
X113900000Y-109870000D01*
G36*
X113900000Y-109870000D02*
G01*
X113824929Y-109823652D01*
X113661368Y-109757569D01*
X113488203Y-109723909D01*
X113311797Y-109723909D01*
X113138632Y-109757569D01*
X112975071Y-109823652D01*
X112900000Y-109870000D01*
X112900000Y-108830000D01*
X112975072Y-108876348D01*
X113138632Y-108942430D01*
X113311797Y-108976090D01*
X113488203Y-108976090D01*
X113661368Y-108942430D01*
X113824928Y-108876348D01*
X113900000Y-108830000D01*
X113900000Y-109870000D01*
G37*
X152000000Y-109870000D02*
X151924929Y-109823652D01*
X151761368Y-109757569D01*
X151588203Y-109723909D01*
X151411797Y-109723909D01*
X151238632Y-109757569D01*
X151075071Y-109823652D01*
X151000000Y-109870000D01*
X151000000Y-108830000D01*
X151075072Y-108876348D01*
X151238632Y-108942430D01*
X151411797Y-108976090D01*
X151588203Y-108976090D01*
X151761368Y-108942430D01*
X151924928Y-108876348D01*
X152000000Y-108830000D01*
X152000000Y-109870000D01*
G36*
X152000000Y-109870000D02*
G01*
X151924929Y-109823652D01*
X151761368Y-109757569D01*
X151588203Y-109723909D01*
X151411797Y-109723909D01*
X151238632Y-109757569D01*
X151075071Y-109823652D01*
X151000000Y-109870000D01*
X151000000Y-108830000D01*
X151075072Y-108876348D01*
X151238632Y-108942430D01*
X151411797Y-108976090D01*
X151588203Y-108976090D01*
X151761368Y-108942430D01*
X151924928Y-108876348D01*
X152000000Y-108830000D01*
X152000000Y-109870000D01*
G37*
X153243652Y-105115071D02*
X153177569Y-105278632D01*
X153143909Y-105451797D01*
X153143909Y-105628203D01*
X153177569Y-105801368D01*
X153243652Y-105964929D01*
X153290000Y-106040000D01*
X152250000Y-106040000D01*
X152296348Y-105964928D01*
X152362430Y-105801368D01*
X152396090Y-105628203D01*
X152396090Y-105451797D01*
X152362430Y-105278632D01*
X152296348Y-105115072D01*
X152250000Y-105040000D01*
X153290000Y-105040000D01*
X153243652Y-105115071D01*
G36*
X153243652Y-105115071D02*
G01*
X153177569Y-105278632D01*
X153143909Y-105451797D01*
X153143909Y-105628203D01*
X153177569Y-105801368D01*
X153243652Y-105964929D01*
X153290000Y-106040000D01*
X152250000Y-106040000D01*
X152296348Y-105964928D01*
X152362430Y-105801368D01*
X152396090Y-105628203D01*
X152396090Y-105451797D01*
X152362430Y-105278632D01*
X152296348Y-105115072D01*
X152250000Y-105040000D01*
X153290000Y-105040000D01*
X153243652Y-105115071D01*
G37*
%TO.C,REF\u002A\u002A189*%
X120223652Y-105115071D02*
X120157569Y-105278632D01*
X120123909Y-105451797D01*
X120123909Y-105628203D01*
X120157569Y-105801368D01*
X120223652Y-105964929D01*
X120270000Y-106040000D01*
X119230000Y-106040000D01*
X119276348Y-105964928D01*
X119342430Y-105801368D01*
X119376090Y-105628203D01*
X119376090Y-105451797D01*
X119342430Y-105278632D01*
X119276348Y-105115072D01*
X119230000Y-105040000D01*
X120270000Y-105040000D01*
X120223652Y-105115071D01*
G36*
X120223652Y-105115071D02*
G01*
X120157569Y-105278632D01*
X120123909Y-105451797D01*
X120123909Y-105628203D01*
X120157569Y-105801368D01*
X120223652Y-105964929D01*
X120270000Y-106040000D01*
X119230000Y-106040000D01*
X119276348Y-105964928D01*
X119342430Y-105801368D01*
X119376090Y-105628203D01*
X119376090Y-105451797D01*
X119342430Y-105278632D01*
X119276348Y-105115072D01*
X119230000Y-105040000D01*
X120270000Y-105040000D01*
X120223652Y-105115071D01*
G37*
%TO.C,REF\u002A\u002A188*%
X117683652Y-105115071D02*
X117617569Y-105278632D01*
X117583909Y-105451797D01*
X117583909Y-105628203D01*
X117617569Y-105801368D01*
X117683652Y-105964929D01*
X117730000Y-106040000D01*
X116690000Y-106040000D01*
X116736348Y-105964928D01*
X116802430Y-105801368D01*
X116836090Y-105628203D01*
X116836090Y-105451797D01*
X116802430Y-105278632D01*
X116736348Y-105115072D01*
X116690000Y-105040000D01*
X117730000Y-105040000D01*
X117683652Y-105115071D01*
G36*
X117683652Y-105115071D02*
G01*
X117617569Y-105278632D01*
X117583909Y-105451797D01*
X117583909Y-105628203D01*
X117617569Y-105801368D01*
X117683652Y-105964929D01*
X117730000Y-106040000D01*
X116690000Y-106040000D01*
X116736348Y-105964928D01*
X116802430Y-105801368D01*
X116836090Y-105628203D01*
X116836090Y-105451797D01*
X116802430Y-105278632D01*
X116736348Y-105115072D01*
X116690000Y-105040000D01*
X117730000Y-105040000D01*
X117683652Y-105115071D01*
G37*
%TO.C,REF\u002A\u002A187*%
X115143652Y-105115071D02*
X115077569Y-105278632D01*
X115043909Y-105451797D01*
X115043909Y-105628203D01*
X115077569Y-105801368D01*
X115143652Y-105964929D01*
X115190000Y-106040000D01*
X114150000Y-106040000D01*
X114196348Y-105964928D01*
X114262430Y-105801368D01*
X114296090Y-105628203D01*
X114296090Y-105451797D01*
X114262430Y-105278632D01*
X114196348Y-105115072D01*
X114150000Y-105040000D01*
X115190000Y-105040000D01*
X115143652Y-105115071D01*
G36*
X115143652Y-105115071D02*
G01*
X115077569Y-105278632D01*
X115043909Y-105451797D01*
X115043909Y-105628203D01*
X115077569Y-105801368D01*
X115143652Y-105964929D01*
X115190000Y-106040000D01*
X114150000Y-106040000D01*
X114196348Y-105964928D01*
X114262430Y-105801368D01*
X114296090Y-105628203D01*
X114296090Y-105451797D01*
X114262430Y-105278632D01*
X114196348Y-105115072D01*
X114150000Y-105040000D01*
X115190000Y-105040000D01*
X115143652Y-105115071D01*
G37*
%TO.C,REF\u002A\u002A183*%
X153243652Y-102575071D02*
X153177569Y-102738632D01*
X153143909Y-102911797D01*
X153143909Y-103088203D01*
X153177569Y-103261368D01*
X153243652Y-103424929D01*
X153290000Y-103500000D01*
X152250000Y-103500000D01*
X152296348Y-103424928D01*
X152362430Y-103261368D01*
X152396090Y-103088203D01*
X152396090Y-102911797D01*
X152362430Y-102738632D01*
X152296348Y-102575072D01*
X152250000Y-102500000D01*
X153290000Y-102500000D01*
X153243652Y-102575071D01*
G36*
X153243652Y-102575071D02*
G01*
X153177569Y-102738632D01*
X153143909Y-102911797D01*
X153143909Y-103088203D01*
X153177569Y-103261368D01*
X153243652Y-103424929D01*
X153290000Y-103500000D01*
X152250000Y-103500000D01*
X152296348Y-103424928D01*
X152362430Y-103261368D01*
X152396090Y-103088203D01*
X152396090Y-102911797D01*
X152362430Y-102738632D01*
X152296348Y-102575072D01*
X152250000Y-102500000D01*
X153290000Y-102500000D01*
X153243652Y-102575071D01*
G37*
%TO.C,REF\u002A\u002A47*%
X120223652Y-102575071D02*
X120157569Y-102738632D01*
X120123909Y-102911797D01*
X120123909Y-103088203D01*
X120157569Y-103261368D01*
X120223652Y-103424929D01*
X120270000Y-103500000D01*
X119230000Y-103500000D01*
X119276348Y-103424928D01*
X119342430Y-103261368D01*
X119376090Y-103088203D01*
X119376090Y-102911797D01*
X119342430Y-102738632D01*
X119276348Y-102575072D01*
X119230000Y-102500000D01*
X120270000Y-102500000D01*
X120223652Y-102575071D01*
G36*
X120223652Y-102575071D02*
G01*
X120157569Y-102738632D01*
X120123909Y-102911797D01*
X120123909Y-103088203D01*
X120157569Y-103261368D01*
X120223652Y-103424929D01*
X120270000Y-103500000D01*
X119230000Y-103500000D01*
X119276348Y-103424928D01*
X119342430Y-103261368D01*
X119376090Y-103088203D01*
X119376090Y-102911797D01*
X119342430Y-102738632D01*
X119276348Y-102575072D01*
X119230000Y-102500000D01*
X120270000Y-102500000D01*
X120223652Y-102575071D01*
G37*
%TO.C,REF\u002A\u002A46*%
X117683652Y-102575071D02*
X117617569Y-102738632D01*
X117583909Y-102911797D01*
X117583909Y-103088203D01*
X117617569Y-103261368D01*
X117683652Y-103424929D01*
X117730000Y-103500000D01*
X116690000Y-103500000D01*
X116736348Y-103424928D01*
X116802430Y-103261368D01*
X116836090Y-103088203D01*
X116836090Y-102911797D01*
X116802430Y-102738632D01*
X116736348Y-102575072D01*
X116690000Y-102500000D01*
X117730000Y-102500000D01*
X117683652Y-102575071D01*
G36*
X117683652Y-102575071D02*
G01*
X117617569Y-102738632D01*
X117583909Y-102911797D01*
X117583909Y-103088203D01*
X117617569Y-103261368D01*
X117683652Y-103424929D01*
X117730000Y-103500000D01*
X116690000Y-103500000D01*
X116736348Y-103424928D01*
X116802430Y-103261368D01*
X116836090Y-103088203D01*
X116836090Y-102911797D01*
X116802430Y-102738632D01*
X116736348Y-102575072D01*
X116690000Y-102500000D01*
X117730000Y-102500000D01*
X117683652Y-102575071D01*
G37*
%TO.C,REF\u002A\u002A*%
X115143652Y-102575071D02*
X115077569Y-102738632D01*
X115043909Y-102911797D01*
X115043909Y-103088203D01*
X115077569Y-103261368D01*
X115143652Y-103424929D01*
X115190000Y-103500000D01*
X114150000Y-103500000D01*
X114196348Y-103424928D01*
X114262430Y-103261368D01*
X114296090Y-103088203D01*
X114296090Y-102911797D01*
X114262430Y-102738632D01*
X114196348Y-102575072D01*
X114150000Y-102500000D01*
X115190000Y-102500000D01*
X115143652Y-102575071D01*
G36*
X115143652Y-102575071D02*
G01*
X115077569Y-102738632D01*
X115043909Y-102911797D01*
X115043909Y-103088203D01*
X115077569Y-103261368D01*
X115143652Y-103424929D01*
X115190000Y-103500000D01*
X114150000Y-103500000D01*
X114196348Y-103424928D01*
X114262430Y-103261368D01*
X114296090Y-103088203D01*
X114296090Y-102911797D01*
X114262430Y-102738632D01*
X114196348Y-102575072D01*
X114150000Y-102500000D01*
X115190000Y-102500000D01*
X115143652Y-102575071D01*
G37*
%TO.C,REF\u002A\u002A45*%
X153243652Y-125435071D02*
X153177569Y-125598632D01*
X153143909Y-125771797D01*
X153143909Y-125948203D01*
X153177569Y-126121368D01*
X153243652Y-126284929D01*
X153290000Y-126360000D01*
X152250000Y-126360000D01*
X152296348Y-126284928D01*
X152362430Y-126121368D01*
X152396090Y-125948203D01*
X152396090Y-125771797D01*
X152362430Y-125598632D01*
X152296348Y-125435072D01*
X152250000Y-125360000D01*
X153290000Y-125360000D01*
X153243652Y-125435071D01*
G36*
X153243652Y-125435071D02*
G01*
X153177569Y-125598632D01*
X153143909Y-125771797D01*
X153143909Y-125948203D01*
X153177569Y-126121368D01*
X153243652Y-126284929D01*
X153290000Y-126360000D01*
X152250000Y-126360000D01*
X152296348Y-126284928D01*
X152362430Y-126121368D01*
X152396090Y-125948203D01*
X152396090Y-125771797D01*
X152362430Y-125598632D01*
X152296348Y-125435072D01*
X152250000Y-125360000D01*
X153290000Y-125360000D01*
X153243652Y-125435071D01*
G37*
%TO.C,REF\u002A\u002A44*%
X150703652Y-125435071D02*
X150637569Y-125598632D01*
X150603909Y-125771797D01*
X150603909Y-125948203D01*
X150637569Y-126121368D01*
X150703652Y-126284929D01*
X150750000Y-126360000D01*
X149710000Y-126360000D01*
X149756348Y-126284928D01*
X149822430Y-126121368D01*
X149856090Y-125948203D01*
X149856090Y-125771797D01*
X149822430Y-125598632D01*
X149756348Y-125435072D01*
X149710000Y-125360000D01*
X150750000Y-125360000D01*
X150703652Y-125435071D01*
G36*
X150703652Y-125435071D02*
G01*
X150637569Y-125598632D01*
X150603909Y-125771797D01*
X150603909Y-125948203D01*
X150637569Y-126121368D01*
X150703652Y-126284929D01*
X150750000Y-126360000D01*
X149710000Y-126360000D01*
X149756348Y-126284928D01*
X149822430Y-126121368D01*
X149856090Y-125948203D01*
X149856090Y-125771797D01*
X149822430Y-125598632D01*
X149756348Y-125435072D01*
X149710000Y-125360000D01*
X150750000Y-125360000D01*
X150703652Y-125435071D01*
G37*
%TO.C,REF\u002A\u002A43*%
X148163652Y-125435071D02*
X148097569Y-125598632D01*
X148063909Y-125771797D01*
X148063909Y-125948203D01*
X148097569Y-126121368D01*
X148163652Y-126284929D01*
X148210000Y-126360000D01*
X147170000Y-126360000D01*
X147216348Y-126284928D01*
X147282430Y-126121368D01*
X147316090Y-125948203D01*
X147316090Y-125771797D01*
X147282430Y-125598632D01*
X147216348Y-125435072D01*
X147170000Y-125360000D01*
X148210000Y-125360000D01*
X148163652Y-125435071D01*
G36*
X148163652Y-125435071D02*
G01*
X148097569Y-125598632D01*
X148063909Y-125771797D01*
X148063909Y-125948203D01*
X148097569Y-126121368D01*
X148163652Y-126284929D01*
X148210000Y-126360000D01*
X147170000Y-126360000D01*
X147216348Y-126284928D01*
X147282430Y-126121368D01*
X147316090Y-125948203D01*
X147316090Y-125771797D01*
X147282430Y-125598632D01*
X147216348Y-125435072D01*
X147170000Y-125360000D01*
X148210000Y-125360000D01*
X148163652Y-125435071D01*
G37*
%TO.C,REF\u002A\u002A42*%
X145623652Y-125435071D02*
X145557569Y-125598632D01*
X145523909Y-125771797D01*
X145523909Y-125948203D01*
X145557569Y-126121368D01*
X145623652Y-126284929D01*
X145670000Y-126360000D01*
X144630000Y-126360000D01*
X144676348Y-126284928D01*
X144742430Y-126121368D01*
X144776090Y-125948203D01*
X144776090Y-125771797D01*
X144742430Y-125598632D01*
X144676348Y-125435072D01*
X144630000Y-125360000D01*
X145670000Y-125360000D01*
X145623652Y-125435071D01*
G36*
X145623652Y-125435071D02*
G01*
X145557569Y-125598632D01*
X145523909Y-125771797D01*
X145523909Y-125948203D01*
X145557569Y-126121368D01*
X145623652Y-126284929D01*
X145670000Y-126360000D01*
X144630000Y-126360000D01*
X144676348Y-126284928D01*
X144742430Y-126121368D01*
X144776090Y-125948203D01*
X144776090Y-125771797D01*
X144742430Y-125598632D01*
X144676348Y-125435072D01*
X144630000Y-125360000D01*
X145670000Y-125360000D01*
X145623652Y-125435071D01*
G37*
%TO.C,REF\u002A\u002A41*%
X143083652Y-125435071D02*
X143017569Y-125598632D01*
X142983909Y-125771797D01*
X142983909Y-125948203D01*
X143017569Y-126121368D01*
X143083652Y-126284929D01*
X143130000Y-126360000D01*
X142090000Y-126360000D01*
X142136348Y-126284928D01*
X142202430Y-126121368D01*
X142236090Y-125948203D01*
X142236090Y-125771797D01*
X142202430Y-125598632D01*
X142136348Y-125435072D01*
X142090000Y-125360000D01*
X143130000Y-125360000D01*
X143083652Y-125435071D01*
G36*
X143083652Y-125435071D02*
G01*
X143017569Y-125598632D01*
X142983909Y-125771797D01*
X142983909Y-125948203D01*
X143017569Y-126121368D01*
X143083652Y-126284929D01*
X143130000Y-126360000D01*
X142090000Y-126360000D01*
X142136348Y-126284928D01*
X142202430Y-126121368D01*
X142236090Y-125948203D01*
X142236090Y-125771797D01*
X142202430Y-125598632D01*
X142136348Y-125435072D01*
X142090000Y-125360000D01*
X143130000Y-125360000D01*
X143083652Y-125435071D01*
G37*
%TO.C,REF\u002A\u002A35*%
X140543652Y-125435071D02*
X140477569Y-125598632D01*
X140443909Y-125771797D01*
X140443909Y-125948203D01*
X140477569Y-126121368D01*
X140543652Y-126284929D01*
X140590000Y-126360000D01*
X139550000Y-126360000D01*
X139596348Y-126284928D01*
X139662430Y-126121368D01*
X139696090Y-125948203D01*
X139696090Y-125771797D01*
X139662430Y-125598632D01*
X139596348Y-125435072D01*
X139550000Y-125360000D01*
X140590000Y-125360000D01*
X140543652Y-125435071D01*
G36*
X140543652Y-125435071D02*
G01*
X140477569Y-125598632D01*
X140443909Y-125771797D01*
X140443909Y-125948203D01*
X140477569Y-126121368D01*
X140543652Y-126284929D01*
X140590000Y-126360000D01*
X139550000Y-126360000D01*
X139596348Y-126284928D01*
X139662430Y-126121368D01*
X139696090Y-125948203D01*
X139696090Y-125771797D01*
X139662430Y-125598632D01*
X139596348Y-125435072D01*
X139550000Y-125360000D01*
X140590000Y-125360000D01*
X140543652Y-125435071D01*
G37*
%TO.C,REF\u002A\u002A32*%
X138003652Y-125435071D02*
X137937569Y-125598632D01*
X137903909Y-125771797D01*
X137903909Y-125948203D01*
X137937569Y-126121368D01*
X138003652Y-126284929D01*
X138050000Y-126360000D01*
X137010000Y-126360000D01*
X137056348Y-126284928D01*
X137122430Y-126121368D01*
X137156090Y-125948203D01*
X137156090Y-125771797D01*
X137122430Y-125598632D01*
X137056348Y-125435072D01*
X137010000Y-125360000D01*
X138050000Y-125360000D01*
X138003652Y-125435071D01*
G36*
X138003652Y-125435071D02*
G01*
X137937569Y-125598632D01*
X137903909Y-125771797D01*
X137903909Y-125948203D01*
X137937569Y-126121368D01*
X138003652Y-126284929D01*
X138050000Y-126360000D01*
X137010000Y-126360000D01*
X137056348Y-126284928D01*
X137122430Y-126121368D01*
X137156090Y-125948203D01*
X137156090Y-125771797D01*
X137122430Y-125598632D01*
X137056348Y-125435072D01*
X137010000Y-125360000D01*
X138050000Y-125360000D01*
X138003652Y-125435071D01*
G37*
%TO.C,REF\u002A\u002A31*%
X135463652Y-125435071D02*
X135397569Y-125598632D01*
X135363909Y-125771797D01*
X135363909Y-125948203D01*
X135397569Y-126121368D01*
X135463652Y-126284929D01*
X135510000Y-126360000D01*
X134470000Y-126360000D01*
X134516348Y-126284928D01*
X134582430Y-126121368D01*
X134616090Y-125948203D01*
X134616090Y-125771797D01*
X134582430Y-125598632D01*
X134516348Y-125435072D01*
X134470000Y-125360000D01*
X135510000Y-125360000D01*
X135463652Y-125435071D01*
G36*
X135463652Y-125435071D02*
G01*
X135397569Y-125598632D01*
X135363909Y-125771797D01*
X135363909Y-125948203D01*
X135397569Y-126121368D01*
X135463652Y-126284929D01*
X135510000Y-126360000D01*
X134470000Y-126360000D01*
X134516348Y-126284928D01*
X134582430Y-126121368D01*
X134616090Y-125948203D01*
X134616090Y-125771797D01*
X134582430Y-125598632D01*
X134516348Y-125435072D01*
X134470000Y-125360000D01*
X135510000Y-125360000D01*
X135463652Y-125435071D01*
G37*
%TO.C,REF\u002A\u002A30*%
X155783652Y-122895071D02*
X155717569Y-123058632D01*
X155683909Y-123231797D01*
X155683909Y-123408203D01*
X155717569Y-123581368D01*
X155783652Y-123744929D01*
X155830000Y-123820000D01*
X154790000Y-123820000D01*
X154836348Y-123744928D01*
X154902430Y-123581368D01*
X154936090Y-123408203D01*
X154936090Y-123231797D01*
X154902430Y-123058632D01*
X154836348Y-122895072D01*
X154790000Y-122820000D01*
X155830000Y-122820000D01*
X155783652Y-122895071D01*
G36*
X155783652Y-122895071D02*
G01*
X155717569Y-123058632D01*
X155683909Y-123231797D01*
X155683909Y-123408203D01*
X155717569Y-123581368D01*
X155783652Y-123744929D01*
X155830000Y-123820000D01*
X154790000Y-123820000D01*
X154836348Y-123744928D01*
X154902430Y-123581368D01*
X154936090Y-123408203D01*
X154936090Y-123231797D01*
X154902430Y-123058632D01*
X154836348Y-122895072D01*
X154790000Y-122820000D01*
X155830000Y-122820000D01*
X155783652Y-122895071D01*
G37*
%TO.C,REF\u002A\u002A29*%
X153243652Y-122895071D02*
X153177569Y-123058632D01*
X153143909Y-123231797D01*
X153143909Y-123408203D01*
X153177569Y-123581368D01*
X153243652Y-123744929D01*
X153290000Y-123820000D01*
X152250000Y-123820000D01*
X152296348Y-123744928D01*
X152362430Y-123581368D01*
X152396090Y-123408203D01*
X152396090Y-123231797D01*
X152362430Y-123058632D01*
X152296348Y-122895072D01*
X152250000Y-122820000D01*
X153290000Y-122820000D01*
X153243652Y-122895071D01*
G36*
X153243652Y-122895071D02*
G01*
X153177569Y-123058632D01*
X153143909Y-123231797D01*
X153143909Y-123408203D01*
X153177569Y-123581368D01*
X153243652Y-123744929D01*
X153290000Y-123820000D01*
X152250000Y-123820000D01*
X152296348Y-123744928D01*
X152362430Y-123581368D01*
X152396090Y-123408203D01*
X152396090Y-123231797D01*
X152362430Y-123058632D01*
X152296348Y-122895072D01*
X152250000Y-122820000D01*
X153290000Y-122820000D01*
X153243652Y-122895071D01*
G37*
%TO.C,REF\u002A\u002A28*%
X150703652Y-122895071D02*
X150637569Y-123058632D01*
X150603909Y-123231797D01*
X150603909Y-123408203D01*
X150637569Y-123581368D01*
X150703652Y-123744929D01*
X150750000Y-123820000D01*
X149710000Y-123820000D01*
X149756348Y-123744928D01*
X149822430Y-123581368D01*
X149856090Y-123408203D01*
X149856090Y-123231797D01*
X149822430Y-123058632D01*
X149756348Y-122895072D01*
X149710000Y-122820000D01*
X150750000Y-122820000D01*
X150703652Y-122895071D01*
G36*
X150703652Y-122895071D02*
G01*
X150637569Y-123058632D01*
X150603909Y-123231797D01*
X150603909Y-123408203D01*
X150637569Y-123581368D01*
X150703652Y-123744929D01*
X150750000Y-123820000D01*
X149710000Y-123820000D01*
X149756348Y-123744928D01*
X149822430Y-123581368D01*
X149856090Y-123408203D01*
X149856090Y-123231797D01*
X149822430Y-123058632D01*
X149756348Y-122895072D01*
X149710000Y-122820000D01*
X150750000Y-122820000D01*
X150703652Y-122895071D01*
G37*
%TO.C,REF\u002A\u002A27*%
X148163652Y-122895071D02*
X148097569Y-123058632D01*
X148063909Y-123231797D01*
X148063909Y-123408203D01*
X148097569Y-123581368D01*
X148163652Y-123744929D01*
X148210000Y-123820000D01*
X147170000Y-123820000D01*
X147216348Y-123744928D01*
X147282430Y-123581368D01*
X147316090Y-123408203D01*
X147316090Y-123231797D01*
X147282430Y-123058632D01*
X147216348Y-122895072D01*
X147170000Y-122820000D01*
X148210000Y-122820000D01*
X148163652Y-122895071D01*
G36*
X148163652Y-122895071D02*
G01*
X148097569Y-123058632D01*
X148063909Y-123231797D01*
X148063909Y-123408203D01*
X148097569Y-123581368D01*
X148163652Y-123744929D01*
X148210000Y-123820000D01*
X147170000Y-123820000D01*
X147216348Y-123744928D01*
X147282430Y-123581368D01*
X147316090Y-123408203D01*
X147316090Y-123231797D01*
X147282430Y-123058632D01*
X147216348Y-122895072D01*
X147170000Y-122820000D01*
X148210000Y-122820000D01*
X148163652Y-122895071D01*
G37*
%TO.C,REF\u002A\u002A26*%
X145623652Y-122895071D02*
X145557569Y-123058632D01*
X145523909Y-123231797D01*
X145523909Y-123408203D01*
X145557569Y-123581368D01*
X145623652Y-123744929D01*
X145670000Y-123820000D01*
X144630000Y-123820000D01*
X144676348Y-123744928D01*
X144742430Y-123581368D01*
X144776090Y-123408203D01*
X144776090Y-123231797D01*
X144742430Y-123058632D01*
X144676348Y-122895072D01*
X144630000Y-122820000D01*
X145670000Y-122820000D01*
X145623652Y-122895071D01*
G36*
X145623652Y-122895071D02*
G01*
X145557569Y-123058632D01*
X145523909Y-123231797D01*
X145523909Y-123408203D01*
X145557569Y-123581368D01*
X145623652Y-123744929D01*
X145670000Y-123820000D01*
X144630000Y-123820000D01*
X144676348Y-123744928D01*
X144742430Y-123581368D01*
X144776090Y-123408203D01*
X144776090Y-123231797D01*
X144742430Y-123058632D01*
X144676348Y-122895072D01*
X144630000Y-122820000D01*
X145670000Y-122820000D01*
X145623652Y-122895071D01*
G37*
%TO.C,REF\u002A\u002A25*%
X143083652Y-122895071D02*
X143017569Y-123058632D01*
X142983909Y-123231797D01*
X142983909Y-123408203D01*
X143017569Y-123581368D01*
X143083652Y-123744929D01*
X143130000Y-123820000D01*
X142090000Y-123820000D01*
X142136348Y-123744928D01*
X142202430Y-123581368D01*
X142236090Y-123408203D01*
X142236090Y-123231797D01*
X142202430Y-123058632D01*
X142136348Y-122895072D01*
X142090000Y-122820000D01*
X143130000Y-122820000D01*
X143083652Y-122895071D01*
G36*
X143083652Y-122895071D02*
G01*
X143017569Y-123058632D01*
X142983909Y-123231797D01*
X142983909Y-123408203D01*
X143017569Y-123581368D01*
X143083652Y-123744929D01*
X143130000Y-123820000D01*
X142090000Y-123820000D01*
X142136348Y-123744928D01*
X142202430Y-123581368D01*
X142236090Y-123408203D01*
X142236090Y-123231797D01*
X142202430Y-123058632D01*
X142136348Y-122895072D01*
X142090000Y-122820000D01*
X143130000Y-122820000D01*
X143083652Y-122895071D01*
G37*
%TO.C,REF\u002A\u002A24*%
X140543652Y-122895071D02*
X140477569Y-123058632D01*
X140443909Y-123231797D01*
X140443909Y-123408203D01*
X140477569Y-123581368D01*
X140543652Y-123744929D01*
X140590000Y-123820000D01*
X139550000Y-123820000D01*
X139596348Y-123744928D01*
X139662430Y-123581368D01*
X139696090Y-123408203D01*
X139696090Y-123231797D01*
X139662430Y-123058632D01*
X139596348Y-122895072D01*
X139550000Y-122820000D01*
X140590000Y-122820000D01*
X140543652Y-122895071D01*
G36*
X140543652Y-122895071D02*
G01*
X140477569Y-123058632D01*
X140443909Y-123231797D01*
X140443909Y-123408203D01*
X140477569Y-123581368D01*
X140543652Y-123744929D01*
X140590000Y-123820000D01*
X139550000Y-123820000D01*
X139596348Y-123744928D01*
X139662430Y-123581368D01*
X139696090Y-123408203D01*
X139696090Y-123231797D01*
X139662430Y-123058632D01*
X139596348Y-122895072D01*
X139550000Y-122820000D01*
X140590000Y-122820000D01*
X140543652Y-122895071D01*
G37*
%TO.C,REF\u002A\u002A23*%
X138003652Y-122895071D02*
X137937569Y-123058632D01*
X137903909Y-123231797D01*
X137903909Y-123408203D01*
X137937569Y-123581368D01*
X138003652Y-123744929D01*
X138050000Y-123820000D01*
X137010000Y-123820000D01*
X137056348Y-123744928D01*
X137122430Y-123581368D01*
X137156090Y-123408203D01*
X137156090Y-123231797D01*
X137122430Y-123058632D01*
X137056348Y-122895072D01*
X137010000Y-122820000D01*
X138050000Y-122820000D01*
X138003652Y-122895071D01*
G36*
X138003652Y-122895071D02*
G01*
X137937569Y-123058632D01*
X137903909Y-123231797D01*
X137903909Y-123408203D01*
X137937569Y-123581368D01*
X138003652Y-123744929D01*
X138050000Y-123820000D01*
X137010000Y-123820000D01*
X137056348Y-123744928D01*
X137122430Y-123581368D01*
X137156090Y-123408203D01*
X137156090Y-123231797D01*
X137122430Y-123058632D01*
X137056348Y-122895072D01*
X137010000Y-122820000D01*
X138050000Y-122820000D01*
X138003652Y-122895071D01*
G37*
%TO.C,REF\u002A\u002A9*%
X135463652Y-122895071D02*
X135397569Y-123058632D01*
X135363909Y-123231797D01*
X135363909Y-123408203D01*
X135397569Y-123581368D01*
X135463652Y-123744929D01*
X135510000Y-123820000D01*
X134470000Y-123820000D01*
X134516348Y-123744928D01*
X134582430Y-123581368D01*
X134616090Y-123408203D01*
X134616090Y-123231797D01*
X134582430Y-123058632D01*
X134516348Y-122895072D01*
X134470000Y-122820000D01*
X135510000Y-122820000D01*
X135463652Y-122895071D01*
G36*
X135463652Y-122895071D02*
G01*
X135397569Y-123058632D01*
X135363909Y-123231797D01*
X135363909Y-123408203D01*
X135397569Y-123581368D01*
X135463652Y-123744929D01*
X135510000Y-123820000D01*
X134470000Y-123820000D01*
X134516348Y-123744928D01*
X134582430Y-123581368D01*
X134616090Y-123408203D01*
X134616090Y-123231797D01*
X134582430Y-123058632D01*
X134516348Y-122895072D01*
X134470000Y-122820000D01*
X135510000Y-122820000D01*
X135463652Y-122895071D01*
G37*
%TO.C,REF\u002A\u002A22*%
X130383652Y-125435071D02*
X130317569Y-125598632D01*
X130283909Y-125771797D01*
X130283909Y-125948203D01*
X130317569Y-126121368D01*
X130383652Y-126284929D01*
X130430000Y-126360000D01*
X129390000Y-126360000D01*
X129436348Y-126284928D01*
X129502430Y-126121368D01*
X129536090Y-125948203D01*
X129536090Y-125771797D01*
X129502430Y-125598632D01*
X129436348Y-125435072D01*
X129390000Y-125360000D01*
X130430000Y-125360000D01*
X130383652Y-125435071D01*
G36*
X130383652Y-125435071D02*
G01*
X130317569Y-125598632D01*
X130283909Y-125771797D01*
X130283909Y-125948203D01*
X130317569Y-126121368D01*
X130383652Y-126284929D01*
X130430000Y-126360000D01*
X129390000Y-126360000D01*
X129436348Y-126284928D01*
X129502430Y-126121368D01*
X129536090Y-125948203D01*
X129536090Y-125771797D01*
X129502430Y-125598632D01*
X129436348Y-125435072D01*
X129390000Y-125360000D01*
X130430000Y-125360000D01*
X130383652Y-125435071D01*
G37*
%TO.C,REF\u002A\u002A17*%
X127843652Y-125435071D02*
X127777569Y-125598632D01*
X127743909Y-125771797D01*
X127743909Y-125948203D01*
X127777569Y-126121368D01*
X127843652Y-126284929D01*
X127890000Y-126360000D01*
X126850000Y-126360000D01*
X126896348Y-126284928D01*
X126962430Y-126121368D01*
X126996090Y-125948203D01*
X126996090Y-125771797D01*
X126962430Y-125598632D01*
X126896348Y-125435072D01*
X126850000Y-125360000D01*
X127890000Y-125360000D01*
X127843652Y-125435071D01*
G36*
X127843652Y-125435071D02*
G01*
X127777569Y-125598632D01*
X127743909Y-125771797D01*
X127743909Y-125948203D01*
X127777569Y-126121368D01*
X127843652Y-126284929D01*
X127890000Y-126360000D01*
X126850000Y-126360000D01*
X126896348Y-126284928D01*
X126962430Y-126121368D01*
X126996090Y-125948203D01*
X126996090Y-125771797D01*
X126962430Y-125598632D01*
X126896348Y-125435072D01*
X126850000Y-125360000D01*
X127890000Y-125360000D01*
X127843652Y-125435071D01*
G37*
%TO.C,REF\u002A\u002A14*%
X125303652Y-125435071D02*
X125237569Y-125598632D01*
X125203909Y-125771797D01*
X125203909Y-125948203D01*
X125237569Y-126121368D01*
X125303652Y-126284929D01*
X125350000Y-126360000D01*
X124310000Y-126360000D01*
X124356348Y-126284928D01*
X124422430Y-126121368D01*
X124456090Y-125948203D01*
X124456090Y-125771797D01*
X124422430Y-125598632D01*
X124356348Y-125435072D01*
X124310000Y-125360000D01*
X125350000Y-125360000D01*
X125303652Y-125435071D01*
G36*
X125303652Y-125435071D02*
G01*
X125237569Y-125598632D01*
X125203909Y-125771797D01*
X125203909Y-125948203D01*
X125237569Y-126121368D01*
X125303652Y-126284929D01*
X125350000Y-126360000D01*
X124310000Y-126360000D01*
X124356348Y-126284928D01*
X124422430Y-126121368D01*
X124456090Y-125948203D01*
X124456090Y-125771797D01*
X124422430Y-125598632D01*
X124356348Y-125435072D01*
X124310000Y-125360000D01*
X125350000Y-125360000D01*
X125303652Y-125435071D01*
G37*
%TO.C,REF\u002A\u002A13*%
X122763652Y-125435071D02*
X122697569Y-125598632D01*
X122663909Y-125771797D01*
X122663909Y-125948203D01*
X122697569Y-126121368D01*
X122763652Y-126284929D01*
X122810000Y-126360000D01*
X121770000Y-126360000D01*
X121816348Y-126284928D01*
X121882430Y-126121368D01*
X121916090Y-125948203D01*
X121916090Y-125771797D01*
X121882430Y-125598632D01*
X121816348Y-125435072D01*
X121770000Y-125360000D01*
X122810000Y-125360000D01*
X122763652Y-125435071D01*
G36*
X122763652Y-125435071D02*
G01*
X122697569Y-125598632D01*
X122663909Y-125771797D01*
X122663909Y-125948203D01*
X122697569Y-126121368D01*
X122763652Y-126284929D01*
X122810000Y-126360000D01*
X121770000Y-126360000D01*
X121816348Y-126284928D01*
X121882430Y-126121368D01*
X121916090Y-125948203D01*
X121916090Y-125771797D01*
X121882430Y-125598632D01*
X121816348Y-125435072D01*
X121770000Y-125360000D01*
X122810000Y-125360000D01*
X122763652Y-125435071D01*
G37*
%TO.C,REF\u002A\u002A12*%
X120223652Y-125435071D02*
X120157569Y-125598632D01*
X120123909Y-125771797D01*
X120123909Y-125948203D01*
X120157569Y-126121368D01*
X120223652Y-126284929D01*
X120270000Y-126360000D01*
X119230000Y-126360000D01*
X119276348Y-126284928D01*
X119342430Y-126121368D01*
X119376090Y-125948203D01*
X119376090Y-125771797D01*
X119342430Y-125598632D01*
X119276348Y-125435072D01*
X119230000Y-125360000D01*
X120270000Y-125360000D01*
X120223652Y-125435071D01*
G36*
X120223652Y-125435071D02*
G01*
X120157569Y-125598632D01*
X120123909Y-125771797D01*
X120123909Y-125948203D01*
X120157569Y-126121368D01*
X120223652Y-126284929D01*
X120270000Y-126360000D01*
X119230000Y-126360000D01*
X119276348Y-126284928D01*
X119342430Y-126121368D01*
X119376090Y-125948203D01*
X119376090Y-125771797D01*
X119342430Y-125598632D01*
X119276348Y-125435072D01*
X119230000Y-125360000D01*
X120270000Y-125360000D01*
X120223652Y-125435071D01*
G37*
%TO.C,REF\u002A\u002A11*%
X117683652Y-125435071D02*
X117617569Y-125598632D01*
X117583909Y-125771797D01*
X117583909Y-125948203D01*
X117617569Y-126121368D01*
X117683652Y-126284929D01*
X117730000Y-126360000D01*
X116690000Y-126360000D01*
X116736348Y-126284928D01*
X116802430Y-126121368D01*
X116836090Y-125948203D01*
X116836090Y-125771797D01*
X116802430Y-125598632D01*
X116736348Y-125435072D01*
X116690000Y-125360000D01*
X117730000Y-125360000D01*
X117683652Y-125435071D01*
G36*
X117683652Y-125435071D02*
G01*
X117617569Y-125598632D01*
X117583909Y-125771797D01*
X117583909Y-125948203D01*
X117617569Y-126121368D01*
X117683652Y-126284929D01*
X117730000Y-126360000D01*
X116690000Y-126360000D01*
X116736348Y-126284928D01*
X116802430Y-126121368D01*
X116836090Y-125948203D01*
X116836090Y-125771797D01*
X116802430Y-125598632D01*
X116736348Y-125435072D01*
X116690000Y-125360000D01*
X117730000Y-125360000D01*
X117683652Y-125435071D01*
G37*
%TO.C,REF\u002A\u002A10*%
X115143652Y-125435071D02*
X115077569Y-125598632D01*
X115043909Y-125771797D01*
X115043909Y-125948203D01*
X115077569Y-126121368D01*
X115143652Y-126284929D01*
X115190000Y-126360000D01*
X114150000Y-126360000D01*
X114196348Y-126284928D01*
X114262430Y-126121368D01*
X114296090Y-125948203D01*
X114296090Y-125771797D01*
X114262430Y-125598632D01*
X114196348Y-125435072D01*
X114150000Y-125360000D01*
X115190000Y-125360000D01*
X115143652Y-125435071D01*
G36*
X115143652Y-125435071D02*
G01*
X115077569Y-125598632D01*
X115043909Y-125771797D01*
X115043909Y-125948203D01*
X115077569Y-126121368D01*
X115143652Y-126284929D01*
X115190000Y-126360000D01*
X114150000Y-126360000D01*
X114196348Y-126284928D01*
X114262430Y-126121368D01*
X114296090Y-125948203D01*
X114296090Y-125771797D01*
X114262430Y-125598632D01*
X114196348Y-125435072D01*
X114150000Y-125360000D01*
X115190000Y-125360000D01*
X115143652Y-125435071D01*
G37*
%TO.C,REF\u002A\u002A9*%
X130383652Y-122895071D02*
X130317569Y-123058632D01*
X130283909Y-123231797D01*
X130283909Y-123408203D01*
X130317569Y-123581368D01*
X130383652Y-123744929D01*
X130430000Y-123820000D01*
X129390000Y-123820000D01*
X129436348Y-123744928D01*
X129502430Y-123581368D01*
X129536090Y-123408203D01*
X129536090Y-123231797D01*
X129502430Y-123058632D01*
X129436348Y-122895072D01*
X129390000Y-122820000D01*
X130430000Y-122820000D01*
X130383652Y-122895071D01*
G36*
X130383652Y-122895071D02*
G01*
X130317569Y-123058632D01*
X130283909Y-123231797D01*
X130283909Y-123408203D01*
X130317569Y-123581368D01*
X130383652Y-123744929D01*
X130430000Y-123820000D01*
X129390000Y-123820000D01*
X129436348Y-123744928D01*
X129502430Y-123581368D01*
X129536090Y-123408203D01*
X129536090Y-123231797D01*
X129502430Y-123058632D01*
X129436348Y-122895072D01*
X129390000Y-122820000D01*
X130430000Y-122820000D01*
X130383652Y-122895071D01*
G37*
%TO.C,REF\u002A\u002A8*%
X127843652Y-122895071D02*
X127777569Y-123058632D01*
X127743909Y-123231797D01*
X127743909Y-123408203D01*
X127777569Y-123581368D01*
X127843652Y-123744929D01*
X127890000Y-123820000D01*
X126850000Y-123820000D01*
X126896348Y-123744928D01*
X126962430Y-123581368D01*
X126996090Y-123408203D01*
X126996090Y-123231797D01*
X126962430Y-123058632D01*
X126896348Y-122895072D01*
X126850000Y-122820000D01*
X127890000Y-122820000D01*
X127843652Y-122895071D01*
G36*
X127843652Y-122895071D02*
G01*
X127777569Y-123058632D01*
X127743909Y-123231797D01*
X127743909Y-123408203D01*
X127777569Y-123581368D01*
X127843652Y-123744929D01*
X127890000Y-123820000D01*
X126850000Y-123820000D01*
X126896348Y-123744928D01*
X126962430Y-123581368D01*
X126996090Y-123408203D01*
X126996090Y-123231797D01*
X126962430Y-123058632D01*
X126896348Y-122895072D01*
X126850000Y-122820000D01*
X127890000Y-122820000D01*
X127843652Y-122895071D01*
G37*
%TO.C,REF\u002A\u002A7*%
X125303652Y-122895071D02*
X125237569Y-123058632D01*
X125203909Y-123231797D01*
X125203909Y-123408203D01*
X125237569Y-123581368D01*
X125303652Y-123744929D01*
X125350000Y-123820000D01*
X124310000Y-123820000D01*
X124356348Y-123744928D01*
X124422430Y-123581368D01*
X124456090Y-123408203D01*
X124456090Y-123231797D01*
X124422430Y-123058632D01*
X124356348Y-122895072D01*
X124310000Y-122820000D01*
X125350000Y-122820000D01*
X125303652Y-122895071D01*
G36*
X125303652Y-122895071D02*
G01*
X125237569Y-123058632D01*
X125203909Y-123231797D01*
X125203909Y-123408203D01*
X125237569Y-123581368D01*
X125303652Y-123744929D01*
X125350000Y-123820000D01*
X124310000Y-123820000D01*
X124356348Y-123744928D01*
X124422430Y-123581368D01*
X124456090Y-123408203D01*
X124456090Y-123231797D01*
X124422430Y-123058632D01*
X124356348Y-122895072D01*
X124310000Y-122820000D01*
X125350000Y-122820000D01*
X125303652Y-122895071D01*
G37*
%TO.C,REF\u002A\u002A6*%
X122763652Y-122895071D02*
X122697569Y-123058632D01*
X122663909Y-123231797D01*
X122663909Y-123408203D01*
X122697569Y-123581368D01*
X122763652Y-123744929D01*
X122810000Y-123820000D01*
X121770000Y-123820000D01*
X121816348Y-123744928D01*
X121882430Y-123581368D01*
X121916090Y-123408203D01*
X121916090Y-123231797D01*
X121882430Y-123058632D01*
X121816348Y-122895072D01*
X121770000Y-122820000D01*
X122810000Y-122820000D01*
X122763652Y-122895071D01*
G36*
X122763652Y-122895071D02*
G01*
X122697569Y-123058632D01*
X122663909Y-123231797D01*
X122663909Y-123408203D01*
X122697569Y-123581368D01*
X122763652Y-123744929D01*
X122810000Y-123820000D01*
X121770000Y-123820000D01*
X121816348Y-123744928D01*
X121882430Y-123581368D01*
X121916090Y-123408203D01*
X121916090Y-123231797D01*
X121882430Y-123058632D01*
X121816348Y-122895072D01*
X121770000Y-122820000D01*
X122810000Y-122820000D01*
X122763652Y-122895071D01*
G37*
%TO.C,REF\u002A\u002A5*%
X120223652Y-122895071D02*
X120157569Y-123058632D01*
X120123909Y-123231797D01*
X120123909Y-123408203D01*
X120157569Y-123581368D01*
X120223652Y-123744929D01*
X120270000Y-123820000D01*
X119230000Y-123820000D01*
X119276348Y-123744928D01*
X119342430Y-123581368D01*
X119376090Y-123408203D01*
X119376090Y-123231797D01*
X119342430Y-123058632D01*
X119276348Y-122895072D01*
X119230000Y-122820000D01*
X120270000Y-122820000D01*
X120223652Y-122895071D01*
G36*
X120223652Y-122895071D02*
G01*
X120157569Y-123058632D01*
X120123909Y-123231797D01*
X120123909Y-123408203D01*
X120157569Y-123581368D01*
X120223652Y-123744929D01*
X120270000Y-123820000D01*
X119230000Y-123820000D01*
X119276348Y-123744928D01*
X119342430Y-123581368D01*
X119376090Y-123408203D01*
X119376090Y-123231797D01*
X119342430Y-123058632D01*
X119276348Y-122895072D01*
X119230000Y-122820000D01*
X120270000Y-122820000D01*
X120223652Y-122895071D01*
G37*
%TO.C,REF\u002A\u002A4*%
X117683652Y-122895071D02*
X117617569Y-123058632D01*
X117583909Y-123231797D01*
X117583909Y-123408203D01*
X117617569Y-123581368D01*
X117683652Y-123744929D01*
X117730000Y-123820000D01*
X116690000Y-123820000D01*
X116736348Y-123744928D01*
X116802430Y-123581368D01*
X116836090Y-123408203D01*
X116836090Y-123231797D01*
X116802430Y-123058632D01*
X116736348Y-122895072D01*
X116690000Y-122820000D01*
X117730000Y-122820000D01*
X117683652Y-122895071D01*
G36*
X117683652Y-122895071D02*
G01*
X117617569Y-123058632D01*
X117583909Y-123231797D01*
X117583909Y-123408203D01*
X117617569Y-123581368D01*
X117683652Y-123744929D01*
X117730000Y-123820000D01*
X116690000Y-123820000D01*
X116736348Y-123744928D01*
X116802430Y-123581368D01*
X116836090Y-123408203D01*
X116836090Y-123231797D01*
X116802430Y-123058632D01*
X116736348Y-122895072D01*
X116690000Y-122820000D01*
X117730000Y-122820000D01*
X117683652Y-122895071D01*
G37*
%TO.C,REF\u002A\u002A*%
X115143652Y-122895071D02*
X115077569Y-123058632D01*
X115043909Y-123231797D01*
X115043909Y-123408203D01*
X115077569Y-123581368D01*
X115143652Y-123744929D01*
X115190000Y-123820000D01*
X114150000Y-123820000D01*
X114196348Y-123744928D01*
X114262430Y-123581368D01*
X114296090Y-123408203D01*
X114296090Y-123231797D01*
X114262430Y-123058632D01*
X114196348Y-122895072D01*
X114150000Y-122820000D01*
X115190000Y-122820000D01*
X115143652Y-122895071D01*
G36*
X115143652Y-122895071D02*
G01*
X115077569Y-123058632D01*
X115043909Y-123231797D01*
X115043909Y-123408203D01*
X115077569Y-123581368D01*
X115143652Y-123744929D01*
X115190000Y-123820000D01*
X114150000Y-123820000D01*
X114196348Y-123744928D01*
X114262430Y-123581368D01*
X114296090Y-123408203D01*
X114296090Y-123231797D01*
X114262430Y-123058632D01*
X114196348Y-122895072D01*
X114150000Y-122820000D01*
X115190000Y-122820000D01*
X115143652Y-122895071D01*
G37*
D13*
%TO.C,J1*%
X99910000Y-114765000D02*
X99910000Y-115440000D01*
X98890000Y-114765000D02*
X99910000Y-114765000D01*
X98890000Y-114765000D02*
X98890000Y-115440000D01*
X105410000Y-115440000D02*
X104815000Y-115440000D01*
X105410000Y-115440000D02*
X105410000Y-127910000D01*
D10*
X104815000Y-115440000D02*
X104315000Y-115940000D01*
D13*
X103815000Y-115440000D02*
X99910000Y-115440000D01*
X98890000Y-115440000D02*
X97890000Y-115440000D01*
X97890000Y-115440000D02*
X97890000Y-127910000D01*
D10*
X104315000Y-115940000D02*
X103815000Y-115440000D01*
D13*
X99910000Y-127910000D02*
X105410000Y-127910000D01*
X99910000Y-127910000D02*
X99910000Y-128585000D01*
X98890000Y-127910000D02*
X98890000Y-128585000D01*
X97890000Y-127910000D02*
X98890000Y-127910000D01*
X98890000Y-128585000D02*
X99910000Y-128585000D01*
%TO.C,D1*%
X153800000Y-117000000D02*
X154610000Y-117000000D01*
X154610000Y-117000000D02*
X154610000Y-112200000D01*
X151590000Y-116800000D02*
X151590000Y-112200000D01*
%TO.C,J2*%
X98890000Y-114235000D02*
X99910000Y-114235000D01*
X97890000Y-113560000D02*
X98890000Y-113560000D01*
X98890000Y-113560000D02*
X98890000Y-114235000D01*
X99910000Y-113560000D02*
X99910000Y-114235000D01*
X99910000Y-113560000D02*
X105410000Y-113560000D01*
D10*
X104315000Y-101590000D02*
X103815000Y-101090000D01*
D13*
X97890000Y-101090000D02*
X97890000Y-113560000D01*
X98890000Y-101090000D02*
X97890000Y-101090000D01*
X103815000Y-101090000D02*
X99910000Y-101090000D01*
D10*
X104815000Y-101090000D02*
X104315000Y-101590000D01*
D13*
X105410000Y-101090000D02*
X105410000Y-113560000D01*
X105410000Y-101090000D02*
X104815000Y-101090000D01*
X98890000Y-100415000D02*
X98890000Y-101090000D01*
X98890000Y-100415000D02*
X99910000Y-100415000D01*
X99910000Y-100415000D02*
X99910000Y-101090000D01*
%TO.C,SW2*%
X147500000Y-117250000D02*
X145500000Y-117250000D01*
X144200000Y-116250000D02*
X143750000Y-115800000D01*
X148800000Y-116250000D02*
X149250000Y-115800000D01*
X143750000Y-115800000D02*
X143750000Y-113200000D01*
X149250000Y-115800000D02*
X149250000Y-113200000D01*
X144200000Y-112750000D02*
X143750000Y-113200000D01*
X148800000Y-112750000D02*
X149250000Y-113200000D01*
X147500000Y-111750000D02*
X145500000Y-111750000D01*
%TD*%
D14*
X109000000Y-129000000D02*
X109000000Y-128150000D01*
X123000000Y-109150000D02*
X150500000Y-109150000D01*
X109000000Y-129000000D02*
X100000000Y-129000000D01*
X155000000Y-124300000D02*
X155000000Y-128150000D01*
X155000000Y-128150000D02*
X109000000Y-128150000D01*
X155000000Y-104700000D02*
X160300000Y-104700000D01*
X100000000Y-100000000D02*
X109000000Y-100000000D01*
X123000000Y-100850000D02*
X123000000Y-109150000D01*
X109000000Y-100850000D02*
X123000000Y-100850000D01*
X160300000Y-124300000D02*
X155000000Y-124300000D01*
X150500000Y-109150000D02*
X150500000Y-100850000D01*
X155000000Y-100850000D02*
X155000000Y-104700000D01*
X160300000Y-104700000D02*
X160300000Y-124300000D01*
X109000000Y-100000000D02*
X109000000Y-100850000D01*
X100000000Y-129000000D02*
X100000000Y-100000000D01*
X150500000Y-100850000D02*
X155000000Y-100850000D01*
M02*
