%TF.GenerationSoftware,KiCad,Pcbnew,7.0.11+dfsg-1build4*%
%TF.CreationDate,2025-11-13T13:22:06-05:00*%
%TF.ProjectId,wedo-pcb-components,7765646f-2d70-4636-922d-636f6d706f6e,rev?*%
%TF.SameCoordinates,Original*%
%TF.FileFunction,Copper,L2,Bot*%
%TF.FilePolarity,Positive*%
%FSLAX46Y46*%
G04 Gerber Fmt 4.6, Leading zero omitted, Abs format (unit mm)*
G04 Created by KiCad (PCBNEW 7.0.11+dfsg-1build4) date 2025-11-13 13:22:06*
%MOMM*%
%LPD*%
G01*
G04 APERTURE LIST*
%TA.AperFunction,ComponentPad*%
%ADD10C,1.700000*%
%TD*%
%TA.AperFunction,ComponentPad*%
%ADD11C,1.300000*%
%TD*%
%TA.AperFunction,ComponentPad*%
%ADD12R,1.400000X1.400000*%
%TD*%
%TA.AperFunction,ComponentPad*%
%ADD13C,1.400000*%
%TD*%
%TA.AperFunction,SMDPad,CuDef*%
%ADD14R,0.900000X1.500000*%
%TD*%
%TA.AperFunction,SMDPad,CuDef*%
%ADD15R,0.750000X1.000000*%
%TD*%
%TA.AperFunction,Conductor*%
%ADD16C,0.500000*%
%TD*%
%TA.AperFunction,Conductor*%
%ADD17C,0.200000*%
%TD*%
%TA.AperFunction,Profile*%
%ADD18C,0.050000*%
%TD*%
G04 APERTURE END LIST*
D10*
%TO.P,REF\u002A\u002A3,1*%
%TO.N,N/C*%
X121020000Y-103000000D03*
%TD*%
%TO.P,REF\u002A\u002A64,1*%
%TO.N,N/C*%
X138800000Y-110620000D03*
%TD*%
%TO.P,REF\u002A\u002A87,1*%
%TO.N,N/C*%
X113400000Y-118240000D03*
%TD*%
%TO.P,REF\u002A\u002A153,1*%
%TO.N,N/C*%
X136260000Y-123320000D03*
%TD*%
%TO.P,REF\u002A\u002A149,1*%
%TO.N,N/C*%
X126100000Y-123320000D03*
%TD*%
%TO.P,REF\u002A\u002A94,1*%
%TO.N,N/C*%
X123560000Y-115700000D03*
%TD*%
%TO.P,REF\u002A\u002A75,1*%
%TO.N,N/C*%
X121020000Y-113160000D03*
%TD*%
%TO.P,REF\u002A\u002A18,1*%
%TO.N,N/C*%
X113400000Y-105540000D03*
%TD*%
%TO.P,REF\u002A\u002A34,1*%
%TO.N,N/C*%
X154040000Y-105540000D03*
%TD*%
%TO.P,REF\u002A\u002A61,1*%
%TO.N,N/C*%
X131180000Y-110620000D03*
%TD*%
%TO.P,REF\u002A\u002A135,1*%
%TO.N,N/C*%
X136260000Y-120780000D03*
%TD*%
%TO.P,REF\u002A\u002A63,1*%
%TO.N,N/C*%
X136260000Y-110620000D03*
%TD*%
%TO.P,REF\u002A\u002A176,1*%
%TO.N,N/C*%
X148960000Y-125860000D03*
%TD*%
%TO.P,REF\u002A\u002A111,1*%
%TO.N,N/C*%
X121020000Y-118240000D03*
%TD*%
%TO.P,REF\u002A\u002A159,1*%
%TO.N,N/C*%
X151500000Y-123320000D03*
%TD*%
%TO.P,REF\u002A\u002A76,1*%
%TO.N,N/C*%
X123560000Y-113160000D03*
%TD*%
%TO.P,REF\u002A\u002A19,1*%
%TO.N,N/C*%
X115940000Y-105540000D03*
%TD*%
%TO.P,REF\u002A\u002A146,1*%
%TO.N,N/C*%
X118480000Y-123320000D03*
%TD*%
%TO.P,REF\u002A\u002A150,1*%
%TO.N,N/C*%
X128640000Y-123320000D03*
%TD*%
%TO.P,REF\u002A\u002A133,1*%
%TO.N,N/C*%
X131180000Y-120780000D03*
%TD*%
%TO.P,REF\u002A\u002A128,1*%
%TO.N,N/C*%
X118480000Y-120780000D03*
%TD*%
%TO.P,REF\u002A\u002A104,1*%
%TO.N,J1-PIN6*%
X108320000Y-120780000D03*
%TD*%
%TO.P,REF\u002A\u002A164,1*%
%TO.N,N/C*%
X118480000Y-125860000D03*
%TD*%
%TO.P,REF\u002A\u002A162,1*%
%TO.N,N/C*%
X113400000Y-125860000D03*
%TD*%
%TO.P,REF\u002A\u002A16,1*%
%TO.N,N/C*%
X154040000Y-103000000D03*
%TD*%
%TO.P,REF\u002A\u002A145,1*%
%TO.N,N/C*%
X115940000Y-123320000D03*
%TD*%
%TO.P,REF\u002A\u002A134,1*%
%TO.N,N/C*%
X133720000Y-120780000D03*
%TD*%
%TO.P,REF\u002A\u002A119,1*%
%TO.N,N/C*%
X141340000Y-118240000D03*
%TD*%
%TO.P,REF\u002A\u002A161,1*%
%TO.N,N/C*%
X156580000Y-123320000D03*
%TD*%
%TO.P,REF\u002A\u002A91,1*%
%TO.N,N/C*%
X115940000Y-115700000D03*
%TD*%
%TO.P,REF\u002A\u002A101,1*%
%TO.N,N/C*%
X141340000Y-115700000D03*
%TD*%
%TO.P,REF\u002A\u002A93,1*%
%TO.N,N/C*%
X121020000Y-115700000D03*
%TD*%
%TO.P,REF\u002A\u002A178,1*%
%TO.N,N/C*%
X154040000Y-125860000D03*
%TD*%
%TO.P,REF\u002A\u002A15,1*%
%TO.N,N/C*%
X151500000Y-103000000D03*
%TD*%
%TO.P,REF\u002A\u002A137,1*%
%TO.N,N/C*%
X141340000Y-120780000D03*
%TD*%
%TO.P,REF\u002A\u002A58,1*%
%TO.N,N/C*%
X123560000Y-110620000D03*
%TD*%
%TO.P,REF\u002A\u002A116,1*%
%TO.N,N/C*%
X133720000Y-118240000D03*
%TD*%
%TO.P,REF\u002A\u002A39,1*%
%TO.N,N/C*%
X121020000Y-108080000D03*
%TD*%
%TO.P,REF\u002A\u002A141,1*%
%TO.N,D1-PIN1*%
X151500000Y-120780000D03*
%TD*%
%TO.P,REF\u002A\u002A85,1*%
%TO.N,J1-PIN1*%
X110860000Y-115700000D03*
%TD*%
%TO.P,REF\u002A\u002A1,1*%
%TO.N,N/C*%
X115940000Y-103000000D03*
%TD*%
%TO.P,REF\u002A\u002A38,1*%
%TO.N,N/C*%
X118480000Y-108080000D03*
%TD*%
%TO.P,REF\u002A\u002A139,1*%
%TO.N,SW2-PIN1*%
X146420000Y-120780000D03*
%TD*%
%TO.P,REF\u002A\u002A33,1*%
%TO.N,N/C*%
X151500000Y-105540000D03*
%TD*%
%TO.P,REF\u002A\u002A127,1*%
%TO.N,N/C*%
X115940000Y-120780000D03*
%TD*%
%TO.P,REF\u002A\u002A73,1*%
%TO.N,N/C*%
X115940000Y-113160000D03*
%TD*%
%TO.P,REF\u002A\u002A99,1*%
%TO.N,N/C*%
X136260000Y-115700000D03*
%TD*%
%TO.P,REF\u002A\u002A79,1*%
%TO.N,N/C*%
X131180000Y-113160000D03*
%TD*%
%TO.P,REF\u002A\u002A77,1*%
%TO.N,N/C*%
X126100000Y-113160000D03*
%TD*%
%TO.P,REF\u002A\u002A67,1*%
%TO.N,J2-PIN4*%
X108320000Y-110620000D03*
%TD*%
%TO.P,REF\u002A\u002A169,1*%
%TO.N,N/C*%
X131180000Y-125860000D03*
%TD*%
%TO.P,REF\u002A\u002A130,1*%
%TO.N,N/C*%
X123560000Y-120780000D03*
%TD*%
%TO.P,REF\u002A\u002A177,1*%
%TO.N,N/C*%
X151500000Y-125860000D03*
%TD*%
%TO.P,REF\u002A\u002A125,1*%
%TO.N,J3-PIN2*%
X156580000Y-118240000D03*
%TD*%
%TO.P,REF\u002A\u002A21,1*%
%TO.N,N/C*%
X121020000Y-105540000D03*
%TD*%
%TO.P,REF\u002A\u002A52,1*%
%TO.N,J2-PIN2*%
X108320000Y-108080000D03*
%TD*%
%TO.P,REF\u002A\u002A143,1*%
%TO.N,J3-PIN3*%
X156580000Y-120780000D03*
%TD*%
%TO.P,REF\u002A\u002A102,1*%
%TO.N,N/C*%
X113400000Y-120780000D03*
%TD*%
%TO.P,REF\u002A\u002A163,1*%
%TO.N,N/C*%
X115940000Y-125860000D03*
%TD*%
%TO.P,REF\u002A\u002A147,1*%
%TO.N,N/C*%
X121020000Y-123320000D03*
%TD*%
%TO.P,REF\u002A\u002A51,1*%
%TO.N,N/C*%
X151500000Y-108080000D03*
%TD*%
%TO.P,REF\u002A\u002A84,1*%
%TO.N,N/C*%
X113400000Y-115700000D03*
%TD*%
%TO.P,REF\u002A\u002A103,1*%
%TO.N,J1-PIN5*%
X110860000Y-120780000D03*
%TD*%
%TO.P,REF\u002A\u002A,1*%
%TO.N,N/C*%
X113400000Y-103000000D03*
%TD*%
%TO.P,REF\u002A\u002A59,1*%
%TO.N,N/C*%
X126100000Y-110620000D03*
%TD*%
%TO.P,REF\u002A\u002A140,1*%
%TO.N,N/C*%
X148960000Y-120780000D03*
%TD*%
%TO.P,REF\u002A\u002A55,1*%
%TO.N,N/C*%
X115940000Y-110620000D03*
%TD*%
%TO.P,REF\u002A\u002A95,1*%
%TO.N,N/C*%
X126100000Y-115700000D03*
%TD*%
%TO.P,REF\u002A\u002A118,1*%
%TO.N,N/C*%
X138800000Y-118240000D03*
%TD*%
%TO.P,REF\u002A\u002A112,1*%
%TO.N,N/C*%
X123560000Y-118240000D03*
%TD*%
%TO.P,REF\u002A\u002A151,1*%
%TO.N,N/C*%
X131180000Y-123320000D03*
%TD*%
%TO.P,REF\u002A\u002A37,1*%
%TO.N,N/C*%
X115940000Y-108080000D03*
%TD*%
%TO.P,REF\u002A\u002A109,1*%
%TO.N,N/C*%
X115940000Y-118240000D03*
%TD*%
%TO.P,REF\u002A\u002A158,1*%
%TO.N,N/C*%
X148960000Y-123320000D03*
%TD*%
%TO.P,REF\u002A\u002A155,1*%
%TO.N,N/C*%
X141340000Y-123320000D03*
%TD*%
%TO.P,REF\u002A\u002A86,1*%
%TO.N,J1-PIN2*%
X108320000Y-115700000D03*
%TD*%
%TO.P,REF\u002A\u002A167,1*%
%TO.N,N/C*%
X126100000Y-125860000D03*
%TD*%
%TO.P,REF\u002A\u002A172,1*%
%TO.N,N/C*%
X138800000Y-125860000D03*
%TD*%
%TO.P,REF\u002A\u002A115,1*%
%TO.N,N/C*%
X131180000Y-118240000D03*
%TD*%
%TO.P,REF\u002A\u002A74,1*%
%TO.N,N/C*%
X118480000Y-113160000D03*
%TD*%
%TO.P,REF\u002A\u002A98,1*%
%TO.N,N/C*%
X133720000Y-115700000D03*
%TD*%
%TO.P,REF\u002A\u002A148,1*%
%TO.N,N/C*%
X123560000Y-123320000D03*
%TD*%
%TO.P,REF\u002A\u002A168,1*%
%TO.N,N/C*%
X128640000Y-125860000D03*
%TD*%
%TO.P,REF\u002A\u002A62,1*%
%TO.N,N/C*%
X133720000Y-110620000D03*
%TD*%
%TO.P,REF\u002A\u002A160,1*%
%TO.N,N/C*%
X154040000Y-123320000D03*
%TD*%
%TO.P,REF\u002A\u002A113,1*%
%TO.N,N/C*%
X126100000Y-118240000D03*
%TD*%
%TO.P,REF\u002A\u002A173,1*%
%TO.N,N/C*%
X141340000Y-125860000D03*
%TD*%
%TO.P,REF\u002A\u002A166,1*%
%TO.N,N/C*%
X123560000Y-125860000D03*
%TD*%
%TO.P,REF\u002A\u002A142,1*%
%TO.N,D1-PIN2*%
X154040000Y-120780000D03*
%TD*%
%TO.P,REF\u002A\u002A126,1*%
%TO.N,N/C*%
X113400000Y-120780000D03*
%TD*%
%TO.P,REF\u002A\u002A175,1*%
%TO.N,N/C*%
X146420000Y-125860000D03*
%TD*%
%TO.P,REF\u002A\u002A90,1*%
%TO.N,N/C*%
X113400000Y-115700000D03*
%TD*%
%TO.P,REF\u002A\u002A60,1*%
%TO.N,N/C*%
X128640000Y-110620000D03*
%TD*%
%TO.P,REF\u002A\u002A56,1*%
%TO.N,N/C*%
X118480000Y-110620000D03*
%TD*%
D11*
%TO.P,J3,1,Pin_1*%
%TO.N,J3-PIN1*%
X157500000Y-112000000D03*
%TO.P,J3,2,Pin_2*%
%TO.N,J3-PIN2*%
X157500000Y-110000000D03*
%TO.P,J3,3,Pin_3*%
%TO.N,J3-PIN3*%
X157500000Y-108000000D03*
%TD*%
D10*
%TO.P,REF\u002A\u002A72,1*%
%TO.N,N/C*%
X113400000Y-113160000D03*
%TD*%
%TO.P,REF\u002A\u002A80,1*%
%TO.N,N/C*%
X133720000Y-113160000D03*
%TD*%
%TO.P,REF\u002A\u002A131,1*%
%TO.N,N/C*%
X126100000Y-120780000D03*
%TD*%
%TO.P,REF\u002A\u002A54,1*%
%TO.N,N/C*%
X113400000Y-110620000D03*
%TD*%
%TO.P,REF\u002A\u002A144,1*%
%TO.N,N/C*%
X113400000Y-123320000D03*
%TD*%
%TO.P,REF\u002A\u002A40,1*%
%TO.N,J2-PIN1*%
X110860000Y-108080000D03*
%TD*%
%TO.P,REF\u002A\u002A110,1*%
%TO.N,N/C*%
X118480000Y-118240000D03*
%TD*%
%TO.P,REF\u002A\u002A156,1*%
%TO.N,N/C*%
X143880000Y-123320000D03*
%TD*%
%TO.P,REF\u002A\u002A53,1*%
%TO.N,N/C*%
X113400000Y-110620000D03*
%TD*%
%TO.P,REF\u002A\u002A88,1*%
%TO.N,J1-PIN3*%
X110860000Y-118240000D03*
%TD*%
%TO.P,REF\u002A\u002A78,1*%
%TO.N,N/C*%
X128640000Y-113160000D03*
%TD*%
%TO.P,REF\u002A\u002A71,1*%
%TO.N,J2-PIN6*%
X108320000Y-113160000D03*
%TD*%
%TO.P,REF\u002A\u002A108,1*%
%TO.N,N/C*%
X113400000Y-118240000D03*
%TD*%
%TO.P,REF\u002A\u002A70,1*%
%TO.N,J2-PIN5*%
X110860000Y-113160000D03*
%TD*%
%TO.P,REF\u002A\u002A174,1*%
%TO.N,N/C*%
X143880000Y-125860000D03*
%TD*%
%TO.P,REF\u002A\u002A82,1*%
%TO.N,N/C*%
X138800000Y-113160000D03*
%TD*%
%TO.P,REF\u002A\u002A68,1*%
%TO.N,N/C*%
X113400000Y-113160000D03*
%TD*%
%TO.P,REF\u002A\u002A2,1*%
%TO.N,N/C*%
X118480000Y-103000000D03*
%TD*%
%TO.P,REF\u002A\u002A36,1*%
%TO.N,N/C*%
X113400000Y-108080000D03*
%TD*%
%TO.P,REF\u002A\u002A136,1*%
%TO.N,N/C*%
X138800000Y-120780000D03*
%TD*%
%TO.P,REF\u002A\u002A165,1*%
%TO.N,N/C*%
X121020000Y-125860000D03*
%TD*%
%TO.P,REF\u002A\u002A81,1*%
%TO.N,N/C*%
X136260000Y-113160000D03*
%TD*%
%TO.P,REF\u002A\u002A171,1*%
%TO.N,N/C*%
X136260000Y-125860000D03*
%TD*%
%TO.P,REF\u002A\u002A107,1*%
%TO.N,J3-PIN1*%
X156580000Y-115700000D03*
%TD*%
%TO.P,REF\u002A\u002A129,1*%
%TO.N,N/C*%
X121020000Y-120780000D03*
%TD*%
%TO.P,REF\u002A\u002A66,1*%
%TO.N,J2-PIN3*%
X110860000Y-110620000D03*
%TD*%
%TO.P,REF\u002A\u002A152,1*%
%TO.N,N/C*%
X133720000Y-123320000D03*
%TD*%
%TO.P,REF\u002A\u002A157,1*%
%TO.N,N/C*%
X146420000Y-123320000D03*
%TD*%
%TO.P,REF\u002A\u002A124,1*%
%TO.N,D1-PIN3*%
X154040000Y-118240000D03*
%TD*%
%TO.P,REF\u002A\u002A123,1*%
%TO.N,D1-PIN4*%
X151500000Y-118240000D03*
%TD*%
%TO.P,REF\u002A\u002A69,1*%
%TO.N,N/C*%
X151500000Y-110620000D03*
%TD*%
%TO.P,REF\u002A\u002A170,1*%
%TO.N,N/C*%
X133720000Y-125860000D03*
%TD*%
%TO.P,REF\u002A\u002A89,1*%
%TO.N,J1-PIN4*%
X108320000Y-118240000D03*
%TD*%
%TO.P,REF\u002A\u002A138,1*%
%TO.N,SW2-PIN2*%
X143880000Y-120780000D03*
%TD*%
%TO.P,REF\u002A\u002A83,1*%
%TO.N,N/C*%
X141340000Y-113160000D03*
%TD*%
%TO.P,REF\u002A\u002A114,1*%
%TO.N,N/C*%
X128640000Y-118240000D03*
%TD*%
%TO.P,REF\u002A\u002A132,1*%
%TO.N,N/C*%
X128640000Y-120780000D03*
%TD*%
%TO.P,REF\u002A\u002A100,1*%
%TO.N,N/C*%
X138800000Y-115700000D03*
%TD*%
%TO.P,REF\u002A\u002A97,1*%
%TO.N,N/C*%
X131180000Y-115700000D03*
%TD*%
%TO.P,REF\u002A\u002A20,1*%
%TO.N,N/C*%
X118480000Y-105540000D03*
%TD*%
%TO.P,REF\u002A\u002A65,1*%
%TO.N,N/C*%
X141340000Y-110620000D03*
%TD*%
%TO.P,REF\u002A\u002A154,1*%
%TO.N,N/C*%
X138800000Y-123320000D03*
%TD*%
%TO.P,REF\u002A\u002A96,1*%
%TO.N,N/C*%
X128640000Y-115700000D03*
%TD*%
%TO.P,REF\u002A\u002A57,1*%
%TO.N,N/C*%
X121020000Y-110620000D03*
%TD*%
%TO.P,REF\u002A\u002A92,1*%
%TO.N,N/C*%
X118480000Y-115700000D03*
%TD*%
%TO.P,REF\u002A\u002A117,1*%
%TO.N,N/C*%
X136260000Y-118240000D03*
%TD*%
D12*
%TO.P,J1,1*%
%TO.N,J1-PIN1*%
X104300000Y-118500000D03*
D13*
%TO.P,J1,2*%
%TO.N,J1-PIN2*%
X102350000Y-119770000D03*
%TO.P,J1,3*%
%TO.N,J1-PIN3*%
X104300000Y-121040000D03*
%TO.P,J1,4*%
%TO.N,J1-PIN4*%
X102350000Y-122310000D03*
%TO.P,J1,5*%
%TO.N,J1-PIN5*%
X104300000Y-123580000D03*
%TO.P,J1,6*%
%TO.N,J1-PIN6*%
X102350000Y-124850000D03*
%TD*%
D14*
%TO.P,D1,1,RA*%
%TO.N,D1-PIN1*%
X153800000Y-112950000D03*
%TO.P,D1,2,GA*%
%TO.N,D1-PIN2*%
X152400000Y-112950000D03*
%TO.P,D1,3,BA*%
%TO.N,D1-PIN3*%
X153800000Y-116050000D03*
%TO.P,D1,4,K*%
%TO.N,D1-PIN4*%
X152400000Y-116050000D03*
%TD*%
D13*
%TO.P,J2,6*%
%TO.N,J2-PIN6*%
X102350000Y-110500000D03*
%TO.P,J2,5*%
%TO.N,J2-PIN5*%
X104300000Y-109230000D03*
%TO.P,J2,4*%
%TO.N,J2-PIN4*%
X102350000Y-107960000D03*
%TO.P,J2,3*%
%TO.N,J2-PIN3*%
X104300000Y-106690000D03*
%TO.P,J2,2*%
%TO.N,J2-PIN2*%
X102350000Y-105420000D03*
D12*
%TO.P,J2,1*%
%TO.N,J2-PIN1*%
X104300000Y-104150000D03*
%TD*%
D15*
%TO.P,SW2,1,C*%
%TO.N,SW2-PIN1*%
X148375000Y-117500000D03*
X148375000Y-111500000D03*
%TO.P,SW2,2,D*%
%TO.N,SW2-PIN2*%
X144625000Y-117500000D03*
X144625000Y-111500000D03*
%TD*%
D16*
%TO.N,*%
X151500000Y-110620000D02*
X151500000Y-108080000D01*
X141340000Y-120780000D02*
X141340000Y-118240000D01*
X141340000Y-115700000D02*
X141340000Y-118240000D01*
X141340000Y-113160000D02*
X141340000Y-115700000D01*
X141340000Y-110620000D02*
X141340000Y-113160000D01*
X138800000Y-113160000D02*
X138800000Y-110620000D01*
X138800000Y-115700000D02*
X138800000Y-113160000D01*
X138800000Y-118240000D02*
X138800000Y-115700000D01*
X138800000Y-120780000D02*
X138800000Y-118240000D01*
X136260000Y-120780000D02*
X136260000Y-118240000D01*
X136260000Y-115700000D02*
X136260000Y-118240000D01*
X136260000Y-113160000D02*
X136260000Y-115700000D01*
X136260000Y-110620000D02*
X136260000Y-113160000D01*
X133720000Y-113160000D02*
X133720000Y-110620000D01*
X133720000Y-115700000D02*
X133720000Y-113160000D01*
X133720000Y-118240000D02*
X133720000Y-115700000D01*
X133720000Y-120780000D02*
X133720000Y-118240000D01*
X131180000Y-118240000D02*
X131180000Y-120780000D01*
X131180000Y-115700000D02*
X131180000Y-118240000D01*
X131180000Y-113160000D02*
X131180000Y-115700000D01*
X131180000Y-110620000D02*
X131180000Y-113160000D01*
X128640000Y-113160000D02*
X128640000Y-110620000D01*
X128640000Y-115700000D02*
X128640000Y-113160000D01*
X128640000Y-118240000D02*
X128640000Y-115700000D01*
X128640000Y-120780000D02*
X128640000Y-118240000D01*
X126100000Y-118240000D02*
X126100000Y-120780000D01*
X126100000Y-115700000D02*
X126100000Y-118240000D01*
X126100000Y-113160000D02*
X126100000Y-115700000D01*
X126100000Y-110620000D02*
X126100000Y-113160000D01*
X123560000Y-113160000D02*
X123560000Y-110620000D01*
X123560000Y-115700000D02*
X123560000Y-113160000D01*
X123560000Y-118240000D02*
X123560000Y-115700000D01*
X123560000Y-120780000D02*
X123560000Y-118240000D01*
X121020000Y-120780000D02*
X121020000Y-118240000D01*
X121020000Y-115700000D02*
X121020000Y-118240000D01*
X121020000Y-113160000D02*
X121020000Y-115700000D01*
X121020000Y-110620000D02*
X121020000Y-113160000D01*
X118480000Y-120780000D02*
X118480000Y-118240000D01*
X118480000Y-118240000D02*
X118480000Y-115700000D01*
X118480000Y-113160000D02*
X118480000Y-115700000D01*
X118480000Y-110620000D02*
X118480000Y-113160000D01*
X115940000Y-113160000D02*
X115940000Y-110620000D01*
X115940000Y-115700000D02*
X115940000Y-113160000D01*
X115940000Y-118240000D02*
X115940000Y-115700000D01*
X115940000Y-120780000D02*
X115940000Y-118240000D01*
X113400000Y-118240000D02*
X113400000Y-120780000D01*
X113400000Y-115700000D02*
X113400000Y-118240000D01*
X113400000Y-113160000D02*
X113400000Y-115700000D01*
X113400000Y-110620000D02*
X113400000Y-113160000D01*
X121020000Y-108080000D02*
X121020000Y-110620000D01*
X118480000Y-108080000D02*
X118480000Y-110620000D01*
X115940000Y-108080000D02*
X115940000Y-110620000D01*
X113400000Y-108080000D02*
X113400000Y-110620000D01*
X154040000Y-105540000D02*
X151500000Y-105540000D01*
X151500000Y-103000000D02*
X154040000Y-103000000D01*
X115940000Y-105540000D02*
X118480000Y-105540000D01*
X113400000Y-105540000D02*
X115940000Y-105540000D01*
X121020000Y-105540000D02*
X118480000Y-105540000D01*
X118480000Y-103000000D02*
X121020000Y-103000000D01*
X115940000Y-103000000D02*
X118480000Y-103000000D01*
X113400000Y-103000000D02*
X115940000Y-103000000D01*
X154040000Y-123320000D02*
X156580000Y-123320000D01*
X151500000Y-125860000D02*
X154040000Y-125860000D01*
X151500000Y-123320000D02*
X154040000Y-123320000D01*
X148960000Y-125860000D02*
X151500000Y-125860000D01*
X148960000Y-123320000D02*
X151500000Y-123320000D01*
X146420000Y-125860000D02*
X148960000Y-125860000D01*
X146420000Y-123320000D02*
X148960000Y-123320000D01*
X143880000Y-125860000D02*
X146420000Y-125860000D01*
X143880000Y-123320000D02*
X146420000Y-123320000D01*
X141340000Y-125860000D02*
X143880000Y-125860000D01*
X141340000Y-123320000D02*
X143880000Y-123320000D01*
X138800000Y-125860000D02*
X141340000Y-125860000D01*
X138800000Y-123320000D02*
X141340000Y-123320000D01*
X136260000Y-125860000D02*
X138800000Y-125860000D01*
X136260000Y-123320000D02*
X138800000Y-123320000D01*
X133720000Y-125860000D02*
X136260000Y-125860000D01*
X133720000Y-123320000D02*
X136260000Y-123320000D01*
X128640000Y-125860000D02*
X131180000Y-125860000D01*
X128640000Y-123320000D02*
X131180000Y-123320000D01*
X126100000Y-125860000D02*
X128640000Y-125860000D01*
X126100000Y-123320000D02*
X128640000Y-123320000D01*
X123560000Y-125860000D02*
X126100000Y-125860000D01*
X123560000Y-123320000D02*
X126100000Y-123320000D01*
X121020000Y-125860000D02*
X123560000Y-125860000D01*
X121020000Y-123320000D02*
X123560000Y-123320000D01*
X118480000Y-125860000D02*
X121020000Y-125860000D01*
X118480000Y-123320000D02*
X121020000Y-123320000D01*
X115940000Y-125860000D02*
X118480000Y-125860000D01*
X115940000Y-123320000D02*
X118480000Y-123320000D01*
X113400000Y-125860000D02*
X115940000Y-125860000D01*
X113400000Y-123320000D02*
X115940000Y-123320000D01*
D17*
%TO.N,SW2-PIN1*%
X146420000Y-120780000D02*
X146420000Y-119455000D01*
X146420000Y-119455000D02*
X148375000Y-117500000D01*
%TO.N,SW2-PIN2*%
X143880000Y-120780000D02*
X143880000Y-118245000D01*
X143880000Y-118245000D02*
X144625000Y-117500000D01*
%TO.N,D1-PIN1*%
X153800000Y-112950000D02*
X153800000Y-112650000D01*
X153800000Y-112650000D02*
X153050000Y-111900000D01*
X153050000Y-111900000D02*
X151650000Y-111900000D01*
X149860000Y-113690000D02*
X149860000Y-119140000D01*
X151650000Y-111900000D02*
X149860000Y-113690000D01*
X149860000Y-119140000D02*
X151500000Y-120780000D01*
%TO.N,D1-PIN2*%
X152400000Y-112950000D02*
X150350000Y-115000000D01*
X150350000Y-115000000D02*
X150350000Y-118716346D01*
X150350000Y-118716346D02*
X151023654Y-119390000D01*
X151023654Y-119390000D02*
X152650000Y-119390000D01*
X152650000Y-119390000D02*
X154040000Y-120780000D01*
%TO.N,D1-PIN4*%
X151500000Y-118240000D02*
X151500000Y-116950000D01*
X151500000Y-116950000D02*
X152400000Y-116050000D01*
%TO.N,D1-PIN3*%
X154040000Y-118240000D02*
X154040000Y-116290000D01*
X154040000Y-116290000D02*
X153800000Y-116050000D01*
%TO.N,J3-PIN3*%
X156580000Y-120780000D02*
X155430000Y-119630000D01*
X155430000Y-117655685D02*
X155030000Y-117255685D01*
X155430000Y-119630000D02*
X155430000Y-117655685D01*
X155030000Y-117255685D02*
X155030000Y-110470000D01*
X155030000Y-110470000D02*
X157500000Y-108000000D01*
%TO.N,J3-PIN2*%
X156580000Y-118240000D02*
X155430000Y-117090000D01*
X155430000Y-117090000D02*
X155430000Y-112070000D01*
X155430000Y-112070000D02*
X157500000Y-110000000D01*
%TO.N,J3-PIN1*%
X156580000Y-115700000D02*
X157500000Y-114780000D01*
X157500000Y-114780000D02*
X157500000Y-112000000D01*
%TO.N,J2-PIN1*%
X104300000Y-104150000D02*
X104300000Y-103250000D01*
X105950000Y-101600000D02*
X108223402Y-101600000D01*
X104300000Y-103250000D02*
X105950000Y-101600000D01*
X108223402Y-101600000D02*
X110860000Y-104236598D01*
X110860000Y-104236598D02*
X110860000Y-108080000D01*
%TO.N,J2-PIN2*%
X102350000Y-105420000D02*
X104444214Y-105420000D01*
X104444214Y-105420000D02*
X107104214Y-108080000D01*
X107104214Y-108080000D02*
X108320000Y-108080000D01*
%TO.N,J2-PIN4*%
X102350000Y-107960000D02*
X104444214Y-107960000D01*
X104444214Y-107960000D02*
X107104214Y-110620000D01*
X107104214Y-110620000D02*
X108320000Y-110620000D01*
%TO.N,J2-PIN3*%
X104300000Y-106690000D02*
X106840000Y-109230000D01*
X106840000Y-109230000D02*
X109470000Y-109230000D01*
X109470000Y-109230000D02*
X110860000Y-110620000D01*
%TO.N,J2-PIN6*%
X102350000Y-110500000D02*
X105004315Y-110500000D01*
X105004315Y-110500000D02*
X107664315Y-113160000D01*
X107664315Y-113160000D02*
X108320000Y-113160000D01*
%TO.N,J2-PIN5*%
X104300000Y-109230000D02*
X106840000Y-111770000D01*
X106840000Y-111770000D02*
X109470000Y-111770000D01*
X109470000Y-111770000D02*
X110860000Y-113160000D01*
%TO.N,J1-PIN1*%
X104300000Y-118500000D02*
X104300000Y-117600000D01*
X104300000Y-117600000D02*
X107350000Y-114550000D01*
X107350000Y-114550000D02*
X109710000Y-114550000D01*
X109710000Y-114550000D02*
X110860000Y-115700000D01*
%TO.N,J1-PIN2*%
X105994314Y-119500000D02*
X106397157Y-119097157D01*
X102620000Y-119500000D02*
X105994314Y-119500000D01*
X102350000Y-119770000D02*
X102620000Y-119500000D01*
X106397157Y-119097157D02*
X106397157Y-117622843D01*
X106397157Y-117622843D02*
X108320000Y-115700000D01*
%TO.N,J1-PIN3*%
X104300000Y-121040000D02*
X105594314Y-121040000D01*
X106330660Y-120303654D02*
X107170000Y-120303654D01*
X107170000Y-120303654D02*
X107843654Y-119630000D01*
X107843654Y-119630000D02*
X109470000Y-119630000D01*
X105594314Y-121040000D02*
X106330660Y-120303654D01*
X109470000Y-119630000D02*
X110860000Y-118240000D01*
%TO.N,J1-PIN4*%
X106020000Y-120040000D02*
X106680000Y-119380000D01*
X103630051Y-120040000D02*
X106020000Y-120040000D01*
X102350000Y-121320051D02*
X103630051Y-120040000D01*
X102350000Y-122310000D02*
X102350000Y-121320051D01*
X106680000Y-119380000D02*
X107180000Y-119380000D01*
X107180000Y-119380000D02*
X108320000Y-118240000D01*
%TO.N,J1-PIN6*%
X102350000Y-124850000D02*
X102350000Y-123860051D01*
X102350000Y-123860051D02*
X103630051Y-122580000D01*
X104620000Y-122580000D02*
X106420000Y-120780000D01*
X103630051Y-122580000D02*
X104620000Y-122580000D01*
X106420000Y-120780000D02*
X108320000Y-120780000D01*
%TO.N,J1-PIN5*%
X104300000Y-123580000D02*
X105430000Y-122450000D01*
X105430000Y-122450000D02*
X109190000Y-122450000D01*
X109190000Y-122450000D02*
X110860000Y-120780000D01*
%TD*%
D18*
X109000000Y-129000000D02*
X109000000Y-128150000D01*
X123000000Y-109150000D02*
X150500000Y-109150000D01*
X109000000Y-129000000D02*
X100000000Y-129000000D01*
X155000000Y-124300000D02*
X155000000Y-128150000D01*
X155000000Y-128150000D02*
X109000000Y-128150000D01*
X155000000Y-104700000D02*
X160300000Y-104700000D01*
X100000000Y-100000000D02*
X109000000Y-100000000D01*
X123000000Y-100850000D02*
X123000000Y-109150000D01*
X109000000Y-100850000D02*
X123000000Y-100850000D01*
X160300000Y-124300000D02*
X155000000Y-124300000D01*
X150500000Y-109150000D02*
X150500000Y-100850000D01*
X155000000Y-100850000D02*
X155000000Y-104700000D01*
X160300000Y-104700000D02*
X160300000Y-124300000D01*
X109000000Y-100000000D02*
X109000000Y-100850000D01*
X100000000Y-129000000D02*
X100000000Y-100000000D01*
X150500000Y-100850000D02*
X155000000Y-100850000D01*
M02*
