%TF.GenerationSoftware,KiCad,Pcbnew,7.0.11+dfsg-1build4*%
%TF.CreationDate,2025-11-13T13:22:06-05:00*%
%TF.ProjectId,wedo-pcb-components,7765646f-2d70-4636-922d-636f6d706f6e,rev?*%
%TF.SameCoordinates,Original*%
%TF.FileFunction,Legend,Top*%
%TF.FilePolarity,Positive*%
%FSLAX46Y46*%
G04 Gerber Fmt 4.6, Leading zero omitted, Abs format (unit mm)*
G04 Created by KiCad (PCBNEW 7.0.11+dfsg-1build4) date 2025-11-13 13:22:06*
%MOMM*%
%LPD*%
G01*
G04 APERTURE LIST*
%ADD10C,0.200000*%
%ADD11C,0.150000*%
%ADD12C,0.120000*%
%ADD13C,0.100000*%
%TA.AperFunction,Profile*%
%ADD14C,0.050000*%
%TD*%
G04 APERTURE END LIST*
D10*
X101164911Y-109971695D02*
X101012530Y-109971695D01*
X101012530Y-109971695D02*
X100936339Y-110009790D01*
X100936339Y-110009790D02*
X100898244Y-110047885D01*
X100898244Y-110047885D02*
X100822054Y-110162171D01*
X100822054Y-110162171D02*
X100783958Y-110314552D01*
X100783958Y-110314552D02*
X100783958Y-110619314D01*
X100783958Y-110619314D02*
X100822054Y-110695504D01*
X100822054Y-110695504D02*
X100860149Y-110733600D01*
X100860149Y-110733600D02*
X100936339Y-110771695D01*
X100936339Y-110771695D02*
X101088720Y-110771695D01*
X101088720Y-110771695D02*
X101164911Y-110733600D01*
X101164911Y-110733600D02*
X101203006Y-110695504D01*
X101203006Y-110695504D02*
X101241101Y-110619314D01*
X101241101Y-110619314D02*
X101241101Y-110428838D01*
X101241101Y-110428838D02*
X101203006Y-110352647D01*
X101203006Y-110352647D02*
X101164911Y-110314552D01*
X101164911Y-110314552D02*
X101088720Y-110276457D01*
X101088720Y-110276457D02*
X100936339Y-110276457D01*
X100936339Y-110276457D02*
X100860149Y-110314552D01*
X100860149Y-110314552D02*
X100822054Y-110352647D01*
X100822054Y-110352647D02*
X100783958Y-110428838D01*
X101164911Y-107698361D02*
X101164911Y-108231695D01*
X100974435Y-107393600D02*
X100783958Y-107965028D01*
X100783958Y-107965028D02*
X101279197Y-107965028D01*
X100783958Y-104967885D02*
X100822054Y-104929790D01*
X100822054Y-104929790D02*
X100898244Y-104891695D01*
X100898244Y-104891695D02*
X101088720Y-104891695D01*
X101088720Y-104891695D02*
X101164911Y-104929790D01*
X101164911Y-104929790D02*
X101203006Y-104967885D01*
X101203006Y-104967885D02*
X101241101Y-105044076D01*
X101241101Y-105044076D02*
X101241101Y-105120266D01*
X101241101Y-105120266D02*
X101203006Y-105234552D01*
X101203006Y-105234552D02*
X100745863Y-105691695D01*
X100745863Y-105691695D02*
X101241101Y-105691695D01*
X103303006Y-108771695D02*
X102922054Y-108771695D01*
X102922054Y-108771695D02*
X102883958Y-109152647D01*
X102883958Y-109152647D02*
X102922054Y-109114552D01*
X102922054Y-109114552D02*
X102998244Y-109076457D01*
X102998244Y-109076457D02*
X103188720Y-109076457D01*
X103188720Y-109076457D02*
X103264911Y-109114552D01*
X103264911Y-109114552D02*
X103303006Y-109152647D01*
X103303006Y-109152647D02*
X103341101Y-109228838D01*
X103341101Y-109228838D02*
X103341101Y-109419314D01*
X103341101Y-109419314D02*
X103303006Y-109495504D01*
X103303006Y-109495504D02*
X103264911Y-109533600D01*
X103264911Y-109533600D02*
X103188720Y-109571695D01*
X103188720Y-109571695D02*
X102998244Y-109571695D01*
X102998244Y-109571695D02*
X102922054Y-109533600D01*
X102922054Y-109533600D02*
X102883958Y-109495504D01*
X102845863Y-106231695D02*
X103341101Y-106231695D01*
X103341101Y-106231695D02*
X103074435Y-106536457D01*
X103074435Y-106536457D02*
X103188720Y-106536457D01*
X103188720Y-106536457D02*
X103264911Y-106574552D01*
X103264911Y-106574552D02*
X103303006Y-106612647D01*
X103303006Y-106612647D02*
X103341101Y-106688838D01*
X103341101Y-106688838D02*
X103341101Y-106879314D01*
X103341101Y-106879314D02*
X103303006Y-106955504D01*
X103303006Y-106955504D02*
X103264911Y-106993600D01*
X103264911Y-106993600D02*
X103188720Y-107031695D01*
X103188720Y-107031695D02*
X102960149Y-107031695D01*
X102960149Y-107031695D02*
X102883958Y-106993600D01*
X102883958Y-106993600D02*
X102845863Y-106955504D01*
X103341101Y-104491695D02*
X102883958Y-104491695D01*
X103112530Y-104491695D02*
X103112530Y-103691695D01*
X103112530Y-103691695D02*
X103036339Y-103805980D01*
X103036339Y-103805980D02*
X102960149Y-103882171D01*
X102960149Y-103882171D02*
X102883958Y-103920266D01*
X101164911Y-124371695D02*
X101012530Y-124371695D01*
X101012530Y-124371695D02*
X100936339Y-124409790D01*
X100936339Y-124409790D02*
X100898244Y-124447885D01*
X100898244Y-124447885D02*
X100822054Y-124562171D01*
X100822054Y-124562171D02*
X100783958Y-124714552D01*
X100783958Y-124714552D02*
X100783958Y-125019314D01*
X100783958Y-125019314D02*
X100822054Y-125095504D01*
X100822054Y-125095504D02*
X100860149Y-125133600D01*
X100860149Y-125133600D02*
X100936339Y-125171695D01*
X100936339Y-125171695D02*
X101088720Y-125171695D01*
X101088720Y-125171695D02*
X101164911Y-125133600D01*
X101164911Y-125133600D02*
X101203006Y-125095504D01*
X101203006Y-125095504D02*
X101241101Y-125019314D01*
X101241101Y-125019314D02*
X101241101Y-124828838D01*
X101241101Y-124828838D02*
X101203006Y-124752647D01*
X101203006Y-124752647D02*
X101164911Y-124714552D01*
X101164911Y-124714552D02*
X101088720Y-124676457D01*
X101088720Y-124676457D02*
X100936339Y-124676457D01*
X100936339Y-124676457D02*
X100860149Y-124714552D01*
X100860149Y-124714552D02*
X100822054Y-124752647D01*
X100822054Y-124752647D02*
X100783958Y-124828838D01*
X101164911Y-122098361D02*
X101164911Y-122631695D01*
X100974435Y-121793600D02*
X100783958Y-122365028D01*
X100783958Y-122365028D02*
X101279197Y-122365028D01*
X100783958Y-119367885D02*
X100822054Y-119329790D01*
X100822054Y-119329790D02*
X100898244Y-119291695D01*
X100898244Y-119291695D02*
X101088720Y-119291695D01*
X101088720Y-119291695D02*
X101164911Y-119329790D01*
X101164911Y-119329790D02*
X101203006Y-119367885D01*
X101203006Y-119367885D02*
X101241101Y-119444076D01*
X101241101Y-119444076D02*
X101241101Y-119520266D01*
X101241101Y-119520266D02*
X101203006Y-119634552D01*
X101203006Y-119634552D02*
X100745863Y-120091695D01*
X100745863Y-120091695D02*
X101241101Y-120091695D01*
X103303006Y-123171695D02*
X102922054Y-123171695D01*
X102922054Y-123171695D02*
X102883958Y-123552647D01*
X102883958Y-123552647D02*
X102922054Y-123514552D01*
X102922054Y-123514552D02*
X102998244Y-123476457D01*
X102998244Y-123476457D02*
X103188720Y-123476457D01*
X103188720Y-123476457D02*
X103264911Y-123514552D01*
X103264911Y-123514552D02*
X103303006Y-123552647D01*
X103303006Y-123552647D02*
X103341101Y-123628838D01*
X103341101Y-123628838D02*
X103341101Y-123819314D01*
X103341101Y-123819314D02*
X103303006Y-123895504D01*
X103303006Y-123895504D02*
X103264911Y-123933600D01*
X103264911Y-123933600D02*
X103188720Y-123971695D01*
X103188720Y-123971695D02*
X102998244Y-123971695D01*
X102998244Y-123971695D02*
X102922054Y-123933600D01*
X102922054Y-123933600D02*
X102883958Y-123895504D01*
X102845863Y-120631695D02*
X103341101Y-120631695D01*
X103341101Y-120631695D02*
X103074435Y-120936457D01*
X103074435Y-120936457D02*
X103188720Y-120936457D01*
X103188720Y-120936457D02*
X103264911Y-120974552D01*
X103264911Y-120974552D02*
X103303006Y-121012647D01*
X103303006Y-121012647D02*
X103341101Y-121088838D01*
X103341101Y-121088838D02*
X103341101Y-121279314D01*
X103341101Y-121279314D02*
X103303006Y-121355504D01*
X103303006Y-121355504D02*
X103264911Y-121393600D01*
X103264911Y-121393600D02*
X103188720Y-121431695D01*
X103188720Y-121431695D02*
X102960149Y-121431695D01*
X102960149Y-121431695D02*
X102883958Y-121393600D01*
X102883958Y-121393600D02*
X102845863Y-121355504D01*
X103341101Y-118891695D02*
X102883958Y-118891695D01*
X103112530Y-118891695D02*
X103112530Y-118091695D01*
X103112530Y-118091695D02*
X103036339Y-118205980D01*
X103036339Y-118205980D02*
X102960149Y-118282171D01*
X102960149Y-118282171D02*
X102883958Y-118320266D01*
D11*
X158454819Y-115333333D02*
X159169104Y-115333333D01*
X159169104Y-115333333D02*
X159311961Y-115380952D01*
X159311961Y-115380952D02*
X159407200Y-115476190D01*
X159407200Y-115476190D02*
X159454819Y-115619047D01*
X159454819Y-115619047D02*
X159454819Y-115714285D01*
X158454819Y-114952380D02*
X158454819Y-114333333D01*
X158454819Y-114333333D02*
X158835771Y-114666666D01*
X158835771Y-114666666D02*
X158835771Y-114523809D01*
X158835771Y-114523809D02*
X158883390Y-114428571D01*
X158883390Y-114428571D02*
X158931009Y-114380952D01*
X158931009Y-114380952D02*
X159026247Y-114333333D01*
X159026247Y-114333333D02*
X159264342Y-114333333D01*
X159264342Y-114333333D02*
X159359580Y-114380952D01*
X159359580Y-114380952D02*
X159407200Y-114428571D01*
X159407200Y-114428571D02*
X159454819Y-114523809D01*
X159454819Y-114523809D02*
X159454819Y-114809523D01*
X159454819Y-114809523D02*
X159407200Y-114904761D01*
X159407200Y-114904761D02*
X159359580Y-114952380D01*
D12*
%TO.C,J3*%
X155190000Y-113360000D02*
X160010000Y-113360000D01*
X155190000Y-113360000D02*
X155190000Y-112810000D01*
X160010000Y-113360000D02*
X160010000Y-106640000D01*
D13*
X155600000Y-112960000D02*
X155190000Y-113100000D01*
X155190000Y-112810000D02*
X155600000Y-112960000D01*
D12*
X155190000Y-112810000D02*
X153190000Y-112810000D01*
X153190000Y-107190000D02*
X153190000Y-112810000D01*
X155190000Y-107190000D02*
X153190000Y-107190000D01*
X155190000Y-106640000D02*
X155190000Y-107190000D01*
X160010000Y-106640000D02*
X155190000Y-106640000D01*
%TD*%
D14*
X109000000Y-129000000D02*
X109000000Y-128150000D01*
X123000000Y-109150000D02*
X150500000Y-109150000D01*
X109000000Y-129000000D02*
X100000000Y-129000000D01*
X155000000Y-124300000D02*
X155000000Y-128150000D01*
X155000000Y-128150000D02*
X109000000Y-128150000D01*
X155000000Y-104700000D02*
X160300000Y-104700000D01*
X100000000Y-100000000D02*
X109000000Y-100000000D01*
X123000000Y-100850000D02*
X123000000Y-109150000D01*
X109000000Y-100850000D02*
X123000000Y-100850000D01*
X160300000Y-124300000D02*
X155000000Y-124300000D01*
X150500000Y-109150000D02*
X150500000Y-100850000D01*
X155000000Y-100850000D02*
X155000000Y-104700000D01*
X160300000Y-104700000D02*
X160300000Y-124300000D01*
X109000000Y-100000000D02*
X109000000Y-100850000D01*
X100000000Y-129000000D02*
X100000000Y-100000000D01*
X150500000Y-100850000D02*
X155000000Y-100850000D01*
M02*
