%TF.GenerationSoftware,KiCad,Pcbnew,7.0.11+dfsg-1build4*%
%TF.CreationDate,2025-12-29T15:54:36-05:00*%
%TF.ProjectId,wedo-pcb-components,7765646f-2d70-4636-922d-636f6d706f6e,rev?*%
%TF.SameCoordinates,Original*%
%TF.FileFunction,Paste,Bot*%
%TF.FilePolarity,Positive*%
%FSLAX46Y46*%
G04 Gerber Fmt 4.6, Leading zero omitted, Abs format (unit mm)*
G04 Created by KiCad (PCBNEW 7.0.11+dfsg-1build4) date 2025-12-29 15:54:36*
%MOMM*%
%LPD*%
G01*
G04 APERTURE LIST*
%ADD10R,0.900000X1.500000*%
%ADD11R,0.750000X1.000000*%
%TA.AperFunction,Profile*%
%ADD12C,0.050000*%
%TD*%
G04 APERTURE END LIST*
D10*
%TO.C,D1*%
X153800000Y-112950000D03*
X152400000Y-112950000D03*
X153800000Y-116050000D03*
X152400000Y-116050000D03*
%TD*%
D11*
%TO.C,SW2*%
X148375000Y-117500000D03*
X148375000Y-111500000D03*
X144625000Y-117500000D03*
X144625000Y-111500000D03*
%TD*%
D12*
X109000000Y-129000000D02*
X109000000Y-128150000D01*
X123000000Y-109150000D02*
X150500000Y-109150000D01*
X109000000Y-129000000D02*
X100000000Y-129000000D01*
X155000000Y-124300000D02*
X155000000Y-128150000D01*
X155000000Y-128150000D02*
X109000000Y-128150000D01*
X155000000Y-104700000D02*
X160300000Y-104700000D01*
X100000000Y-100000000D02*
X109000000Y-100000000D01*
X123000000Y-100850000D02*
X123000000Y-109150000D01*
X109000000Y-100850000D02*
X123000000Y-100850000D01*
X160300000Y-124300000D02*
X155000000Y-124300000D01*
X150500000Y-109150000D02*
X150500000Y-100850000D01*
X155000000Y-100850000D02*
X155000000Y-104700000D01*
X160300000Y-104700000D02*
X160300000Y-124300000D01*
X109000000Y-100000000D02*
X109000000Y-100850000D01*
X100000000Y-129000000D02*
X100000000Y-100000000D01*
X150500000Y-100850000D02*
X155000000Y-100850000D01*
M02*
