%TF.GenerationSoftware,KiCad,Pcbnew,7.0.11+dfsg-1build4*%
%TF.CreationDate,2025-11-13T13:24:54-05:00*%
%TF.ProjectId,,58585858-5858-4585-9858-585858585858,rev?*%
%TF.SameCoordinates,Original*%
%TF.FileFunction,Copper,L2,Bot*%
%TF.FilePolarity,Positive*%
%FSLAX46Y46*%
G04 Gerber Fmt 4.6, Leading zero omitted, Abs format (unit mm)*
G04 Created by KiCad (PCBNEW 7.0.11+dfsg-1build4) date 2025-11-13 13:24:54*
%MOMM*%
%LPD*%
G01*
G04 APERTURE LIST*
%TA.AperFunction,SMDPad,CuDef*%
%ADD10R,0.750000X1.000000*%
%TD*%
%TA.AperFunction,ComponentPad*%
%ADD11R,1.400000X1.400000*%
%TD*%
%TA.AperFunction,ComponentPad*%
%ADD12C,1.400000*%
%TD*%
%TA.AperFunction,SMDPad,CuDef*%
%ADD13R,0.900000X1.500000*%
%TD*%
%TA.AperFunction,ComponentPad*%
%ADD14C,1.700000*%
%TD*%
%TA.AperFunction,ComponentPad*%
%ADD15C,1.300000*%
%TD*%
%TA.AperFunction,Conductor*%
%ADD16C,0.200000*%
%TD*%
%TA.AperFunction,Conductor*%
%ADD17C,0.500000*%
%TD*%
%TA.AperFunction,Profile*%
%ADD18C,0.050000*%
%TD*%
G04 APERTURE END LIST*
D10*
%TO.P,SW2,1,C*%
%TO.N,SW2-PIN1*%
X139735000Y-103440000D03*
X139735000Y-97440000D03*
%TO.P,SW2,2,D*%
%TO.N,SW2-PIN2*%
X135985000Y-103440000D03*
X135985000Y-97440000D03*
%TD*%
D11*
%TO.P,J2,1*%
%TO.N,J2-PIN1*%
X95660000Y-90090000D03*
D12*
%TO.P,J2,2*%
%TO.N,J2-PIN2*%
X93710000Y-91360000D03*
%TO.P,J2,3*%
%TO.N,J2-PIN3*%
X95660000Y-92630000D03*
%TO.P,J2,4*%
%TO.N,J2-PIN4*%
X93710000Y-93900000D03*
%TO.P,J2,5*%
%TO.N,J2-PIN5*%
X95660000Y-95170000D03*
%TO.P,J2,6*%
%TO.N,J2-PIN6*%
X93710000Y-96440000D03*
%TD*%
D13*
%TO.P,D1,1,RA*%
%TO.N,D1-PIN1*%
X145160000Y-98890000D03*
%TO.P,D1,2,GA*%
%TO.N,D1-PIN2*%
X143760000Y-98890000D03*
%TO.P,D1,3,BA*%
%TO.N,D1-PIN3*%
X145160000Y-101990000D03*
%TO.P,D1,4,K*%
%TO.N,D1-PIN4*%
X143760000Y-101990000D03*
%TD*%
D14*
%TO.P,REF\u002A\u002A169,1*%
%TO.N,N/C*%
X122540000Y-111800000D03*
%TD*%
%TO.P,REF\u002A\u002A15,1*%
%TO.N,N/C*%
X142860000Y-88940000D03*
%TD*%
%TO.P,REF\u002A\u002A39,1*%
%TO.N,N/C*%
X112380000Y-94020000D03*
%TD*%
%TO.P,REF\u002A\u002A162,1*%
%TO.N,N/C*%
X104760000Y-111800000D03*
%TD*%
%TO.P,REF\u002A\u002A18,1*%
%TO.N,N/C*%
X104760000Y-91480000D03*
%TD*%
%TO.P,REF\u002A\u002A84,1*%
%TO.N,N/C*%
X104760000Y-101640000D03*
%TD*%
%TO.P,REF\u002A\u002A61,1*%
%TO.N,N/C*%
X122540000Y-96560000D03*
%TD*%
%TO.P,REF\u002A\u002A3,1*%
%TO.N,N/C*%
X112380000Y-88940000D03*
%TD*%
%TO.P,REF\u002A\u002A148,1*%
%TO.N,N/C*%
X114920000Y-109260000D03*
%TD*%
%TO.P,REF\u002A\u002A117,1*%
%TO.N,N/C*%
X127620000Y-104180000D03*
%TD*%
%TO.P,REF\u002A\u002A92,1*%
%TO.N,N/C*%
X109840000Y-101640000D03*
%TD*%
%TO.P,REF\u002A\u002A57,1*%
%TO.N,N/C*%
X112380000Y-96560000D03*
%TD*%
%TO.P,REF\u002A\u002A96,1*%
%TO.N,N/C*%
X120000000Y-101640000D03*
%TD*%
%TO.P,REF\u002A\u002A154,1*%
%TO.N,N/C*%
X130160000Y-109260000D03*
%TD*%
%TO.P,REF\u002A\u002A65,1*%
%TO.N,N/C*%
X132700000Y-96560000D03*
%TD*%
%TO.P,REF\u002A\u002A20,1*%
%TO.N,N/C*%
X109840000Y-91480000D03*
%TD*%
%TO.P,REF\u002A\u002A54,1*%
%TO.N,N/C*%
X104760000Y-96560000D03*
%TD*%
%TO.P,REF\u002A\u002A156,1*%
%TO.N,N/C*%
X135240000Y-109260000D03*
%TD*%
%TO.P,REF\u002A\u002A82,1*%
%TO.N,N/C*%
X130160000Y-99100000D03*
%TD*%
%TO.P,REF\u002A\u002A151,1*%
%TO.N,N/C*%
X122540000Y-109260000D03*
%TD*%
%TO.P,REF\u002A\u002A159,1*%
%TO.N,N/C*%
X142860000Y-109260000D03*
%TD*%
%TO.P,REF\u002A\u002A104,1*%
%TO.N,J1-PIN6*%
X99680000Y-106720000D03*
%TD*%
%TO.P,REF\u002A\u002A38,1*%
%TO.N,N/C*%
X109840000Y-94020000D03*
%TD*%
%TO.P,REF\u002A\u002A85,1*%
%TO.N,J1-PIN1*%
X102220000Y-101640000D03*
%TD*%
%TO.P,REF\u002A\u002A98,1*%
%TO.N,N/C*%
X125080000Y-101640000D03*
%TD*%
%TO.P,REF\u002A\u002A131,1*%
%TO.N,N/C*%
X117460000Y-106720000D03*
%TD*%
%TO.P,REF\u002A\u002A114,1*%
%TO.N,N/C*%
X120000000Y-104180000D03*
%TD*%
%TO.P,REF\u002A\u002A83,1*%
%TO.N,N/C*%
X132700000Y-99100000D03*
%TD*%
%TO.P,REF\u002A\u002A124,1*%
%TO.N,D1-PIN3*%
X145400000Y-104180000D03*
%TD*%
%TO.P,REF\u002A\u002A157,1*%
%TO.N,N/C*%
X137780000Y-109260000D03*
%TD*%
%TO.P,REF\u002A\u002A62,1*%
%TO.N,N/C*%
X125080000Y-96560000D03*
%TD*%
%TO.P,REF\u002A\u002A55,1*%
%TO.N,N/C*%
X107300000Y-96560000D03*
%TD*%
%TO.P,REF\u002A\u002A144,1*%
%TO.N,N/C*%
X104760000Y-109260000D03*
%TD*%
%TO.P,REF\u002A\u002A158,1*%
%TO.N,N/C*%
X140320000Y-109260000D03*
%TD*%
%TO.P,REF\u002A\u002A74,1*%
%TO.N,N/C*%
X109840000Y-99100000D03*
%TD*%
%TO.P,REF\u002A\u002A53,1*%
%TO.N,N/C*%
X104760000Y-96560000D03*
%TD*%
%TO.P,REF\u002A\u002A113,1*%
%TO.N,N/C*%
X117460000Y-104180000D03*
%TD*%
%TO.P,REF\u002A\u002A174,1*%
%TO.N,N/C*%
X135240000Y-111800000D03*
%TD*%
%TO.P,REF\u002A\u002A70,1*%
%TO.N,J2-PIN5*%
X102220000Y-99100000D03*
%TD*%
%TO.P,REF\u002A\u002A71,1*%
%TO.N,J2-PIN6*%
X99680000Y-99100000D03*
%TD*%
%TO.P,REF\u002A\u002A72,1*%
%TO.N,N/C*%
X104760000Y-99100000D03*
%TD*%
%TO.P,REF\u002A\u002A161,1*%
%TO.N,N/C*%
X147940000Y-109260000D03*
%TD*%
%TO.P,REF\u002A\u002A75,1*%
%TO.N,N/C*%
X112380000Y-99100000D03*
%TD*%
%TO.P,REF\u002A\u002A110,1*%
%TO.N,N/C*%
X109840000Y-104180000D03*
%TD*%
%TO.P,REF\u002A\u002A103,1*%
%TO.N,J1-PIN5*%
X102220000Y-106720000D03*
%TD*%
%TO.P,REF\u002A\u002A127,1*%
%TO.N,N/C*%
X107300000Y-106720000D03*
%TD*%
%TO.P,REF\u002A\u002A90,1*%
%TO.N,N/C*%
X104760000Y-101640000D03*
%TD*%
%TO.P,REF\u002A\u002A172,1*%
%TO.N,N/C*%
X130160000Y-111800000D03*
%TD*%
%TO.P,REF\u002A\u002A147,1*%
%TO.N,N/C*%
X112380000Y-109260000D03*
%TD*%
%TO.P,REF\u002A\u002A146,1*%
%TO.N,N/C*%
X109840000Y-109260000D03*
%TD*%
%TO.P,REF\u002A\u002A175,1*%
%TO.N,N/C*%
X137780000Y-111800000D03*
%TD*%
%TO.P,REF\u002A\u002A59,1*%
%TO.N,N/C*%
X117460000Y-96560000D03*
%TD*%
%TO.P,REF\u002A\u002A130,1*%
%TO.N,N/C*%
X114920000Y-106720000D03*
%TD*%
%TO.P,REF\u002A\u002A87,1*%
%TO.N,N/C*%
X104760000Y-104180000D03*
%TD*%
%TO.P,REF\u002A\u002A139,1*%
%TO.N,SW2-PIN1*%
X137780000Y-106720000D03*
%TD*%
%TO.P,REF\u002A\u002A176,1*%
%TO.N,N/C*%
X140320000Y-111800000D03*
%TD*%
%TO.P,REF\u002A\u002A112,1*%
%TO.N,N/C*%
X114920000Y-104180000D03*
%TD*%
%TO.P,REF\u002A\u002A1,1*%
%TO.N,N/C*%
X107300000Y-88940000D03*
%TD*%
%TO.P,REF\u002A\u002A58,1*%
%TO.N,N/C*%
X114920000Y-96560000D03*
%TD*%
%TO.P,REF\u002A\u002A134,1*%
%TO.N,N/C*%
X125080000Y-106720000D03*
%TD*%
%TO.P,REF\u002A\u002A165,1*%
%TO.N,N/C*%
X112380000Y-111800000D03*
%TD*%
%TO.P,REF\u002A\u002A34,1*%
%TO.N,N/C*%
X145400000Y-91480000D03*
%TD*%
%TO.P,REF\u002A\u002A128,1*%
%TO.N,N/C*%
X109840000Y-106720000D03*
%TD*%
%TO.P,REF\u002A\u002A153,1*%
%TO.N,N/C*%
X127620000Y-109260000D03*
%TD*%
%TO.P,REF\u002A\u002A137,1*%
%TO.N,N/C*%
X132700000Y-106720000D03*
%TD*%
%TO.P,REF\u002A\u002A76,1*%
%TO.N,N/C*%
X114920000Y-99100000D03*
%TD*%
%TO.P,REF\u002A\u002A73,1*%
%TO.N,N/C*%
X107300000Y-99100000D03*
%TD*%
%TO.P,REF\u002A\u002A168,1*%
%TO.N,N/C*%
X120000000Y-111800000D03*
%TD*%
%TO.P,REF\u002A\u002A145,1*%
%TO.N,N/C*%
X107300000Y-109260000D03*
%TD*%
%TO.P,REF\u002A\u002A94,1*%
%TO.N,N/C*%
X114920000Y-101640000D03*
%TD*%
%TO.P,REF\u002A\u002A88,1*%
%TO.N,J1-PIN3*%
X102220000Y-104180000D03*
%TD*%
%TO.P,REF\u002A\u002A,1*%
%TO.N,N/C*%
X104760000Y-88940000D03*
%TD*%
D15*
%TO.P,J3,1,Pin_1*%
%TO.N,J3-PIN1*%
X148860000Y-97940000D03*
%TO.P,J3,2,Pin_2*%
%TO.N,J3-PIN2*%
X148860000Y-95940000D03*
%TO.P,J3,3,Pin_3*%
%TO.N,J3-PIN3*%
X148860000Y-93940000D03*
%TD*%
D14*
%TO.P,REF\u002A\u002A80,1*%
%TO.N,N/C*%
X125080000Y-99100000D03*
%TD*%
%TO.P,REF\u002A\u002A37,1*%
%TO.N,N/C*%
X107300000Y-94020000D03*
%TD*%
%TO.P,REF\u002A\u002A40,1*%
%TO.N,J2-PIN1*%
X102220000Y-94020000D03*
%TD*%
%TO.P,REF\u002A\u002A16,1*%
%TO.N,N/C*%
X145400000Y-88940000D03*
%TD*%
%TO.P,REF\u002A\u002A56,1*%
%TO.N,N/C*%
X109840000Y-96560000D03*
%TD*%
%TO.P,REF\u002A\u002A63,1*%
%TO.N,N/C*%
X127620000Y-96560000D03*
%TD*%
%TO.P,REF\u002A\u002A126,1*%
%TO.N,N/C*%
X104760000Y-106720000D03*
%TD*%
%TO.P,REF\u002A\u002A177,1*%
%TO.N,N/C*%
X142860000Y-111800000D03*
%TD*%
%TO.P,REF\u002A\u002A67,1*%
%TO.N,J2-PIN4*%
X99680000Y-96560000D03*
%TD*%
%TO.P,REF\u002A\u002A115,1*%
%TO.N,N/C*%
X122540000Y-104180000D03*
%TD*%
%TO.P,REF\u002A\u002A142,1*%
%TO.N,D1-PIN2*%
X145400000Y-106720000D03*
%TD*%
%TO.P,REF\u002A\u002A86,1*%
%TO.N,J1-PIN2*%
X99680000Y-101640000D03*
%TD*%
%TO.P,REF\u002A\u002A123,1*%
%TO.N,D1-PIN4*%
X142860000Y-104180000D03*
%TD*%
%TO.P,REF\u002A\u002A108,1*%
%TO.N,N/C*%
X104760000Y-104180000D03*
%TD*%
%TO.P,REF\u002A\u002A155,1*%
%TO.N,N/C*%
X132700000Y-109260000D03*
%TD*%
%TO.P,REF\u002A\u002A149,1*%
%TO.N,N/C*%
X117460000Y-109260000D03*
%TD*%
%TO.P,REF\u002A\u002A152,1*%
%TO.N,N/C*%
X125080000Y-109260000D03*
%TD*%
%TO.P,REF\u002A\u002A107,1*%
%TO.N,J3-PIN1*%
X147940000Y-101640000D03*
%TD*%
%TO.P,REF\u002A\u002A171,1*%
%TO.N,N/C*%
X127620000Y-111800000D03*
%TD*%
%TO.P,REF\u002A\u002A170,1*%
%TO.N,N/C*%
X125080000Y-111800000D03*
%TD*%
%TO.P,REF\u002A\u002A69,1*%
%TO.N,N/C*%
X142860000Y-96560000D03*
%TD*%
%TO.P,REF\u002A\u002A68,1*%
%TO.N,N/C*%
X104760000Y-99100000D03*
%TD*%
%TO.P,REF\u002A\u002A164,1*%
%TO.N,N/C*%
X109840000Y-111800000D03*
%TD*%
%TO.P,REF\u002A\u002A109,1*%
%TO.N,N/C*%
X107300000Y-104180000D03*
%TD*%
%TO.P,REF\u002A\u002A135,1*%
%TO.N,N/C*%
X127620000Y-106720000D03*
%TD*%
%TO.P,REF\u002A\u002A111,1*%
%TO.N,N/C*%
X112380000Y-104180000D03*
%TD*%
%TO.P,REF\u002A\u002A141,1*%
%TO.N,D1-PIN1*%
X142860000Y-106720000D03*
%TD*%
%TO.P,REF\u002A\u002A21,1*%
%TO.N,N/C*%
X112380000Y-91480000D03*
%TD*%
%TO.P,REF\u002A\u002A78,1*%
%TO.N,N/C*%
X120000000Y-99100000D03*
%TD*%
%TO.P,REF\u002A\u002A52,1*%
%TO.N,J2-PIN2*%
X99680000Y-94020000D03*
%TD*%
%TO.P,REF\u002A\u002A143,1*%
%TO.N,J3-PIN3*%
X147940000Y-106720000D03*
%TD*%
%TO.P,REF\u002A\u002A163,1*%
%TO.N,N/C*%
X107300000Y-111800000D03*
%TD*%
%TO.P,REF\u002A\u002A166,1*%
%TO.N,N/C*%
X114920000Y-111800000D03*
%TD*%
%TO.P,REF\u002A\u002A81,1*%
%TO.N,N/C*%
X127620000Y-99100000D03*
%TD*%
%TO.P,REF\u002A\u002A101,1*%
%TO.N,N/C*%
X132700000Y-101640000D03*
%TD*%
%TO.P,REF\u002A\u002A160,1*%
%TO.N,N/C*%
X145400000Y-109260000D03*
%TD*%
%TO.P,REF\u002A\u002A2,1*%
%TO.N,N/C*%
X109840000Y-88940000D03*
%TD*%
%TO.P,REF\u002A\u002A66,1*%
%TO.N,J2-PIN3*%
X102220000Y-96560000D03*
%TD*%
%TO.P,REF\u002A\u002A129,1*%
%TO.N,N/C*%
X112380000Y-106720000D03*
%TD*%
%TO.P,REF\u002A\u002A33,1*%
%TO.N,N/C*%
X142860000Y-91480000D03*
%TD*%
%TO.P,REF\u002A\u002A102,1*%
%TO.N,N/C*%
X104760000Y-106720000D03*
%TD*%
%TO.P,REF\u002A\u002A125,1*%
%TO.N,J3-PIN2*%
X147940000Y-104180000D03*
%TD*%
%TO.P,REF\u002A\u002A97,1*%
%TO.N,N/C*%
X122540000Y-101640000D03*
%TD*%
%TO.P,REF\u002A\u002A100,1*%
%TO.N,N/C*%
X130160000Y-101640000D03*
%TD*%
%TO.P,REF\u002A\u002A132,1*%
%TO.N,N/C*%
X120000000Y-106720000D03*
%TD*%
%TO.P,REF\u002A\u002A119,1*%
%TO.N,N/C*%
X132700000Y-104180000D03*
%TD*%
%TO.P,REF\u002A\u002A19,1*%
%TO.N,N/C*%
X107300000Y-91480000D03*
%TD*%
%TO.P,REF\u002A\u002A51,1*%
%TO.N,N/C*%
X142860000Y-94020000D03*
%TD*%
%TO.P,REF\u002A\u002A173,1*%
%TO.N,N/C*%
X132700000Y-111800000D03*
%TD*%
%TO.P,REF\u002A\u002A118,1*%
%TO.N,N/C*%
X130160000Y-104180000D03*
%TD*%
%TO.P,REF\u002A\u002A167,1*%
%TO.N,N/C*%
X117460000Y-111800000D03*
%TD*%
%TO.P,REF\u002A\u002A138,1*%
%TO.N,SW2-PIN2*%
X135240000Y-106720000D03*
%TD*%
%TO.P,REF\u002A\u002A89,1*%
%TO.N,J1-PIN4*%
X99680000Y-104180000D03*
%TD*%
%TO.P,REF\u002A\u002A99,1*%
%TO.N,N/C*%
X127620000Y-101640000D03*
%TD*%
%TO.P,REF\u002A\u002A116,1*%
%TO.N,N/C*%
X125080000Y-104180000D03*
%TD*%
%TO.P,REF\u002A\u002A95,1*%
%TO.N,N/C*%
X117460000Y-101640000D03*
%TD*%
%TO.P,REF\u002A\u002A133,1*%
%TO.N,N/C*%
X122540000Y-106720000D03*
%TD*%
%TO.P,REF\u002A\u002A60,1*%
%TO.N,N/C*%
X120000000Y-96560000D03*
%TD*%
%TO.P,REF\u002A\u002A79,1*%
%TO.N,N/C*%
X122540000Y-99100000D03*
%TD*%
%TO.P,REF\u002A\u002A140,1*%
%TO.N,N/C*%
X140320000Y-106720000D03*
%TD*%
%TO.P,REF\u002A\u002A77,1*%
%TO.N,N/C*%
X117460000Y-99100000D03*
%TD*%
%TO.P,REF\u002A\u002A64,1*%
%TO.N,N/C*%
X130160000Y-96560000D03*
%TD*%
%TO.P,REF\u002A\u002A178,1*%
%TO.N,N/C*%
X145400000Y-111800000D03*
%TD*%
%TO.P,REF\u002A\u002A91,1*%
%TO.N,N/C*%
X107300000Y-101640000D03*
%TD*%
%TO.P,REF\u002A\u002A93,1*%
%TO.N,N/C*%
X112380000Y-101640000D03*
%TD*%
%TO.P,REF\u002A\u002A150,1*%
%TO.N,N/C*%
X120000000Y-109260000D03*
%TD*%
%TO.P,REF\u002A\u002A136,1*%
%TO.N,N/C*%
X130160000Y-106720000D03*
%TD*%
%TO.P,REF\u002A\u002A36,1*%
%TO.N,N/C*%
X104760000Y-94020000D03*
%TD*%
D11*
%TO.P,J1,1*%
%TO.N,J1-PIN1*%
X95660000Y-104440000D03*
D12*
%TO.P,J1,2*%
%TO.N,J1-PIN2*%
X93710000Y-105710000D03*
%TO.P,J1,3*%
%TO.N,J1-PIN3*%
X95660000Y-106980000D03*
%TO.P,J1,4*%
%TO.N,J1-PIN4*%
X93710000Y-108250000D03*
%TO.P,J1,5*%
%TO.N,J1-PIN5*%
X95660000Y-109520000D03*
%TO.P,J1,6*%
%TO.N,J1-PIN6*%
X93710000Y-110790000D03*
%TD*%
D10*
%TO.P,SW2,1,C*%
%TO.N,SW2-PIN1*%
X139735000Y-74440000D03*
X139735000Y-68440000D03*
%TO.P,SW2,2,D*%
%TO.N,SW2-PIN2*%
X135985000Y-74440000D03*
X135985000Y-68440000D03*
%TD*%
D11*
%TO.P,J2,1*%
%TO.N,J2-PIN1*%
X95660000Y-61090000D03*
D12*
%TO.P,J2,2*%
%TO.N,J2-PIN2*%
X93710000Y-62360000D03*
%TO.P,J2,3*%
%TO.N,J2-PIN3*%
X95660000Y-63630000D03*
%TO.P,J2,4*%
%TO.N,J2-PIN4*%
X93710000Y-64900000D03*
%TO.P,J2,5*%
%TO.N,J2-PIN5*%
X95660000Y-66170000D03*
%TO.P,J2,6*%
%TO.N,J2-PIN6*%
X93710000Y-67440000D03*
%TD*%
D13*
%TO.P,D1,1,RA*%
%TO.N,D1-PIN1*%
X145160000Y-69890000D03*
%TO.P,D1,2,GA*%
%TO.N,D1-PIN2*%
X143760000Y-69890000D03*
%TO.P,D1,3,BA*%
%TO.N,D1-PIN3*%
X145160000Y-72990000D03*
%TO.P,D1,4,K*%
%TO.N,D1-PIN4*%
X143760000Y-72990000D03*
%TD*%
D14*
%TO.P,REF\u002A\u002A169,1*%
%TO.N,N/C*%
X122540000Y-82800000D03*
%TD*%
%TO.P,REF\u002A\u002A15,1*%
%TO.N,N/C*%
X142860000Y-59940000D03*
%TD*%
%TO.P,REF\u002A\u002A39,1*%
%TO.N,N/C*%
X112380000Y-65020000D03*
%TD*%
%TO.P,REF\u002A\u002A162,1*%
%TO.N,N/C*%
X104760000Y-82800000D03*
%TD*%
%TO.P,REF\u002A\u002A18,1*%
%TO.N,N/C*%
X104760000Y-62480000D03*
%TD*%
%TO.P,REF\u002A\u002A84,1*%
%TO.N,N/C*%
X104760000Y-72640000D03*
%TD*%
%TO.P,REF\u002A\u002A61,1*%
%TO.N,N/C*%
X122540000Y-67560000D03*
%TD*%
%TO.P,REF\u002A\u002A3,1*%
%TO.N,N/C*%
X112380000Y-59940000D03*
%TD*%
%TO.P,REF\u002A\u002A148,1*%
%TO.N,N/C*%
X114920000Y-80260000D03*
%TD*%
%TO.P,REF\u002A\u002A117,1*%
%TO.N,N/C*%
X127620000Y-75180000D03*
%TD*%
%TO.P,REF\u002A\u002A92,1*%
%TO.N,N/C*%
X109840000Y-72640000D03*
%TD*%
%TO.P,REF\u002A\u002A57,1*%
%TO.N,N/C*%
X112380000Y-67560000D03*
%TD*%
%TO.P,REF\u002A\u002A96,1*%
%TO.N,N/C*%
X120000000Y-72640000D03*
%TD*%
%TO.P,REF\u002A\u002A154,1*%
%TO.N,N/C*%
X130160000Y-80260000D03*
%TD*%
%TO.P,REF\u002A\u002A65,1*%
%TO.N,N/C*%
X132700000Y-67560000D03*
%TD*%
%TO.P,REF\u002A\u002A20,1*%
%TO.N,N/C*%
X109840000Y-62480000D03*
%TD*%
%TO.P,REF\u002A\u002A54,1*%
%TO.N,N/C*%
X104760000Y-67560000D03*
%TD*%
%TO.P,REF\u002A\u002A156,1*%
%TO.N,N/C*%
X135240000Y-80260000D03*
%TD*%
%TO.P,REF\u002A\u002A82,1*%
%TO.N,N/C*%
X130160000Y-70100000D03*
%TD*%
%TO.P,REF\u002A\u002A151,1*%
%TO.N,N/C*%
X122540000Y-80260000D03*
%TD*%
%TO.P,REF\u002A\u002A159,1*%
%TO.N,N/C*%
X142860000Y-80260000D03*
%TD*%
%TO.P,REF\u002A\u002A104,1*%
%TO.N,J1-PIN6*%
X99680000Y-77720000D03*
%TD*%
%TO.P,REF\u002A\u002A38,1*%
%TO.N,N/C*%
X109840000Y-65020000D03*
%TD*%
%TO.P,REF\u002A\u002A85,1*%
%TO.N,J1-PIN1*%
X102220000Y-72640000D03*
%TD*%
%TO.P,REF\u002A\u002A98,1*%
%TO.N,N/C*%
X125080000Y-72640000D03*
%TD*%
%TO.P,REF\u002A\u002A131,1*%
%TO.N,N/C*%
X117460000Y-77720000D03*
%TD*%
%TO.P,REF\u002A\u002A114,1*%
%TO.N,N/C*%
X120000000Y-75180000D03*
%TD*%
%TO.P,REF\u002A\u002A83,1*%
%TO.N,N/C*%
X132700000Y-70100000D03*
%TD*%
%TO.P,REF\u002A\u002A124,1*%
%TO.N,D1-PIN3*%
X145400000Y-75180000D03*
%TD*%
%TO.P,REF\u002A\u002A157,1*%
%TO.N,N/C*%
X137780000Y-80260000D03*
%TD*%
%TO.P,REF\u002A\u002A62,1*%
%TO.N,N/C*%
X125080000Y-67560000D03*
%TD*%
%TO.P,REF\u002A\u002A55,1*%
%TO.N,N/C*%
X107300000Y-67560000D03*
%TD*%
%TO.P,REF\u002A\u002A144,1*%
%TO.N,N/C*%
X104760000Y-80260000D03*
%TD*%
%TO.P,REF\u002A\u002A158,1*%
%TO.N,N/C*%
X140320000Y-80260000D03*
%TD*%
%TO.P,REF\u002A\u002A74,1*%
%TO.N,N/C*%
X109840000Y-70100000D03*
%TD*%
%TO.P,REF\u002A\u002A53,1*%
%TO.N,N/C*%
X104760000Y-67560000D03*
%TD*%
%TO.P,REF\u002A\u002A113,1*%
%TO.N,N/C*%
X117460000Y-75180000D03*
%TD*%
%TO.P,REF\u002A\u002A174,1*%
%TO.N,N/C*%
X135240000Y-82800000D03*
%TD*%
%TO.P,REF\u002A\u002A70,1*%
%TO.N,J2-PIN5*%
X102220000Y-70100000D03*
%TD*%
%TO.P,REF\u002A\u002A71,1*%
%TO.N,J2-PIN6*%
X99680000Y-70100000D03*
%TD*%
%TO.P,REF\u002A\u002A72,1*%
%TO.N,N/C*%
X104760000Y-70100000D03*
%TD*%
%TO.P,REF\u002A\u002A161,1*%
%TO.N,N/C*%
X147940000Y-80260000D03*
%TD*%
%TO.P,REF\u002A\u002A75,1*%
%TO.N,N/C*%
X112380000Y-70100000D03*
%TD*%
%TO.P,REF\u002A\u002A110,1*%
%TO.N,N/C*%
X109840000Y-75180000D03*
%TD*%
%TO.P,REF\u002A\u002A103,1*%
%TO.N,J1-PIN5*%
X102220000Y-77720000D03*
%TD*%
%TO.P,REF\u002A\u002A127,1*%
%TO.N,N/C*%
X107300000Y-77720000D03*
%TD*%
%TO.P,REF\u002A\u002A90,1*%
%TO.N,N/C*%
X104760000Y-72640000D03*
%TD*%
%TO.P,REF\u002A\u002A172,1*%
%TO.N,N/C*%
X130160000Y-82800000D03*
%TD*%
%TO.P,REF\u002A\u002A147,1*%
%TO.N,N/C*%
X112380000Y-80260000D03*
%TD*%
%TO.P,REF\u002A\u002A146,1*%
%TO.N,N/C*%
X109840000Y-80260000D03*
%TD*%
%TO.P,REF\u002A\u002A175,1*%
%TO.N,N/C*%
X137780000Y-82800000D03*
%TD*%
%TO.P,REF\u002A\u002A59,1*%
%TO.N,N/C*%
X117460000Y-67560000D03*
%TD*%
%TO.P,REF\u002A\u002A130,1*%
%TO.N,N/C*%
X114920000Y-77720000D03*
%TD*%
%TO.P,REF\u002A\u002A87,1*%
%TO.N,N/C*%
X104760000Y-75180000D03*
%TD*%
%TO.P,REF\u002A\u002A139,1*%
%TO.N,SW2-PIN1*%
X137780000Y-77720000D03*
%TD*%
%TO.P,REF\u002A\u002A176,1*%
%TO.N,N/C*%
X140320000Y-82800000D03*
%TD*%
%TO.P,REF\u002A\u002A112,1*%
%TO.N,N/C*%
X114920000Y-75180000D03*
%TD*%
%TO.P,REF\u002A\u002A1,1*%
%TO.N,N/C*%
X107300000Y-59940000D03*
%TD*%
%TO.P,REF\u002A\u002A58,1*%
%TO.N,N/C*%
X114920000Y-67560000D03*
%TD*%
%TO.P,REF\u002A\u002A134,1*%
%TO.N,N/C*%
X125080000Y-77720000D03*
%TD*%
%TO.P,REF\u002A\u002A165,1*%
%TO.N,N/C*%
X112380000Y-82800000D03*
%TD*%
%TO.P,REF\u002A\u002A34,1*%
%TO.N,N/C*%
X145400000Y-62480000D03*
%TD*%
%TO.P,REF\u002A\u002A128,1*%
%TO.N,N/C*%
X109840000Y-77720000D03*
%TD*%
%TO.P,REF\u002A\u002A153,1*%
%TO.N,N/C*%
X127620000Y-80260000D03*
%TD*%
%TO.P,REF\u002A\u002A137,1*%
%TO.N,N/C*%
X132700000Y-77720000D03*
%TD*%
%TO.P,REF\u002A\u002A76,1*%
%TO.N,N/C*%
X114920000Y-70100000D03*
%TD*%
%TO.P,REF\u002A\u002A73,1*%
%TO.N,N/C*%
X107300000Y-70100000D03*
%TD*%
%TO.P,REF\u002A\u002A168,1*%
%TO.N,N/C*%
X120000000Y-82800000D03*
%TD*%
%TO.P,REF\u002A\u002A145,1*%
%TO.N,N/C*%
X107300000Y-80260000D03*
%TD*%
%TO.P,REF\u002A\u002A94,1*%
%TO.N,N/C*%
X114920000Y-72640000D03*
%TD*%
%TO.P,REF\u002A\u002A88,1*%
%TO.N,J1-PIN3*%
X102220000Y-75180000D03*
%TD*%
%TO.P,REF\u002A\u002A,1*%
%TO.N,N/C*%
X104760000Y-59940000D03*
%TD*%
D15*
%TO.P,J3,1,Pin_1*%
%TO.N,J3-PIN1*%
X148860000Y-68940000D03*
%TO.P,J3,2,Pin_2*%
%TO.N,J3-PIN2*%
X148860000Y-66940000D03*
%TO.P,J3,3,Pin_3*%
%TO.N,J3-PIN3*%
X148860000Y-64940000D03*
%TD*%
D14*
%TO.P,REF\u002A\u002A80,1*%
%TO.N,N/C*%
X125080000Y-70100000D03*
%TD*%
%TO.P,REF\u002A\u002A37,1*%
%TO.N,N/C*%
X107300000Y-65020000D03*
%TD*%
%TO.P,REF\u002A\u002A40,1*%
%TO.N,J2-PIN1*%
X102220000Y-65020000D03*
%TD*%
%TO.P,REF\u002A\u002A16,1*%
%TO.N,N/C*%
X145400000Y-59940000D03*
%TD*%
%TO.P,REF\u002A\u002A56,1*%
%TO.N,N/C*%
X109840000Y-67560000D03*
%TD*%
%TO.P,REF\u002A\u002A63,1*%
%TO.N,N/C*%
X127620000Y-67560000D03*
%TD*%
%TO.P,REF\u002A\u002A126,1*%
%TO.N,N/C*%
X104760000Y-77720000D03*
%TD*%
%TO.P,REF\u002A\u002A177,1*%
%TO.N,N/C*%
X142860000Y-82800000D03*
%TD*%
%TO.P,REF\u002A\u002A67,1*%
%TO.N,J2-PIN4*%
X99680000Y-67560000D03*
%TD*%
%TO.P,REF\u002A\u002A115,1*%
%TO.N,N/C*%
X122540000Y-75180000D03*
%TD*%
%TO.P,REF\u002A\u002A142,1*%
%TO.N,D1-PIN2*%
X145400000Y-77720000D03*
%TD*%
%TO.P,REF\u002A\u002A86,1*%
%TO.N,J1-PIN2*%
X99680000Y-72640000D03*
%TD*%
%TO.P,REF\u002A\u002A123,1*%
%TO.N,D1-PIN4*%
X142860000Y-75180000D03*
%TD*%
%TO.P,REF\u002A\u002A108,1*%
%TO.N,N/C*%
X104760000Y-75180000D03*
%TD*%
%TO.P,REF\u002A\u002A155,1*%
%TO.N,N/C*%
X132700000Y-80260000D03*
%TD*%
%TO.P,REF\u002A\u002A149,1*%
%TO.N,N/C*%
X117460000Y-80260000D03*
%TD*%
%TO.P,REF\u002A\u002A152,1*%
%TO.N,N/C*%
X125080000Y-80260000D03*
%TD*%
%TO.P,REF\u002A\u002A107,1*%
%TO.N,J3-PIN1*%
X147940000Y-72640000D03*
%TD*%
%TO.P,REF\u002A\u002A171,1*%
%TO.N,N/C*%
X127620000Y-82800000D03*
%TD*%
%TO.P,REF\u002A\u002A170,1*%
%TO.N,N/C*%
X125080000Y-82800000D03*
%TD*%
%TO.P,REF\u002A\u002A69,1*%
%TO.N,N/C*%
X142860000Y-67560000D03*
%TD*%
%TO.P,REF\u002A\u002A68,1*%
%TO.N,N/C*%
X104760000Y-70100000D03*
%TD*%
%TO.P,REF\u002A\u002A164,1*%
%TO.N,N/C*%
X109840000Y-82800000D03*
%TD*%
%TO.P,REF\u002A\u002A109,1*%
%TO.N,N/C*%
X107300000Y-75180000D03*
%TD*%
%TO.P,REF\u002A\u002A135,1*%
%TO.N,N/C*%
X127620000Y-77720000D03*
%TD*%
%TO.P,REF\u002A\u002A111,1*%
%TO.N,N/C*%
X112380000Y-75180000D03*
%TD*%
%TO.P,REF\u002A\u002A141,1*%
%TO.N,D1-PIN1*%
X142860000Y-77720000D03*
%TD*%
%TO.P,REF\u002A\u002A21,1*%
%TO.N,N/C*%
X112380000Y-62480000D03*
%TD*%
%TO.P,REF\u002A\u002A78,1*%
%TO.N,N/C*%
X120000000Y-70100000D03*
%TD*%
%TO.P,REF\u002A\u002A52,1*%
%TO.N,J2-PIN2*%
X99680000Y-65020000D03*
%TD*%
%TO.P,REF\u002A\u002A143,1*%
%TO.N,J3-PIN3*%
X147940000Y-77720000D03*
%TD*%
%TO.P,REF\u002A\u002A163,1*%
%TO.N,N/C*%
X107300000Y-82800000D03*
%TD*%
%TO.P,REF\u002A\u002A166,1*%
%TO.N,N/C*%
X114920000Y-82800000D03*
%TD*%
%TO.P,REF\u002A\u002A81,1*%
%TO.N,N/C*%
X127620000Y-70100000D03*
%TD*%
%TO.P,REF\u002A\u002A101,1*%
%TO.N,N/C*%
X132700000Y-72640000D03*
%TD*%
%TO.P,REF\u002A\u002A160,1*%
%TO.N,N/C*%
X145400000Y-80260000D03*
%TD*%
%TO.P,REF\u002A\u002A2,1*%
%TO.N,N/C*%
X109840000Y-59940000D03*
%TD*%
%TO.P,REF\u002A\u002A66,1*%
%TO.N,J2-PIN3*%
X102220000Y-67560000D03*
%TD*%
%TO.P,REF\u002A\u002A129,1*%
%TO.N,N/C*%
X112380000Y-77720000D03*
%TD*%
%TO.P,REF\u002A\u002A33,1*%
%TO.N,N/C*%
X142860000Y-62480000D03*
%TD*%
%TO.P,REF\u002A\u002A102,1*%
%TO.N,N/C*%
X104760000Y-77720000D03*
%TD*%
%TO.P,REF\u002A\u002A125,1*%
%TO.N,J3-PIN2*%
X147940000Y-75180000D03*
%TD*%
%TO.P,REF\u002A\u002A97,1*%
%TO.N,N/C*%
X122540000Y-72640000D03*
%TD*%
%TO.P,REF\u002A\u002A100,1*%
%TO.N,N/C*%
X130160000Y-72640000D03*
%TD*%
%TO.P,REF\u002A\u002A132,1*%
%TO.N,N/C*%
X120000000Y-77720000D03*
%TD*%
%TO.P,REF\u002A\u002A119,1*%
%TO.N,N/C*%
X132700000Y-75180000D03*
%TD*%
%TO.P,REF\u002A\u002A19,1*%
%TO.N,N/C*%
X107300000Y-62480000D03*
%TD*%
%TO.P,REF\u002A\u002A51,1*%
%TO.N,N/C*%
X142860000Y-65020000D03*
%TD*%
%TO.P,REF\u002A\u002A173,1*%
%TO.N,N/C*%
X132700000Y-82800000D03*
%TD*%
%TO.P,REF\u002A\u002A118,1*%
%TO.N,N/C*%
X130160000Y-75180000D03*
%TD*%
%TO.P,REF\u002A\u002A167,1*%
%TO.N,N/C*%
X117460000Y-82800000D03*
%TD*%
%TO.P,REF\u002A\u002A138,1*%
%TO.N,SW2-PIN2*%
X135240000Y-77720000D03*
%TD*%
%TO.P,REF\u002A\u002A89,1*%
%TO.N,J1-PIN4*%
X99680000Y-75180000D03*
%TD*%
%TO.P,REF\u002A\u002A99,1*%
%TO.N,N/C*%
X127620000Y-72640000D03*
%TD*%
%TO.P,REF\u002A\u002A116,1*%
%TO.N,N/C*%
X125080000Y-75180000D03*
%TD*%
%TO.P,REF\u002A\u002A95,1*%
%TO.N,N/C*%
X117460000Y-72640000D03*
%TD*%
%TO.P,REF\u002A\u002A133,1*%
%TO.N,N/C*%
X122540000Y-77720000D03*
%TD*%
%TO.P,REF\u002A\u002A60,1*%
%TO.N,N/C*%
X120000000Y-67560000D03*
%TD*%
%TO.P,REF\u002A\u002A79,1*%
%TO.N,N/C*%
X122540000Y-70100000D03*
%TD*%
%TO.P,REF\u002A\u002A140,1*%
%TO.N,N/C*%
X140320000Y-77720000D03*
%TD*%
%TO.P,REF\u002A\u002A77,1*%
%TO.N,N/C*%
X117460000Y-70100000D03*
%TD*%
%TO.P,REF\u002A\u002A64,1*%
%TO.N,N/C*%
X130160000Y-67560000D03*
%TD*%
%TO.P,REF\u002A\u002A178,1*%
%TO.N,N/C*%
X145400000Y-82800000D03*
%TD*%
%TO.P,REF\u002A\u002A91,1*%
%TO.N,N/C*%
X107300000Y-72640000D03*
%TD*%
%TO.P,REF\u002A\u002A93,1*%
%TO.N,N/C*%
X112380000Y-72640000D03*
%TD*%
%TO.P,REF\u002A\u002A150,1*%
%TO.N,N/C*%
X120000000Y-80260000D03*
%TD*%
%TO.P,REF\u002A\u002A136,1*%
%TO.N,N/C*%
X130160000Y-77720000D03*
%TD*%
%TO.P,REF\u002A\u002A36,1*%
%TO.N,N/C*%
X104760000Y-65020000D03*
%TD*%
D11*
%TO.P,J1,1*%
%TO.N,J1-PIN1*%
X95660000Y-75440000D03*
D12*
%TO.P,J1,2*%
%TO.N,J1-PIN2*%
X93710000Y-76710000D03*
%TO.P,J1,3*%
%TO.N,J1-PIN3*%
X95660000Y-77980000D03*
%TO.P,J1,4*%
%TO.N,J1-PIN4*%
X93710000Y-79250000D03*
%TO.P,J1,5*%
%TO.N,J1-PIN5*%
X95660000Y-80520000D03*
%TO.P,J1,6*%
%TO.N,J1-PIN6*%
X93710000Y-81790000D03*
%TD*%
D14*
%TO.P,REF\u002A\u002A64,1*%
%TO.N,N/C*%
X130160000Y-38560000D03*
%TD*%
%TO.P,REF\u002A\u002A87,1*%
%TO.N,N/C*%
X104760000Y-46180000D03*
%TD*%
%TO.P,REF\u002A\u002A153,1*%
%TO.N,N/C*%
X127620000Y-51260000D03*
%TD*%
%TO.P,REF\u002A\u002A149,1*%
%TO.N,N/C*%
X117460000Y-51260000D03*
%TD*%
%TO.P,REF\u002A\u002A94,1*%
%TO.N,N/C*%
X114920000Y-43640000D03*
%TD*%
%TO.P,REF\u002A\u002A75,1*%
%TO.N,N/C*%
X112380000Y-41100000D03*
%TD*%
%TO.P,REF\u002A\u002A18,1*%
%TO.N,N/C*%
X104760000Y-33480000D03*
%TD*%
%TO.P,REF\u002A\u002A34,1*%
%TO.N,N/C*%
X145400000Y-33480000D03*
%TD*%
%TO.P,REF\u002A\u002A61,1*%
%TO.N,N/C*%
X122540000Y-38560000D03*
%TD*%
%TO.P,REF\u002A\u002A135,1*%
%TO.N,N/C*%
X127620000Y-48720000D03*
%TD*%
%TO.P,REF\u002A\u002A63,1*%
%TO.N,N/C*%
X127620000Y-38560000D03*
%TD*%
%TO.P,REF\u002A\u002A176,1*%
%TO.N,N/C*%
X140320000Y-53800000D03*
%TD*%
%TO.P,REF\u002A\u002A111,1*%
%TO.N,N/C*%
X112380000Y-46180000D03*
%TD*%
%TO.P,REF\u002A\u002A159,1*%
%TO.N,N/C*%
X142860000Y-51260000D03*
%TD*%
%TO.P,REF\u002A\u002A76,1*%
%TO.N,N/C*%
X114920000Y-41100000D03*
%TD*%
%TO.P,REF\u002A\u002A19,1*%
%TO.N,N/C*%
X107300000Y-33480000D03*
%TD*%
%TO.P,REF\u002A\u002A146,1*%
%TO.N,N/C*%
X109840000Y-51260000D03*
%TD*%
%TO.P,REF\u002A\u002A150,1*%
%TO.N,N/C*%
X120000000Y-51260000D03*
%TD*%
%TO.P,REF\u002A\u002A133,1*%
%TO.N,N/C*%
X122540000Y-48720000D03*
%TD*%
%TO.P,REF\u002A\u002A128,1*%
%TO.N,N/C*%
X109840000Y-48720000D03*
%TD*%
%TO.P,REF\u002A\u002A104,1*%
%TO.N,J1-PIN6*%
X99680000Y-48720000D03*
%TD*%
%TO.P,REF\u002A\u002A164,1*%
%TO.N,N/C*%
X109840000Y-53800000D03*
%TD*%
%TO.P,REF\u002A\u002A162,1*%
%TO.N,N/C*%
X104760000Y-53800000D03*
%TD*%
%TO.P,REF\u002A\u002A16,1*%
%TO.N,N/C*%
X145400000Y-30940000D03*
%TD*%
%TO.P,REF\u002A\u002A145,1*%
%TO.N,N/C*%
X107300000Y-51260000D03*
%TD*%
%TO.P,REF\u002A\u002A134,1*%
%TO.N,N/C*%
X125080000Y-48720000D03*
%TD*%
%TO.P,REF\u002A\u002A119,1*%
%TO.N,N/C*%
X132700000Y-46180000D03*
%TD*%
%TO.P,REF\u002A\u002A161,1*%
%TO.N,N/C*%
X147940000Y-51260000D03*
%TD*%
%TO.P,REF\u002A\u002A91,1*%
%TO.N,N/C*%
X107300000Y-43640000D03*
%TD*%
%TO.P,REF\u002A\u002A101,1*%
%TO.N,N/C*%
X132700000Y-43640000D03*
%TD*%
%TO.P,REF\u002A\u002A93,1*%
%TO.N,N/C*%
X112380000Y-43640000D03*
%TD*%
%TO.P,REF\u002A\u002A178,1*%
%TO.N,N/C*%
X145400000Y-53800000D03*
%TD*%
%TO.P,REF\u002A\u002A15,1*%
%TO.N,N/C*%
X142860000Y-30940000D03*
%TD*%
%TO.P,REF\u002A\u002A137,1*%
%TO.N,N/C*%
X132700000Y-48720000D03*
%TD*%
%TO.P,REF\u002A\u002A58,1*%
%TO.N,N/C*%
X114920000Y-38560000D03*
%TD*%
%TO.P,REF\u002A\u002A116,1*%
%TO.N,N/C*%
X125080000Y-46180000D03*
%TD*%
%TO.P,REF\u002A\u002A39,1*%
%TO.N,N/C*%
X112380000Y-36020000D03*
%TD*%
%TO.P,REF\u002A\u002A141,1*%
%TO.N,D1-PIN1*%
X142860000Y-48720000D03*
%TD*%
%TO.P,REF\u002A\u002A85,1*%
%TO.N,J1-PIN1*%
X102220000Y-43640000D03*
%TD*%
%TO.P,REF\u002A\u002A1,1*%
%TO.N,N/C*%
X107300000Y-30940000D03*
%TD*%
%TO.P,REF\u002A\u002A38,1*%
%TO.N,N/C*%
X109840000Y-36020000D03*
%TD*%
%TO.P,REF\u002A\u002A139,1*%
%TO.N,SW2-PIN1*%
X137780000Y-48720000D03*
%TD*%
%TO.P,REF\u002A\u002A33,1*%
%TO.N,N/C*%
X142860000Y-33480000D03*
%TD*%
%TO.P,REF\u002A\u002A127,1*%
%TO.N,N/C*%
X107300000Y-48720000D03*
%TD*%
%TO.P,REF\u002A\u002A73,1*%
%TO.N,N/C*%
X107300000Y-41100000D03*
%TD*%
%TO.P,REF\u002A\u002A99,1*%
%TO.N,N/C*%
X127620000Y-43640000D03*
%TD*%
%TO.P,REF\u002A\u002A79,1*%
%TO.N,N/C*%
X122540000Y-41100000D03*
%TD*%
%TO.P,REF\u002A\u002A77,1*%
%TO.N,N/C*%
X117460000Y-41100000D03*
%TD*%
%TO.P,REF\u002A\u002A67,1*%
%TO.N,J2-PIN4*%
X99680000Y-38560000D03*
%TD*%
%TO.P,REF\u002A\u002A169,1*%
%TO.N,N/C*%
X122540000Y-53800000D03*
%TD*%
%TO.P,REF\u002A\u002A130,1*%
%TO.N,N/C*%
X114920000Y-48720000D03*
%TD*%
%TO.P,REF\u002A\u002A177,1*%
%TO.N,N/C*%
X142860000Y-53800000D03*
%TD*%
%TO.P,REF\u002A\u002A125,1*%
%TO.N,J3-PIN2*%
X147940000Y-46180000D03*
%TD*%
%TO.P,REF\u002A\u002A21,1*%
%TO.N,N/C*%
X112380000Y-33480000D03*
%TD*%
%TO.P,REF\u002A\u002A52,1*%
%TO.N,J2-PIN2*%
X99680000Y-36020000D03*
%TD*%
%TO.P,REF\u002A\u002A143,1*%
%TO.N,J3-PIN3*%
X147940000Y-48720000D03*
%TD*%
%TO.P,REF\u002A\u002A102,1*%
%TO.N,N/C*%
X104760000Y-48720000D03*
%TD*%
%TO.P,REF\u002A\u002A163,1*%
%TO.N,N/C*%
X107300000Y-53800000D03*
%TD*%
%TO.P,REF\u002A\u002A147,1*%
%TO.N,N/C*%
X112380000Y-51260000D03*
%TD*%
%TO.P,REF\u002A\u002A51,1*%
%TO.N,N/C*%
X142860000Y-36020000D03*
%TD*%
%TO.P,REF\u002A\u002A84,1*%
%TO.N,N/C*%
X104760000Y-43640000D03*
%TD*%
%TO.P,REF\u002A\u002A103,1*%
%TO.N,J1-PIN5*%
X102220000Y-48720000D03*
%TD*%
%TO.P,REF\u002A\u002A,1*%
%TO.N,N/C*%
X104760000Y-30940000D03*
%TD*%
%TO.P,REF\u002A\u002A59,1*%
%TO.N,N/C*%
X117460000Y-38560000D03*
%TD*%
%TO.P,REF\u002A\u002A140,1*%
%TO.N,N/C*%
X140320000Y-48720000D03*
%TD*%
%TO.P,REF\u002A\u002A55,1*%
%TO.N,N/C*%
X107300000Y-38560000D03*
%TD*%
%TO.P,REF\u002A\u002A95,1*%
%TO.N,N/C*%
X117460000Y-43640000D03*
%TD*%
%TO.P,REF\u002A\u002A118,1*%
%TO.N,N/C*%
X130160000Y-46180000D03*
%TD*%
%TO.P,REF\u002A\u002A112,1*%
%TO.N,N/C*%
X114920000Y-46180000D03*
%TD*%
%TO.P,REF\u002A\u002A151,1*%
%TO.N,N/C*%
X122540000Y-51260000D03*
%TD*%
%TO.P,REF\u002A\u002A37,1*%
%TO.N,N/C*%
X107300000Y-36020000D03*
%TD*%
%TO.P,REF\u002A\u002A109,1*%
%TO.N,N/C*%
X107300000Y-46180000D03*
%TD*%
%TO.P,REF\u002A\u002A158,1*%
%TO.N,N/C*%
X140320000Y-51260000D03*
%TD*%
%TO.P,REF\u002A\u002A155,1*%
%TO.N,N/C*%
X132700000Y-51260000D03*
%TD*%
%TO.P,REF\u002A\u002A86,1*%
%TO.N,J1-PIN2*%
X99680000Y-43640000D03*
%TD*%
%TO.P,REF\u002A\u002A167,1*%
%TO.N,N/C*%
X117460000Y-53800000D03*
%TD*%
%TO.P,REF\u002A\u002A172,1*%
%TO.N,N/C*%
X130160000Y-53800000D03*
%TD*%
%TO.P,REF\u002A\u002A115,1*%
%TO.N,N/C*%
X122540000Y-46180000D03*
%TD*%
%TO.P,REF\u002A\u002A74,1*%
%TO.N,N/C*%
X109840000Y-41100000D03*
%TD*%
%TO.P,REF\u002A\u002A98,1*%
%TO.N,N/C*%
X125080000Y-43640000D03*
%TD*%
%TO.P,REF\u002A\u002A148,1*%
%TO.N,N/C*%
X114920000Y-51260000D03*
%TD*%
%TO.P,REF\u002A\u002A168,1*%
%TO.N,N/C*%
X120000000Y-53800000D03*
%TD*%
%TO.P,REF\u002A\u002A62,1*%
%TO.N,N/C*%
X125080000Y-38560000D03*
%TD*%
%TO.P,REF\u002A\u002A160,1*%
%TO.N,N/C*%
X145400000Y-51260000D03*
%TD*%
%TO.P,REF\u002A\u002A3,1*%
%TO.N,N/C*%
X112380000Y-30940000D03*
%TD*%
%TO.P,REF\u002A\u002A113,1*%
%TO.N,N/C*%
X117460000Y-46180000D03*
%TD*%
%TO.P,REF\u002A\u002A173,1*%
%TO.N,N/C*%
X132700000Y-53800000D03*
%TD*%
%TO.P,REF\u002A\u002A166,1*%
%TO.N,N/C*%
X114920000Y-53800000D03*
%TD*%
%TO.P,REF\u002A\u002A142,1*%
%TO.N,D1-PIN2*%
X145400000Y-48720000D03*
%TD*%
%TO.P,REF\u002A\u002A126,1*%
%TO.N,N/C*%
X104760000Y-48720000D03*
%TD*%
%TO.P,REF\u002A\u002A175,1*%
%TO.N,N/C*%
X137780000Y-53800000D03*
%TD*%
%TO.P,REF\u002A\u002A90,1*%
%TO.N,N/C*%
X104760000Y-43640000D03*
%TD*%
%TO.P,REF\u002A\u002A60,1*%
%TO.N,N/C*%
X120000000Y-38560000D03*
%TD*%
%TO.P,REF\u002A\u002A56,1*%
%TO.N,N/C*%
X109840000Y-38560000D03*
%TD*%
D15*
%TO.P,J3,1,Pin_1*%
%TO.N,J3-PIN1*%
X148860000Y-39940000D03*
%TO.P,J3,2,Pin_2*%
%TO.N,J3-PIN2*%
X148860000Y-37940000D03*
%TO.P,J3,3,Pin_3*%
%TO.N,J3-PIN3*%
X148860000Y-35940000D03*
%TD*%
D14*
%TO.P,REF\u002A\u002A72,1*%
%TO.N,N/C*%
X104760000Y-41100000D03*
%TD*%
%TO.P,REF\u002A\u002A80,1*%
%TO.N,N/C*%
X125080000Y-41100000D03*
%TD*%
%TO.P,REF\u002A\u002A131,1*%
%TO.N,N/C*%
X117460000Y-48720000D03*
%TD*%
%TO.P,REF\u002A\u002A54,1*%
%TO.N,N/C*%
X104760000Y-38560000D03*
%TD*%
%TO.P,REF\u002A\u002A144,1*%
%TO.N,N/C*%
X104760000Y-51260000D03*
%TD*%
%TO.P,REF\u002A\u002A40,1*%
%TO.N,J2-PIN1*%
X102220000Y-36020000D03*
%TD*%
%TO.P,REF\u002A\u002A110,1*%
%TO.N,N/C*%
X109840000Y-46180000D03*
%TD*%
%TO.P,REF\u002A\u002A156,1*%
%TO.N,N/C*%
X135240000Y-51260000D03*
%TD*%
%TO.P,REF\u002A\u002A53,1*%
%TO.N,N/C*%
X104760000Y-38560000D03*
%TD*%
%TO.P,REF\u002A\u002A88,1*%
%TO.N,J1-PIN3*%
X102220000Y-46180000D03*
%TD*%
%TO.P,REF\u002A\u002A78,1*%
%TO.N,N/C*%
X120000000Y-41100000D03*
%TD*%
%TO.P,REF\u002A\u002A71,1*%
%TO.N,J2-PIN6*%
X99680000Y-41100000D03*
%TD*%
%TO.P,REF\u002A\u002A108,1*%
%TO.N,N/C*%
X104760000Y-46180000D03*
%TD*%
%TO.P,REF\u002A\u002A70,1*%
%TO.N,J2-PIN5*%
X102220000Y-41100000D03*
%TD*%
%TO.P,REF\u002A\u002A174,1*%
%TO.N,N/C*%
X135240000Y-53800000D03*
%TD*%
%TO.P,REF\u002A\u002A82,1*%
%TO.N,N/C*%
X130160000Y-41100000D03*
%TD*%
%TO.P,REF\u002A\u002A68,1*%
%TO.N,N/C*%
X104760000Y-41100000D03*
%TD*%
%TO.P,REF\u002A\u002A2,1*%
%TO.N,N/C*%
X109840000Y-30940000D03*
%TD*%
%TO.P,REF\u002A\u002A36,1*%
%TO.N,N/C*%
X104760000Y-36020000D03*
%TD*%
%TO.P,REF\u002A\u002A136,1*%
%TO.N,N/C*%
X130160000Y-48720000D03*
%TD*%
%TO.P,REF\u002A\u002A165,1*%
%TO.N,N/C*%
X112380000Y-53800000D03*
%TD*%
%TO.P,REF\u002A\u002A81,1*%
%TO.N,N/C*%
X127620000Y-41100000D03*
%TD*%
%TO.P,REF\u002A\u002A171,1*%
%TO.N,N/C*%
X127620000Y-53800000D03*
%TD*%
%TO.P,REF\u002A\u002A107,1*%
%TO.N,J3-PIN1*%
X147940000Y-43640000D03*
%TD*%
%TO.P,REF\u002A\u002A129,1*%
%TO.N,N/C*%
X112380000Y-48720000D03*
%TD*%
%TO.P,REF\u002A\u002A66,1*%
%TO.N,J2-PIN3*%
X102220000Y-38560000D03*
%TD*%
%TO.P,REF\u002A\u002A152,1*%
%TO.N,N/C*%
X125080000Y-51260000D03*
%TD*%
%TO.P,REF\u002A\u002A157,1*%
%TO.N,N/C*%
X137780000Y-51260000D03*
%TD*%
%TO.P,REF\u002A\u002A124,1*%
%TO.N,D1-PIN3*%
X145400000Y-46180000D03*
%TD*%
%TO.P,REF\u002A\u002A123,1*%
%TO.N,D1-PIN4*%
X142860000Y-46180000D03*
%TD*%
%TO.P,REF\u002A\u002A69,1*%
%TO.N,N/C*%
X142860000Y-38560000D03*
%TD*%
%TO.P,REF\u002A\u002A170,1*%
%TO.N,N/C*%
X125080000Y-53800000D03*
%TD*%
%TO.P,REF\u002A\u002A89,1*%
%TO.N,J1-PIN4*%
X99680000Y-46180000D03*
%TD*%
%TO.P,REF\u002A\u002A138,1*%
%TO.N,SW2-PIN2*%
X135240000Y-48720000D03*
%TD*%
%TO.P,REF\u002A\u002A83,1*%
%TO.N,N/C*%
X132700000Y-41100000D03*
%TD*%
%TO.P,REF\u002A\u002A114,1*%
%TO.N,N/C*%
X120000000Y-46180000D03*
%TD*%
%TO.P,REF\u002A\u002A132,1*%
%TO.N,N/C*%
X120000000Y-48720000D03*
%TD*%
%TO.P,REF\u002A\u002A100,1*%
%TO.N,N/C*%
X130160000Y-43640000D03*
%TD*%
%TO.P,REF\u002A\u002A97,1*%
%TO.N,N/C*%
X122540000Y-43640000D03*
%TD*%
%TO.P,REF\u002A\u002A20,1*%
%TO.N,N/C*%
X109840000Y-33480000D03*
%TD*%
%TO.P,REF\u002A\u002A65,1*%
%TO.N,N/C*%
X132700000Y-38560000D03*
%TD*%
%TO.P,REF\u002A\u002A154,1*%
%TO.N,N/C*%
X130160000Y-51260000D03*
%TD*%
%TO.P,REF\u002A\u002A96,1*%
%TO.N,N/C*%
X120000000Y-43640000D03*
%TD*%
%TO.P,REF\u002A\u002A57,1*%
%TO.N,N/C*%
X112380000Y-38560000D03*
%TD*%
%TO.P,REF\u002A\u002A92,1*%
%TO.N,N/C*%
X109840000Y-43640000D03*
%TD*%
%TO.P,REF\u002A\u002A117,1*%
%TO.N,N/C*%
X127620000Y-46180000D03*
%TD*%
D11*
%TO.P,J1,1*%
%TO.N,J1-PIN1*%
X95660000Y-46440000D03*
D12*
%TO.P,J1,2*%
%TO.N,J1-PIN2*%
X93710000Y-47710000D03*
%TO.P,J1,3*%
%TO.N,J1-PIN3*%
X95660000Y-48980000D03*
%TO.P,J1,4*%
%TO.N,J1-PIN4*%
X93710000Y-50250000D03*
%TO.P,J1,5*%
%TO.N,J1-PIN5*%
X95660000Y-51520000D03*
%TO.P,J1,6*%
%TO.N,J1-PIN6*%
X93710000Y-52790000D03*
%TD*%
D13*
%TO.P,D1,1,RA*%
%TO.N,D1-PIN1*%
X145160000Y-40890000D03*
%TO.P,D1,2,GA*%
%TO.N,D1-PIN2*%
X143760000Y-40890000D03*
%TO.P,D1,3,BA*%
%TO.N,D1-PIN3*%
X145160000Y-43990000D03*
%TO.P,D1,4,K*%
%TO.N,D1-PIN4*%
X143760000Y-43990000D03*
%TD*%
D11*
%TO.P,J2,1*%
%TO.N,J2-PIN1*%
X95660000Y-32090000D03*
D12*
%TO.P,J2,2*%
%TO.N,J2-PIN2*%
X93710000Y-33360000D03*
%TO.P,J2,3*%
%TO.N,J2-PIN3*%
X95660000Y-34630000D03*
%TO.P,J2,4*%
%TO.N,J2-PIN4*%
X93710000Y-35900000D03*
%TO.P,J2,5*%
%TO.N,J2-PIN5*%
X95660000Y-37170000D03*
%TO.P,J2,6*%
%TO.N,J2-PIN6*%
X93710000Y-38440000D03*
%TD*%
D10*
%TO.P,SW2,1,C*%
%TO.N,SW2-PIN1*%
X139735000Y-45440000D03*
X139735000Y-39440000D03*
%TO.P,SW2,2,D*%
%TO.N,SW2-PIN2*%
X135985000Y-45440000D03*
X135985000Y-39440000D03*
%TD*%
D16*
%TO.N,SW2-PIN1*%
X137780000Y-105395000D02*
X139735000Y-103440000D01*
X137780000Y-106720000D02*
X137780000Y-105395000D01*
%TO.N,SW2-PIN2*%
X135240000Y-104185000D02*
X135985000Y-103440000D01*
X135240000Y-106720000D02*
X135240000Y-104185000D01*
%TO.N,D1-PIN1*%
X145160000Y-98890000D02*
X145160000Y-98590000D01*
X141220000Y-99630000D02*
X141220000Y-105080000D01*
X141220000Y-105080000D02*
X142860000Y-106720000D01*
X144410000Y-97840000D02*
X143010000Y-97840000D01*
X145160000Y-98590000D02*
X144410000Y-97840000D01*
X143010000Y-97840000D02*
X141220000Y-99630000D01*
%TO.N,D1-PIN2*%
X143760000Y-98890000D02*
X141710000Y-100940000D01*
X141710000Y-104656346D02*
X142383654Y-105330000D01*
X142383654Y-105330000D02*
X144010000Y-105330000D01*
X144010000Y-105330000D02*
X145400000Y-106720000D01*
X141710000Y-100940000D02*
X141710000Y-104656346D01*
%TO.N,D1-PIN3*%
X145400000Y-102230000D02*
X145160000Y-101990000D01*
X145400000Y-104180000D02*
X145400000Y-102230000D01*
%TO.N,D1-PIN4*%
X142860000Y-102890000D02*
X143760000Y-101990000D01*
X142860000Y-104180000D02*
X142860000Y-102890000D01*
%TO.N,J3-PIN1*%
X147940000Y-101640000D02*
X148860000Y-100720000D01*
X148860000Y-100720000D02*
X148860000Y-97940000D01*
%TO.N,J3-PIN2*%
X146790000Y-103030000D02*
X146790000Y-98010000D01*
X146790000Y-98010000D02*
X148860000Y-95940000D01*
X147940000Y-104180000D02*
X146790000Y-103030000D01*
%TO.N,J3-PIN3*%
X146790000Y-105570000D02*
X146790000Y-103595685D01*
X146390000Y-96410000D02*
X148860000Y-93940000D01*
X146790000Y-103595685D02*
X146390000Y-103195685D01*
X146390000Y-103195685D02*
X146390000Y-96410000D01*
X147940000Y-106720000D02*
X146790000Y-105570000D01*
%TO.N,J2-PIN1*%
X95660000Y-90090000D02*
X95660000Y-89190000D01*
X99583402Y-87540000D02*
X102220000Y-90176598D01*
X102220000Y-90176598D02*
X102220000Y-94020000D01*
X97310000Y-87540000D02*
X99583402Y-87540000D01*
X95660000Y-89190000D02*
X97310000Y-87540000D01*
%TO.N,J2-PIN2*%
X98464214Y-94020000D02*
X99680000Y-94020000D01*
X95804214Y-91360000D02*
X98464214Y-94020000D01*
X93710000Y-91360000D02*
X95804214Y-91360000D01*
%TO.N,J2-PIN3*%
X100830000Y-95170000D02*
X102220000Y-96560000D01*
X95660000Y-92630000D02*
X98200000Y-95170000D01*
X98200000Y-95170000D02*
X100830000Y-95170000D01*
%TO.N,J2-PIN4*%
X95804214Y-93900000D02*
X98464214Y-96560000D01*
X98464214Y-96560000D02*
X99680000Y-96560000D01*
X93710000Y-93900000D02*
X95804214Y-93900000D01*
%TO.N,J2-PIN5*%
X100830000Y-97710000D02*
X102220000Y-99100000D01*
X95660000Y-95170000D02*
X98200000Y-97710000D01*
X98200000Y-97710000D02*
X100830000Y-97710000D01*
%TO.N,J2-PIN6*%
X96364315Y-96440000D02*
X99024315Y-99100000D01*
X99024315Y-99100000D02*
X99680000Y-99100000D01*
X93710000Y-96440000D02*
X96364315Y-96440000D01*
%TO.N,J1-PIN1*%
X101070000Y-100490000D02*
X102220000Y-101640000D01*
X95660000Y-104440000D02*
X95660000Y-103540000D01*
X98710000Y-100490000D02*
X101070000Y-100490000D01*
X95660000Y-103540000D02*
X98710000Y-100490000D01*
%TO.N,J1-PIN2*%
X93710000Y-105710000D02*
X93980000Y-105440000D01*
X97757157Y-105037157D02*
X97757157Y-103562843D01*
X93980000Y-105440000D02*
X97354314Y-105440000D01*
X97354314Y-105440000D02*
X97757157Y-105037157D01*
X97757157Y-103562843D02*
X99680000Y-101640000D01*
%TO.N,J1-PIN3*%
X96954314Y-106980000D02*
X97690660Y-106243654D01*
X99203654Y-105570000D02*
X100830000Y-105570000D01*
X97690660Y-106243654D02*
X98530000Y-106243654D01*
X98530000Y-106243654D02*
X99203654Y-105570000D01*
X95660000Y-106980000D02*
X96954314Y-106980000D01*
X100830000Y-105570000D02*
X102220000Y-104180000D01*
%TO.N,J1-PIN4*%
X97380000Y-105980000D02*
X98040000Y-105320000D01*
X98540000Y-105320000D02*
X99680000Y-104180000D01*
X93710000Y-107260051D02*
X94990051Y-105980000D01*
X93710000Y-108250000D02*
X93710000Y-107260051D01*
X94990051Y-105980000D02*
X97380000Y-105980000D01*
X98040000Y-105320000D02*
X98540000Y-105320000D01*
%TO.N,J1-PIN6*%
X97780000Y-106720000D02*
X99680000Y-106720000D01*
X94990051Y-108520000D02*
X95980000Y-108520000D01*
X93710000Y-109800051D02*
X94990051Y-108520000D01*
X93710000Y-110790000D02*
X93710000Y-109800051D01*
D17*
%TO.N,*%
X122540000Y-96560000D02*
X122540000Y-99100000D01*
X132700000Y-101640000D02*
X132700000Y-104180000D01*
X127620000Y-106720000D02*
X127620000Y-104180000D01*
X122540000Y-99100000D02*
X122540000Y-101640000D01*
X122540000Y-101640000D02*
X122540000Y-104180000D01*
X127620000Y-96560000D02*
X127620000Y-99100000D01*
X125080000Y-99100000D02*
X125080000Y-96560000D01*
X107300000Y-111800000D02*
X109840000Y-111800000D01*
X109840000Y-111800000D02*
X112380000Y-111800000D01*
X125080000Y-101640000D02*
X125080000Y-99100000D01*
X117460000Y-104180000D02*
X117460000Y-106720000D01*
X107300000Y-106720000D02*
X107300000Y-104180000D01*
X145400000Y-91480000D02*
X142860000Y-91480000D01*
X125080000Y-104180000D02*
X125080000Y-101640000D01*
X125080000Y-109260000D02*
X127620000Y-109260000D01*
X112380000Y-106720000D02*
X112380000Y-104180000D01*
X142860000Y-111800000D02*
X145400000Y-111800000D01*
X117460000Y-101640000D02*
X117460000Y-104180000D01*
X112380000Y-96560000D02*
X112380000Y-99100000D01*
X112380000Y-109260000D02*
X114920000Y-109260000D01*
X112380000Y-99100000D02*
X112380000Y-101640000D01*
X127620000Y-99100000D02*
X127620000Y-101640000D01*
X127620000Y-109260000D02*
X130160000Y-109260000D01*
X132700000Y-96560000D02*
X132700000Y-99100000D01*
X104760000Y-101640000D02*
X104760000Y-104180000D01*
X130160000Y-101640000D02*
X130160000Y-99100000D01*
X109840000Y-99100000D02*
X109840000Y-101640000D01*
X142860000Y-88940000D02*
X145400000Y-88940000D01*
X107300000Y-99100000D02*
X107300000Y-96560000D01*
X132700000Y-106720000D02*
X132700000Y-104180000D01*
X104760000Y-99100000D02*
X104760000Y-101640000D01*
X114920000Y-111800000D02*
X117460000Y-111800000D01*
X112380000Y-101640000D02*
X112380000Y-104180000D01*
X120000000Y-101640000D02*
X120000000Y-99100000D01*
X142860000Y-96560000D02*
X142860000Y-94020000D01*
X104760000Y-91480000D02*
X107300000Y-91480000D01*
X130160000Y-104180000D02*
X130160000Y-101640000D01*
X135240000Y-111800000D02*
X137780000Y-111800000D01*
X117460000Y-109260000D02*
X120000000Y-109260000D01*
X130160000Y-99100000D02*
X130160000Y-96560000D01*
X104760000Y-104180000D02*
X104760000Y-106720000D01*
X114920000Y-104180000D02*
X114920000Y-101640000D01*
X132700000Y-111800000D02*
X135240000Y-111800000D01*
X135240000Y-109260000D02*
X137780000Y-109260000D01*
X109840000Y-104180000D02*
X109840000Y-101640000D01*
X109840000Y-96560000D02*
X109840000Y-99100000D01*
X107300000Y-88940000D02*
X109840000Y-88940000D01*
X114920000Y-109260000D02*
X117460000Y-109260000D01*
X130160000Y-109260000D02*
X132700000Y-109260000D01*
X117460000Y-111800000D02*
X120000000Y-111800000D01*
X125080000Y-106720000D02*
X125080000Y-104180000D01*
X109840000Y-88940000D02*
X112380000Y-88940000D01*
X104760000Y-96560000D02*
X104760000Y-99100000D01*
X107300000Y-91480000D02*
X109840000Y-91480000D01*
X120000000Y-111800000D02*
X122540000Y-111800000D01*
X112380000Y-91480000D02*
X109840000Y-91480000D01*
X130160000Y-106720000D02*
X130160000Y-104180000D01*
X117460000Y-96560000D02*
X117460000Y-99100000D01*
X120000000Y-106720000D02*
X120000000Y-104180000D01*
X137780000Y-109260000D02*
X140320000Y-109260000D01*
X122540000Y-104180000D02*
X122540000Y-106720000D01*
X130160000Y-111800000D02*
X132700000Y-111800000D01*
X132700000Y-99100000D02*
X132700000Y-101640000D01*
X114920000Y-106720000D02*
X114920000Y-104180000D01*
X140320000Y-109260000D02*
X142860000Y-109260000D01*
X120000000Y-104180000D02*
X120000000Y-101640000D01*
X117460000Y-99100000D02*
X117460000Y-101640000D01*
X104760000Y-94020000D02*
X104760000Y-96560000D01*
X107300000Y-101640000D02*
X107300000Y-99100000D01*
X104760000Y-111800000D02*
X107300000Y-111800000D01*
X145400000Y-109260000D02*
X147940000Y-109260000D01*
X112380000Y-94020000D02*
X112380000Y-96560000D01*
X114920000Y-99100000D02*
X114920000Y-96560000D01*
X114920000Y-101640000D02*
X114920000Y-99100000D01*
X127620000Y-111800000D02*
X130160000Y-111800000D01*
X140320000Y-111800000D02*
X142860000Y-111800000D01*
X137780000Y-111800000D02*
X140320000Y-111800000D01*
X132700000Y-109260000D02*
X135240000Y-109260000D01*
X127620000Y-101640000D02*
X127620000Y-104180000D01*
X109840000Y-94020000D02*
X109840000Y-96560000D01*
X107300000Y-94020000D02*
X107300000Y-96560000D01*
X107300000Y-109260000D02*
X109840000Y-109260000D01*
X104760000Y-88940000D02*
X107300000Y-88940000D01*
X112380000Y-111800000D02*
X114920000Y-111800000D01*
X120000000Y-99100000D02*
X120000000Y-96560000D01*
X142860000Y-109260000D02*
X145400000Y-109260000D01*
X107300000Y-104180000D02*
X107300000Y-101640000D01*
X125080000Y-111800000D02*
X127620000Y-111800000D01*
X120000000Y-109260000D02*
X122540000Y-109260000D01*
X109840000Y-106720000D02*
X109840000Y-104180000D01*
X109840000Y-109260000D02*
X112380000Y-109260000D01*
X104760000Y-109260000D02*
X107300000Y-109260000D01*
D16*
%TO.N,J1-PIN5*%
X96790000Y-108390000D02*
X100550000Y-108390000D01*
X100550000Y-108390000D02*
X102220000Y-106720000D01*
X95660000Y-109520000D02*
X96790000Y-108390000D01*
%TO.N,J1-PIN6*%
X95980000Y-108520000D02*
X97780000Y-106720000D01*
%TO.N,SW2-PIN1*%
X137780000Y-76395000D02*
X139735000Y-74440000D01*
X137780000Y-77720000D02*
X137780000Y-76395000D01*
%TO.N,SW2-PIN2*%
X135240000Y-75185000D02*
X135985000Y-74440000D01*
X135240000Y-77720000D02*
X135240000Y-75185000D01*
%TO.N,D1-PIN1*%
X145160000Y-69890000D02*
X145160000Y-69590000D01*
X141220000Y-70630000D02*
X141220000Y-76080000D01*
X141220000Y-76080000D02*
X142860000Y-77720000D01*
X144410000Y-68840000D02*
X143010000Y-68840000D01*
X145160000Y-69590000D02*
X144410000Y-68840000D01*
X143010000Y-68840000D02*
X141220000Y-70630000D01*
%TO.N,D1-PIN2*%
X143760000Y-69890000D02*
X141710000Y-71940000D01*
X141710000Y-75656346D02*
X142383654Y-76330000D01*
X142383654Y-76330000D02*
X144010000Y-76330000D01*
X144010000Y-76330000D02*
X145400000Y-77720000D01*
X141710000Y-71940000D02*
X141710000Y-75656346D01*
%TO.N,D1-PIN3*%
X145400000Y-73230000D02*
X145160000Y-72990000D01*
X145400000Y-75180000D02*
X145400000Y-73230000D01*
%TO.N,D1-PIN4*%
X142860000Y-73890000D02*
X143760000Y-72990000D01*
X142860000Y-75180000D02*
X142860000Y-73890000D01*
%TO.N,J3-PIN1*%
X147940000Y-72640000D02*
X148860000Y-71720000D01*
X148860000Y-71720000D02*
X148860000Y-68940000D01*
%TO.N,J3-PIN2*%
X146790000Y-74030000D02*
X146790000Y-69010000D01*
X146790000Y-69010000D02*
X148860000Y-66940000D01*
X147940000Y-75180000D02*
X146790000Y-74030000D01*
%TO.N,J3-PIN3*%
X146790000Y-76570000D02*
X146790000Y-74595685D01*
X146390000Y-67410000D02*
X148860000Y-64940000D01*
X146790000Y-74595685D02*
X146390000Y-74195685D01*
X146390000Y-74195685D02*
X146390000Y-67410000D01*
X147940000Y-77720000D02*
X146790000Y-76570000D01*
%TO.N,J2-PIN1*%
X95660000Y-61090000D02*
X95660000Y-60190000D01*
X99583402Y-58540000D02*
X102220000Y-61176598D01*
X102220000Y-61176598D02*
X102220000Y-65020000D01*
X97310000Y-58540000D02*
X99583402Y-58540000D01*
X95660000Y-60190000D02*
X97310000Y-58540000D01*
%TO.N,J2-PIN2*%
X98464214Y-65020000D02*
X99680000Y-65020000D01*
X95804214Y-62360000D02*
X98464214Y-65020000D01*
X93710000Y-62360000D02*
X95804214Y-62360000D01*
%TO.N,J2-PIN3*%
X100830000Y-66170000D02*
X102220000Y-67560000D01*
X95660000Y-63630000D02*
X98200000Y-66170000D01*
X98200000Y-66170000D02*
X100830000Y-66170000D01*
%TO.N,J2-PIN4*%
X95804214Y-64900000D02*
X98464214Y-67560000D01*
X98464214Y-67560000D02*
X99680000Y-67560000D01*
X93710000Y-64900000D02*
X95804214Y-64900000D01*
%TO.N,J2-PIN5*%
X100830000Y-68710000D02*
X102220000Y-70100000D01*
X95660000Y-66170000D02*
X98200000Y-68710000D01*
X98200000Y-68710000D02*
X100830000Y-68710000D01*
%TO.N,J2-PIN6*%
X96364315Y-67440000D02*
X99024315Y-70100000D01*
X99024315Y-70100000D02*
X99680000Y-70100000D01*
X93710000Y-67440000D02*
X96364315Y-67440000D01*
%TO.N,J1-PIN1*%
X101070000Y-71490000D02*
X102220000Y-72640000D01*
X95660000Y-75440000D02*
X95660000Y-74540000D01*
X98710000Y-71490000D02*
X101070000Y-71490000D01*
X95660000Y-74540000D02*
X98710000Y-71490000D01*
%TO.N,J1-PIN2*%
X93710000Y-76710000D02*
X93980000Y-76440000D01*
X97757157Y-76037157D02*
X97757157Y-74562843D01*
X93980000Y-76440000D02*
X97354314Y-76440000D01*
X97354314Y-76440000D02*
X97757157Y-76037157D01*
X97757157Y-74562843D02*
X99680000Y-72640000D01*
%TO.N,J1-PIN3*%
X96954314Y-77980000D02*
X97690660Y-77243654D01*
X99203654Y-76570000D02*
X100830000Y-76570000D01*
X97690660Y-77243654D02*
X98530000Y-77243654D01*
X98530000Y-77243654D02*
X99203654Y-76570000D01*
X95660000Y-77980000D02*
X96954314Y-77980000D01*
X100830000Y-76570000D02*
X102220000Y-75180000D01*
%TO.N,J1-PIN4*%
X97380000Y-76980000D02*
X98040000Y-76320000D01*
X98540000Y-76320000D02*
X99680000Y-75180000D01*
X93710000Y-78260051D02*
X94990051Y-76980000D01*
X93710000Y-79250000D02*
X93710000Y-78260051D01*
X94990051Y-76980000D02*
X97380000Y-76980000D01*
X98040000Y-76320000D02*
X98540000Y-76320000D01*
%TO.N,J1-PIN6*%
X97780000Y-77720000D02*
X99680000Y-77720000D01*
X94990051Y-79520000D02*
X95980000Y-79520000D01*
X93710000Y-80800051D02*
X94990051Y-79520000D01*
X93710000Y-81790000D02*
X93710000Y-80800051D01*
D17*
%TO.N,*%
X122540000Y-67560000D02*
X122540000Y-70100000D01*
X132700000Y-72640000D02*
X132700000Y-75180000D01*
X127620000Y-77720000D02*
X127620000Y-75180000D01*
X122540000Y-70100000D02*
X122540000Y-72640000D01*
X122540000Y-72640000D02*
X122540000Y-75180000D01*
X127620000Y-67560000D02*
X127620000Y-70100000D01*
X125080000Y-70100000D02*
X125080000Y-67560000D01*
X107300000Y-82800000D02*
X109840000Y-82800000D01*
X109840000Y-82800000D02*
X112380000Y-82800000D01*
X125080000Y-72640000D02*
X125080000Y-70100000D01*
X117460000Y-75180000D02*
X117460000Y-77720000D01*
X107300000Y-77720000D02*
X107300000Y-75180000D01*
X145400000Y-62480000D02*
X142860000Y-62480000D01*
X125080000Y-75180000D02*
X125080000Y-72640000D01*
X125080000Y-80260000D02*
X127620000Y-80260000D01*
X112380000Y-77720000D02*
X112380000Y-75180000D01*
X142860000Y-82800000D02*
X145400000Y-82800000D01*
X117460000Y-72640000D02*
X117460000Y-75180000D01*
X112380000Y-67560000D02*
X112380000Y-70100000D01*
X112380000Y-80260000D02*
X114920000Y-80260000D01*
X112380000Y-70100000D02*
X112380000Y-72640000D01*
X127620000Y-70100000D02*
X127620000Y-72640000D01*
X127620000Y-80260000D02*
X130160000Y-80260000D01*
X132700000Y-67560000D02*
X132700000Y-70100000D01*
X104760000Y-72640000D02*
X104760000Y-75180000D01*
X130160000Y-72640000D02*
X130160000Y-70100000D01*
X109840000Y-70100000D02*
X109840000Y-72640000D01*
X142860000Y-59940000D02*
X145400000Y-59940000D01*
X107300000Y-70100000D02*
X107300000Y-67560000D01*
X132700000Y-77720000D02*
X132700000Y-75180000D01*
X104760000Y-70100000D02*
X104760000Y-72640000D01*
X114920000Y-82800000D02*
X117460000Y-82800000D01*
X112380000Y-72640000D02*
X112380000Y-75180000D01*
X120000000Y-72640000D02*
X120000000Y-70100000D01*
X142860000Y-67560000D02*
X142860000Y-65020000D01*
X104760000Y-62480000D02*
X107300000Y-62480000D01*
X130160000Y-75180000D02*
X130160000Y-72640000D01*
X135240000Y-82800000D02*
X137780000Y-82800000D01*
X117460000Y-80260000D02*
X120000000Y-80260000D01*
X130160000Y-70100000D02*
X130160000Y-67560000D01*
X104760000Y-75180000D02*
X104760000Y-77720000D01*
X114920000Y-75180000D02*
X114920000Y-72640000D01*
X132700000Y-82800000D02*
X135240000Y-82800000D01*
X135240000Y-80260000D02*
X137780000Y-80260000D01*
X109840000Y-75180000D02*
X109840000Y-72640000D01*
X109840000Y-67560000D02*
X109840000Y-70100000D01*
X107300000Y-59940000D02*
X109840000Y-59940000D01*
X114920000Y-80260000D02*
X117460000Y-80260000D01*
X130160000Y-80260000D02*
X132700000Y-80260000D01*
X117460000Y-82800000D02*
X120000000Y-82800000D01*
X125080000Y-77720000D02*
X125080000Y-75180000D01*
X109840000Y-59940000D02*
X112380000Y-59940000D01*
X104760000Y-67560000D02*
X104760000Y-70100000D01*
X107300000Y-62480000D02*
X109840000Y-62480000D01*
X120000000Y-82800000D02*
X122540000Y-82800000D01*
X112380000Y-62480000D02*
X109840000Y-62480000D01*
X130160000Y-77720000D02*
X130160000Y-75180000D01*
X117460000Y-67560000D02*
X117460000Y-70100000D01*
X120000000Y-77720000D02*
X120000000Y-75180000D01*
X137780000Y-80260000D02*
X140320000Y-80260000D01*
X122540000Y-75180000D02*
X122540000Y-77720000D01*
X130160000Y-82800000D02*
X132700000Y-82800000D01*
X132700000Y-70100000D02*
X132700000Y-72640000D01*
X114920000Y-77720000D02*
X114920000Y-75180000D01*
X140320000Y-80260000D02*
X142860000Y-80260000D01*
X120000000Y-75180000D02*
X120000000Y-72640000D01*
X117460000Y-70100000D02*
X117460000Y-72640000D01*
X104760000Y-65020000D02*
X104760000Y-67560000D01*
X107300000Y-72640000D02*
X107300000Y-70100000D01*
X104760000Y-82800000D02*
X107300000Y-82800000D01*
X145400000Y-80260000D02*
X147940000Y-80260000D01*
X112380000Y-65020000D02*
X112380000Y-67560000D01*
X114920000Y-70100000D02*
X114920000Y-67560000D01*
X114920000Y-72640000D02*
X114920000Y-70100000D01*
X127620000Y-82800000D02*
X130160000Y-82800000D01*
X140320000Y-82800000D02*
X142860000Y-82800000D01*
X137780000Y-82800000D02*
X140320000Y-82800000D01*
X132700000Y-80260000D02*
X135240000Y-80260000D01*
X127620000Y-72640000D02*
X127620000Y-75180000D01*
X109840000Y-65020000D02*
X109840000Y-67560000D01*
X107300000Y-65020000D02*
X107300000Y-67560000D01*
X107300000Y-80260000D02*
X109840000Y-80260000D01*
X104760000Y-59940000D02*
X107300000Y-59940000D01*
X112380000Y-82800000D02*
X114920000Y-82800000D01*
X120000000Y-70100000D02*
X120000000Y-67560000D01*
X142860000Y-80260000D02*
X145400000Y-80260000D01*
X107300000Y-75180000D02*
X107300000Y-72640000D01*
X125080000Y-82800000D02*
X127620000Y-82800000D01*
X120000000Y-80260000D02*
X122540000Y-80260000D01*
X109840000Y-77720000D02*
X109840000Y-75180000D01*
X109840000Y-80260000D02*
X112380000Y-80260000D01*
X104760000Y-80260000D02*
X107300000Y-80260000D01*
D16*
%TO.N,J1-PIN5*%
X96790000Y-79390000D02*
X100550000Y-79390000D01*
X100550000Y-79390000D02*
X102220000Y-77720000D01*
X95660000Y-80520000D02*
X96790000Y-79390000D01*
%TO.N,J1-PIN6*%
X95980000Y-79520000D02*
X97780000Y-77720000D01*
D17*
%TO.N,*%
X104760000Y-51260000D02*
X107300000Y-51260000D01*
X109840000Y-51260000D02*
X112380000Y-51260000D01*
X109840000Y-48720000D02*
X109840000Y-46180000D01*
X120000000Y-51260000D02*
X122540000Y-51260000D01*
X125080000Y-53800000D02*
X127620000Y-53800000D01*
X107300000Y-46180000D02*
X107300000Y-43640000D01*
X142860000Y-51260000D02*
X145400000Y-51260000D01*
X120000000Y-41100000D02*
X120000000Y-38560000D01*
X112380000Y-53800000D02*
X114920000Y-53800000D01*
X104760000Y-30940000D02*
X107300000Y-30940000D01*
X107300000Y-51260000D02*
X109840000Y-51260000D01*
X107300000Y-36020000D02*
X107300000Y-38560000D01*
X109840000Y-36020000D02*
X109840000Y-38560000D01*
X127620000Y-43640000D02*
X127620000Y-46180000D01*
X132700000Y-51260000D02*
X135240000Y-51260000D01*
X137780000Y-53800000D02*
X140320000Y-53800000D01*
X140320000Y-53800000D02*
X142860000Y-53800000D01*
X127620000Y-53800000D02*
X130160000Y-53800000D01*
X114920000Y-43640000D02*
X114920000Y-41100000D01*
X114920000Y-41100000D02*
X114920000Y-38560000D01*
X112380000Y-36020000D02*
X112380000Y-38560000D01*
X145400000Y-51260000D02*
X147940000Y-51260000D01*
X104760000Y-53800000D02*
X107300000Y-53800000D01*
X107300000Y-43640000D02*
X107300000Y-41100000D01*
X104760000Y-36020000D02*
X104760000Y-38560000D01*
X117460000Y-41100000D02*
X117460000Y-43640000D01*
X120000000Y-46180000D02*
X120000000Y-43640000D01*
X140320000Y-51260000D02*
X142860000Y-51260000D01*
X114920000Y-48720000D02*
X114920000Y-46180000D01*
X132700000Y-41100000D02*
X132700000Y-43640000D01*
X130160000Y-53800000D02*
X132700000Y-53800000D01*
X122540000Y-46180000D02*
X122540000Y-48720000D01*
X137780000Y-51260000D02*
X140320000Y-51260000D01*
X120000000Y-48720000D02*
X120000000Y-46180000D01*
X117460000Y-38560000D02*
X117460000Y-41100000D01*
X130160000Y-48720000D02*
X130160000Y-46180000D01*
X112380000Y-33480000D02*
X109840000Y-33480000D01*
X120000000Y-53800000D02*
X122540000Y-53800000D01*
X107300000Y-33480000D02*
X109840000Y-33480000D01*
X104760000Y-38560000D02*
X104760000Y-41100000D01*
X109840000Y-30940000D02*
X112380000Y-30940000D01*
X125080000Y-48720000D02*
X125080000Y-46180000D01*
X117460000Y-53800000D02*
X120000000Y-53800000D01*
X130160000Y-51260000D02*
X132700000Y-51260000D01*
X114920000Y-51260000D02*
X117460000Y-51260000D01*
X107300000Y-30940000D02*
X109840000Y-30940000D01*
X109840000Y-38560000D02*
X109840000Y-41100000D01*
X109840000Y-46180000D02*
X109840000Y-43640000D01*
X135240000Y-51260000D02*
X137780000Y-51260000D01*
X132700000Y-53800000D02*
X135240000Y-53800000D01*
X114920000Y-46180000D02*
X114920000Y-43640000D01*
X104760000Y-46180000D02*
X104760000Y-48720000D01*
X130160000Y-41100000D02*
X130160000Y-38560000D01*
X117460000Y-51260000D02*
X120000000Y-51260000D01*
X135240000Y-53800000D02*
X137780000Y-53800000D01*
X130160000Y-46180000D02*
X130160000Y-43640000D01*
X104760000Y-33480000D02*
X107300000Y-33480000D01*
X142860000Y-38560000D02*
X142860000Y-36020000D01*
X120000000Y-43640000D02*
X120000000Y-41100000D01*
X112380000Y-43640000D02*
X112380000Y-46180000D01*
X114920000Y-53800000D02*
X117460000Y-53800000D01*
X104760000Y-41100000D02*
X104760000Y-43640000D01*
X132700000Y-48720000D02*
X132700000Y-46180000D01*
X107300000Y-41100000D02*
X107300000Y-38560000D01*
X142860000Y-30940000D02*
X145400000Y-30940000D01*
X109840000Y-41100000D02*
X109840000Y-43640000D01*
X130160000Y-43640000D02*
X130160000Y-41100000D01*
X104760000Y-43640000D02*
X104760000Y-46180000D01*
X132700000Y-38560000D02*
X132700000Y-41100000D01*
X127620000Y-51260000D02*
X130160000Y-51260000D01*
X127620000Y-41100000D02*
X127620000Y-43640000D01*
X112380000Y-41100000D02*
X112380000Y-43640000D01*
X112380000Y-51260000D02*
X114920000Y-51260000D01*
X112380000Y-38560000D02*
X112380000Y-41100000D01*
X117460000Y-43640000D02*
X117460000Y-46180000D01*
X142860000Y-53800000D02*
X145400000Y-53800000D01*
X112380000Y-48720000D02*
X112380000Y-46180000D01*
X125080000Y-51260000D02*
X127620000Y-51260000D01*
X125080000Y-46180000D02*
X125080000Y-43640000D01*
X145400000Y-33480000D02*
X142860000Y-33480000D01*
X107300000Y-48720000D02*
X107300000Y-46180000D01*
X117460000Y-46180000D02*
X117460000Y-48720000D01*
X125080000Y-43640000D02*
X125080000Y-41100000D01*
X109840000Y-53800000D02*
X112380000Y-53800000D01*
X107300000Y-53800000D02*
X109840000Y-53800000D01*
X125080000Y-41100000D02*
X125080000Y-38560000D01*
X127620000Y-38560000D02*
X127620000Y-41100000D01*
X122540000Y-43640000D02*
X122540000Y-46180000D01*
X122540000Y-41100000D02*
X122540000Y-43640000D01*
X127620000Y-48720000D02*
X127620000Y-46180000D01*
X132700000Y-43640000D02*
X132700000Y-46180000D01*
X122540000Y-38560000D02*
X122540000Y-41100000D01*
D16*
%TO.N,J1-PIN6*%
X93710000Y-52790000D02*
X93710000Y-51800051D01*
X93710000Y-51800051D02*
X94990051Y-50520000D01*
X94990051Y-50520000D02*
X95980000Y-50520000D01*
X97780000Y-48720000D02*
X99680000Y-48720000D01*
X95980000Y-50520000D02*
X97780000Y-48720000D01*
%TO.N,J1-PIN5*%
X95660000Y-51520000D02*
X96790000Y-50390000D01*
X100550000Y-50390000D02*
X102220000Y-48720000D01*
X96790000Y-50390000D02*
X100550000Y-50390000D01*
%TO.N,J1-PIN4*%
X98040000Y-47320000D02*
X98540000Y-47320000D01*
X94990051Y-47980000D02*
X97380000Y-47980000D01*
X93710000Y-50250000D02*
X93710000Y-49260051D01*
X93710000Y-49260051D02*
X94990051Y-47980000D01*
X98540000Y-47320000D02*
X99680000Y-46180000D01*
X97380000Y-47980000D02*
X98040000Y-47320000D01*
%TO.N,J1-PIN3*%
X100830000Y-47570000D02*
X102220000Y-46180000D01*
X95660000Y-48980000D02*
X96954314Y-48980000D01*
X98530000Y-48243654D02*
X99203654Y-47570000D01*
X97690660Y-48243654D02*
X98530000Y-48243654D01*
X99203654Y-47570000D02*
X100830000Y-47570000D01*
X96954314Y-48980000D02*
X97690660Y-48243654D01*
%TO.N,J1-PIN2*%
X97757157Y-45562843D02*
X99680000Y-43640000D01*
X97354314Y-47440000D02*
X97757157Y-47037157D01*
X93980000Y-47440000D02*
X97354314Y-47440000D01*
X97757157Y-47037157D02*
X97757157Y-45562843D01*
X93710000Y-47710000D02*
X93980000Y-47440000D01*
%TO.N,J1-PIN1*%
X95660000Y-45540000D02*
X98710000Y-42490000D01*
X98710000Y-42490000D02*
X101070000Y-42490000D01*
X95660000Y-46440000D02*
X95660000Y-45540000D01*
X101070000Y-42490000D02*
X102220000Y-43640000D01*
%TO.N,J2-PIN6*%
X93710000Y-38440000D02*
X96364315Y-38440000D01*
X99024315Y-41100000D02*
X99680000Y-41100000D01*
X96364315Y-38440000D02*
X99024315Y-41100000D01*
%TO.N,J2-PIN5*%
X98200000Y-39710000D02*
X100830000Y-39710000D01*
X95660000Y-37170000D02*
X98200000Y-39710000D01*
X100830000Y-39710000D02*
X102220000Y-41100000D01*
%TO.N,J2-PIN4*%
X93710000Y-35900000D02*
X95804214Y-35900000D01*
X98464214Y-38560000D02*
X99680000Y-38560000D01*
X95804214Y-35900000D02*
X98464214Y-38560000D01*
%TO.N,J2-PIN3*%
X98200000Y-37170000D02*
X100830000Y-37170000D01*
X95660000Y-34630000D02*
X98200000Y-37170000D01*
X100830000Y-37170000D02*
X102220000Y-38560000D01*
%TO.N,J2-PIN2*%
X93710000Y-33360000D02*
X95804214Y-33360000D01*
X95804214Y-33360000D02*
X98464214Y-36020000D01*
X98464214Y-36020000D02*
X99680000Y-36020000D01*
%TO.N,J2-PIN1*%
X95660000Y-31190000D02*
X97310000Y-29540000D01*
X97310000Y-29540000D02*
X99583402Y-29540000D01*
X102220000Y-32176598D02*
X102220000Y-36020000D01*
X99583402Y-29540000D02*
X102220000Y-32176598D01*
X95660000Y-32090000D02*
X95660000Y-31190000D01*
%TO.N,J3-PIN3*%
X147940000Y-48720000D02*
X146790000Y-47570000D01*
X146390000Y-45195685D02*
X146390000Y-38410000D01*
X146790000Y-45595685D02*
X146390000Y-45195685D01*
X146390000Y-38410000D02*
X148860000Y-35940000D01*
X146790000Y-47570000D02*
X146790000Y-45595685D01*
%TO.N,J3-PIN2*%
X147940000Y-46180000D02*
X146790000Y-45030000D01*
X146790000Y-40010000D02*
X148860000Y-37940000D01*
X146790000Y-45030000D02*
X146790000Y-40010000D01*
%TO.N,J3-PIN1*%
X148860000Y-42720000D02*
X148860000Y-39940000D01*
X147940000Y-43640000D02*
X148860000Y-42720000D01*
%TO.N,D1-PIN4*%
X142860000Y-46180000D02*
X142860000Y-44890000D01*
X142860000Y-44890000D02*
X143760000Y-43990000D01*
%TO.N,D1-PIN3*%
X145400000Y-46180000D02*
X145400000Y-44230000D01*
X145400000Y-44230000D02*
X145160000Y-43990000D01*
%TO.N,D1-PIN2*%
X141710000Y-42940000D02*
X141710000Y-46656346D01*
X144010000Y-47330000D02*
X145400000Y-48720000D01*
X142383654Y-47330000D02*
X144010000Y-47330000D01*
X141710000Y-46656346D02*
X142383654Y-47330000D01*
X143760000Y-40890000D02*
X141710000Y-42940000D01*
%TO.N,D1-PIN1*%
X143010000Y-39840000D02*
X141220000Y-41630000D01*
X145160000Y-40590000D02*
X144410000Y-39840000D01*
X144410000Y-39840000D02*
X143010000Y-39840000D01*
X141220000Y-47080000D02*
X142860000Y-48720000D01*
X141220000Y-41630000D02*
X141220000Y-47080000D01*
X145160000Y-40890000D02*
X145160000Y-40590000D01*
%TO.N,SW2-PIN2*%
X135240000Y-48720000D02*
X135240000Y-46185000D01*
X135240000Y-46185000D02*
X135985000Y-45440000D01*
%TO.N,SW2-PIN1*%
X137780000Y-48720000D02*
X137780000Y-47395000D01*
X137780000Y-47395000D02*
X139735000Y-45440000D01*
%TD*%
D18*
X141860000Y-86790000D02*
X146360000Y-86790000D01*
X91360000Y-114940000D02*
X91360000Y-85940000D01*
X100360000Y-85940000D02*
X100360000Y-86790000D01*
X151660000Y-90640000D02*
X151660000Y-110240000D01*
X146360000Y-86790000D02*
X146360000Y-90640000D01*
X141860000Y-95090000D02*
X141860000Y-86790000D01*
X151660000Y-110240000D02*
X146360000Y-110240000D01*
X100360000Y-86790000D02*
X114360000Y-86790000D01*
X114360000Y-86790000D02*
X114360000Y-95090000D01*
X91360000Y-85940000D02*
X100360000Y-85940000D01*
X146360000Y-90640000D02*
X151660000Y-90640000D01*
X146360000Y-114090000D02*
X100360000Y-114090000D01*
X146360000Y-110240000D02*
X146360000Y-114090000D01*
X100360000Y-114940000D02*
X91360000Y-114940000D01*
X114360000Y-95090000D02*
X141860000Y-95090000D01*
X100360000Y-114940000D02*
X100360000Y-114090000D01*
X141860000Y-57790000D02*
X146360000Y-57790000D01*
X91360000Y-85940000D02*
X91360000Y-56940000D01*
X100360000Y-56940000D02*
X100360000Y-57790000D01*
X151660000Y-61640000D02*
X151660000Y-81240000D01*
X146360000Y-57790000D02*
X146360000Y-61640000D01*
X141860000Y-66090000D02*
X141860000Y-57790000D01*
X151660000Y-81240000D02*
X146360000Y-81240000D01*
X100360000Y-57790000D02*
X114360000Y-57790000D01*
X114360000Y-57790000D02*
X114360000Y-66090000D01*
X91360000Y-56940000D02*
X100360000Y-56940000D01*
X146360000Y-61640000D02*
X151660000Y-61640000D01*
X146360000Y-85090000D02*
X100360000Y-85090000D01*
X146360000Y-81240000D02*
X146360000Y-85090000D01*
X100360000Y-85940000D02*
X91360000Y-85940000D01*
X114360000Y-66090000D02*
X141860000Y-66090000D01*
X100360000Y-85940000D02*
X100360000Y-85090000D01*
X100360000Y-56940000D02*
X100360000Y-56090000D01*
X114360000Y-37090000D02*
X141860000Y-37090000D01*
X100360000Y-56940000D02*
X91360000Y-56940000D01*
X146360000Y-52240000D02*
X146360000Y-56090000D01*
X146360000Y-56090000D02*
X100360000Y-56090000D01*
X146360000Y-32640000D02*
X151660000Y-32640000D01*
X91360000Y-27940000D02*
X100360000Y-27940000D01*
X114360000Y-28790000D02*
X114360000Y-37090000D01*
X100360000Y-28790000D02*
X114360000Y-28790000D01*
X151660000Y-52240000D02*
X146360000Y-52240000D01*
X141860000Y-37090000D02*
X141860000Y-28790000D01*
X146360000Y-28790000D02*
X146360000Y-32640000D01*
X151660000Y-32640000D02*
X151660000Y-52240000D01*
X100360000Y-27940000D02*
X100360000Y-28790000D01*
X91360000Y-56940000D02*
X91360000Y-27940000D01*
X141860000Y-28790000D02*
X146360000Y-28790000D01*
M02*
