%TF.GenerationSoftware,KiCad,Pcbnew,7.0.11+dfsg-1build4*%
%TF.CreationDate,2025-12-29T16:28:24-05:00*%
%TF.ProjectId,,58585858-5858-4585-9858-585858585858,rev?*%
%TF.SameCoordinates,Original*%
%TF.FileFunction,Copper,L2,Bot*%
%TF.FilePolarity,Positive*%
%FSLAX46Y46*%
G04 Gerber Fmt 4.6, Leading zero omitted, Abs format (unit mm)*
G04 Created by KiCad (PCBNEW 7.0.11+dfsg-1build4) date 2025-12-29 16:28:24*
%MOMM*%
%LPD*%
G01*
G04 APERTURE LIST*
%TA.AperFunction,SMDPad,CuDef*%
%ADD10R,0.750000X1.000000*%
%TD*%
%TA.AperFunction,ComponentPad*%
%ADD11R,1.400000X1.400000*%
%TD*%
%TA.AperFunction,ComponentPad*%
%ADD12C,1.400000*%
%TD*%
%TA.AperFunction,SMDPad,CuDef*%
%ADD13R,0.900000X1.500000*%
%TD*%
%TA.AperFunction,ComponentPad*%
%ADD14C,1.700000*%
%TD*%
%TA.AperFunction,ComponentPad*%
%ADD15C,1.300000*%
%TD*%
%TA.AperFunction,Conductor*%
%ADD16C,0.200000*%
%TD*%
%TA.AperFunction,Conductor*%
%ADD17C,0.500000*%
%TD*%
%TA.AperFunction,Profile*%
%ADD18C,0.050000*%
%TD*%
G04 APERTURE END LIST*
D10*
%TO.P,SW2,1,C*%
%TO.N,unconnected-(SW2A-C-Pad1)*%
X94015000Y-108520000D03*
X94015000Y-102520000D03*
%TO.P,SW2,2,D*%
%TO.N,unconnected-(SW2A-D-Pad2)*%
X90265000Y-108520000D03*
X90265000Y-102520000D03*
%TD*%
D11*
%TO.P,J2,1*%
%TO.N,unconnected-(J2-Pad1)*%
X49940000Y-94420000D03*
D12*
%TO.P,J2,2*%
%TO.N,unconnected-(J2-Pad2)*%
X47990000Y-95690000D03*
%TO.P,J2,3*%
%TO.N,unconnected-(J2-Pad3)*%
X49940000Y-96960000D03*
%TO.P,J2,4*%
%TO.N,unconnected-(J2-Pad4)*%
X47990000Y-98230000D03*
%TO.P,J2,5*%
%TO.N,unconnected-(J2-Pad5)*%
X49940000Y-99500000D03*
%TO.P,J2,6*%
%TO.N,unconnected-(J2-Pad6)*%
X47990000Y-100770000D03*
%TD*%
D13*
%TO.P,D1,1,RA*%
%TO.N,unconnected-(D1-RA-Pad1)*%
X99440000Y-103970000D03*
%TO.P,D1,2,GA*%
%TO.N,unconnected-(D1-GA-Pad2)*%
X98040000Y-103970000D03*
%TO.P,D1,3,BA*%
%TO.N,unconnected-(D1-BA-Pad3)*%
X99440000Y-107070000D03*
%TO.P,D1,4,K*%
%TO.N,unconnected-(D1-K-Pad4)*%
X98040000Y-107070000D03*
%TD*%
D11*
%TO.P,J1,1*%
%TO.N,unconnected-(J1-Pad1)*%
X49940000Y-110270000D03*
D12*
%TO.P,J1,2*%
%TO.N,unconnected-(J1-Pad2)*%
X47990000Y-111540000D03*
%TO.P,J1,3*%
%TO.N,unconnected-(J1-Pad3)*%
X49940000Y-112810000D03*
%TO.P,J1,4*%
%TO.N,unconnected-(J1-Pad4)*%
X47990000Y-114080000D03*
%TO.P,J1,5*%
%TO.N,unconnected-(J1-Pad5)*%
X49940000Y-115350000D03*
%TO.P,J1,6*%
%TO.N,unconnected-(J1-Pad6)*%
X47990000Y-116620000D03*
%TD*%
D14*
%TO.P,REF\u002A\u002A103,1*%
%TO.N,J1-PIN5*%
X56500000Y-111800000D03*
%TD*%
%TO.P,REF\u002A\u002A62,1*%
%TO.N,N/C*%
X79360000Y-101640000D03*
%TD*%
%TO.P,REF\u002A\u002A111,1*%
%TO.N,N/C*%
X66660000Y-109260000D03*
%TD*%
%TO.P,REF\u002A\u002A1,1*%
%TO.N,N/C*%
X61580000Y-94020000D03*
%TD*%
%TO.P,REF\u002A\u002A117,1*%
%TO.N,N/C*%
X81900000Y-109260000D03*
%TD*%
%TO.P,REF\u002A\u002A92,1*%
%TO.N,N/C*%
X64120000Y-106720000D03*
%TD*%
%TO.P,REF\u002A\u002A57,1*%
%TO.N,N/C*%
X66660000Y-101640000D03*
%TD*%
%TO.P,REF\u002A\u002A96,1*%
%TO.N,N/C*%
X74280000Y-106720000D03*
%TD*%
%TO.P,REF\u002A\u002A154,1*%
%TO.N,N/C*%
X84440000Y-114340000D03*
%TD*%
%TO.P,REF\u002A\u002A65,1*%
%TO.N,N/C*%
X86980000Y-101640000D03*
%TD*%
%TO.P,REF\u002A\u002A20,1*%
%TO.N,N/C*%
X64120000Y-96560000D03*
%TD*%
%TO.P,REF\u002A\u002A128,1*%
%TO.N,N/C*%
X64120000Y-111800000D03*
%TD*%
%TO.P,REF\u002A\u002A19,1*%
%TO.N,N/C*%
X61580000Y-96560000D03*
%TD*%
%TO.P,REF\u002A\u002A150,1*%
%TO.N,N/C*%
X74280000Y-114340000D03*
%TD*%
%TO.P,REF\u002A\u002A139,1*%
%TO.N,SW2-PIN1*%
X92060000Y-111800000D03*
%TD*%
%TO.P,REF\u002A\u002A37,1*%
%TO.N,N/C*%
X61580000Y-99100000D03*
%TD*%
%TO.P,REF\u002A\u002A52,1*%
%TO.N,J2-PIN2*%
X53960000Y-99100000D03*
%TD*%
%TO.P,REF\u002A\u002A72,1*%
%TO.N,N/C*%
X59040000Y-104180000D03*
%TD*%
%TO.P,REF\u002A\u002A81,1*%
%TO.N,N/C*%
X81900000Y-104180000D03*
%TD*%
%TO.P,REF\u002A\u002A40,1*%
%TO.N,J2-PIN1*%
X56500000Y-99100000D03*
%TD*%
%TO.P,REF\u002A\u002A95,1*%
%TO.N,N/C*%
X71740000Y-106720000D03*
%TD*%
%TO.P,REF\u002A\u002A15,1*%
%TO.N,N/C*%
X97140000Y-94020000D03*
%TD*%
%TO.P,REF\u002A\u002A159,1*%
%TO.N,N/C*%
X97140000Y-114340000D03*
%TD*%
%TO.P,REF\u002A\u002A82,1*%
%TO.N,N/C*%
X84440000Y-104180000D03*
%TD*%
%TO.P,REF\u002A\u002A73,1*%
%TO.N,N/C*%
X61580000Y-104180000D03*
%TD*%
%TO.P,REF\u002A\u002A53,1*%
%TO.N,N/C*%
X59040000Y-101640000D03*
%TD*%
%TO.P,REF\u002A\u002A78,1*%
%TO.N,N/C*%
X74280000Y-104180000D03*
%TD*%
%TO.P,REF\u002A\u002A97,1*%
%TO.N,N/C*%
X76820000Y-106720000D03*
%TD*%
%TO.P,REF\u002A\u002A100,1*%
%TO.N,N/C*%
X84440000Y-106720000D03*
%TD*%
%TO.P,REF\u002A\u002A132,1*%
%TO.N,N/C*%
X74280000Y-111800000D03*
%TD*%
%TO.P,REF\u002A\u002A163,1*%
%TO.N,N/C*%
X61580000Y-116880000D03*
%TD*%
%TO.P,REF\u002A\u002A71,1*%
%TO.N,J2-PIN6*%
X53960000Y-104180000D03*
%TD*%
%TO.P,REF\u002A\u002A84,1*%
%TO.N,N/C*%
X59040000Y-106720000D03*
%TD*%
%TO.P,REF\u002A\u002A170,1*%
%TO.N,N/C*%
X79360000Y-116880000D03*
%TD*%
%TO.P,REF\u002A\u002A129,1*%
%TO.N,N/C*%
X66660000Y-111800000D03*
%TD*%
%TO.P,REF\u002A\u002A107,1*%
%TO.N,J3-PIN1*%
X102220000Y-106720000D03*
%TD*%
%TO.P,REF\u002A\u002A166,1*%
%TO.N,N/C*%
X69200000Y-116880000D03*
%TD*%
%TO.P,REF\u002A\u002A177,1*%
%TO.N,N/C*%
X97140000Y-116880000D03*
%TD*%
%TO.P,REF\u002A\u002A80,1*%
%TO.N,N/C*%
X79360000Y-104180000D03*
%TD*%
%TO.P,REF\u002A\u002A68,1*%
%TO.N,N/C*%
X59040000Y-104180000D03*
%TD*%
%TO.P,REF\u002A\u002A99,1*%
%TO.N,N/C*%
X81900000Y-106720000D03*
%TD*%
%TO.P,REF\u002A\u002A51,1*%
%TO.N,N/C*%
X97140000Y-99100000D03*
%TD*%
%TO.P,REF\u002A\u002A178,1*%
%TO.N,N/C*%
X99680000Y-116880000D03*
%TD*%
%TO.P,REF\u002A\u002A70,1*%
%TO.N,J2-PIN5*%
X56500000Y-104180000D03*
%TD*%
%TO.P,REF\u002A\u002A108,1*%
%TO.N,N/C*%
X59040000Y-109260000D03*
%TD*%
%TO.P,REF\u002A\u002A116,1*%
%TO.N,N/C*%
X79360000Y-109260000D03*
%TD*%
%TO.P,REF\u002A\u002A147,1*%
%TO.N,N/C*%
X66660000Y-114340000D03*
%TD*%
%TO.P,REF\u002A\u002A119,1*%
%TO.N,N/C*%
X86980000Y-109260000D03*
%TD*%
%TO.P,REF\u002A\u002A55,1*%
%TO.N,N/C*%
X61580000Y-101640000D03*
%TD*%
%TO.P,REF\u002A\u002A98,1*%
%TO.N,N/C*%
X79360000Y-106720000D03*
%TD*%
%TO.P,REF\u002A\u002A144,1*%
%TO.N,N/C*%
X59040000Y-114340000D03*
%TD*%
%TO.P,REF\u002A\u002A18,1*%
%TO.N,N/C*%
X59040000Y-96560000D03*
%TD*%
%TO.P,REF\u002A\u002A104,1*%
%TO.N,J1-PIN6*%
X53960000Y-111800000D03*
%TD*%
%TO.P,REF\u002A\u002A114,1*%
%TO.N,N/C*%
X74280000Y-109260000D03*
%TD*%
%TO.P,REF\u002A\u002A83,1*%
%TO.N,N/C*%
X86980000Y-104180000D03*
%TD*%
%TO.P,REF\u002A\u002A58,1*%
%TO.N,N/C*%
X69200000Y-101640000D03*
%TD*%
%TO.P,REF\u002A\u002A165,1*%
%TO.N,N/C*%
X66660000Y-116880000D03*
%TD*%
%TO.P,REF\u002A\u002A136,1*%
%TO.N,N/C*%
X84440000Y-111800000D03*
%TD*%
%TO.P,REF\u002A\u002A133,1*%
%TO.N,N/C*%
X76820000Y-111800000D03*
%TD*%
%TO.P,REF\u002A\u002A79,1*%
%TO.N,N/C*%
X76820000Y-104180000D03*
%TD*%
%TO.P,REF\u002A\u002A158,1*%
%TO.N,N/C*%
X94600000Y-114340000D03*
%TD*%
%TO.P,REF\u002A\u002A135,1*%
%TO.N,N/C*%
X81900000Y-111800000D03*
%TD*%
%TO.P,REF\u002A\u002A176,1*%
%TO.N,N/C*%
X94600000Y-116880000D03*
%TD*%
%TO.P,REF\u002A\u002A149,1*%
%TO.N,N/C*%
X71740000Y-114340000D03*
%TD*%
%TO.P,REF\u002A\u002A155,1*%
%TO.N,N/C*%
X86980000Y-114340000D03*
%TD*%
%TO.P,REF\u002A\u002A164,1*%
%TO.N,N/C*%
X64120000Y-116880000D03*
%TD*%
%TO.P,REF\u002A\u002A137,1*%
%TO.N,N/C*%
X86980000Y-111800000D03*
%TD*%
%TO.P,REF\u002A\u002A33,1*%
%TO.N,N/C*%
X97140000Y-96560000D03*
%TD*%
%TO.P,REF\u002A\u002A125,1*%
%TO.N,J3-PIN2*%
X102220000Y-109260000D03*
%TD*%
%TO.P,REF\u002A\u002A91,1*%
%TO.N,N/C*%
X61580000Y-106720000D03*
%TD*%
%TO.P,REF\u002A\u002A161,1*%
%TO.N,N/C*%
X102220000Y-114340000D03*
%TD*%
%TO.P,REF\u002A\u002A60,1*%
%TO.N,N/C*%
X74280000Y-101640000D03*
%TD*%
%TO.P,REF\u002A\u002A131,1*%
%TO.N,N/C*%
X71740000Y-111800000D03*
%TD*%
%TO.P,REF\u002A\u002A101,1*%
%TO.N,N/C*%
X86980000Y-106720000D03*
%TD*%
%TO.P,REF\u002A\u002A113,1*%
%TO.N,N/C*%
X71740000Y-109260000D03*
%TD*%
%TO.P,REF\u002A\u002A63,1*%
%TO.N,N/C*%
X81900000Y-101640000D03*
%TD*%
%TO.P,REF\u002A\u002A34,1*%
%TO.N,N/C*%
X99680000Y-96560000D03*
%TD*%
%TO.P,REF\u002A\u002A74,1*%
%TO.N,N/C*%
X64120000Y-104180000D03*
%TD*%
%TO.P,REF\u002A\u002A175,1*%
%TO.N,N/C*%
X92060000Y-116880000D03*
%TD*%
%TO.P,REF\u002A\u002A3,1*%
%TO.N,N/C*%
X66660000Y-94020000D03*
%TD*%
%TO.P,REF\u002A\u002A85,1*%
%TO.N,J1-PIN1*%
X56500000Y-106720000D03*
%TD*%
%TO.P,REF\u002A\u002A153,1*%
%TO.N,N/C*%
X81900000Y-114340000D03*
%TD*%
%TO.P,REF\u002A\u002A169,1*%
%TO.N,N/C*%
X76820000Y-116880000D03*
%TD*%
%TO.P,REF\u002A\u002A109,1*%
%TO.N,N/C*%
X61580000Y-109260000D03*
%TD*%
%TO.P,REF\u002A\u002A130,1*%
%TO.N,N/C*%
X69200000Y-111800000D03*
%TD*%
%TO.P,REF\u002A\u002A167,1*%
%TO.N,N/C*%
X71740000Y-116880000D03*
%TD*%
%TO.P,REF\u002A\u002A156,1*%
%TO.N,N/C*%
X89520000Y-114340000D03*
%TD*%
%TO.P,REF\u002A\u002A174,1*%
%TO.N,N/C*%
X89520000Y-116880000D03*
%TD*%
%TO.P,REF\u002A\u002A,1*%
%TO.N,N/C*%
X59040000Y-94020000D03*
%TD*%
%TO.P,REF\u002A\u002A102,1*%
%TO.N,N/C*%
X59040000Y-111800000D03*
%TD*%
%TO.P,REF\u002A\u002A142,1*%
%TO.N,D1-PIN2*%
X99680000Y-111800000D03*
%TD*%
%TO.P,REF\u002A\u002A94,1*%
%TO.N,N/C*%
X69200000Y-106720000D03*
%TD*%
%TO.P,REF\u002A\u002A151,1*%
%TO.N,N/C*%
X76820000Y-114340000D03*
%TD*%
%TO.P,REF\u002A\u002A138,1*%
%TO.N,SW2-PIN2*%
X89520000Y-111800000D03*
%TD*%
%TO.P,REF\u002A\u002A89,1*%
%TO.N,J1-PIN4*%
X53960000Y-109260000D03*
%TD*%
%TO.P,REF\u002A\u002A16,1*%
%TO.N,N/C*%
X99680000Y-94020000D03*
%TD*%
%TO.P,REF\u002A\u002A54,1*%
%TO.N,N/C*%
X59040000Y-101640000D03*
%TD*%
%TO.P,REF\u002A\u002A146,1*%
%TO.N,N/C*%
X64120000Y-114340000D03*
%TD*%
%TO.P,REF\u002A\u002A127,1*%
%TO.N,N/C*%
X61580000Y-111800000D03*
%TD*%
%TO.P,REF\u002A\u002A90,1*%
%TO.N,N/C*%
X59040000Y-106720000D03*
%TD*%
%TO.P,REF\u002A\u002A69,1*%
%TO.N,N/C*%
X97140000Y-101640000D03*
%TD*%
%TO.P,REF\u002A\u002A123,1*%
%TO.N,D1-PIN4*%
X97140000Y-109260000D03*
%TD*%
%TO.P,REF\u002A\u002A148,1*%
%TO.N,N/C*%
X69200000Y-114340000D03*
%TD*%
%TO.P,REF\u002A\u002A173,1*%
%TO.N,N/C*%
X86980000Y-116880000D03*
%TD*%
%TO.P,REF\u002A\u002A134,1*%
%TO.N,N/C*%
X79360000Y-111800000D03*
%TD*%
%TO.P,REF\u002A\u002A145,1*%
%TO.N,N/C*%
X61580000Y-114340000D03*
%TD*%
%TO.P,REF\u002A\u002A160,1*%
%TO.N,N/C*%
X99680000Y-114340000D03*
%TD*%
%TO.P,REF\u002A\u002A112,1*%
%TO.N,N/C*%
X69200000Y-109260000D03*
%TD*%
%TO.P,REF\u002A\u002A38,1*%
%TO.N,N/C*%
X64120000Y-99100000D03*
%TD*%
%TO.P,REF\u002A\u002A171,1*%
%TO.N,N/C*%
X81900000Y-116880000D03*
%TD*%
%TO.P,REF\u002A\u002A39,1*%
%TO.N,N/C*%
X66660000Y-99100000D03*
%TD*%
%TO.P,REF\u002A\u002A87,1*%
%TO.N,N/C*%
X59040000Y-109260000D03*
%TD*%
%TO.P,REF\u002A\u002A86,1*%
%TO.N,J1-PIN2*%
X53960000Y-106720000D03*
%TD*%
%TO.P,REF\u002A\u002A126,1*%
%TO.N,N/C*%
X59040000Y-111800000D03*
%TD*%
%TO.P,REF\u002A\u002A2,1*%
%TO.N,N/C*%
X64120000Y-94020000D03*
%TD*%
%TO.P,REF\u002A\u002A67,1*%
%TO.N,J2-PIN4*%
X53960000Y-101640000D03*
%TD*%
%TO.P,REF\u002A\u002A140,1*%
%TO.N,N/C*%
X94600000Y-111800000D03*
%TD*%
%TO.P,REF\u002A\u002A88,1*%
%TO.N,J1-PIN3*%
X56500000Y-109260000D03*
%TD*%
%TO.P,REF\u002A\u002A115,1*%
%TO.N,N/C*%
X76820000Y-109260000D03*
%TD*%
%TO.P,REF\u002A\u002A143,1*%
%TO.N,J3-PIN3*%
X102220000Y-111800000D03*
%TD*%
%TO.P,REF\u002A\u002A64,1*%
%TO.N,N/C*%
X84440000Y-101640000D03*
%TD*%
%TO.P,REF\u002A\u002A36,1*%
%TO.N,N/C*%
X59040000Y-99100000D03*
%TD*%
%TO.P,REF\u002A\u002A77,1*%
%TO.N,N/C*%
X71740000Y-104180000D03*
%TD*%
%TO.P,REF\u002A\u002A172,1*%
%TO.N,N/C*%
X84440000Y-116880000D03*
%TD*%
D15*
%TO.P,J3,1,Pin_1*%
%TO.N,unconnected-(J3-Pin_1-Pad1)*%
X103090000Y-103020000D03*
%TO.P,J3,2,Pin_2*%
%TO.N,unconnected-(J3-Pin_2-Pad2)*%
X103090000Y-101020000D03*
%TO.P,J3,3,Pin_3*%
%TO.N,unconnected-(J3-Pin_3-Pad3)*%
X103090000Y-99020000D03*
%TD*%
D14*
%TO.P,REF\u002A\u002A61,1*%
%TO.N,N/C*%
X76820000Y-101640000D03*
%TD*%
%TO.P,REF\u002A\u002A118,1*%
%TO.N,N/C*%
X84440000Y-109260000D03*
%TD*%
%TO.P,REF\u002A\u002A157,1*%
%TO.N,N/C*%
X92060000Y-114340000D03*
%TD*%
%TO.P,REF\u002A\u002A152,1*%
%TO.N,N/C*%
X79360000Y-114340000D03*
%TD*%
%TO.P,REF\u002A\u002A124,1*%
%TO.N,D1-PIN3*%
X99680000Y-109260000D03*
%TD*%
%TO.P,REF\u002A\u002A93,1*%
%TO.N,N/C*%
X66660000Y-106720000D03*
%TD*%
%TO.P,REF\u002A\u002A168,1*%
%TO.N,N/C*%
X74280000Y-116880000D03*
%TD*%
%TO.P,REF\u002A\u002A21,1*%
%TO.N,N/C*%
X66660000Y-96560000D03*
%TD*%
%TO.P,REF\u002A\u002A59,1*%
%TO.N,N/C*%
X71740000Y-101640000D03*
%TD*%
%TO.P,REF\u002A\u002A76,1*%
%TO.N,N/C*%
X69200000Y-104180000D03*
%TD*%
%TO.P,REF\u002A\u002A75,1*%
%TO.N,N/C*%
X66660000Y-104180000D03*
%TD*%
%TO.P,REF\u002A\u002A141,1*%
%TO.N,D1-PIN1*%
X97140000Y-111800000D03*
%TD*%
%TO.P,REF\u002A\u002A162,1*%
%TO.N,N/C*%
X59040000Y-116880000D03*
%TD*%
%TO.P,REF\u002A\u002A66,1*%
%TO.N,J2-PIN3*%
X56500000Y-101640000D03*
%TD*%
%TO.P,REF\u002A\u002A110,1*%
%TO.N,N/C*%
X64120000Y-109260000D03*
%TD*%
%TO.P,REF\u002A\u002A56,1*%
%TO.N,N/C*%
X64120000Y-101640000D03*
%TD*%
D10*
%TO.P,SW2,1,C*%
%TO.N,unconnected-(SW2A-C-Pad1)*%
X94015000Y-79520000D03*
X94015000Y-73520000D03*
%TO.P,SW2,2,D*%
%TO.N,unconnected-(SW2A-D-Pad2)*%
X90265000Y-79520000D03*
X90265000Y-73520000D03*
%TD*%
D11*
%TO.P,J2,1*%
%TO.N,unconnected-(J2-Pad1)*%
X49940000Y-65420000D03*
D12*
%TO.P,J2,2*%
%TO.N,unconnected-(J2-Pad2)*%
X47990000Y-66690000D03*
%TO.P,J2,3*%
%TO.N,unconnected-(J2-Pad3)*%
X49940000Y-67960000D03*
%TO.P,J2,4*%
%TO.N,unconnected-(J2-Pad4)*%
X47990000Y-69230000D03*
%TO.P,J2,5*%
%TO.N,unconnected-(J2-Pad5)*%
X49940000Y-70500000D03*
%TO.P,J2,6*%
%TO.N,unconnected-(J2-Pad6)*%
X47990000Y-71770000D03*
%TD*%
D13*
%TO.P,D1,1,RA*%
%TO.N,unconnected-(D1-RA-Pad1)*%
X99440000Y-74970000D03*
%TO.P,D1,2,GA*%
%TO.N,unconnected-(D1-GA-Pad2)*%
X98040000Y-74970000D03*
%TO.P,D1,3,BA*%
%TO.N,unconnected-(D1-BA-Pad3)*%
X99440000Y-78070000D03*
%TO.P,D1,4,K*%
%TO.N,unconnected-(D1-K-Pad4)*%
X98040000Y-78070000D03*
%TD*%
D11*
%TO.P,J1,1*%
%TO.N,unconnected-(J1-Pad1)*%
X49940000Y-81270000D03*
D12*
%TO.P,J1,2*%
%TO.N,unconnected-(J1-Pad2)*%
X47990000Y-82540000D03*
%TO.P,J1,3*%
%TO.N,unconnected-(J1-Pad3)*%
X49940000Y-83810000D03*
%TO.P,J1,4*%
%TO.N,unconnected-(J1-Pad4)*%
X47990000Y-85080000D03*
%TO.P,J1,5*%
%TO.N,unconnected-(J1-Pad5)*%
X49940000Y-86350000D03*
%TO.P,J1,6*%
%TO.N,unconnected-(J1-Pad6)*%
X47990000Y-87620000D03*
%TD*%
D14*
%TO.P,REF\u002A\u002A103,1*%
%TO.N,J1-PIN5*%
X56500000Y-82800000D03*
%TD*%
%TO.P,REF\u002A\u002A62,1*%
%TO.N,N/C*%
X79360000Y-72640000D03*
%TD*%
%TO.P,REF\u002A\u002A111,1*%
%TO.N,N/C*%
X66660000Y-80260000D03*
%TD*%
%TO.P,REF\u002A\u002A1,1*%
%TO.N,N/C*%
X61580000Y-65020000D03*
%TD*%
%TO.P,REF\u002A\u002A117,1*%
%TO.N,N/C*%
X81900000Y-80260000D03*
%TD*%
%TO.P,REF\u002A\u002A92,1*%
%TO.N,N/C*%
X64120000Y-77720000D03*
%TD*%
%TO.P,REF\u002A\u002A57,1*%
%TO.N,N/C*%
X66660000Y-72640000D03*
%TD*%
%TO.P,REF\u002A\u002A96,1*%
%TO.N,N/C*%
X74280000Y-77720000D03*
%TD*%
%TO.P,REF\u002A\u002A154,1*%
%TO.N,N/C*%
X84440000Y-85340000D03*
%TD*%
%TO.P,REF\u002A\u002A65,1*%
%TO.N,N/C*%
X86980000Y-72640000D03*
%TD*%
%TO.P,REF\u002A\u002A20,1*%
%TO.N,N/C*%
X64120000Y-67560000D03*
%TD*%
%TO.P,REF\u002A\u002A128,1*%
%TO.N,N/C*%
X64120000Y-82800000D03*
%TD*%
%TO.P,REF\u002A\u002A19,1*%
%TO.N,N/C*%
X61580000Y-67560000D03*
%TD*%
%TO.P,REF\u002A\u002A150,1*%
%TO.N,N/C*%
X74280000Y-85340000D03*
%TD*%
%TO.P,REF\u002A\u002A139,1*%
%TO.N,SW2-PIN1*%
X92060000Y-82800000D03*
%TD*%
%TO.P,REF\u002A\u002A37,1*%
%TO.N,N/C*%
X61580000Y-70100000D03*
%TD*%
%TO.P,REF\u002A\u002A52,1*%
%TO.N,J2-PIN2*%
X53960000Y-70100000D03*
%TD*%
%TO.P,REF\u002A\u002A72,1*%
%TO.N,N/C*%
X59040000Y-75180000D03*
%TD*%
%TO.P,REF\u002A\u002A81,1*%
%TO.N,N/C*%
X81900000Y-75180000D03*
%TD*%
%TO.P,REF\u002A\u002A40,1*%
%TO.N,J2-PIN1*%
X56500000Y-70100000D03*
%TD*%
%TO.P,REF\u002A\u002A95,1*%
%TO.N,N/C*%
X71740000Y-77720000D03*
%TD*%
%TO.P,REF\u002A\u002A15,1*%
%TO.N,N/C*%
X97140000Y-65020000D03*
%TD*%
%TO.P,REF\u002A\u002A159,1*%
%TO.N,N/C*%
X97140000Y-85340000D03*
%TD*%
%TO.P,REF\u002A\u002A82,1*%
%TO.N,N/C*%
X84440000Y-75180000D03*
%TD*%
%TO.P,REF\u002A\u002A73,1*%
%TO.N,N/C*%
X61580000Y-75180000D03*
%TD*%
%TO.P,REF\u002A\u002A53,1*%
%TO.N,N/C*%
X59040000Y-72640000D03*
%TD*%
%TO.P,REF\u002A\u002A78,1*%
%TO.N,N/C*%
X74280000Y-75180000D03*
%TD*%
%TO.P,REF\u002A\u002A97,1*%
%TO.N,N/C*%
X76820000Y-77720000D03*
%TD*%
%TO.P,REF\u002A\u002A100,1*%
%TO.N,N/C*%
X84440000Y-77720000D03*
%TD*%
%TO.P,REF\u002A\u002A132,1*%
%TO.N,N/C*%
X74280000Y-82800000D03*
%TD*%
%TO.P,REF\u002A\u002A163,1*%
%TO.N,N/C*%
X61580000Y-87880000D03*
%TD*%
%TO.P,REF\u002A\u002A71,1*%
%TO.N,J2-PIN6*%
X53960000Y-75180000D03*
%TD*%
%TO.P,REF\u002A\u002A84,1*%
%TO.N,N/C*%
X59040000Y-77720000D03*
%TD*%
%TO.P,REF\u002A\u002A170,1*%
%TO.N,N/C*%
X79360000Y-87880000D03*
%TD*%
%TO.P,REF\u002A\u002A129,1*%
%TO.N,N/C*%
X66660000Y-82800000D03*
%TD*%
%TO.P,REF\u002A\u002A107,1*%
%TO.N,J3-PIN1*%
X102220000Y-77720000D03*
%TD*%
%TO.P,REF\u002A\u002A166,1*%
%TO.N,N/C*%
X69200000Y-87880000D03*
%TD*%
%TO.P,REF\u002A\u002A177,1*%
%TO.N,N/C*%
X97140000Y-87880000D03*
%TD*%
%TO.P,REF\u002A\u002A80,1*%
%TO.N,N/C*%
X79360000Y-75180000D03*
%TD*%
%TO.P,REF\u002A\u002A68,1*%
%TO.N,N/C*%
X59040000Y-75180000D03*
%TD*%
%TO.P,REF\u002A\u002A99,1*%
%TO.N,N/C*%
X81900000Y-77720000D03*
%TD*%
%TO.P,REF\u002A\u002A51,1*%
%TO.N,N/C*%
X97140000Y-70100000D03*
%TD*%
%TO.P,REF\u002A\u002A178,1*%
%TO.N,N/C*%
X99680000Y-87880000D03*
%TD*%
%TO.P,REF\u002A\u002A70,1*%
%TO.N,J2-PIN5*%
X56500000Y-75180000D03*
%TD*%
%TO.P,REF\u002A\u002A108,1*%
%TO.N,N/C*%
X59040000Y-80260000D03*
%TD*%
%TO.P,REF\u002A\u002A116,1*%
%TO.N,N/C*%
X79360000Y-80260000D03*
%TD*%
%TO.P,REF\u002A\u002A147,1*%
%TO.N,N/C*%
X66660000Y-85340000D03*
%TD*%
%TO.P,REF\u002A\u002A119,1*%
%TO.N,N/C*%
X86980000Y-80260000D03*
%TD*%
%TO.P,REF\u002A\u002A55,1*%
%TO.N,N/C*%
X61580000Y-72640000D03*
%TD*%
%TO.P,REF\u002A\u002A98,1*%
%TO.N,N/C*%
X79360000Y-77720000D03*
%TD*%
%TO.P,REF\u002A\u002A144,1*%
%TO.N,N/C*%
X59040000Y-85340000D03*
%TD*%
%TO.P,REF\u002A\u002A18,1*%
%TO.N,N/C*%
X59040000Y-67560000D03*
%TD*%
%TO.P,REF\u002A\u002A104,1*%
%TO.N,J1-PIN6*%
X53960000Y-82800000D03*
%TD*%
%TO.P,REF\u002A\u002A114,1*%
%TO.N,N/C*%
X74280000Y-80260000D03*
%TD*%
%TO.P,REF\u002A\u002A83,1*%
%TO.N,N/C*%
X86980000Y-75180000D03*
%TD*%
%TO.P,REF\u002A\u002A58,1*%
%TO.N,N/C*%
X69200000Y-72640000D03*
%TD*%
%TO.P,REF\u002A\u002A165,1*%
%TO.N,N/C*%
X66660000Y-87880000D03*
%TD*%
%TO.P,REF\u002A\u002A136,1*%
%TO.N,N/C*%
X84440000Y-82800000D03*
%TD*%
%TO.P,REF\u002A\u002A133,1*%
%TO.N,N/C*%
X76820000Y-82800000D03*
%TD*%
%TO.P,REF\u002A\u002A79,1*%
%TO.N,N/C*%
X76820000Y-75180000D03*
%TD*%
%TO.P,REF\u002A\u002A158,1*%
%TO.N,N/C*%
X94600000Y-85340000D03*
%TD*%
%TO.P,REF\u002A\u002A135,1*%
%TO.N,N/C*%
X81900000Y-82800000D03*
%TD*%
%TO.P,REF\u002A\u002A176,1*%
%TO.N,N/C*%
X94600000Y-87880000D03*
%TD*%
%TO.P,REF\u002A\u002A149,1*%
%TO.N,N/C*%
X71740000Y-85340000D03*
%TD*%
%TO.P,REF\u002A\u002A155,1*%
%TO.N,N/C*%
X86980000Y-85340000D03*
%TD*%
%TO.P,REF\u002A\u002A164,1*%
%TO.N,N/C*%
X64120000Y-87880000D03*
%TD*%
%TO.P,REF\u002A\u002A137,1*%
%TO.N,N/C*%
X86980000Y-82800000D03*
%TD*%
%TO.P,REF\u002A\u002A33,1*%
%TO.N,N/C*%
X97140000Y-67560000D03*
%TD*%
%TO.P,REF\u002A\u002A125,1*%
%TO.N,J3-PIN2*%
X102220000Y-80260000D03*
%TD*%
%TO.P,REF\u002A\u002A91,1*%
%TO.N,N/C*%
X61580000Y-77720000D03*
%TD*%
%TO.P,REF\u002A\u002A161,1*%
%TO.N,N/C*%
X102220000Y-85340000D03*
%TD*%
%TO.P,REF\u002A\u002A60,1*%
%TO.N,N/C*%
X74280000Y-72640000D03*
%TD*%
%TO.P,REF\u002A\u002A131,1*%
%TO.N,N/C*%
X71740000Y-82800000D03*
%TD*%
%TO.P,REF\u002A\u002A101,1*%
%TO.N,N/C*%
X86980000Y-77720000D03*
%TD*%
%TO.P,REF\u002A\u002A113,1*%
%TO.N,N/C*%
X71740000Y-80260000D03*
%TD*%
%TO.P,REF\u002A\u002A63,1*%
%TO.N,N/C*%
X81900000Y-72640000D03*
%TD*%
%TO.P,REF\u002A\u002A34,1*%
%TO.N,N/C*%
X99680000Y-67560000D03*
%TD*%
%TO.P,REF\u002A\u002A74,1*%
%TO.N,N/C*%
X64120000Y-75180000D03*
%TD*%
%TO.P,REF\u002A\u002A175,1*%
%TO.N,N/C*%
X92060000Y-87880000D03*
%TD*%
%TO.P,REF\u002A\u002A3,1*%
%TO.N,N/C*%
X66660000Y-65020000D03*
%TD*%
%TO.P,REF\u002A\u002A85,1*%
%TO.N,J1-PIN1*%
X56500000Y-77720000D03*
%TD*%
%TO.P,REF\u002A\u002A153,1*%
%TO.N,N/C*%
X81900000Y-85340000D03*
%TD*%
%TO.P,REF\u002A\u002A169,1*%
%TO.N,N/C*%
X76820000Y-87880000D03*
%TD*%
%TO.P,REF\u002A\u002A109,1*%
%TO.N,N/C*%
X61580000Y-80260000D03*
%TD*%
%TO.P,REF\u002A\u002A130,1*%
%TO.N,N/C*%
X69200000Y-82800000D03*
%TD*%
%TO.P,REF\u002A\u002A167,1*%
%TO.N,N/C*%
X71740000Y-87880000D03*
%TD*%
%TO.P,REF\u002A\u002A156,1*%
%TO.N,N/C*%
X89520000Y-85340000D03*
%TD*%
%TO.P,REF\u002A\u002A174,1*%
%TO.N,N/C*%
X89520000Y-87880000D03*
%TD*%
%TO.P,REF\u002A\u002A,1*%
%TO.N,N/C*%
X59040000Y-65020000D03*
%TD*%
%TO.P,REF\u002A\u002A102,1*%
%TO.N,N/C*%
X59040000Y-82800000D03*
%TD*%
%TO.P,REF\u002A\u002A142,1*%
%TO.N,D1-PIN2*%
X99680000Y-82800000D03*
%TD*%
%TO.P,REF\u002A\u002A94,1*%
%TO.N,N/C*%
X69200000Y-77720000D03*
%TD*%
%TO.P,REF\u002A\u002A151,1*%
%TO.N,N/C*%
X76820000Y-85340000D03*
%TD*%
%TO.P,REF\u002A\u002A138,1*%
%TO.N,SW2-PIN2*%
X89520000Y-82800000D03*
%TD*%
%TO.P,REF\u002A\u002A89,1*%
%TO.N,J1-PIN4*%
X53960000Y-80260000D03*
%TD*%
%TO.P,REF\u002A\u002A16,1*%
%TO.N,N/C*%
X99680000Y-65020000D03*
%TD*%
%TO.P,REF\u002A\u002A54,1*%
%TO.N,N/C*%
X59040000Y-72640000D03*
%TD*%
%TO.P,REF\u002A\u002A146,1*%
%TO.N,N/C*%
X64120000Y-85340000D03*
%TD*%
%TO.P,REF\u002A\u002A127,1*%
%TO.N,N/C*%
X61580000Y-82800000D03*
%TD*%
%TO.P,REF\u002A\u002A90,1*%
%TO.N,N/C*%
X59040000Y-77720000D03*
%TD*%
%TO.P,REF\u002A\u002A69,1*%
%TO.N,N/C*%
X97140000Y-72640000D03*
%TD*%
%TO.P,REF\u002A\u002A123,1*%
%TO.N,D1-PIN4*%
X97140000Y-80260000D03*
%TD*%
%TO.P,REF\u002A\u002A148,1*%
%TO.N,N/C*%
X69200000Y-85340000D03*
%TD*%
%TO.P,REF\u002A\u002A173,1*%
%TO.N,N/C*%
X86980000Y-87880000D03*
%TD*%
%TO.P,REF\u002A\u002A134,1*%
%TO.N,N/C*%
X79360000Y-82800000D03*
%TD*%
%TO.P,REF\u002A\u002A145,1*%
%TO.N,N/C*%
X61580000Y-85340000D03*
%TD*%
%TO.P,REF\u002A\u002A160,1*%
%TO.N,N/C*%
X99680000Y-85340000D03*
%TD*%
%TO.P,REF\u002A\u002A112,1*%
%TO.N,N/C*%
X69200000Y-80260000D03*
%TD*%
%TO.P,REF\u002A\u002A38,1*%
%TO.N,N/C*%
X64120000Y-70100000D03*
%TD*%
%TO.P,REF\u002A\u002A171,1*%
%TO.N,N/C*%
X81900000Y-87880000D03*
%TD*%
%TO.P,REF\u002A\u002A39,1*%
%TO.N,N/C*%
X66660000Y-70100000D03*
%TD*%
%TO.P,REF\u002A\u002A87,1*%
%TO.N,N/C*%
X59040000Y-80260000D03*
%TD*%
%TO.P,REF\u002A\u002A86,1*%
%TO.N,J1-PIN2*%
X53960000Y-77720000D03*
%TD*%
%TO.P,REF\u002A\u002A126,1*%
%TO.N,N/C*%
X59040000Y-82800000D03*
%TD*%
%TO.P,REF\u002A\u002A2,1*%
%TO.N,N/C*%
X64120000Y-65020000D03*
%TD*%
%TO.P,REF\u002A\u002A67,1*%
%TO.N,J2-PIN4*%
X53960000Y-72640000D03*
%TD*%
%TO.P,REF\u002A\u002A140,1*%
%TO.N,N/C*%
X94600000Y-82800000D03*
%TD*%
%TO.P,REF\u002A\u002A88,1*%
%TO.N,J1-PIN3*%
X56500000Y-80260000D03*
%TD*%
%TO.P,REF\u002A\u002A115,1*%
%TO.N,N/C*%
X76820000Y-80260000D03*
%TD*%
%TO.P,REF\u002A\u002A143,1*%
%TO.N,J3-PIN3*%
X102220000Y-82800000D03*
%TD*%
%TO.P,REF\u002A\u002A64,1*%
%TO.N,N/C*%
X84440000Y-72640000D03*
%TD*%
%TO.P,REF\u002A\u002A36,1*%
%TO.N,N/C*%
X59040000Y-70100000D03*
%TD*%
%TO.P,REF\u002A\u002A77,1*%
%TO.N,N/C*%
X71740000Y-75180000D03*
%TD*%
%TO.P,REF\u002A\u002A172,1*%
%TO.N,N/C*%
X84440000Y-87880000D03*
%TD*%
D15*
%TO.P,J3,1,Pin_1*%
%TO.N,unconnected-(J3-Pin_1-Pad1)*%
X103090000Y-74020000D03*
%TO.P,J3,2,Pin_2*%
%TO.N,unconnected-(J3-Pin_2-Pad2)*%
X103090000Y-72020000D03*
%TO.P,J3,3,Pin_3*%
%TO.N,unconnected-(J3-Pin_3-Pad3)*%
X103090000Y-70020000D03*
%TD*%
D14*
%TO.P,REF\u002A\u002A61,1*%
%TO.N,N/C*%
X76820000Y-72640000D03*
%TD*%
%TO.P,REF\u002A\u002A118,1*%
%TO.N,N/C*%
X84440000Y-80260000D03*
%TD*%
%TO.P,REF\u002A\u002A157,1*%
%TO.N,N/C*%
X92060000Y-85340000D03*
%TD*%
%TO.P,REF\u002A\u002A152,1*%
%TO.N,N/C*%
X79360000Y-85340000D03*
%TD*%
%TO.P,REF\u002A\u002A124,1*%
%TO.N,D1-PIN3*%
X99680000Y-80260000D03*
%TD*%
%TO.P,REF\u002A\u002A93,1*%
%TO.N,N/C*%
X66660000Y-77720000D03*
%TD*%
%TO.P,REF\u002A\u002A168,1*%
%TO.N,N/C*%
X74280000Y-87880000D03*
%TD*%
%TO.P,REF\u002A\u002A21,1*%
%TO.N,N/C*%
X66660000Y-67560000D03*
%TD*%
%TO.P,REF\u002A\u002A59,1*%
%TO.N,N/C*%
X71740000Y-72640000D03*
%TD*%
%TO.P,REF\u002A\u002A76,1*%
%TO.N,N/C*%
X69200000Y-75180000D03*
%TD*%
%TO.P,REF\u002A\u002A75,1*%
%TO.N,N/C*%
X66660000Y-75180000D03*
%TD*%
%TO.P,REF\u002A\u002A141,1*%
%TO.N,D1-PIN1*%
X97140000Y-82800000D03*
%TD*%
%TO.P,REF\u002A\u002A162,1*%
%TO.N,N/C*%
X59040000Y-87880000D03*
%TD*%
%TO.P,REF\u002A\u002A66,1*%
%TO.N,J2-PIN3*%
X56500000Y-72640000D03*
%TD*%
%TO.P,REF\u002A\u002A110,1*%
%TO.N,N/C*%
X64120000Y-80260000D03*
%TD*%
%TO.P,REF\u002A\u002A56,1*%
%TO.N,N/C*%
X64120000Y-72640000D03*
%TD*%
%TO.P,REF\u002A\u002A64,1*%
%TO.N,N/C*%
X84440000Y-43640000D03*
%TD*%
%TO.P,REF\u002A\u002A87,1*%
%TO.N,N/C*%
X59040000Y-51260000D03*
%TD*%
%TO.P,REF\u002A\u002A153,1*%
%TO.N,N/C*%
X81900000Y-56340000D03*
%TD*%
%TO.P,REF\u002A\u002A149,1*%
%TO.N,N/C*%
X71740000Y-56340000D03*
%TD*%
%TO.P,REF\u002A\u002A94,1*%
%TO.N,N/C*%
X69200000Y-48720000D03*
%TD*%
%TO.P,REF\u002A\u002A75,1*%
%TO.N,N/C*%
X66660000Y-46180000D03*
%TD*%
%TO.P,REF\u002A\u002A18,1*%
%TO.N,N/C*%
X59040000Y-38560000D03*
%TD*%
%TO.P,REF\u002A\u002A34,1*%
%TO.N,N/C*%
X99680000Y-38560000D03*
%TD*%
%TO.P,REF\u002A\u002A61,1*%
%TO.N,N/C*%
X76820000Y-43640000D03*
%TD*%
%TO.P,REF\u002A\u002A135,1*%
%TO.N,N/C*%
X81900000Y-53800000D03*
%TD*%
%TO.P,REF\u002A\u002A63,1*%
%TO.N,N/C*%
X81900000Y-43640000D03*
%TD*%
D15*
%TO.P,J3,1,Pin_1*%
%TO.N,unconnected-(J3-Pin_1-Pad1)*%
X103090000Y-45020000D03*
%TO.P,J3,2,Pin_2*%
%TO.N,unconnected-(J3-Pin_2-Pad2)*%
X103090000Y-43020000D03*
%TO.P,J3,3,Pin_3*%
%TO.N,unconnected-(J3-Pin_3-Pad3)*%
X103090000Y-41020000D03*
%TD*%
D14*
%TO.P,REF\u002A\u002A176,1*%
%TO.N,N/C*%
X94600000Y-58880000D03*
%TD*%
%TO.P,REF\u002A\u002A111,1*%
%TO.N,N/C*%
X66660000Y-51260000D03*
%TD*%
%TO.P,REF\u002A\u002A159,1*%
%TO.N,N/C*%
X97140000Y-56340000D03*
%TD*%
%TO.P,REF\u002A\u002A76,1*%
%TO.N,N/C*%
X69200000Y-46180000D03*
%TD*%
%TO.P,REF\u002A\u002A19,1*%
%TO.N,N/C*%
X61580000Y-38560000D03*
%TD*%
%TO.P,REF\u002A\u002A146,1*%
%TO.N,N/C*%
X64120000Y-56340000D03*
%TD*%
%TO.P,REF\u002A\u002A150,1*%
%TO.N,N/C*%
X74280000Y-56340000D03*
%TD*%
%TO.P,REF\u002A\u002A133,1*%
%TO.N,N/C*%
X76820000Y-53800000D03*
%TD*%
%TO.P,REF\u002A\u002A128,1*%
%TO.N,N/C*%
X64120000Y-53800000D03*
%TD*%
%TO.P,REF\u002A\u002A104,1*%
%TO.N,J1-PIN6*%
X53960000Y-53800000D03*
%TD*%
%TO.P,REF\u002A\u002A164,1*%
%TO.N,N/C*%
X64120000Y-58880000D03*
%TD*%
%TO.P,REF\u002A\u002A162,1*%
%TO.N,N/C*%
X59040000Y-58880000D03*
%TD*%
%TO.P,REF\u002A\u002A16,1*%
%TO.N,N/C*%
X99680000Y-36020000D03*
%TD*%
%TO.P,REF\u002A\u002A145,1*%
%TO.N,N/C*%
X61580000Y-56340000D03*
%TD*%
%TO.P,REF\u002A\u002A134,1*%
%TO.N,N/C*%
X79360000Y-53800000D03*
%TD*%
%TO.P,REF\u002A\u002A119,1*%
%TO.N,N/C*%
X86980000Y-51260000D03*
%TD*%
%TO.P,REF\u002A\u002A161,1*%
%TO.N,N/C*%
X102220000Y-56340000D03*
%TD*%
%TO.P,REF\u002A\u002A91,1*%
%TO.N,N/C*%
X61580000Y-48720000D03*
%TD*%
%TO.P,REF\u002A\u002A101,1*%
%TO.N,N/C*%
X86980000Y-48720000D03*
%TD*%
%TO.P,REF\u002A\u002A93,1*%
%TO.N,N/C*%
X66660000Y-48720000D03*
%TD*%
%TO.P,REF\u002A\u002A178,1*%
%TO.N,N/C*%
X99680000Y-58880000D03*
%TD*%
%TO.P,REF\u002A\u002A15,1*%
%TO.N,N/C*%
X97140000Y-36020000D03*
%TD*%
%TO.P,REF\u002A\u002A137,1*%
%TO.N,N/C*%
X86980000Y-53800000D03*
%TD*%
%TO.P,REF\u002A\u002A58,1*%
%TO.N,N/C*%
X69200000Y-43640000D03*
%TD*%
%TO.P,REF\u002A\u002A116,1*%
%TO.N,N/C*%
X79360000Y-51260000D03*
%TD*%
%TO.P,REF\u002A\u002A39,1*%
%TO.N,N/C*%
X66660000Y-41100000D03*
%TD*%
%TO.P,REF\u002A\u002A141,1*%
%TO.N,D1-PIN1*%
X97140000Y-53800000D03*
%TD*%
%TO.P,REF\u002A\u002A85,1*%
%TO.N,J1-PIN1*%
X56500000Y-48720000D03*
%TD*%
%TO.P,REF\u002A\u002A1,1*%
%TO.N,N/C*%
X61580000Y-36020000D03*
%TD*%
%TO.P,REF\u002A\u002A38,1*%
%TO.N,N/C*%
X64120000Y-41100000D03*
%TD*%
%TO.P,REF\u002A\u002A139,1*%
%TO.N,SW2-PIN1*%
X92060000Y-53800000D03*
%TD*%
%TO.P,REF\u002A\u002A33,1*%
%TO.N,N/C*%
X97140000Y-38560000D03*
%TD*%
%TO.P,REF\u002A\u002A127,1*%
%TO.N,N/C*%
X61580000Y-53800000D03*
%TD*%
%TO.P,REF\u002A\u002A73,1*%
%TO.N,N/C*%
X61580000Y-46180000D03*
%TD*%
%TO.P,REF\u002A\u002A99,1*%
%TO.N,N/C*%
X81900000Y-48720000D03*
%TD*%
%TO.P,REF\u002A\u002A79,1*%
%TO.N,N/C*%
X76820000Y-46180000D03*
%TD*%
%TO.P,REF\u002A\u002A77,1*%
%TO.N,N/C*%
X71740000Y-46180000D03*
%TD*%
%TO.P,REF\u002A\u002A67,1*%
%TO.N,J2-PIN4*%
X53960000Y-43640000D03*
%TD*%
%TO.P,REF\u002A\u002A169,1*%
%TO.N,N/C*%
X76820000Y-58880000D03*
%TD*%
%TO.P,REF\u002A\u002A130,1*%
%TO.N,N/C*%
X69200000Y-53800000D03*
%TD*%
%TO.P,REF\u002A\u002A177,1*%
%TO.N,N/C*%
X97140000Y-58880000D03*
%TD*%
%TO.P,REF\u002A\u002A125,1*%
%TO.N,J3-PIN2*%
X102220000Y-51260000D03*
%TD*%
%TO.P,REF\u002A\u002A21,1*%
%TO.N,N/C*%
X66660000Y-38560000D03*
%TD*%
%TO.P,REF\u002A\u002A52,1*%
%TO.N,J2-PIN2*%
X53960000Y-41100000D03*
%TD*%
%TO.P,REF\u002A\u002A143,1*%
%TO.N,J3-PIN3*%
X102220000Y-53800000D03*
%TD*%
%TO.P,REF\u002A\u002A102,1*%
%TO.N,N/C*%
X59040000Y-53800000D03*
%TD*%
%TO.P,REF\u002A\u002A163,1*%
%TO.N,N/C*%
X61580000Y-58880000D03*
%TD*%
%TO.P,REF\u002A\u002A147,1*%
%TO.N,N/C*%
X66660000Y-56340000D03*
%TD*%
%TO.P,REF\u002A\u002A51,1*%
%TO.N,N/C*%
X97140000Y-41100000D03*
%TD*%
%TO.P,REF\u002A\u002A84,1*%
%TO.N,N/C*%
X59040000Y-48720000D03*
%TD*%
%TO.P,REF\u002A\u002A103,1*%
%TO.N,J1-PIN5*%
X56500000Y-53800000D03*
%TD*%
%TO.P,REF\u002A\u002A,1*%
%TO.N,N/C*%
X59040000Y-36020000D03*
%TD*%
%TO.P,REF\u002A\u002A59,1*%
%TO.N,N/C*%
X71740000Y-43640000D03*
%TD*%
%TO.P,REF\u002A\u002A140,1*%
%TO.N,N/C*%
X94600000Y-53800000D03*
%TD*%
%TO.P,REF\u002A\u002A55,1*%
%TO.N,N/C*%
X61580000Y-43640000D03*
%TD*%
%TO.P,REF\u002A\u002A95,1*%
%TO.N,N/C*%
X71740000Y-48720000D03*
%TD*%
%TO.P,REF\u002A\u002A118,1*%
%TO.N,N/C*%
X84440000Y-51260000D03*
%TD*%
%TO.P,REF\u002A\u002A112,1*%
%TO.N,N/C*%
X69200000Y-51260000D03*
%TD*%
%TO.P,REF\u002A\u002A151,1*%
%TO.N,N/C*%
X76820000Y-56340000D03*
%TD*%
%TO.P,REF\u002A\u002A37,1*%
%TO.N,N/C*%
X61580000Y-41100000D03*
%TD*%
%TO.P,REF\u002A\u002A109,1*%
%TO.N,N/C*%
X61580000Y-51260000D03*
%TD*%
%TO.P,REF\u002A\u002A158,1*%
%TO.N,N/C*%
X94600000Y-56340000D03*
%TD*%
%TO.P,REF\u002A\u002A155,1*%
%TO.N,N/C*%
X86980000Y-56340000D03*
%TD*%
%TO.P,REF\u002A\u002A86,1*%
%TO.N,J1-PIN2*%
X53960000Y-48720000D03*
%TD*%
%TO.P,REF\u002A\u002A167,1*%
%TO.N,N/C*%
X71740000Y-58880000D03*
%TD*%
%TO.P,REF\u002A\u002A172,1*%
%TO.N,N/C*%
X84440000Y-58880000D03*
%TD*%
%TO.P,REF\u002A\u002A115,1*%
%TO.N,N/C*%
X76820000Y-51260000D03*
%TD*%
%TO.P,REF\u002A\u002A74,1*%
%TO.N,N/C*%
X64120000Y-46180000D03*
%TD*%
%TO.P,REF\u002A\u002A98,1*%
%TO.N,N/C*%
X79360000Y-48720000D03*
%TD*%
%TO.P,REF\u002A\u002A148,1*%
%TO.N,N/C*%
X69200000Y-56340000D03*
%TD*%
%TO.P,REF\u002A\u002A168,1*%
%TO.N,N/C*%
X74280000Y-58880000D03*
%TD*%
%TO.P,REF\u002A\u002A62,1*%
%TO.N,N/C*%
X79360000Y-43640000D03*
%TD*%
%TO.P,REF\u002A\u002A160,1*%
%TO.N,N/C*%
X99680000Y-56340000D03*
%TD*%
%TO.P,REF\u002A\u002A3,1*%
%TO.N,N/C*%
X66660000Y-36020000D03*
%TD*%
%TO.P,REF\u002A\u002A113,1*%
%TO.N,N/C*%
X71740000Y-51260000D03*
%TD*%
%TO.P,REF\u002A\u002A173,1*%
%TO.N,N/C*%
X86980000Y-58880000D03*
%TD*%
%TO.P,REF\u002A\u002A166,1*%
%TO.N,N/C*%
X69200000Y-58880000D03*
%TD*%
%TO.P,REF\u002A\u002A142,1*%
%TO.N,D1-PIN2*%
X99680000Y-53800000D03*
%TD*%
%TO.P,REF\u002A\u002A126,1*%
%TO.N,N/C*%
X59040000Y-53800000D03*
%TD*%
%TO.P,REF\u002A\u002A175,1*%
%TO.N,N/C*%
X92060000Y-58880000D03*
%TD*%
%TO.P,REF\u002A\u002A90,1*%
%TO.N,N/C*%
X59040000Y-48720000D03*
%TD*%
%TO.P,REF\u002A\u002A60,1*%
%TO.N,N/C*%
X74280000Y-43640000D03*
%TD*%
%TO.P,REF\u002A\u002A56,1*%
%TO.N,N/C*%
X64120000Y-43640000D03*
%TD*%
%TO.P,REF\u002A\u002A72,1*%
%TO.N,N/C*%
X59040000Y-46180000D03*
%TD*%
%TO.P,REF\u002A\u002A80,1*%
%TO.N,N/C*%
X79360000Y-46180000D03*
%TD*%
%TO.P,REF\u002A\u002A131,1*%
%TO.N,N/C*%
X71740000Y-53800000D03*
%TD*%
%TO.P,REF\u002A\u002A54,1*%
%TO.N,N/C*%
X59040000Y-43640000D03*
%TD*%
%TO.P,REF\u002A\u002A144,1*%
%TO.N,N/C*%
X59040000Y-56340000D03*
%TD*%
%TO.P,REF\u002A\u002A40,1*%
%TO.N,J2-PIN1*%
X56500000Y-41100000D03*
%TD*%
%TO.P,REF\u002A\u002A110,1*%
%TO.N,N/C*%
X64120000Y-51260000D03*
%TD*%
%TO.P,REF\u002A\u002A156,1*%
%TO.N,N/C*%
X89520000Y-56340000D03*
%TD*%
%TO.P,REF\u002A\u002A53,1*%
%TO.N,N/C*%
X59040000Y-43640000D03*
%TD*%
%TO.P,REF\u002A\u002A88,1*%
%TO.N,J1-PIN3*%
X56500000Y-51260000D03*
%TD*%
%TO.P,REF\u002A\u002A78,1*%
%TO.N,N/C*%
X74280000Y-46180000D03*
%TD*%
%TO.P,REF\u002A\u002A71,1*%
%TO.N,J2-PIN6*%
X53960000Y-46180000D03*
%TD*%
%TO.P,REF\u002A\u002A108,1*%
%TO.N,N/C*%
X59040000Y-51260000D03*
%TD*%
%TO.P,REF\u002A\u002A70,1*%
%TO.N,J2-PIN5*%
X56500000Y-46180000D03*
%TD*%
%TO.P,REF\u002A\u002A174,1*%
%TO.N,N/C*%
X89520000Y-58880000D03*
%TD*%
%TO.P,REF\u002A\u002A82,1*%
%TO.N,N/C*%
X84440000Y-46180000D03*
%TD*%
%TO.P,REF\u002A\u002A68,1*%
%TO.N,N/C*%
X59040000Y-46180000D03*
%TD*%
%TO.P,REF\u002A\u002A2,1*%
%TO.N,N/C*%
X64120000Y-36020000D03*
%TD*%
%TO.P,REF\u002A\u002A36,1*%
%TO.N,N/C*%
X59040000Y-41100000D03*
%TD*%
%TO.P,REF\u002A\u002A136,1*%
%TO.N,N/C*%
X84440000Y-53800000D03*
%TD*%
%TO.P,REF\u002A\u002A165,1*%
%TO.N,N/C*%
X66660000Y-58880000D03*
%TD*%
%TO.P,REF\u002A\u002A81,1*%
%TO.N,N/C*%
X81900000Y-46180000D03*
%TD*%
%TO.P,REF\u002A\u002A171,1*%
%TO.N,N/C*%
X81900000Y-58880000D03*
%TD*%
%TO.P,REF\u002A\u002A107,1*%
%TO.N,J3-PIN1*%
X102220000Y-48720000D03*
%TD*%
%TO.P,REF\u002A\u002A129,1*%
%TO.N,N/C*%
X66660000Y-53800000D03*
%TD*%
%TO.P,REF\u002A\u002A66,1*%
%TO.N,J2-PIN3*%
X56500000Y-43640000D03*
%TD*%
%TO.P,REF\u002A\u002A152,1*%
%TO.N,N/C*%
X79360000Y-56340000D03*
%TD*%
%TO.P,REF\u002A\u002A157,1*%
%TO.N,N/C*%
X92060000Y-56340000D03*
%TD*%
%TO.P,REF\u002A\u002A124,1*%
%TO.N,D1-PIN3*%
X99680000Y-51260000D03*
%TD*%
%TO.P,REF\u002A\u002A123,1*%
%TO.N,D1-PIN4*%
X97140000Y-51260000D03*
%TD*%
%TO.P,REF\u002A\u002A69,1*%
%TO.N,N/C*%
X97140000Y-43640000D03*
%TD*%
%TO.P,REF\u002A\u002A170,1*%
%TO.N,N/C*%
X79360000Y-58880000D03*
%TD*%
%TO.P,REF\u002A\u002A89,1*%
%TO.N,J1-PIN4*%
X53960000Y-51260000D03*
%TD*%
%TO.P,REF\u002A\u002A138,1*%
%TO.N,SW2-PIN2*%
X89520000Y-53800000D03*
%TD*%
%TO.P,REF\u002A\u002A83,1*%
%TO.N,N/C*%
X86980000Y-46180000D03*
%TD*%
%TO.P,REF\u002A\u002A114,1*%
%TO.N,N/C*%
X74280000Y-51260000D03*
%TD*%
%TO.P,REF\u002A\u002A132,1*%
%TO.N,N/C*%
X74280000Y-53800000D03*
%TD*%
%TO.P,REF\u002A\u002A100,1*%
%TO.N,N/C*%
X84440000Y-48720000D03*
%TD*%
%TO.P,REF\u002A\u002A97,1*%
%TO.N,N/C*%
X76820000Y-48720000D03*
%TD*%
%TO.P,REF\u002A\u002A20,1*%
%TO.N,N/C*%
X64120000Y-38560000D03*
%TD*%
%TO.P,REF\u002A\u002A65,1*%
%TO.N,N/C*%
X86980000Y-43640000D03*
%TD*%
%TO.P,REF\u002A\u002A154,1*%
%TO.N,N/C*%
X84440000Y-56340000D03*
%TD*%
%TO.P,REF\u002A\u002A96,1*%
%TO.N,N/C*%
X74280000Y-48720000D03*
%TD*%
%TO.P,REF\u002A\u002A57,1*%
%TO.N,N/C*%
X66660000Y-43640000D03*
%TD*%
%TO.P,REF\u002A\u002A92,1*%
%TO.N,N/C*%
X64120000Y-48720000D03*
%TD*%
%TO.P,REF\u002A\u002A117,1*%
%TO.N,N/C*%
X81900000Y-51260000D03*
%TD*%
D11*
%TO.P,J1,1*%
%TO.N,unconnected-(J1-Pad1)*%
X49940000Y-52270000D03*
D12*
%TO.P,J1,2*%
%TO.N,unconnected-(J1-Pad2)*%
X47990000Y-53540000D03*
%TO.P,J1,3*%
%TO.N,unconnected-(J1-Pad3)*%
X49940000Y-54810000D03*
%TO.P,J1,4*%
%TO.N,unconnected-(J1-Pad4)*%
X47990000Y-56080000D03*
%TO.P,J1,5*%
%TO.N,unconnected-(J1-Pad5)*%
X49940000Y-57350000D03*
%TO.P,J1,6*%
%TO.N,unconnected-(J1-Pad6)*%
X47990000Y-58620000D03*
%TD*%
D13*
%TO.P,D1,1,RA*%
%TO.N,unconnected-(D1-RA-Pad1)*%
X99440000Y-45970000D03*
%TO.P,D1,2,GA*%
%TO.N,unconnected-(D1-GA-Pad2)*%
X98040000Y-45970000D03*
%TO.P,D1,3,BA*%
%TO.N,unconnected-(D1-BA-Pad3)*%
X99440000Y-49070000D03*
%TO.P,D1,4,K*%
%TO.N,unconnected-(D1-K-Pad4)*%
X98040000Y-49070000D03*
%TD*%
D11*
%TO.P,J2,1*%
%TO.N,unconnected-(J2-Pad1)*%
X49940000Y-36420000D03*
D12*
%TO.P,J2,2*%
%TO.N,unconnected-(J2-Pad2)*%
X47990000Y-37690000D03*
%TO.P,J2,3*%
%TO.N,unconnected-(J2-Pad3)*%
X49940000Y-38960000D03*
%TO.P,J2,4*%
%TO.N,unconnected-(J2-Pad4)*%
X47990000Y-40230000D03*
%TO.P,J2,5*%
%TO.N,unconnected-(J2-Pad5)*%
X49940000Y-41500000D03*
%TO.P,J2,6*%
%TO.N,unconnected-(J2-Pad6)*%
X47990000Y-42770000D03*
%TD*%
D10*
%TO.P,SW2,1,C*%
%TO.N,unconnected-(SW2A-C-Pad1)*%
X94015000Y-50520000D03*
X94015000Y-44520000D03*
%TO.P,SW2,2,D*%
%TO.N,unconnected-(SW2A-D-Pad2)*%
X90265000Y-50520000D03*
X90265000Y-44520000D03*
%TD*%
D16*
%TO.N,SW2-PIN1*%
X92060000Y-110475000D02*
X94015000Y-108520000D01*
X92060000Y-111800000D02*
X92060000Y-110475000D01*
%TO.N,SW2-PIN2*%
X89520000Y-109265000D02*
X90265000Y-108520000D01*
X89520000Y-111800000D02*
X89520000Y-109265000D01*
%TO.N,D1-PIN1*%
X99440000Y-103970000D02*
X99440000Y-103670000D01*
X95500000Y-104710000D02*
X95500000Y-110160000D01*
X95500000Y-110160000D02*
X97140000Y-111800000D01*
X98690000Y-102920000D02*
X97290000Y-102920000D01*
X99440000Y-103670000D02*
X98690000Y-102920000D01*
X97290000Y-102920000D02*
X95500000Y-104710000D01*
%TO.N,D1-PIN2*%
X98040000Y-103970000D02*
X95990000Y-106020000D01*
X95990000Y-109736346D02*
X96663654Y-110410000D01*
X96663654Y-110410000D02*
X98290000Y-110410000D01*
X98290000Y-110410000D02*
X99680000Y-111800000D01*
X95990000Y-106020000D02*
X95990000Y-109736346D01*
%TO.N,D1-PIN3*%
X99680000Y-107310000D02*
X99440000Y-107070000D01*
X99680000Y-109260000D02*
X99680000Y-107310000D01*
%TO.N,D1-PIN4*%
X97140000Y-107970000D02*
X98040000Y-107070000D01*
X97140000Y-109260000D02*
X97140000Y-107970000D01*
%TO.N,J3-PIN1*%
X102220000Y-106720000D02*
X103140000Y-105800000D01*
X103140000Y-105800000D02*
X103140000Y-103020000D01*
%TO.N,J3-PIN2*%
X101070000Y-108110000D02*
X101070000Y-103090000D01*
X101070000Y-103090000D02*
X103140000Y-101020000D01*
X102220000Y-109260000D02*
X101070000Y-108110000D01*
%TO.N,J3-PIN3*%
X101070000Y-110650000D02*
X101070000Y-108675685D01*
X100670000Y-101490000D02*
X103140000Y-99020000D01*
X101070000Y-108675685D02*
X100670000Y-108275685D01*
X100670000Y-108275685D02*
X100670000Y-101490000D01*
X102220000Y-111800000D02*
X101070000Y-110650000D01*
%TO.N,J2-PIN1*%
X51590000Y-92620000D02*
X55631701Y-92620000D01*
X55631701Y-92620000D02*
X56500000Y-93488299D01*
X56500000Y-93488299D02*
X56500000Y-99100000D01*
X49940000Y-94270000D02*
X51590000Y-92620000D01*
%TO.N,J2-PIN2*%
X53494214Y-99100000D02*
X53960000Y-99100000D01*
X47990000Y-95690000D02*
X50084214Y-95690000D01*
X50084214Y-95690000D02*
X53494214Y-99100000D01*
%TO.N,J2-PIN3*%
X52810000Y-98981472D02*
X52810000Y-99576346D01*
X55110000Y-100250000D02*
X56500000Y-101640000D01*
X53483654Y-100250000D02*
X55110000Y-100250000D01*
X50690000Y-97710000D02*
X49940000Y-96960000D01*
X51538528Y-97710000D02*
X52810000Y-98981472D01*
X52810000Y-99576346D02*
X53483654Y-100250000D01*
X51538528Y-97710000D02*
X50690000Y-97710000D01*
%TO.N,J2-PIN4*%
X50940000Y-99347893D02*
X53232107Y-101640000D01*
X50354214Y-98500000D02*
X50940000Y-99085786D01*
X49255786Y-98230000D02*
X47990000Y-98230000D01*
X50940000Y-99085786D02*
X50940000Y-99347893D01*
X49525786Y-98500000D02*
X49255786Y-98230000D01*
X53232107Y-101640000D02*
X53960000Y-101640000D01*
X49525786Y-98500000D02*
X50354214Y-98500000D01*
%TO.N,J2-PIN5*%
X49940000Y-99500000D02*
X49940000Y-100250000D01*
X52480000Y-102790000D02*
X55110000Y-102790000D01*
X49940000Y-100250000D02*
X52480000Y-102790000D01*
X55110000Y-102790000D02*
X56500000Y-104180000D01*
%TO.N,J2-PIN6*%
X53304315Y-104180000D02*
X53960000Y-104180000D01*
X47990000Y-100770000D02*
X49894315Y-100770000D01*
X49894315Y-100770000D02*
X53304315Y-104180000D01*
%TO.N,J1-PIN1*%
X55350000Y-105570000D02*
X56500000Y-106720000D01*
X49940000Y-109520000D02*
X49940000Y-108620000D01*
X52990000Y-105570000D02*
X55350000Y-105570000D01*
X49940000Y-108620000D02*
X52990000Y-105570000D01*
%TO.N,J1-PIN2*%
X52037157Y-108642843D02*
X52037157Y-110117157D01*
X53960000Y-106720000D02*
X52037157Y-108642843D01*
X50744314Y-111410000D02*
X48120000Y-111410000D01*
X52037157Y-110117157D02*
X50744314Y-111410000D01*
X48120000Y-111410000D02*
X47990000Y-111540000D01*
%TO.N,J1-PIN3*%
X52320000Y-110974314D02*
X52320000Y-110965686D01*
X53135685Y-110650000D02*
X55110000Y-110650000D01*
X50354314Y-112940000D02*
X52320000Y-110974314D01*
X52985685Y-110800000D02*
X53135685Y-110650000D01*
X55110000Y-110650000D02*
X56500000Y-109260000D01*
X49940000Y-112940000D02*
X50354314Y-112940000D01*
X52485686Y-110800000D02*
X52985685Y-110800000D01*
X52320000Y-110965686D02*
X52485686Y-110800000D01*
%TO.N,J1-PIN4*%
X47990000Y-112850000D02*
X48300000Y-112540000D01*
X48795786Y-112540000D02*
X49525786Y-111810000D01*
X53460000Y-109260000D02*
X53960000Y-109260000D01*
X49525786Y-111810000D02*
X50910000Y-111810000D01*
X47990000Y-113330000D02*
X47990000Y-112850000D01*
X50910000Y-111810000D02*
X53460000Y-109260000D01*
X48300000Y-112540000D02*
X48795786Y-112540000D01*
%TO.N,J1-PIN5*%
X50740000Y-116150000D02*
X49940000Y-115350000D01*
X50740000Y-118020000D02*
X50740000Y-116150000D01*
X52140000Y-119420000D02*
X50740000Y-118020000D01*
X56500000Y-111800000D02*
X57400000Y-112700000D01*
X53460000Y-119420000D02*
X52140000Y-119420000D01*
X57400000Y-115480000D02*
X53460000Y-119420000D01*
X57400000Y-112700000D02*
X57400000Y-115480000D01*
D17*
%TO.N,*%
X76820000Y-101640000D02*
X76820000Y-104180000D01*
X86980000Y-106720000D02*
X86980000Y-109260000D01*
X81900000Y-111800000D02*
X81900000Y-109260000D01*
X76820000Y-104180000D02*
X76820000Y-106720000D01*
X76820000Y-106720000D02*
X76820000Y-109260000D01*
X81900000Y-101640000D02*
X81900000Y-104180000D01*
X79360000Y-104180000D02*
X79360000Y-101640000D01*
X61580000Y-116880000D02*
X64120000Y-116880000D01*
X64120000Y-116880000D02*
X66660000Y-116880000D01*
X79360000Y-106720000D02*
X79360000Y-104180000D01*
X71740000Y-109260000D02*
X71740000Y-111800000D01*
X61580000Y-111800000D02*
X61580000Y-109260000D01*
X99680000Y-96560000D02*
X97140000Y-96560000D01*
X79360000Y-109260000D02*
X79360000Y-106720000D01*
X79360000Y-114340000D02*
X81900000Y-114340000D01*
X66660000Y-111800000D02*
X66660000Y-109260000D01*
X97140000Y-116880000D02*
X99680000Y-116880000D01*
X71740000Y-106720000D02*
X71740000Y-109260000D01*
X66660000Y-101640000D02*
X66660000Y-104180000D01*
X66660000Y-114340000D02*
X69200000Y-114340000D01*
X66660000Y-104180000D02*
X66660000Y-106720000D01*
X81900000Y-104180000D02*
X81900000Y-106720000D01*
X81900000Y-114340000D02*
X84440000Y-114340000D01*
X86980000Y-101640000D02*
X86980000Y-104180000D01*
X59040000Y-106720000D02*
X59040000Y-109260000D01*
X84440000Y-106720000D02*
X84440000Y-104180000D01*
X64120000Y-104180000D02*
X64120000Y-106720000D01*
X97140000Y-94020000D02*
X99680000Y-94020000D01*
X61580000Y-104180000D02*
X61580000Y-101640000D01*
X86980000Y-111800000D02*
X86980000Y-109260000D01*
X59040000Y-104180000D02*
X59040000Y-106720000D01*
X69200000Y-116880000D02*
X71740000Y-116880000D01*
X66660000Y-106720000D02*
X66660000Y-109260000D01*
X74280000Y-106720000D02*
X74280000Y-104180000D01*
X97140000Y-101640000D02*
X97140000Y-99100000D01*
X59040000Y-96560000D02*
X61580000Y-96560000D01*
X84440000Y-109260000D02*
X84440000Y-106720000D01*
X89520000Y-116880000D02*
X92060000Y-116880000D01*
X71740000Y-114340000D02*
X74280000Y-114340000D01*
X84440000Y-104180000D02*
X84440000Y-101640000D01*
X59040000Y-109260000D02*
X59040000Y-111800000D01*
X69200000Y-109260000D02*
X69200000Y-106720000D01*
X86980000Y-116880000D02*
X89520000Y-116880000D01*
X89520000Y-114340000D02*
X92060000Y-114340000D01*
X64120000Y-109260000D02*
X64120000Y-106720000D01*
X64120000Y-101640000D02*
X64120000Y-104180000D01*
X61580000Y-94020000D02*
X64120000Y-94020000D01*
X69200000Y-114340000D02*
X71740000Y-114340000D01*
X84440000Y-114340000D02*
X86980000Y-114340000D01*
X71740000Y-116880000D02*
X74280000Y-116880000D01*
X79360000Y-111800000D02*
X79360000Y-109260000D01*
X64120000Y-94020000D02*
X66660000Y-94020000D01*
X59040000Y-101640000D02*
X59040000Y-104180000D01*
X61580000Y-96560000D02*
X64120000Y-96560000D01*
X74280000Y-116880000D02*
X76820000Y-116880000D01*
X66660000Y-96560000D02*
X64120000Y-96560000D01*
X84440000Y-111800000D02*
X84440000Y-109260000D01*
X71740000Y-101640000D02*
X71740000Y-104180000D01*
X74280000Y-111800000D02*
X74280000Y-109260000D01*
X92060000Y-114340000D02*
X94600000Y-114340000D01*
X76820000Y-109260000D02*
X76820000Y-111800000D01*
X84440000Y-116880000D02*
X86980000Y-116880000D01*
X86980000Y-104180000D02*
X86980000Y-106720000D01*
X69200000Y-111800000D02*
X69200000Y-109260000D01*
X94600000Y-114340000D02*
X97140000Y-114340000D01*
X74280000Y-109260000D02*
X74280000Y-106720000D01*
X71740000Y-104180000D02*
X71740000Y-106720000D01*
X59040000Y-99100000D02*
X59040000Y-101640000D01*
X61580000Y-106720000D02*
X61580000Y-104180000D01*
X59040000Y-116880000D02*
X61580000Y-116880000D01*
X99680000Y-114340000D02*
X102220000Y-114340000D01*
X66660000Y-99100000D02*
X66660000Y-101640000D01*
X69200000Y-104180000D02*
X69200000Y-101640000D01*
X69200000Y-106720000D02*
X69200000Y-104180000D01*
X81900000Y-116880000D02*
X84440000Y-116880000D01*
X94600000Y-116880000D02*
X97140000Y-116880000D01*
X92060000Y-116880000D02*
X94600000Y-116880000D01*
X86980000Y-114340000D02*
X89520000Y-114340000D01*
X81900000Y-106720000D02*
X81900000Y-109260000D01*
X64120000Y-99100000D02*
X64120000Y-101640000D01*
X61580000Y-99100000D02*
X61580000Y-101640000D01*
X61580000Y-114340000D02*
X64120000Y-114340000D01*
X59040000Y-94020000D02*
X61580000Y-94020000D01*
X66660000Y-116880000D02*
X69200000Y-116880000D01*
X74280000Y-104180000D02*
X74280000Y-101640000D01*
X97140000Y-114340000D02*
X99680000Y-114340000D01*
X61580000Y-109260000D02*
X61580000Y-106720000D01*
X79360000Y-116880000D02*
X81900000Y-116880000D01*
X74280000Y-114340000D02*
X76820000Y-114340000D01*
X64120000Y-111800000D02*
X64120000Y-109260000D01*
X64120000Y-114340000D02*
X66660000Y-114340000D01*
X59040000Y-114340000D02*
X61580000Y-114340000D01*
D16*
%TO.N,J1-PIN6*%
X47990000Y-115494214D02*
X49674214Y-113810000D01*
X47990000Y-115870000D02*
X47990000Y-115494214D01*
X49674214Y-113810000D02*
X50354214Y-113810000D01*
X52364214Y-111800000D02*
X53960000Y-111800000D01*
X50354214Y-113810000D02*
X52364214Y-111800000D01*
%TO.N,SW2-PIN1*%
X92060000Y-81475000D02*
X94015000Y-79520000D01*
X92060000Y-82800000D02*
X92060000Y-81475000D01*
%TO.N,SW2-PIN2*%
X89520000Y-80265000D02*
X90265000Y-79520000D01*
X89520000Y-82800000D02*
X89520000Y-80265000D01*
%TO.N,D1-PIN1*%
X99440000Y-74970000D02*
X99440000Y-74670000D01*
X95500000Y-75710000D02*
X95500000Y-81160000D01*
X95500000Y-81160000D02*
X97140000Y-82800000D01*
X98690000Y-73920000D02*
X97290000Y-73920000D01*
X99440000Y-74670000D02*
X98690000Y-73920000D01*
X97290000Y-73920000D02*
X95500000Y-75710000D01*
%TO.N,D1-PIN2*%
X98040000Y-74970000D02*
X95990000Y-77020000D01*
X95990000Y-80736346D02*
X96663654Y-81410000D01*
X96663654Y-81410000D02*
X98290000Y-81410000D01*
X98290000Y-81410000D02*
X99680000Y-82800000D01*
X95990000Y-77020000D02*
X95990000Y-80736346D01*
%TO.N,D1-PIN3*%
X99680000Y-78310000D02*
X99440000Y-78070000D01*
X99680000Y-80260000D02*
X99680000Y-78310000D01*
%TO.N,D1-PIN4*%
X97140000Y-78970000D02*
X98040000Y-78070000D01*
X97140000Y-80260000D02*
X97140000Y-78970000D01*
%TO.N,J3-PIN1*%
X102220000Y-77720000D02*
X103140000Y-76800000D01*
X103140000Y-76800000D02*
X103140000Y-74020000D01*
%TO.N,J3-PIN2*%
X101070000Y-79110000D02*
X101070000Y-74090000D01*
X101070000Y-74090000D02*
X103140000Y-72020000D01*
X102220000Y-80260000D02*
X101070000Y-79110000D01*
%TO.N,J3-PIN3*%
X101070000Y-81650000D02*
X101070000Y-79675685D01*
X100670000Y-72490000D02*
X103140000Y-70020000D01*
X101070000Y-79675685D02*
X100670000Y-79275685D01*
X100670000Y-79275685D02*
X100670000Y-72490000D01*
X102220000Y-82800000D02*
X101070000Y-81650000D01*
%TO.N,J2-PIN1*%
X51590000Y-63620000D02*
X55631701Y-63620000D01*
X55631701Y-63620000D02*
X56500000Y-64488299D01*
X56500000Y-64488299D02*
X56500000Y-70100000D01*
X49940000Y-65270000D02*
X51590000Y-63620000D01*
%TO.N,J2-PIN2*%
X53494214Y-70100000D02*
X53960000Y-70100000D01*
X47990000Y-66690000D02*
X50084214Y-66690000D01*
X50084214Y-66690000D02*
X53494214Y-70100000D01*
%TO.N,J2-PIN3*%
X52810000Y-69981472D02*
X52810000Y-70576346D01*
X55110000Y-71250000D02*
X56500000Y-72640000D01*
X53483654Y-71250000D02*
X55110000Y-71250000D01*
X50690000Y-68710000D02*
X49940000Y-67960000D01*
X51538528Y-68710000D02*
X52810000Y-69981472D01*
X52810000Y-70576346D02*
X53483654Y-71250000D01*
X51538528Y-68710000D02*
X50690000Y-68710000D01*
%TO.N,J2-PIN4*%
X50940000Y-70347893D02*
X53232107Y-72640000D01*
X50354214Y-69500000D02*
X50940000Y-70085786D01*
X49255786Y-69230000D02*
X47990000Y-69230000D01*
X50940000Y-70085786D02*
X50940000Y-70347893D01*
X49525786Y-69500000D02*
X49255786Y-69230000D01*
X53232107Y-72640000D02*
X53960000Y-72640000D01*
X49525786Y-69500000D02*
X50354214Y-69500000D01*
%TO.N,J2-PIN5*%
X49940000Y-70500000D02*
X49940000Y-71250000D01*
X52480000Y-73790000D02*
X55110000Y-73790000D01*
X49940000Y-71250000D02*
X52480000Y-73790000D01*
X55110000Y-73790000D02*
X56500000Y-75180000D01*
%TO.N,J2-PIN6*%
X53304315Y-75180000D02*
X53960000Y-75180000D01*
X47990000Y-71770000D02*
X49894315Y-71770000D01*
X49894315Y-71770000D02*
X53304315Y-75180000D01*
%TO.N,J1-PIN1*%
X55350000Y-76570000D02*
X56500000Y-77720000D01*
X49940000Y-80520000D02*
X49940000Y-79620000D01*
X52990000Y-76570000D02*
X55350000Y-76570000D01*
X49940000Y-79620000D02*
X52990000Y-76570000D01*
%TO.N,J1-PIN2*%
X52037157Y-79642843D02*
X52037157Y-81117157D01*
X53960000Y-77720000D02*
X52037157Y-79642843D01*
X50744314Y-82410000D02*
X48120000Y-82410000D01*
X52037157Y-81117157D02*
X50744314Y-82410000D01*
X48120000Y-82410000D02*
X47990000Y-82540000D01*
%TO.N,J1-PIN3*%
X52320000Y-81974314D02*
X52320000Y-81965686D01*
X53135685Y-81650000D02*
X55110000Y-81650000D01*
X50354314Y-83940000D02*
X52320000Y-81974314D01*
X52985685Y-81800000D02*
X53135685Y-81650000D01*
X55110000Y-81650000D02*
X56500000Y-80260000D01*
X49940000Y-83940000D02*
X50354314Y-83940000D01*
X52485686Y-81800000D02*
X52985685Y-81800000D01*
X52320000Y-81965686D02*
X52485686Y-81800000D01*
%TO.N,J1-PIN4*%
X47990000Y-83850000D02*
X48300000Y-83540000D01*
X48795786Y-83540000D02*
X49525786Y-82810000D01*
X53460000Y-80260000D02*
X53960000Y-80260000D01*
X49525786Y-82810000D02*
X50910000Y-82810000D01*
X47990000Y-84330000D02*
X47990000Y-83850000D01*
X50910000Y-82810000D02*
X53460000Y-80260000D01*
X48300000Y-83540000D02*
X48795786Y-83540000D01*
%TO.N,J1-PIN5*%
X50740000Y-87150000D02*
X49940000Y-86350000D01*
X50740000Y-89020000D02*
X50740000Y-87150000D01*
X52140000Y-90420000D02*
X50740000Y-89020000D01*
X56500000Y-82800000D02*
X57400000Y-83700000D01*
X53460000Y-90420000D02*
X52140000Y-90420000D01*
X57400000Y-86480000D02*
X53460000Y-90420000D01*
X57400000Y-83700000D02*
X57400000Y-86480000D01*
D17*
%TO.N,*%
X76820000Y-72640000D02*
X76820000Y-75180000D01*
X86980000Y-77720000D02*
X86980000Y-80260000D01*
X81900000Y-82800000D02*
X81900000Y-80260000D01*
X76820000Y-75180000D02*
X76820000Y-77720000D01*
X76820000Y-77720000D02*
X76820000Y-80260000D01*
X81900000Y-72640000D02*
X81900000Y-75180000D01*
X79360000Y-75180000D02*
X79360000Y-72640000D01*
X61580000Y-87880000D02*
X64120000Y-87880000D01*
X64120000Y-87880000D02*
X66660000Y-87880000D01*
X79360000Y-77720000D02*
X79360000Y-75180000D01*
X71740000Y-80260000D02*
X71740000Y-82800000D01*
X61580000Y-82800000D02*
X61580000Y-80260000D01*
X99680000Y-67560000D02*
X97140000Y-67560000D01*
X79360000Y-80260000D02*
X79360000Y-77720000D01*
X79360000Y-85340000D02*
X81900000Y-85340000D01*
X66660000Y-82800000D02*
X66660000Y-80260000D01*
X97140000Y-87880000D02*
X99680000Y-87880000D01*
X71740000Y-77720000D02*
X71740000Y-80260000D01*
X66660000Y-72640000D02*
X66660000Y-75180000D01*
X66660000Y-85340000D02*
X69200000Y-85340000D01*
X66660000Y-75180000D02*
X66660000Y-77720000D01*
X81900000Y-75180000D02*
X81900000Y-77720000D01*
X81900000Y-85340000D02*
X84440000Y-85340000D01*
X86980000Y-72640000D02*
X86980000Y-75180000D01*
X59040000Y-77720000D02*
X59040000Y-80260000D01*
X84440000Y-77720000D02*
X84440000Y-75180000D01*
X64120000Y-75180000D02*
X64120000Y-77720000D01*
X97140000Y-65020000D02*
X99680000Y-65020000D01*
X61580000Y-75180000D02*
X61580000Y-72640000D01*
X86980000Y-82800000D02*
X86980000Y-80260000D01*
X59040000Y-75180000D02*
X59040000Y-77720000D01*
X69200000Y-87880000D02*
X71740000Y-87880000D01*
X66660000Y-77720000D02*
X66660000Y-80260000D01*
X74280000Y-77720000D02*
X74280000Y-75180000D01*
X97140000Y-72640000D02*
X97140000Y-70100000D01*
X59040000Y-67560000D02*
X61580000Y-67560000D01*
X84440000Y-80260000D02*
X84440000Y-77720000D01*
X89520000Y-87880000D02*
X92060000Y-87880000D01*
X71740000Y-85340000D02*
X74280000Y-85340000D01*
X84440000Y-75180000D02*
X84440000Y-72640000D01*
X59040000Y-80260000D02*
X59040000Y-82800000D01*
X69200000Y-80260000D02*
X69200000Y-77720000D01*
X86980000Y-87880000D02*
X89520000Y-87880000D01*
X89520000Y-85340000D02*
X92060000Y-85340000D01*
X64120000Y-80260000D02*
X64120000Y-77720000D01*
X64120000Y-72640000D02*
X64120000Y-75180000D01*
X61580000Y-65020000D02*
X64120000Y-65020000D01*
X69200000Y-85340000D02*
X71740000Y-85340000D01*
X84440000Y-85340000D02*
X86980000Y-85340000D01*
X71740000Y-87880000D02*
X74280000Y-87880000D01*
X79360000Y-82800000D02*
X79360000Y-80260000D01*
X64120000Y-65020000D02*
X66660000Y-65020000D01*
X59040000Y-72640000D02*
X59040000Y-75180000D01*
X61580000Y-67560000D02*
X64120000Y-67560000D01*
X74280000Y-87880000D02*
X76820000Y-87880000D01*
X66660000Y-67560000D02*
X64120000Y-67560000D01*
X84440000Y-82800000D02*
X84440000Y-80260000D01*
X71740000Y-72640000D02*
X71740000Y-75180000D01*
X74280000Y-82800000D02*
X74280000Y-80260000D01*
X92060000Y-85340000D02*
X94600000Y-85340000D01*
X76820000Y-80260000D02*
X76820000Y-82800000D01*
X84440000Y-87880000D02*
X86980000Y-87880000D01*
X86980000Y-75180000D02*
X86980000Y-77720000D01*
X69200000Y-82800000D02*
X69200000Y-80260000D01*
X94600000Y-85340000D02*
X97140000Y-85340000D01*
X74280000Y-80260000D02*
X74280000Y-77720000D01*
X71740000Y-75180000D02*
X71740000Y-77720000D01*
X59040000Y-70100000D02*
X59040000Y-72640000D01*
X61580000Y-77720000D02*
X61580000Y-75180000D01*
X59040000Y-87880000D02*
X61580000Y-87880000D01*
X99680000Y-85340000D02*
X102220000Y-85340000D01*
X66660000Y-70100000D02*
X66660000Y-72640000D01*
X69200000Y-75180000D02*
X69200000Y-72640000D01*
X69200000Y-77720000D02*
X69200000Y-75180000D01*
X81900000Y-87880000D02*
X84440000Y-87880000D01*
X94600000Y-87880000D02*
X97140000Y-87880000D01*
X92060000Y-87880000D02*
X94600000Y-87880000D01*
X86980000Y-85340000D02*
X89520000Y-85340000D01*
X81900000Y-77720000D02*
X81900000Y-80260000D01*
X64120000Y-70100000D02*
X64120000Y-72640000D01*
X61580000Y-70100000D02*
X61580000Y-72640000D01*
X61580000Y-85340000D02*
X64120000Y-85340000D01*
X59040000Y-65020000D02*
X61580000Y-65020000D01*
X66660000Y-87880000D02*
X69200000Y-87880000D01*
X74280000Y-75180000D02*
X74280000Y-72640000D01*
X97140000Y-85340000D02*
X99680000Y-85340000D01*
X61580000Y-80260000D02*
X61580000Y-77720000D01*
X79360000Y-87880000D02*
X81900000Y-87880000D01*
X74280000Y-85340000D02*
X76820000Y-85340000D01*
X64120000Y-82800000D02*
X64120000Y-80260000D01*
X64120000Y-85340000D02*
X66660000Y-85340000D01*
X59040000Y-85340000D02*
X61580000Y-85340000D01*
D16*
%TO.N,J1-PIN6*%
X47990000Y-86494214D02*
X49674214Y-84810000D01*
X47990000Y-86870000D02*
X47990000Y-86494214D01*
X49674214Y-84810000D02*
X50354214Y-84810000D01*
X52364214Y-82800000D02*
X53960000Y-82800000D01*
X50354214Y-84810000D02*
X52364214Y-82800000D01*
D17*
%TO.N,*%
X59040000Y-56340000D02*
X61580000Y-56340000D01*
X64120000Y-56340000D02*
X66660000Y-56340000D01*
X64120000Y-53800000D02*
X64120000Y-51260000D01*
X74280000Y-56340000D02*
X76820000Y-56340000D01*
X79360000Y-58880000D02*
X81900000Y-58880000D01*
X61580000Y-51260000D02*
X61580000Y-48720000D01*
X97140000Y-56340000D02*
X99680000Y-56340000D01*
X74280000Y-46180000D02*
X74280000Y-43640000D01*
X66660000Y-58880000D02*
X69200000Y-58880000D01*
X59040000Y-36020000D02*
X61580000Y-36020000D01*
X61580000Y-56340000D02*
X64120000Y-56340000D01*
X61580000Y-41100000D02*
X61580000Y-43640000D01*
X64120000Y-41100000D02*
X64120000Y-43640000D01*
X81900000Y-48720000D02*
X81900000Y-51260000D01*
X86980000Y-56340000D02*
X89520000Y-56340000D01*
X92060000Y-58880000D02*
X94600000Y-58880000D01*
X94600000Y-58880000D02*
X97140000Y-58880000D01*
X81900000Y-58880000D02*
X84440000Y-58880000D01*
X69200000Y-48720000D02*
X69200000Y-46180000D01*
X69200000Y-46180000D02*
X69200000Y-43640000D01*
X66660000Y-41100000D02*
X66660000Y-43640000D01*
X99680000Y-56340000D02*
X102220000Y-56340000D01*
X59040000Y-58880000D02*
X61580000Y-58880000D01*
X61580000Y-48720000D02*
X61580000Y-46180000D01*
X59040000Y-41100000D02*
X59040000Y-43640000D01*
X71740000Y-46180000D02*
X71740000Y-48720000D01*
X74280000Y-51260000D02*
X74280000Y-48720000D01*
X94600000Y-56340000D02*
X97140000Y-56340000D01*
X69200000Y-53800000D02*
X69200000Y-51260000D01*
X86980000Y-46180000D02*
X86980000Y-48720000D01*
X84440000Y-58880000D02*
X86980000Y-58880000D01*
X76820000Y-51260000D02*
X76820000Y-53800000D01*
X92060000Y-56340000D02*
X94600000Y-56340000D01*
X74280000Y-53800000D02*
X74280000Y-51260000D01*
X71740000Y-43640000D02*
X71740000Y-46180000D01*
X84440000Y-53800000D02*
X84440000Y-51260000D01*
X66660000Y-38560000D02*
X64120000Y-38560000D01*
X74280000Y-58880000D02*
X76820000Y-58880000D01*
X61580000Y-38560000D02*
X64120000Y-38560000D01*
X59040000Y-43640000D02*
X59040000Y-46180000D01*
X64120000Y-36020000D02*
X66660000Y-36020000D01*
X79360000Y-53800000D02*
X79360000Y-51260000D01*
X71740000Y-58880000D02*
X74280000Y-58880000D01*
X84440000Y-56340000D02*
X86980000Y-56340000D01*
X69200000Y-56340000D02*
X71740000Y-56340000D01*
X61580000Y-36020000D02*
X64120000Y-36020000D01*
X64120000Y-43640000D02*
X64120000Y-46180000D01*
X64120000Y-51260000D02*
X64120000Y-48720000D01*
X89520000Y-56340000D02*
X92060000Y-56340000D01*
X86980000Y-58880000D02*
X89520000Y-58880000D01*
X69200000Y-51260000D02*
X69200000Y-48720000D01*
X59040000Y-51260000D02*
X59040000Y-53800000D01*
X84440000Y-46180000D02*
X84440000Y-43640000D01*
X71740000Y-56340000D02*
X74280000Y-56340000D01*
X89520000Y-58880000D02*
X92060000Y-58880000D01*
X84440000Y-51260000D02*
X84440000Y-48720000D01*
X59040000Y-38560000D02*
X61580000Y-38560000D01*
X97140000Y-43640000D02*
X97140000Y-41100000D01*
X74280000Y-48720000D02*
X74280000Y-46180000D01*
X66660000Y-48720000D02*
X66660000Y-51260000D01*
X69200000Y-58880000D02*
X71740000Y-58880000D01*
X59040000Y-46180000D02*
X59040000Y-48720000D01*
X86980000Y-53800000D02*
X86980000Y-51260000D01*
X61580000Y-46180000D02*
X61580000Y-43640000D01*
X97140000Y-36020000D02*
X99680000Y-36020000D01*
X64120000Y-46180000D02*
X64120000Y-48720000D01*
X84440000Y-48720000D02*
X84440000Y-46180000D01*
X59040000Y-48720000D02*
X59040000Y-51260000D01*
X86980000Y-43640000D02*
X86980000Y-46180000D01*
X81900000Y-56340000D02*
X84440000Y-56340000D01*
X81900000Y-46180000D02*
X81900000Y-48720000D01*
X66660000Y-46180000D02*
X66660000Y-48720000D01*
X66660000Y-56340000D02*
X69200000Y-56340000D01*
X66660000Y-43640000D02*
X66660000Y-46180000D01*
X71740000Y-48720000D02*
X71740000Y-51260000D01*
X97140000Y-58880000D02*
X99680000Y-58880000D01*
X66660000Y-53800000D02*
X66660000Y-51260000D01*
X79360000Y-56340000D02*
X81900000Y-56340000D01*
X79360000Y-51260000D02*
X79360000Y-48720000D01*
X99680000Y-38560000D02*
X97140000Y-38560000D01*
X61580000Y-53800000D02*
X61580000Y-51260000D01*
X71740000Y-51260000D02*
X71740000Y-53800000D01*
X79360000Y-48720000D02*
X79360000Y-46180000D01*
X64120000Y-58880000D02*
X66660000Y-58880000D01*
X61580000Y-58880000D02*
X64120000Y-58880000D01*
X79360000Y-46180000D02*
X79360000Y-43640000D01*
X81900000Y-43640000D02*
X81900000Y-46180000D01*
X76820000Y-48720000D02*
X76820000Y-51260000D01*
X76820000Y-46180000D02*
X76820000Y-48720000D01*
X81900000Y-53800000D02*
X81900000Y-51260000D01*
X86980000Y-48720000D02*
X86980000Y-51260000D01*
X76820000Y-43640000D02*
X76820000Y-46180000D01*
D16*
%TO.N,J1-PIN6*%
X50354214Y-55810000D02*
X52364214Y-53800000D01*
X52364214Y-53800000D02*
X53960000Y-53800000D01*
X49674214Y-55810000D02*
X50354214Y-55810000D01*
X47990000Y-57870000D02*
X47990000Y-57494214D01*
X47990000Y-57494214D02*
X49674214Y-55810000D01*
%TO.N,J1-PIN5*%
X57400000Y-54700000D02*
X57400000Y-57480000D01*
X57400000Y-57480000D02*
X53460000Y-61420000D01*
X53460000Y-61420000D02*
X52140000Y-61420000D01*
X56500000Y-53800000D02*
X57400000Y-54700000D01*
X52140000Y-61420000D02*
X50740000Y-60020000D01*
X50740000Y-60020000D02*
X50740000Y-58150000D01*
X50740000Y-58150000D02*
X49940000Y-57350000D01*
%TO.N,J1-PIN4*%
X48300000Y-54540000D02*
X48795786Y-54540000D01*
X50910000Y-53810000D02*
X53460000Y-51260000D01*
X47990000Y-55330000D02*
X47990000Y-54850000D01*
X49525786Y-53810000D02*
X50910000Y-53810000D01*
X53460000Y-51260000D02*
X53960000Y-51260000D01*
X48795786Y-54540000D02*
X49525786Y-53810000D01*
X47990000Y-54850000D02*
X48300000Y-54540000D01*
%TO.N,J1-PIN3*%
X52320000Y-52965686D02*
X52485686Y-52800000D01*
X52485686Y-52800000D02*
X52985685Y-52800000D01*
X49940000Y-54940000D02*
X50354314Y-54940000D01*
X55110000Y-52650000D02*
X56500000Y-51260000D01*
X52985685Y-52800000D02*
X53135685Y-52650000D01*
X50354314Y-54940000D02*
X52320000Y-52974314D01*
X53135685Y-52650000D02*
X55110000Y-52650000D01*
X52320000Y-52974314D02*
X52320000Y-52965686D01*
%TO.N,J1-PIN2*%
X48120000Y-53410000D02*
X47990000Y-53540000D01*
X52037157Y-52117157D02*
X50744314Y-53410000D01*
X50744314Y-53410000D02*
X48120000Y-53410000D01*
X53960000Y-48720000D02*
X52037157Y-50642843D01*
X52037157Y-50642843D02*
X52037157Y-52117157D01*
%TO.N,J1-PIN1*%
X49940000Y-50620000D02*
X52990000Y-47570000D01*
X52990000Y-47570000D02*
X55350000Y-47570000D01*
X49940000Y-51520000D02*
X49940000Y-50620000D01*
X55350000Y-47570000D02*
X56500000Y-48720000D01*
%TO.N,J2-PIN6*%
X49894315Y-42770000D02*
X53304315Y-46180000D01*
X47990000Y-42770000D02*
X49894315Y-42770000D01*
X53304315Y-46180000D02*
X53960000Y-46180000D01*
%TO.N,J2-PIN5*%
X55110000Y-44790000D02*
X56500000Y-46180000D01*
X49940000Y-42250000D02*
X52480000Y-44790000D01*
X52480000Y-44790000D02*
X55110000Y-44790000D01*
X49940000Y-41500000D02*
X49940000Y-42250000D01*
%TO.N,J2-PIN4*%
X49525786Y-40500000D02*
X50354214Y-40500000D01*
X53232107Y-43640000D02*
X53960000Y-43640000D01*
X49525786Y-40500000D02*
X49255786Y-40230000D01*
X50940000Y-41085786D02*
X50940000Y-41347893D01*
X49255786Y-40230000D02*
X47990000Y-40230000D01*
X50354214Y-40500000D02*
X50940000Y-41085786D01*
X50940000Y-41347893D02*
X53232107Y-43640000D01*
%TO.N,J2-PIN3*%
X51538528Y-39710000D02*
X50690000Y-39710000D01*
X52810000Y-41576346D02*
X53483654Y-42250000D01*
X51538528Y-39710000D02*
X52810000Y-40981472D01*
X50690000Y-39710000D02*
X49940000Y-38960000D01*
X53483654Y-42250000D02*
X55110000Y-42250000D01*
X55110000Y-42250000D02*
X56500000Y-43640000D01*
X52810000Y-40981472D02*
X52810000Y-41576346D01*
%TO.N,J2-PIN2*%
X50084214Y-37690000D02*
X53494214Y-41100000D01*
X47990000Y-37690000D02*
X50084214Y-37690000D01*
X53494214Y-41100000D02*
X53960000Y-41100000D01*
%TO.N,J2-PIN1*%
X49940000Y-36270000D02*
X51590000Y-34620000D01*
X56500000Y-35488299D02*
X56500000Y-41100000D01*
X55631701Y-34620000D02*
X56500000Y-35488299D01*
X51590000Y-34620000D02*
X55631701Y-34620000D01*
%TO.N,J3-PIN3*%
X102220000Y-53800000D02*
X101070000Y-52650000D01*
X100670000Y-50275685D02*
X100670000Y-43490000D01*
X101070000Y-50675685D02*
X100670000Y-50275685D01*
X100670000Y-43490000D02*
X103140000Y-41020000D01*
X101070000Y-52650000D02*
X101070000Y-50675685D01*
%TO.N,J3-PIN2*%
X102220000Y-51260000D02*
X101070000Y-50110000D01*
X101070000Y-45090000D02*
X103140000Y-43020000D01*
X101070000Y-50110000D02*
X101070000Y-45090000D01*
%TO.N,J3-PIN1*%
X103140000Y-47800000D02*
X103140000Y-45020000D01*
X102220000Y-48720000D02*
X103140000Y-47800000D01*
%TO.N,D1-PIN4*%
X97140000Y-51260000D02*
X97140000Y-49970000D01*
X97140000Y-49970000D02*
X98040000Y-49070000D01*
%TO.N,D1-PIN3*%
X99680000Y-51260000D02*
X99680000Y-49310000D01*
X99680000Y-49310000D02*
X99440000Y-49070000D01*
%TO.N,D1-PIN2*%
X95990000Y-48020000D02*
X95990000Y-51736346D01*
X98290000Y-52410000D02*
X99680000Y-53800000D01*
X96663654Y-52410000D02*
X98290000Y-52410000D01*
X95990000Y-51736346D02*
X96663654Y-52410000D01*
X98040000Y-45970000D02*
X95990000Y-48020000D01*
%TO.N,D1-PIN1*%
X97290000Y-44920000D02*
X95500000Y-46710000D01*
X99440000Y-45670000D02*
X98690000Y-44920000D01*
X98690000Y-44920000D02*
X97290000Y-44920000D01*
X95500000Y-52160000D02*
X97140000Y-53800000D01*
X95500000Y-46710000D02*
X95500000Y-52160000D01*
X99440000Y-45970000D02*
X99440000Y-45670000D01*
%TO.N,SW2-PIN2*%
X89520000Y-53800000D02*
X89520000Y-51265000D01*
X89520000Y-51265000D02*
X90265000Y-50520000D01*
%TO.N,SW2-PIN1*%
X92060000Y-53800000D02*
X92060000Y-52475000D01*
X92060000Y-52475000D02*
X94015000Y-50520000D01*
%TD*%
D18*
X96140000Y-91870000D02*
X100640000Y-91870000D01*
X45640000Y-120020000D02*
X45640000Y-91020000D01*
X54640000Y-91020000D02*
X54640000Y-91870000D01*
X105940000Y-95720000D02*
X105940000Y-115320000D01*
X100640000Y-91870000D02*
X100640000Y-95720000D01*
X96140000Y-100170000D02*
X96140000Y-91870000D01*
X105940000Y-115320000D02*
X100640000Y-115320000D01*
X54640000Y-91870000D02*
X68640000Y-91870000D01*
X68640000Y-91870000D02*
X68640000Y-100170000D01*
X45640000Y-91020000D02*
X54640000Y-91020000D01*
X100640000Y-95720000D02*
X105940000Y-95720000D01*
X100640000Y-119170000D02*
X54640000Y-119170000D01*
X100640000Y-115320000D02*
X100640000Y-119170000D01*
X54640000Y-120020000D02*
X45640000Y-120020000D01*
X68640000Y-100170000D02*
X96140000Y-100170000D01*
X54640000Y-120020000D02*
X54640000Y-119170000D01*
X96140000Y-62870000D02*
X100640000Y-62870000D01*
X45640000Y-91020000D02*
X45640000Y-62020000D01*
X54640000Y-62020000D02*
X54640000Y-62870000D01*
X105940000Y-66720000D02*
X105940000Y-86320000D01*
X100640000Y-62870000D02*
X100640000Y-66720000D01*
X96140000Y-71170000D02*
X96140000Y-62870000D01*
X105940000Y-86320000D02*
X100640000Y-86320000D01*
X54640000Y-62870000D02*
X68640000Y-62870000D01*
X68640000Y-62870000D02*
X68640000Y-71170000D01*
X45640000Y-62020000D02*
X54640000Y-62020000D01*
X100640000Y-66720000D02*
X105940000Y-66720000D01*
X100640000Y-90170000D02*
X54640000Y-90170000D01*
X100640000Y-86320000D02*
X100640000Y-90170000D01*
X54640000Y-91020000D02*
X45640000Y-91020000D01*
X68640000Y-71170000D02*
X96140000Y-71170000D01*
X54640000Y-91020000D02*
X54640000Y-90170000D01*
X54640000Y-62020000D02*
X54640000Y-61170000D01*
X68640000Y-42170000D02*
X96140000Y-42170000D01*
X54640000Y-62020000D02*
X45640000Y-62020000D01*
X100640000Y-57320000D02*
X100640000Y-61170000D01*
X100640000Y-61170000D02*
X54640000Y-61170000D01*
X100640000Y-37720000D02*
X105940000Y-37720000D01*
X45640000Y-33020000D02*
X54640000Y-33020000D01*
X68640000Y-33870000D02*
X68640000Y-42170000D01*
X54640000Y-33870000D02*
X68640000Y-33870000D01*
X105940000Y-57320000D02*
X100640000Y-57320000D01*
X96140000Y-42170000D02*
X96140000Y-33870000D01*
X100640000Y-33870000D02*
X100640000Y-37720000D01*
X105940000Y-37720000D02*
X105940000Y-57320000D01*
X54640000Y-33020000D02*
X54640000Y-33870000D01*
X45640000Y-62020000D02*
X45640000Y-33020000D01*
X96140000Y-33870000D02*
X100640000Y-33870000D01*
M02*
