%TF.GenerationSoftware,KiCad,Pcbnew,7.0.11+dfsg-1build4*%
%TF.CreationDate,2025-12-29T16:28:24-05:00*%
%TF.ProjectId,,58585858-5858-4585-9858-585858585858,rev?*%
%TF.SameCoordinates,Original*%
%TF.FileFunction,Paste,Bot*%
%TF.FilePolarity,Positive*%
%FSLAX46Y46*%
G04 Gerber Fmt 4.6, Leading zero omitted, Abs format (unit mm)*
G04 Created by KiCad (PCBNEW 7.0.11+dfsg-1build4) date 2025-12-29 16:28:24*
%MOMM*%
%LPD*%
G01*
G04 APERTURE LIST*
%ADD10R,0.750000X1.000000*%
%ADD11R,0.900000X1.500000*%
%TA.AperFunction,Profile*%
%ADD12C,0.050000*%
%TD*%
G04 APERTURE END LIST*
D10*
%TO.C,SW2*%
X94015000Y-108520000D03*
X94015000Y-102520000D03*
X90265000Y-108520000D03*
X90265000Y-102520000D03*
%TD*%
D11*
%TO.C,D1*%
X99440000Y-103970000D03*
X98040000Y-103970000D03*
X99440000Y-107070000D03*
X98040000Y-107070000D03*
%TD*%
D10*
%TO.C,SW2*%
X94015000Y-79520000D03*
X94015000Y-73520000D03*
X90265000Y-79520000D03*
X90265000Y-73520000D03*
%TD*%
D11*
%TO.C,D1*%
X99440000Y-74970000D03*
X98040000Y-74970000D03*
X99440000Y-78070000D03*
X98040000Y-78070000D03*
%TD*%
%TO.C,D1*%
X99440000Y-45970000D03*
X98040000Y-45970000D03*
X99440000Y-49070000D03*
X98040000Y-49070000D03*
%TD*%
D10*
%TO.C,SW2*%
X94015000Y-50520000D03*
X94015000Y-44520000D03*
X90265000Y-50520000D03*
X90265000Y-44520000D03*
%TD*%
D12*
X96140000Y-91870000D02*
X100640000Y-91870000D01*
X45640000Y-120020000D02*
X45640000Y-91020000D01*
X54640000Y-91020000D02*
X54640000Y-91870000D01*
X105940000Y-95720000D02*
X105940000Y-115320000D01*
X100640000Y-91870000D02*
X100640000Y-95720000D01*
X96140000Y-100170000D02*
X96140000Y-91870000D01*
X105940000Y-115320000D02*
X100640000Y-115320000D01*
X54640000Y-91870000D02*
X68640000Y-91870000D01*
X68640000Y-91870000D02*
X68640000Y-100170000D01*
X45640000Y-91020000D02*
X54640000Y-91020000D01*
X100640000Y-95720000D02*
X105940000Y-95720000D01*
X100640000Y-119170000D02*
X54640000Y-119170000D01*
X100640000Y-115320000D02*
X100640000Y-119170000D01*
X54640000Y-120020000D02*
X45640000Y-120020000D01*
X68640000Y-100170000D02*
X96140000Y-100170000D01*
X54640000Y-120020000D02*
X54640000Y-119170000D01*
X96140000Y-62870000D02*
X100640000Y-62870000D01*
X45640000Y-91020000D02*
X45640000Y-62020000D01*
X54640000Y-62020000D02*
X54640000Y-62870000D01*
X105940000Y-66720000D02*
X105940000Y-86320000D01*
X100640000Y-62870000D02*
X100640000Y-66720000D01*
X96140000Y-71170000D02*
X96140000Y-62870000D01*
X105940000Y-86320000D02*
X100640000Y-86320000D01*
X54640000Y-62870000D02*
X68640000Y-62870000D01*
X68640000Y-62870000D02*
X68640000Y-71170000D01*
X45640000Y-62020000D02*
X54640000Y-62020000D01*
X100640000Y-66720000D02*
X105940000Y-66720000D01*
X100640000Y-90170000D02*
X54640000Y-90170000D01*
X100640000Y-86320000D02*
X100640000Y-90170000D01*
X54640000Y-91020000D02*
X45640000Y-91020000D01*
X68640000Y-71170000D02*
X96140000Y-71170000D01*
X54640000Y-91020000D02*
X54640000Y-90170000D01*
X54640000Y-62020000D02*
X54640000Y-61170000D01*
X68640000Y-42170000D02*
X96140000Y-42170000D01*
X54640000Y-62020000D02*
X45640000Y-62020000D01*
X100640000Y-57320000D02*
X100640000Y-61170000D01*
X100640000Y-61170000D02*
X54640000Y-61170000D01*
X100640000Y-37720000D02*
X105940000Y-37720000D01*
X45640000Y-33020000D02*
X54640000Y-33020000D01*
X68640000Y-33870000D02*
X68640000Y-42170000D01*
X54640000Y-33870000D02*
X68640000Y-33870000D01*
X105940000Y-57320000D02*
X100640000Y-57320000D01*
X96140000Y-42170000D02*
X96140000Y-33870000D01*
X100640000Y-33870000D02*
X100640000Y-37720000D01*
X105940000Y-37720000D02*
X105940000Y-57320000D01*
X54640000Y-33020000D02*
X54640000Y-33870000D01*
X45640000Y-62020000D02*
X45640000Y-33020000D01*
X96140000Y-33870000D02*
X100640000Y-33870000D01*
M02*
