%TF.GenerationSoftware,KiCad,Pcbnew,7.0.11+dfsg-1build4*%
%TF.CreationDate,2025-11-13T13:24:54-05:00*%
%TF.ProjectId,,58585858-5858-4585-9858-585858585858,rev?*%
%TF.SameCoordinates,Original*%
%TF.FileFunction,Paste,Bot*%
%TF.FilePolarity,Positive*%
%FSLAX46Y46*%
G04 Gerber Fmt 4.6, Leading zero omitted, Abs format (unit mm)*
G04 Created by KiCad (PCBNEW 7.0.11+dfsg-1build4) date 2025-11-13 13:24:54*
%MOMM*%
%LPD*%
G01*
G04 APERTURE LIST*
%ADD10R,0.750000X1.000000*%
%ADD11R,0.900000X1.500000*%
%TA.AperFunction,Profile*%
%ADD12C,0.050000*%
%TD*%
G04 APERTURE END LIST*
D10*
%TO.C,SW2*%
X139735000Y-103440000D03*
X139735000Y-97440000D03*
X135985000Y-103440000D03*
X135985000Y-97440000D03*
%TD*%
D11*
%TO.C,D1*%
X145160000Y-98890000D03*
X143760000Y-98890000D03*
X145160000Y-101990000D03*
X143760000Y-101990000D03*
%TD*%
D10*
%TO.C,SW2*%
X139735000Y-74440000D03*
X139735000Y-68440000D03*
X135985000Y-74440000D03*
X135985000Y-68440000D03*
%TD*%
D11*
%TO.C,D1*%
X145160000Y-69890000D03*
X143760000Y-69890000D03*
X145160000Y-72990000D03*
X143760000Y-72990000D03*
%TD*%
%TO.C,D1*%
X145160000Y-40890000D03*
X143760000Y-40890000D03*
X145160000Y-43990000D03*
X143760000Y-43990000D03*
%TD*%
D10*
%TO.C,SW2*%
X139735000Y-45440000D03*
X139735000Y-39440000D03*
X135985000Y-45440000D03*
X135985000Y-39440000D03*
%TD*%
D12*
X141860000Y-86790000D02*
X146360000Y-86790000D01*
X91360000Y-114940000D02*
X91360000Y-85940000D01*
X100360000Y-85940000D02*
X100360000Y-86790000D01*
X151660000Y-90640000D02*
X151660000Y-110240000D01*
X146360000Y-86790000D02*
X146360000Y-90640000D01*
X141860000Y-95090000D02*
X141860000Y-86790000D01*
X151660000Y-110240000D02*
X146360000Y-110240000D01*
X100360000Y-86790000D02*
X114360000Y-86790000D01*
X114360000Y-86790000D02*
X114360000Y-95090000D01*
X91360000Y-85940000D02*
X100360000Y-85940000D01*
X146360000Y-90640000D02*
X151660000Y-90640000D01*
X146360000Y-114090000D02*
X100360000Y-114090000D01*
X146360000Y-110240000D02*
X146360000Y-114090000D01*
X100360000Y-114940000D02*
X91360000Y-114940000D01*
X114360000Y-95090000D02*
X141860000Y-95090000D01*
X100360000Y-114940000D02*
X100360000Y-114090000D01*
X141860000Y-57790000D02*
X146360000Y-57790000D01*
X91360000Y-85940000D02*
X91360000Y-56940000D01*
X100360000Y-56940000D02*
X100360000Y-57790000D01*
X151660000Y-61640000D02*
X151660000Y-81240000D01*
X146360000Y-57790000D02*
X146360000Y-61640000D01*
X141860000Y-66090000D02*
X141860000Y-57790000D01*
X151660000Y-81240000D02*
X146360000Y-81240000D01*
X100360000Y-57790000D02*
X114360000Y-57790000D01*
X114360000Y-57790000D02*
X114360000Y-66090000D01*
X91360000Y-56940000D02*
X100360000Y-56940000D01*
X146360000Y-61640000D02*
X151660000Y-61640000D01*
X146360000Y-85090000D02*
X100360000Y-85090000D01*
X146360000Y-81240000D02*
X146360000Y-85090000D01*
X100360000Y-85940000D02*
X91360000Y-85940000D01*
X114360000Y-66090000D02*
X141860000Y-66090000D01*
X100360000Y-85940000D02*
X100360000Y-85090000D01*
X100360000Y-56940000D02*
X100360000Y-56090000D01*
X114360000Y-37090000D02*
X141860000Y-37090000D01*
X100360000Y-56940000D02*
X91360000Y-56940000D01*
X146360000Y-52240000D02*
X146360000Y-56090000D01*
X146360000Y-56090000D02*
X100360000Y-56090000D01*
X146360000Y-32640000D02*
X151660000Y-32640000D01*
X91360000Y-27940000D02*
X100360000Y-27940000D01*
X114360000Y-28790000D02*
X114360000Y-37090000D01*
X100360000Y-28790000D02*
X114360000Y-28790000D01*
X151660000Y-52240000D02*
X146360000Y-52240000D01*
X141860000Y-37090000D02*
X141860000Y-28790000D01*
X146360000Y-28790000D02*
X146360000Y-32640000D01*
X151660000Y-32640000D02*
X151660000Y-52240000D01*
X100360000Y-27940000D02*
X100360000Y-28790000D01*
X91360000Y-56940000D02*
X91360000Y-27940000D01*
X141860000Y-28790000D02*
X146360000Y-28790000D01*
M02*
