%TF.GenerationSoftware,KiCad,Pcbnew,7.0.11+dfsg-1build4*%
%TF.CreationDate,2025-11-13T13:24:55-05:00*%
%TF.ProjectId,,58585858-5858-4585-9858-585858585858,rev?*%
%TF.SameCoordinates,Original*%
%TF.FileFunction,Profile,NP*%
%FSLAX46Y46*%
G04 Gerber Fmt 4.6, Leading zero omitted, Abs format (unit mm)*
G04 Created by KiCad (PCBNEW 7.0.11+dfsg-1build4) date 2025-11-13 13:24:55*
%MOMM*%
%LPD*%
G01*
G04 APERTURE LIST*
%TA.AperFunction,Profile*%
%ADD10C,0.050000*%
%TD*%
G04 APERTURE END LIST*
D10*
X141860000Y-86790000D02*
X146360000Y-86790000D01*
X91360000Y-114940000D02*
X91360000Y-85940000D01*
X100360000Y-85940000D02*
X100360000Y-86790000D01*
X151660000Y-90640000D02*
X151660000Y-110240000D01*
X146360000Y-86790000D02*
X146360000Y-90640000D01*
X141860000Y-95090000D02*
X141860000Y-86790000D01*
X151660000Y-110240000D02*
X146360000Y-110240000D01*
X100360000Y-86790000D02*
X114360000Y-86790000D01*
X114360000Y-86790000D02*
X114360000Y-95090000D01*
X91360000Y-85940000D02*
X100360000Y-85940000D01*
X146360000Y-90640000D02*
X151660000Y-90640000D01*
X146360000Y-114090000D02*
X100360000Y-114090000D01*
X146360000Y-110240000D02*
X146360000Y-114090000D01*
X100360000Y-114940000D02*
X91360000Y-114940000D01*
X114360000Y-95090000D02*
X141860000Y-95090000D01*
X100360000Y-114940000D02*
X100360000Y-114090000D01*
X141860000Y-57790000D02*
X146360000Y-57790000D01*
X91360000Y-85940000D02*
X91360000Y-56940000D01*
X100360000Y-56940000D02*
X100360000Y-57790000D01*
X151660000Y-61640000D02*
X151660000Y-81240000D01*
X146360000Y-57790000D02*
X146360000Y-61640000D01*
X141860000Y-66090000D02*
X141860000Y-57790000D01*
X151660000Y-81240000D02*
X146360000Y-81240000D01*
X100360000Y-57790000D02*
X114360000Y-57790000D01*
X114360000Y-57790000D02*
X114360000Y-66090000D01*
X91360000Y-56940000D02*
X100360000Y-56940000D01*
X146360000Y-61640000D02*
X151660000Y-61640000D01*
X146360000Y-85090000D02*
X100360000Y-85090000D01*
X146360000Y-81240000D02*
X146360000Y-85090000D01*
X100360000Y-85940000D02*
X91360000Y-85940000D01*
X114360000Y-66090000D02*
X141860000Y-66090000D01*
X100360000Y-85940000D02*
X100360000Y-85090000D01*
X100360000Y-56940000D02*
X100360000Y-56090000D01*
X114360000Y-37090000D02*
X141860000Y-37090000D01*
X100360000Y-56940000D02*
X91360000Y-56940000D01*
X146360000Y-52240000D02*
X146360000Y-56090000D01*
X146360000Y-56090000D02*
X100360000Y-56090000D01*
X146360000Y-32640000D02*
X151660000Y-32640000D01*
X91360000Y-27940000D02*
X100360000Y-27940000D01*
X114360000Y-28790000D02*
X114360000Y-37090000D01*
X100360000Y-28790000D02*
X114360000Y-28790000D01*
X151660000Y-52240000D02*
X146360000Y-52240000D01*
X141860000Y-37090000D02*
X141860000Y-28790000D01*
X146360000Y-28790000D02*
X146360000Y-32640000D01*
X151660000Y-32640000D02*
X151660000Y-52240000D01*
X100360000Y-27940000D02*
X100360000Y-28790000D01*
X91360000Y-56940000D02*
X91360000Y-27940000D01*
X141860000Y-28790000D02*
X146360000Y-28790000D01*
M02*
