%TF.GenerationSoftware,KiCad,Pcbnew,7.0.11+dfsg-1build4*%
%TF.CreationDate,2025-11-13T13:24:54-05:00*%
%TF.ProjectId,,58585858-5858-4585-9858-585858585858,rev?*%
%TF.SameCoordinates,Original*%
%TF.FileFunction,Paste,Top*%
%TF.FilePolarity,Positive*%
%FSLAX46Y46*%
G04 Gerber Fmt 4.6, Leading zero omitted, Abs format (unit mm)*
G04 Created by KiCad (PCBNEW 7.0.11+dfsg-1build4) date 2025-11-13 13:24:54*
%MOMM*%
%LPD*%
G01*
G04 APERTURE LIST*
G04 Aperture macros list*
%AMRoundRect*
0 Rectangle with rounded corners*
0 $1 Rounding radius*
0 $2 $3 $4 $5 $6 $7 $8 $9 X,Y pos of 4 corners*
0 Add a 4 corners polygon primitive as box body*
4,1,4,$2,$3,$4,$5,$6,$7,$8,$9,$2,$3,0*
0 Add four circle primitives for the rounded corners*
1,1,$1+$1,$2,$3*
1,1,$1+$1,$4,$5*
1,1,$1+$1,$6,$7*
1,1,$1+$1,$8,$9*
0 Add four rect primitives between the rounded corners*
20,1,$1+$1,$2,$3,$4,$5,0*
20,1,$1+$1,$4,$5,$6,$7,0*
20,1,$1+$1,$6,$7,$8,$9,0*
20,1,$1+$1,$8,$9,$2,$3,0*%
G04 Aperture macros list end*
%ADD10RoundRect,0.337500X2.862500X-0.112500X2.862500X0.112500X-2.862500X0.112500X-2.862500X-0.112500X0*%
%TA.AperFunction,Profile*%
%ADD11C,0.050000*%
%TD*%
G04 APERTURE END LIST*
D10*
%TO.C,J3*%
X147930000Y-97940000D03*
X147930000Y-95940000D03*
X147930000Y-93940000D03*
%TD*%
%TO.C,J3*%
X147930000Y-68940000D03*
X147930000Y-66940000D03*
X147930000Y-64940000D03*
%TD*%
%TO.C,J3*%
X147930000Y-39940000D03*
X147930000Y-37940000D03*
X147930000Y-35940000D03*
%TD*%
D11*
X141860000Y-86790000D02*
X146360000Y-86790000D01*
X91360000Y-114940000D02*
X91360000Y-85940000D01*
X100360000Y-85940000D02*
X100360000Y-86790000D01*
X151660000Y-90640000D02*
X151660000Y-110240000D01*
X146360000Y-86790000D02*
X146360000Y-90640000D01*
X141860000Y-95090000D02*
X141860000Y-86790000D01*
X151660000Y-110240000D02*
X146360000Y-110240000D01*
X100360000Y-86790000D02*
X114360000Y-86790000D01*
X114360000Y-86790000D02*
X114360000Y-95090000D01*
X91360000Y-85940000D02*
X100360000Y-85940000D01*
X146360000Y-90640000D02*
X151660000Y-90640000D01*
X146360000Y-114090000D02*
X100360000Y-114090000D01*
X146360000Y-110240000D02*
X146360000Y-114090000D01*
X100360000Y-114940000D02*
X91360000Y-114940000D01*
X114360000Y-95090000D02*
X141860000Y-95090000D01*
X100360000Y-114940000D02*
X100360000Y-114090000D01*
X141860000Y-57790000D02*
X146360000Y-57790000D01*
X91360000Y-85940000D02*
X91360000Y-56940000D01*
X100360000Y-56940000D02*
X100360000Y-57790000D01*
X151660000Y-61640000D02*
X151660000Y-81240000D01*
X146360000Y-57790000D02*
X146360000Y-61640000D01*
X141860000Y-66090000D02*
X141860000Y-57790000D01*
X151660000Y-81240000D02*
X146360000Y-81240000D01*
X100360000Y-57790000D02*
X114360000Y-57790000D01*
X114360000Y-57790000D02*
X114360000Y-66090000D01*
X91360000Y-56940000D02*
X100360000Y-56940000D01*
X146360000Y-61640000D02*
X151660000Y-61640000D01*
X146360000Y-85090000D02*
X100360000Y-85090000D01*
X146360000Y-81240000D02*
X146360000Y-85090000D01*
X100360000Y-85940000D02*
X91360000Y-85940000D01*
X114360000Y-66090000D02*
X141860000Y-66090000D01*
X100360000Y-85940000D02*
X100360000Y-85090000D01*
X100360000Y-56940000D02*
X100360000Y-56090000D01*
X114360000Y-37090000D02*
X141860000Y-37090000D01*
X100360000Y-56940000D02*
X91360000Y-56940000D01*
X146360000Y-52240000D02*
X146360000Y-56090000D01*
X146360000Y-56090000D02*
X100360000Y-56090000D01*
X146360000Y-32640000D02*
X151660000Y-32640000D01*
X91360000Y-27940000D02*
X100360000Y-27940000D01*
X114360000Y-28790000D02*
X114360000Y-37090000D01*
X100360000Y-28790000D02*
X114360000Y-28790000D01*
X151660000Y-52240000D02*
X146360000Y-52240000D01*
X141860000Y-37090000D02*
X141860000Y-28790000D01*
X146360000Y-28790000D02*
X146360000Y-32640000D01*
X151660000Y-32640000D02*
X151660000Y-52240000D01*
X100360000Y-27940000D02*
X100360000Y-28790000D01*
X91360000Y-56940000D02*
X91360000Y-27940000D01*
X141860000Y-28790000D02*
X146360000Y-28790000D01*
M02*
