%TF.GenerationSoftware,KiCad,Pcbnew,7.0.11+dfsg-1build4*%
%TF.CreationDate,2025-12-29T16:28:24-05:00*%
%TF.ProjectId,,58585858-5858-4585-9858-585858585858,rev?*%
%TF.SameCoordinates,Original*%
%TF.FileFunction,Legend,Top*%
%TF.FilePolarity,Positive*%
%FSLAX46Y46*%
G04 Gerber Fmt 4.6, Leading zero omitted, Abs format (unit mm)*
G04 Created by KiCad (PCBNEW 7.0.11+dfsg-1build4) date 2025-12-29 16:28:24*
%MOMM*%
%LPD*%
G01*
G04 APERTURE LIST*
%ADD10C,0.200000*%
%ADD11C,0.150000*%
%ADD12C,0.120000*%
%ADD13C,0.100000*%
%TA.AperFunction,Profile*%
%ADD14C,0.050000*%
%TD*%
G04 APERTURE END LIST*
D10*
X48981101Y-110661695D02*
X48523958Y-110661695D01*
X48752530Y-110661695D02*
X48752530Y-109861695D01*
X48752530Y-109861695D02*
X48676339Y-109975980D01*
X48676339Y-109975980D02*
X48600149Y-110052171D01*
X48600149Y-110052171D02*
X48523958Y-110090266D01*
X46804911Y-116141695D02*
X46652530Y-116141695D01*
X46652530Y-116141695D02*
X46576339Y-116179790D01*
X46576339Y-116179790D02*
X46538244Y-116217885D01*
X46538244Y-116217885D02*
X46462054Y-116332171D01*
X46462054Y-116332171D02*
X46423958Y-116484552D01*
X46423958Y-116484552D02*
X46423958Y-116789314D01*
X46423958Y-116789314D02*
X46462054Y-116865504D01*
X46462054Y-116865504D02*
X46500149Y-116903600D01*
X46500149Y-116903600D02*
X46576339Y-116941695D01*
X46576339Y-116941695D02*
X46728720Y-116941695D01*
X46728720Y-116941695D02*
X46804911Y-116903600D01*
X46804911Y-116903600D02*
X46843006Y-116865504D01*
X46843006Y-116865504D02*
X46881101Y-116789314D01*
X46881101Y-116789314D02*
X46881101Y-116598838D01*
X46881101Y-116598838D02*
X46843006Y-116522647D01*
X46843006Y-116522647D02*
X46804911Y-116484552D01*
X46804911Y-116484552D02*
X46728720Y-116446457D01*
X46728720Y-116446457D02*
X46576339Y-116446457D01*
X46576339Y-116446457D02*
X46500149Y-116484552D01*
X46500149Y-116484552D02*
X46462054Y-116522647D01*
X46462054Y-116522647D02*
X46423958Y-116598838D01*
X48485863Y-96501695D02*
X48981101Y-96501695D01*
X48981101Y-96501695D02*
X48714435Y-96806457D01*
X48714435Y-96806457D02*
X48828720Y-96806457D01*
X48828720Y-96806457D02*
X48904911Y-96844552D01*
X48904911Y-96844552D02*
X48943006Y-96882647D01*
X48943006Y-96882647D02*
X48981101Y-96958838D01*
X48981101Y-96958838D02*
X48981101Y-97149314D01*
X48981101Y-97149314D02*
X48943006Y-97225504D01*
X48943006Y-97225504D02*
X48904911Y-97263600D01*
X48904911Y-97263600D02*
X48828720Y-97301695D01*
X48828720Y-97301695D02*
X48600149Y-97301695D01*
X48600149Y-97301695D02*
X48523958Y-97263600D01*
X48523958Y-97263600D02*
X48485863Y-97225504D01*
X46423958Y-111137885D02*
X46462054Y-111099790D01*
X46462054Y-111099790D02*
X46538244Y-111061695D01*
X46538244Y-111061695D02*
X46728720Y-111061695D01*
X46728720Y-111061695D02*
X46804911Y-111099790D01*
X46804911Y-111099790D02*
X46843006Y-111137885D01*
X46843006Y-111137885D02*
X46881101Y-111214076D01*
X46881101Y-111214076D02*
X46881101Y-111290266D01*
X46881101Y-111290266D02*
X46843006Y-111404552D01*
X46843006Y-111404552D02*
X46385863Y-111861695D01*
X46385863Y-111861695D02*
X46881101Y-111861695D01*
X48981101Y-94761695D02*
X48523958Y-94761695D01*
X48752530Y-94761695D02*
X48752530Y-93961695D01*
X48752530Y-93961695D02*
X48676339Y-94075980D01*
X48676339Y-94075980D02*
X48600149Y-94152171D01*
X48600149Y-94152171D02*
X48523958Y-94190266D01*
X46423958Y-95237885D02*
X46462054Y-95199790D01*
X46462054Y-95199790D02*
X46538244Y-95161695D01*
X46538244Y-95161695D02*
X46728720Y-95161695D01*
X46728720Y-95161695D02*
X46804911Y-95199790D01*
X46804911Y-95199790D02*
X46843006Y-95237885D01*
X46843006Y-95237885D02*
X46881101Y-95314076D01*
X46881101Y-95314076D02*
X46881101Y-95390266D01*
X46881101Y-95390266D02*
X46843006Y-95504552D01*
X46843006Y-95504552D02*
X46385863Y-95961695D01*
X46385863Y-95961695D02*
X46881101Y-95961695D01*
X48943006Y-99041695D02*
X48562054Y-99041695D01*
X48562054Y-99041695D02*
X48523958Y-99422647D01*
X48523958Y-99422647D02*
X48562054Y-99384552D01*
X48562054Y-99384552D02*
X48638244Y-99346457D01*
X48638244Y-99346457D02*
X48828720Y-99346457D01*
X48828720Y-99346457D02*
X48904911Y-99384552D01*
X48904911Y-99384552D02*
X48943006Y-99422647D01*
X48943006Y-99422647D02*
X48981101Y-99498838D01*
X48981101Y-99498838D02*
X48981101Y-99689314D01*
X48981101Y-99689314D02*
X48943006Y-99765504D01*
X48943006Y-99765504D02*
X48904911Y-99803600D01*
X48904911Y-99803600D02*
X48828720Y-99841695D01*
X48828720Y-99841695D02*
X48638244Y-99841695D01*
X48638244Y-99841695D02*
X48562054Y-99803600D01*
X48562054Y-99803600D02*
X48523958Y-99765504D01*
X46804911Y-97968361D02*
X46804911Y-98501695D01*
X46614435Y-97663600D02*
X46423958Y-98235028D01*
X46423958Y-98235028D02*
X46919197Y-98235028D01*
X48485863Y-112401695D02*
X48981101Y-112401695D01*
X48981101Y-112401695D02*
X48714435Y-112706457D01*
X48714435Y-112706457D02*
X48828720Y-112706457D01*
X48828720Y-112706457D02*
X48904911Y-112744552D01*
X48904911Y-112744552D02*
X48943006Y-112782647D01*
X48943006Y-112782647D02*
X48981101Y-112858838D01*
X48981101Y-112858838D02*
X48981101Y-113049314D01*
X48981101Y-113049314D02*
X48943006Y-113125504D01*
X48943006Y-113125504D02*
X48904911Y-113163600D01*
X48904911Y-113163600D02*
X48828720Y-113201695D01*
X48828720Y-113201695D02*
X48600149Y-113201695D01*
X48600149Y-113201695D02*
X48523958Y-113163600D01*
X48523958Y-113163600D02*
X48485863Y-113125504D01*
X48943006Y-114941695D02*
X48562054Y-114941695D01*
X48562054Y-114941695D02*
X48523958Y-115322647D01*
X48523958Y-115322647D02*
X48562054Y-115284552D01*
X48562054Y-115284552D02*
X48638244Y-115246457D01*
X48638244Y-115246457D02*
X48828720Y-115246457D01*
X48828720Y-115246457D02*
X48904911Y-115284552D01*
X48904911Y-115284552D02*
X48943006Y-115322647D01*
X48943006Y-115322647D02*
X48981101Y-115398838D01*
X48981101Y-115398838D02*
X48981101Y-115589314D01*
X48981101Y-115589314D02*
X48943006Y-115665504D01*
X48943006Y-115665504D02*
X48904911Y-115703600D01*
X48904911Y-115703600D02*
X48828720Y-115741695D01*
X48828720Y-115741695D02*
X48638244Y-115741695D01*
X48638244Y-115741695D02*
X48562054Y-115703600D01*
X48562054Y-115703600D02*
X48523958Y-115665504D01*
X46804911Y-113868361D02*
X46804911Y-114401695D01*
X46614435Y-113563600D02*
X46423958Y-114135028D01*
X46423958Y-114135028D02*
X46919197Y-114135028D01*
X46804911Y-100241695D02*
X46652530Y-100241695D01*
X46652530Y-100241695D02*
X46576339Y-100279790D01*
X46576339Y-100279790D02*
X46538244Y-100317885D01*
X46538244Y-100317885D02*
X46462054Y-100432171D01*
X46462054Y-100432171D02*
X46423958Y-100584552D01*
X46423958Y-100584552D02*
X46423958Y-100889314D01*
X46423958Y-100889314D02*
X46462054Y-100965504D01*
X46462054Y-100965504D02*
X46500149Y-101003600D01*
X46500149Y-101003600D02*
X46576339Y-101041695D01*
X46576339Y-101041695D02*
X46728720Y-101041695D01*
X46728720Y-101041695D02*
X46804911Y-101003600D01*
X46804911Y-101003600D02*
X46843006Y-100965504D01*
X46843006Y-100965504D02*
X46881101Y-100889314D01*
X46881101Y-100889314D02*
X46881101Y-100698838D01*
X46881101Y-100698838D02*
X46843006Y-100622647D01*
X46843006Y-100622647D02*
X46804911Y-100584552D01*
X46804911Y-100584552D02*
X46728720Y-100546457D01*
X46728720Y-100546457D02*
X46576339Y-100546457D01*
X46576339Y-100546457D02*
X46500149Y-100584552D01*
X46500149Y-100584552D02*
X46462054Y-100622647D01*
X46462054Y-100622647D02*
X46423958Y-100698838D01*
X48981101Y-81661695D02*
X48523958Y-81661695D01*
X48752530Y-81661695D02*
X48752530Y-80861695D01*
X48752530Y-80861695D02*
X48676339Y-80975980D01*
X48676339Y-80975980D02*
X48600149Y-81052171D01*
X48600149Y-81052171D02*
X48523958Y-81090266D01*
X46804911Y-87141695D02*
X46652530Y-87141695D01*
X46652530Y-87141695D02*
X46576339Y-87179790D01*
X46576339Y-87179790D02*
X46538244Y-87217885D01*
X46538244Y-87217885D02*
X46462054Y-87332171D01*
X46462054Y-87332171D02*
X46423958Y-87484552D01*
X46423958Y-87484552D02*
X46423958Y-87789314D01*
X46423958Y-87789314D02*
X46462054Y-87865504D01*
X46462054Y-87865504D02*
X46500149Y-87903600D01*
X46500149Y-87903600D02*
X46576339Y-87941695D01*
X46576339Y-87941695D02*
X46728720Y-87941695D01*
X46728720Y-87941695D02*
X46804911Y-87903600D01*
X46804911Y-87903600D02*
X46843006Y-87865504D01*
X46843006Y-87865504D02*
X46881101Y-87789314D01*
X46881101Y-87789314D02*
X46881101Y-87598838D01*
X46881101Y-87598838D02*
X46843006Y-87522647D01*
X46843006Y-87522647D02*
X46804911Y-87484552D01*
X46804911Y-87484552D02*
X46728720Y-87446457D01*
X46728720Y-87446457D02*
X46576339Y-87446457D01*
X46576339Y-87446457D02*
X46500149Y-87484552D01*
X46500149Y-87484552D02*
X46462054Y-87522647D01*
X46462054Y-87522647D02*
X46423958Y-87598838D01*
X48485863Y-67501695D02*
X48981101Y-67501695D01*
X48981101Y-67501695D02*
X48714435Y-67806457D01*
X48714435Y-67806457D02*
X48828720Y-67806457D01*
X48828720Y-67806457D02*
X48904911Y-67844552D01*
X48904911Y-67844552D02*
X48943006Y-67882647D01*
X48943006Y-67882647D02*
X48981101Y-67958838D01*
X48981101Y-67958838D02*
X48981101Y-68149314D01*
X48981101Y-68149314D02*
X48943006Y-68225504D01*
X48943006Y-68225504D02*
X48904911Y-68263600D01*
X48904911Y-68263600D02*
X48828720Y-68301695D01*
X48828720Y-68301695D02*
X48600149Y-68301695D01*
X48600149Y-68301695D02*
X48523958Y-68263600D01*
X48523958Y-68263600D02*
X48485863Y-68225504D01*
X46423958Y-82137885D02*
X46462054Y-82099790D01*
X46462054Y-82099790D02*
X46538244Y-82061695D01*
X46538244Y-82061695D02*
X46728720Y-82061695D01*
X46728720Y-82061695D02*
X46804911Y-82099790D01*
X46804911Y-82099790D02*
X46843006Y-82137885D01*
X46843006Y-82137885D02*
X46881101Y-82214076D01*
X46881101Y-82214076D02*
X46881101Y-82290266D01*
X46881101Y-82290266D02*
X46843006Y-82404552D01*
X46843006Y-82404552D02*
X46385863Y-82861695D01*
X46385863Y-82861695D02*
X46881101Y-82861695D01*
X48981101Y-65761695D02*
X48523958Y-65761695D01*
X48752530Y-65761695D02*
X48752530Y-64961695D01*
X48752530Y-64961695D02*
X48676339Y-65075980D01*
X48676339Y-65075980D02*
X48600149Y-65152171D01*
X48600149Y-65152171D02*
X48523958Y-65190266D01*
X46423958Y-66237885D02*
X46462054Y-66199790D01*
X46462054Y-66199790D02*
X46538244Y-66161695D01*
X46538244Y-66161695D02*
X46728720Y-66161695D01*
X46728720Y-66161695D02*
X46804911Y-66199790D01*
X46804911Y-66199790D02*
X46843006Y-66237885D01*
X46843006Y-66237885D02*
X46881101Y-66314076D01*
X46881101Y-66314076D02*
X46881101Y-66390266D01*
X46881101Y-66390266D02*
X46843006Y-66504552D01*
X46843006Y-66504552D02*
X46385863Y-66961695D01*
X46385863Y-66961695D02*
X46881101Y-66961695D01*
X48943006Y-70041695D02*
X48562054Y-70041695D01*
X48562054Y-70041695D02*
X48523958Y-70422647D01*
X48523958Y-70422647D02*
X48562054Y-70384552D01*
X48562054Y-70384552D02*
X48638244Y-70346457D01*
X48638244Y-70346457D02*
X48828720Y-70346457D01*
X48828720Y-70346457D02*
X48904911Y-70384552D01*
X48904911Y-70384552D02*
X48943006Y-70422647D01*
X48943006Y-70422647D02*
X48981101Y-70498838D01*
X48981101Y-70498838D02*
X48981101Y-70689314D01*
X48981101Y-70689314D02*
X48943006Y-70765504D01*
X48943006Y-70765504D02*
X48904911Y-70803600D01*
X48904911Y-70803600D02*
X48828720Y-70841695D01*
X48828720Y-70841695D02*
X48638244Y-70841695D01*
X48638244Y-70841695D02*
X48562054Y-70803600D01*
X48562054Y-70803600D02*
X48523958Y-70765504D01*
X46804911Y-68968361D02*
X46804911Y-69501695D01*
X46614435Y-68663600D02*
X46423958Y-69235028D01*
X46423958Y-69235028D02*
X46919197Y-69235028D01*
X48485863Y-83401695D02*
X48981101Y-83401695D01*
X48981101Y-83401695D02*
X48714435Y-83706457D01*
X48714435Y-83706457D02*
X48828720Y-83706457D01*
X48828720Y-83706457D02*
X48904911Y-83744552D01*
X48904911Y-83744552D02*
X48943006Y-83782647D01*
X48943006Y-83782647D02*
X48981101Y-83858838D01*
X48981101Y-83858838D02*
X48981101Y-84049314D01*
X48981101Y-84049314D02*
X48943006Y-84125504D01*
X48943006Y-84125504D02*
X48904911Y-84163600D01*
X48904911Y-84163600D02*
X48828720Y-84201695D01*
X48828720Y-84201695D02*
X48600149Y-84201695D01*
X48600149Y-84201695D02*
X48523958Y-84163600D01*
X48523958Y-84163600D02*
X48485863Y-84125504D01*
X48943006Y-85941695D02*
X48562054Y-85941695D01*
X48562054Y-85941695D02*
X48523958Y-86322647D01*
X48523958Y-86322647D02*
X48562054Y-86284552D01*
X48562054Y-86284552D02*
X48638244Y-86246457D01*
X48638244Y-86246457D02*
X48828720Y-86246457D01*
X48828720Y-86246457D02*
X48904911Y-86284552D01*
X48904911Y-86284552D02*
X48943006Y-86322647D01*
X48943006Y-86322647D02*
X48981101Y-86398838D01*
X48981101Y-86398838D02*
X48981101Y-86589314D01*
X48981101Y-86589314D02*
X48943006Y-86665504D01*
X48943006Y-86665504D02*
X48904911Y-86703600D01*
X48904911Y-86703600D02*
X48828720Y-86741695D01*
X48828720Y-86741695D02*
X48638244Y-86741695D01*
X48638244Y-86741695D02*
X48562054Y-86703600D01*
X48562054Y-86703600D02*
X48523958Y-86665504D01*
X46804911Y-84868361D02*
X46804911Y-85401695D01*
X46614435Y-84563600D02*
X46423958Y-85135028D01*
X46423958Y-85135028D02*
X46919197Y-85135028D01*
X46804911Y-71241695D02*
X46652530Y-71241695D01*
X46652530Y-71241695D02*
X46576339Y-71279790D01*
X46576339Y-71279790D02*
X46538244Y-71317885D01*
X46538244Y-71317885D02*
X46462054Y-71432171D01*
X46462054Y-71432171D02*
X46423958Y-71584552D01*
X46423958Y-71584552D02*
X46423958Y-71889314D01*
X46423958Y-71889314D02*
X46462054Y-71965504D01*
X46462054Y-71965504D02*
X46500149Y-72003600D01*
X46500149Y-72003600D02*
X46576339Y-72041695D01*
X46576339Y-72041695D02*
X46728720Y-72041695D01*
X46728720Y-72041695D02*
X46804911Y-72003600D01*
X46804911Y-72003600D02*
X46843006Y-71965504D01*
X46843006Y-71965504D02*
X46881101Y-71889314D01*
X46881101Y-71889314D02*
X46881101Y-71698838D01*
X46881101Y-71698838D02*
X46843006Y-71622647D01*
X46843006Y-71622647D02*
X46804911Y-71584552D01*
X46804911Y-71584552D02*
X46728720Y-71546457D01*
X46728720Y-71546457D02*
X46576339Y-71546457D01*
X46576339Y-71546457D02*
X46500149Y-71584552D01*
X46500149Y-71584552D02*
X46462054Y-71622647D01*
X46462054Y-71622647D02*
X46423958Y-71698838D01*
X46804911Y-42241695D02*
X46652530Y-42241695D01*
X46652530Y-42241695D02*
X46576339Y-42279790D01*
X46576339Y-42279790D02*
X46538244Y-42317885D01*
X46538244Y-42317885D02*
X46462054Y-42432171D01*
X46462054Y-42432171D02*
X46423958Y-42584552D01*
X46423958Y-42584552D02*
X46423958Y-42889314D01*
X46423958Y-42889314D02*
X46462054Y-42965504D01*
X46462054Y-42965504D02*
X46500149Y-43003600D01*
X46500149Y-43003600D02*
X46576339Y-43041695D01*
X46576339Y-43041695D02*
X46728720Y-43041695D01*
X46728720Y-43041695D02*
X46804911Y-43003600D01*
X46804911Y-43003600D02*
X46843006Y-42965504D01*
X46843006Y-42965504D02*
X46881101Y-42889314D01*
X46881101Y-42889314D02*
X46881101Y-42698838D01*
X46881101Y-42698838D02*
X46843006Y-42622647D01*
X46843006Y-42622647D02*
X46804911Y-42584552D01*
X46804911Y-42584552D02*
X46728720Y-42546457D01*
X46728720Y-42546457D02*
X46576339Y-42546457D01*
X46576339Y-42546457D02*
X46500149Y-42584552D01*
X46500149Y-42584552D02*
X46462054Y-42622647D01*
X46462054Y-42622647D02*
X46423958Y-42698838D01*
X46804911Y-55868361D02*
X46804911Y-56401695D01*
X46614435Y-55563600D02*
X46423958Y-56135028D01*
X46423958Y-56135028D02*
X46919197Y-56135028D01*
X48943006Y-56941695D02*
X48562054Y-56941695D01*
X48562054Y-56941695D02*
X48523958Y-57322647D01*
X48523958Y-57322647D02*
X48562054Y-57284552D01*
X48562054Y-57284552D02*
X48638244Y-57246457D01*
X48638244Y-57246457D02*
X48828720Y-57246457D01*
X48828720Y-57246457D02*
X48904911Y-57284552D01*
X48904911Y-57284552D02*
X48943006Y-57322647D01*
X48943006Y-57322647D02*
X48981101Y-57398838D01*
X48981101Y-57398838D02*
X48981101Y-57589314D01*
X48981101Y-57589314D02*
X48943006Y-57665504D01*
X48943006Y-57665504D02*
X48904911Y-57703600D01*
X48904911Y-57703600D02*
X48828720Y-57741695D01*
X48828720Y-57741695D02*
X48638244Y-57741695D01*
X48638244Y-57741695D02*
X48562054Y-57703600D01*
X48562054Y-57703600D02*
X48523958Y-57665504D01*
X48485863Y-54401695D02*
X48981101Y-54401695D01*
X48981101Y-54401695D02*
X48714435Y-54706457D01*
X48714435Y-54706457D02*
X48828720Y-54706457D01*
X48828720Y-54706457D02*
X48904911Y-54744552D01*
X48904911Y-54744552D02*
X48943006Y-54782647D01*
X48943006Y-54782647D02*
X48981101Y-54858838D01*
X48981101Y-54858838D02*
X48981101Y-55049314D01*
X48981101Y-55049314D02*
X48943006Y-55125504D01*
X48943006Y-55125504D02*
X48904911Y-55163600D01*
X48904911Y-55163600D02*
X48828720Y-55201695D01*
X48828720Y-55201695D02*
X48600149Y-55201695D01*
X48600149Y-55201695D02*
X48523958Y-55163600D01*
X48523958Y-55163600D02*
X48485863Y-55125504D01*
X46804911Y-39968361D02*
X46804911Y-40501695D01*
X46614435Y-39663600D02*
X46423958Y-40235028D01*
X46423958Y-40235028D02*
X46919197Y-40235028D01*
X48943006Y-41041695D02*
X48562054Y-41041695D01*
X48562054Y-41041695D02*
X48523958Y-41422647D01*
X48523958Y-41422647D02*
X48562054Y-41384552D01*
X48562054Y-41384552D02*
X48638244Y-41346457D01*
X48638244Y-41346457D02*
X48828720Y-41346457D01*
X48828720Y-41346457D02*
X48904911Y-41384552D01*
X48904911Y-41384552D02*
X48943006Y-41422647D01*
X48943006Y-41422647D02*
X48981101Y-41498838D01*
X48981101Y-41498838D02*
X48981101Y-41689314D01*
X48981101Y-41689314D02*
X48943006Y-41765504D01*
X48943006Y-41765504D02*
X48904911Y-41803600D01*
X48904911Y-41803600D02*
X48828720Y-41841695D01*
X48828720Y-41841695D02*
X48638244Y-41841695D01*
X48638244Y-41841695D02*
X48562054Y-41803600D01*
X48562054Y-41803600D02*
X48523958Y-41765504D01*
X46423958Y-37237885D02*
X46462054Y-37199790D01*
X46462054Y-37199790D02*
X46538244Y-37161695D01*
X46538244Y-37161695D02*
X46728720Y-37161695D01*
X46728720Y-37161695D02*
X46804911Y-37199790D01*
X46804911Y-37199790D02*
X46843006Y-37237885D01*
X46843006Y-37237885D02*
X46881101Y-37314076D01*
X46881101Y-37314076D02*
X46881101Y-37390266D01*
X46881101Y-37390266D02*
X46843006Y-37504552D01*
X46843006Y-37504552D02*
X46385863Y-37961695D01*
X46385863Y-37961695D02*
X46881101Y-37961695D01*
X48981101Y-36761695D02*
X48523958Y-36761695D01*
X48752530Y-36761695D02*
X48752530Y-35961695D01*
X48752530Y-35961695D02*
X48676339Y-36075980D01*
X48676339Y-36075980D02*
X48600149Y-36152171D01*
X48600149Y-36152171D02*
X48523958Y-36190266D01*
X46423958Y-53137885D02*
X46462054Y-53099790D01*
X46462054Y-53099790D02*
X46538244Y-53061695D01*
X46538244Y-53061695D02*
X46728720Y-53061695D01*
X46728720Y-53061695D02*
X46804911Y-53099790D01*
X46804911Y-53099790D02*
X46843006Y-53137885D01*
X46843006Y-53137885D02*
X46881101Y-53214076D01*
X46881101Y-53214076D02*
X46881101Y-53290266D01*
X46881101Y-53290266D02*
X46843006Y-53404552D01*
X46843006Y-53404552D02*
X46385863Y-53861695D01*
X46385863Y-53861695D02*
X46881101Y-53861695D01*
X48485863Y-38501695D02*
X48981101Y-38501695D01*
X48981101Y-38501695D02*
X48714435Y-38806457D01*
X48714435Y-38806457D02*
X48828720Y-38806457D01*
X48828720Y-38806457D02*
X48904911Y-38844552D01*
X48904911Y-38844552D02*
X48943006Y-38882647D01*
X48943006Y-38882647D02*
X48981101Y-38958838D01*
X48981101Y-38958838D02*
X48981101Y-39149314D01*
X48981101Y-39149314D02*
X48943006Y-39225504D01*
X48943006Y-39225504D02*
X48904911Y-39263600D01*
X48904911Y-39263600D02*
X48828720Y-39301695D01*
X48828720Y-39301695D02*
X48600149Y-39301695D01*
X48600149Y-39301695D02*
X48523958Y-39263600D01*
X48523958Y-39263600D02*
X48485863Y-39225504D01*
X46804911Y-58141695D02*
X46652530Y-58141695D01*
X46652530Y-58141695D02*
X46576339Y-58179790D01*
X46576339Y-58179790D02*
X46538244Y-58217885D01*
X46538244Y-58217885D02*
X46462054Y-58332171D01*
X46462054Y-58332171D02*
X46423958Y-58484552D01*
X46423958Y-58484552D02*
X46423958Y-58789314D01*
X46423958Y-58789314D02*
X46462054Y-58865504D01*
X46462054Y-58865504D02*
X46500149Y-58903600D01*
X46500149Y-58903600D02*
X46576339Y-58941695D01*
X46576339Y-58941695D02*
X46728720Y-58941695D01*
X46728720Y-58941695D02*
X46804911Y-58903600D01*
X46804911Y-58903600D02*
X46843006Y-58865504D01*
X46843006Y-58865504D02*
X46881101Y-58789314D01*
X46881101Y-58789314D02*
X46881101Y-58598838D01*
X46881101Y-58598838D02*
X46843006Y-58522647D01*
X46843006Y-58522647D02*
X46804911Y-58484552D01*
X46804911Y-58484552D02*
X46728720Y-58446457D01*
X46728720Y-58446457D02*
X46576339Y-58446457D01*
X46576339Y-58446457D02*
X46500149Y-58484552D01*
X46500149Y-58484552D02*
X46462054Y-58522647D01*
X46462054Y-58522647D02*
X46423958Y-58598838D01*
X48981101Y-52661695D02*
X48523958Y-52661695D01*
X48752530Y-52661695D02*
X48752530Y-51861695D01*
X48752530Y-51861695D02*
X48676339Y-51975980D01*
X48676339Y-51975980D02*
X48600149Y-52052171D01*
X48600149Y-52052171D02*
X48523958Y-52090266D01*
D11*
X104044819Y-105653333D02*
X104759104Y-105653333D01*
X104759104Y-105653333D02*
X104901961Y-105700952D01*
X104901961Y-105700952D02*
X104997200Y-105796190D01*
X104997200Y-105796190D02*
X105044819Y-105939047D01*
X105044819Y-105939047D02*
X105044819Y-106034285D01*
X104044819Y-105272380D02*
X104044819Y-104653333D01*
X104044819Y-104653333D02*
X104425771Y-104986666D01*
X104425771Y-104986666D02*
X104425771Y-104843809D01*
X104425771Y-104843809D02*
X104473390Y-104748571D01*
X104473390Y-104748571D02*
X104521009Y-104700952D01*
X104521009Y-104700952D02*
X104616247Y-104653333D01*
X104616247Y-104653333D02*
X104854342Y-104653333D01*
X104854342Y-104653333D02*
X104949580Y-104700952D01*
X104949580Y-104700952D02*
X104997200Y-104748571D01*
X104997200Y-104748571D02*
X105044819Y-104843809D01*
X105044819Y-104843809D02*
X105044819Y-105129523D01*
X105044819Y-105129523D02*
X104997200Y-105224761D01*
X104997200Y-105224761D02*
X104949580Y-105272380D01*
X104044819Y-76653333D02*
X104759104Y-76653333D01*
X104759104Y-76653333D02*
X104901961Y-76700952D01*
X104901961Y-76700952D02*
X104997200Y-76796190D01*
X104997200Y-76796190D02*
X105044819Y-76939047D01*
X105044819Y-76939047D02*
X105044819Y-77034285D01*
X104044819Y-76272380D02*
X104044819Y-75653333D01*
X104044819Y-75653333D02*
X104425771Y-75986666D01*
X104425771Y-75986666D02*
X104425771Y-75843809D01*
X104425771Y-75843809D02*
X104473390Y-75748571D01*
X104473390Y-75748571D02*
X104521009Y-75700952D01*
X104521009Y-75700952D02*
X104616247Y-75653333D01*
X104616247Y-75653333D02*
X104854342Y-75653333D01*
X104854342Y-75653333D02*
X104949580Y-75700952D01*
X104949580Y-75700952D02*
X104997200Y-75748571D01*
X104997200Y-75748571D02*
X105044819Y-75843809D01*
X105044819Y-75843809D02*
X105044819Y-76129523D01*
X105044819Y-76129523D02*
X104997200Y-76224761D01*
X104997200Y-76224761D02*
X104949580Y-76272380D01*
X104044819Y-47653333D02*
X104759104Y-47653333D01*
X104759104Y-47653333D02*
X104901961Y-47700952D01*
X104901961Y-47700952D02*
X104997200Y-47796190D01*
X104997200Y-47796190D02*
X105044819Y-47939047D01*
X105044819Y-47939047D02*
X105044819Y-48034285D01*
X104044819Y-47272380D02*
X104044819Y-46653333D01*
X104044819Y-46653333D02*
X104425771Y-46986666D01*
X104425771Y-46986666D02*
X104425771Y-46843809D01*
X104425771Y-46843809D02*
X104473390Y-46748571D01*
X104473390Y-46748571D02*
X104521009Y-46700952D01*
X104521009Y-46700952D02*
X104616247Y-46653333D01*
X104616247Y-46653333D02*
X104854342Y-46653333D01*
X104854342Y-46653333D02*
X104949580Y-46700952D01*
X104949580Y-46700952D02*
X104997200Y-46748571D01*
X104997200Y-46748571D02*
X105044819Y-46843809D01*
X105044819Y-46843809D02*
X105044819Y-47129523D01*
X105044819Y-47129523D02*
X104997200Y-47224761D01*
X104997200Y-47224761D02*
X104949580Y-47272380D01*
D12*
%TO.C,J3*%
X100780000Y-104380000D02*
X105600000Y-104380000D01*
X100780000Y-104380000D02*
X100780000Y-103830000D01*
X105600000Y-104380000D02*
X105600000Y-97660000D01*
D13*
X101190000Y-103980000D02*
X100780000Y-104120000D01*
X100780000Y-103830000D02*
X101190000Y-103980000D01*
D12*
X100780000Y-103830000D02*
X98780000Y-103830000D01*
X98780000Y-98210000D02*
X98780000Y-103830000D01*
X100780000Y-98210000D02*
X98780000Y-98210000D01*
X100780000Y-97660000D02*
X100780000Y-98210000D01*
X105600000Y-97660000D02*
X100780000Y-97660000D01*
X100780000Y-75380000D02*
X105600000Y-75380000D01*
X100780000Y-75380000D02*
X100780000Y-74830000D01*
X105600000Y-75380000D02*
X105600000Y-68660000D01*
D13*
X101190000Y-74980000D02*
X100780000Y-75120000D01*
X100780000Y-74830000D02*
X101190000Y-74980000D01*
D12*
X100780000Y-74830000D02*
X98780000Y-74830000D01*
X98780000Y-69210000D02*
X98780000Y-74830000D01*
X100780000Y-69210000D02*
X98780000Y-69210000D01*
X100780000Y-68660000D02*
X100780000Y-69210000D01*
X105600000Y-68660000D02*
X100780000Y-68660000D01*
X100780000Y-46380000D02*
X105600000Y-46380000D01*
X100780000Y-46380000D02*
X100780000Y-45830000D01*
X105600000Y-46380000D02*
X105600000Y-39660000D01*
D13*
X101190000Y-45980000D02*
X100780000Y-46120000D01*
X100780000Y-45830000D02*
X101190000Y-45980000D01*
D12*
X100780000Y-45830000D02*
X98780000Y-45830000D01*
X98780000Y-40210000D02*
X98780000Y-45830000D01*
X100780000Y-40210000D02*
X98780000Y-40210000D01*
X100780000Y-39660000D02*
X100780000Y-40210000D01*
X105600000Y-39660000D02*
X100780000Y-39660000D01*
%TD*%
D14*
X96140000Y-91870000D02*
X100640000Y-91870000D01*
X45640000Y-120020000D02*
X45640000Y-91020000D01*
X54640000Y-91020000D02*
X54640000Y-91870000D01*
X105940000Y-95720000D02*
X105940000Y-115320000D01*
X100640000Y-91870000D02*
X100640000Y-95720000D01*
X96140000Y-100170000D02*
X96140000Y-91870000D01*
X105940000Y-115320000D02*
X100640000Y-115320000D01*
X54640000Y-91870000D02*
X68640000Y-91870000D01*
X68640000Y-91870000D02*
X68640000Y-100170000D01*
X45640000Y-91020000D02*
X54640000Y-91020000D01*
X100640000Y-95720000D02*
X105940000Y-95720000D01*
X100640000Y-119170000D02*
X54640000Y-119170000D01*
X100640000Y-115320000D02*
X100640000Y-119170000D01*
X54640000Y-120020000D02*
X45640000Y-120020000D01*
X68640000Y-100170000D02*
X96140000Y-100170000D01*
X54640000Y-120020000D02*
X54640000Y-119170000D01*
X96140000Y-62870000D02*
X100640000Y-62870000D01*
X45640000Y-91020000D02*
X45640000Y-62020000D01*
X54640000Y-62020000D02*
X54640000Y-62870000D01*
X105940000Y-66720000D02*
X105940000Y-86320000D01*
X100640000Y-62870000D02*
X100640000Y-66720000D01*
X96140000Y-71170000D02*
X96140000Y-62870000D01*
X105940000Y-86320000D02*
X100640000Y-86320000D01*
X54640000Y-62870000D02*
X68640000Y-62870000D01*
X68640000Y-62870000D02*
X68640000Y-71170000D01*
X45640000Y-62020000D02*
X54640000Y-62020000D01*
X100640000Y-66720000D02*
X105940000Y-66720000D01*
X100640000Y-90170000D02*
X54640000Y-90170000D01*
X100640000Y-86320000D02*
X100640000Y-90170000D01*
X54640000Y-91020000D02*
X45640000Y-91020000D01*
X68640000Y-71170000D02*
X96140000Y-71170000D01*
X54640000Y-91020000D02*
X54640000Y-90170000D01*
X54640000Y-62020000D02*
X54640000Y-61170000D01*
X68640000Y-42170000D02*
X96140000Y-42170000D01*
X54640000Y-62020000D02*
X45640000Y-62020000D01*
X100640000Y-57320000D02*
X100640000Y-61170000D01*
X100640000Y-61170000D02*
X54640000Y-61170000D01*
X100640000Y-37720000D02*
X105940000Y-37720000D01*
X45640000Y-33020000D02*
X54640000Y-33020000D01*
X68640000Y-33870000D02*
X68640000Y-42170000D01*
X54640000Y-33870000D02*
X68640000Y-33870000D01*
X105940000Y-57320000D02*
X100640000Y-57320000D01*
X96140000Y-42170000D02*
X96140000Y-33870000D01*
X100640000Y-33870000D02*
X100640000Y-37720000D01*
X105940000Y-37720000D02*
X105940000Y-57320000D01*
X54640000Y-33020000D02*
X54640000Y-33870000D01*
X45640000Y-62020000D02*
X45640000Y-33020000D01*
X96140000Y-33870000D02*
X100640000Y-33870000D01*
M02*
