%TF.GenerationSoftware,KiCad,Pcbnew,7.0.11+dfsg-1build4*%
%TF.CreationDate,2025-11-13T13:24:54-05:00*%
%TF.ProjectId,,58585858-5858-4585-9858-585858585858,rev?*%
%TF.SameCoordinates,Original*%
%TF.FileFunction,Legend,Top*%
%TF.FilePolarity,Positive*%
%FSLAX46Y46*%
G04 Gerber Fmt 4.6, Leading zero omitted, Abs format (unit mm)*
G04 Created by KiCad (PCBNEW 7.0.11+dfsg-1build4) date 2025-11-13 13:24:54*
%MOMM*%
%LPD*%
G01*
G04 APERTURE LIST*
%ADD10C,0.200000*%
%ADD11C,0.150000*%
%ADD12C,0.120000*%
%ADD13C,0.100000*%
%TA.AperFunction,Profile*%
%ADD14C,0.050000*%
%TD*%
G04 APERTURE END LIST*
D10*
X94701101Y-104831695D02*
X94243958Y-104831695D01*
X94472530Y-104831695D02*
X94472530Y-104031695D01*
X94472530Y-104031695D02*
X94396339Y-104145980D01*
X94396339Y-104145980D02*
X94320149Y-104222171D01*
X94320149Y-104222171D02*
X94243958Y-104260266D01*
X92524911Y-110311695D02*
X92372530Y-110311695D01*
X92372530Y-110311695D02*
X92296339Y-110349790D01*
X92296339Y-110349790D02*
X92258244Y-110387885D01*
X92258244Y-110387885D02*
X92182054Y-110502171D01*
X92182054Y-110502171D02*
X92143958Y-110654552D01*
X92143958Y-110654552D02*
X92143958Y-110959314D01*
X92143958Y-110959314D02*
X92182054Y-111035504D01*
X92182054Y-111035504D02*
X92220149Y-111073600D01*
X92220149Y-111073600D02*
X92296339Y-111111695D01*
X92296339Y-111111695D02*
X92448720Y-111111695D01*
X92448720Y-111111695D02*
X92524911Y-111073600D01*
X92524911Y-111073600D02*
X92563006Y-111035504D01*
X92563006Y-111035504D02*
X92601101Y-110959314D01*
X92601101Y-110959314D02*
X92601101Y-110768838D01*
X92601101Y-110768838D02*
X92563006Y-110692647D01*
X92563006Y-110692647D02*
X92524911Y-110654552D01*
X92524911Y-110654552D02*
X92448720Y-110616457D01*
X92448720Y-110616457D02*
X92296339Y-110616457D01*
X92296339Y-110616457D02*
X92220149Y-110654552D01*
X92220149Y-110654552D02*
X92182054Y-110692647D01*
X92182054Y-110692647D02*
X92143958Y-110768838D01*
X94205863Y-92171695D02*
X94701101Y-92171695D01*
X94701101Y-92171695D02*
X94434435Y-92476457D01*
X94434435Y-92476457D02*
X94548720Y-92476457D01*
X94548720Y-92476457D02*
X94624911Y-92514552D01*
X94624911Y-92514552D02*
X94663006Y-92552647D01*
X94663006Y-92552647D02*
X94701101Y-92628838D01*
X94701101Y-92628838D02*
X94701101Y-92819314D01*
X94701101Y-92819314D02*
X94663006Y-92895504D01*
X94663006Y-92895504D02*
X94624911Y-92933600D01*
X94624911Y-92933600D02*
X94548720Y-92971695D01*
X94548720Y-92971695D02*
X94320149Y-92971695D01*
X94320149Y-92971695D02*
X94243958Y-92933600D01*
X94243958Y-92933600D02*
X94205863Y-92895504D01*
X92143958Y-105307885D02*
X92182054Y-105269790D01*
X92182054Y-105269790D02*
X92258244Y-105231695D01*
X92258244Y-105231695D02*
X92448720Y-105231695D01*
X92448720Y-105231695D02*
X92524911Y-105269790D01*
X92524911Y-105269790D02*
X92563006Y-105307885D01*
X92563006Y-105307885D02*
X92601101Y-105384076D01*
X92601101Y-105384076D02*
X92601101Y-105460266D01*
X92601101Y-105460266D02*
X92563006Y-105574552D01*
X92563006Y-105574552D02*
X92105863Y-106031695D01*
X92105863Y-106031695D02*
X92601101Y-106031695D01*
X94701101Y-90431695D02*
X94243958Y-90431695D01*
X94472530Y-90431695D02*
X94472530Y-89631695D01*
X94472530Y-89631695D02*
X94396339Y-89745980D01*
X94396339Y-89745980D02*
X94320149Y-89822171D01*
X94320149Y-89822171D02*
X94243958Y-89860266D01*
X92143958Y-90907885D02*
X92182054Y-90869790D01*
X92182054Y-90869790D02*
X92258244Y-90831695D01*
X92258244Y-90831695D02*
X92448720Y-90831695D01*
X92448720Y-90831695D02*
X92524911Y-90869790D01*
X92524911Y-90869790D02*
X92563006Y-90907885D01*
X92563006Y-90907885D02*
X92601101Y-90984076D01*
X92601101Y-90984076D02*
X92601101Y-91060266D01*
X92601101Y-91060266D02*
X92563006Y-91174552D01*
X92563006Y-91174552D02*
X92105863Y-91631695D01*
X92105863Y-91631695D02*
X92601101Y-91631695D01*
X94663006Y-94711695D02*
X94282054Y-94711695D01*
X94282054Y-94711695D02*
X94243958Y-95092647D01*
X94243958Y-95092647D02*
X94282054Y-95054552D01*
X94282054Y-95054552D02*
X94358244Y-95016457D01*
X94358244Y-95016457D02*
X94548720Y-95016457D01*
X94548720Y-95016457D02*
X94624911Y-95054552D01*
X94624911Y-95054552D02*
X94663006Y-95092647D01*
X94663006Y-95092647D02*
X94701101Y-95168838D01*
X94701101Y-95168838D02*
X94701101Y-95359314D01*
X94701101Y-95359314D02*
X94663006Y-95435504D01*
X94663006Y-95435504D02*
X94624911Y-95473600D01*
X94624911Y-95473600D02*
X94548720Y-95511695D01*
X94548720Y-95511695D02*
X94358244Y-95511695D01*
X94358244Y-95511695D02*
X94282054Y-95473600D01*
X94282054Y-95473600D02*
X94243958Y-95435504D01*
X92524911Y-93638361D02*
X92524911Y-94171695D01*
X92334435Y-93333600D02*
X92143958Y-93905028D01*
X92143958Y-93905028D02*
X92639197Y-93905028D01*
X94205863Y-106571695D02*
X94701101Y-106571695D01*
X94701101Y-106571695D02*
X94434435Y-106876457D01*
X94434435Y-106876457D02*
X94548720Y-106876457D01*
X94548720Y-106876457D02*
X94624911Y-106914552D01*
X94624911Y-106914552D02*
X94663006Y-106952647D01*
X94663006Y-106952647D02*
X94701101Y-107028838D01*
X94701101Y-107028838D02*
X94701101Y-107219314D01*
X94701101Y-107219314D02*
X94663006Y-107295504D01*
X94663006Y-107295504D02*
X94624911Y-107333600D01*
X94624911Y-107333600D02*
X94548720Y-107371695D01*
X94548720Y-107371695D02*
X94320149Y-107371695D01*
X94320149Y-107371695D02*
X94243958Y-107333600D01*
X94243958Y-107333600D02*
X94205863Y-107295504D01*
X94663006Y-109111695D02*
X94282054Y-109111695D01*
X94282054Y-109111695D02*
X94243958Y-109492647D01*
X94243958Y-109492647D02*
X94282054Y-109454552D01*
X94282054Y-109454552D02*
X94358244Y-109416457D01*
X94358244Y-109416457D02*
X94548720Y-109416457D01*
X94548720Y-109416457D02*
X94624911Y-109454552D01*
X94624911Y-109454552D02*
X94663006Y-109492647D01*
X94663006Y-109492647D02*
X94701101Y-109568838D01*
X94701101Y-109568838D02*
X94701101Y-109759314D01*
X94701101Y-109759314D02*
X94663006Y-109835504D01*
X94663006Y-109835504D02*
X94624911Y-109873600D01*
X94624911Y-109873600D02*
X94548720Y-109911695D01*
X94548720Y-109911695D02*
X94358244Y-109911695D01*
X94358244Y-109911695D02*
X94282054Y-109873600D01*
X94282054Y-109873600D02*
X94243958Y-109835504D01*
X92524911Y-108038361D02*
X92524911Y-108571695D01*
X92334435Y-107733600D02*
X92143958Y-108305028D01*
X92143958Y-108305028D02*
X92639197Y-108305028D01*
X92524911Y-95911695D02*
X92372530Y-95911695D01*
X92372530Y-95911695D02*
X92296339Y-95949790D01*
X92296339Y-95949790D02*
X92258244Y-95987885D01*
X92258244Y-95987885D02*
X92182054Y-96102171D01*
X92182054Y-96102171D02*
X92143958Y-96254552D01*
X92143958Y-96254552D02*
X92143958Y-96559314D01*
X92143958Y-96559314D02*
X92182054Y-96635504D01*
X92182054Y-96635504D02*
X92220149Y-96673600D01*
X92220149Y-96673600D02*
X92296339Y-96711695D01*
X92296339Y-96711695D02*
X92448720Y-96711695D01*
X92448720Y-96711695D02*
X92524911Y-96673600D01*
X92524911Y-96673600D02*
X92563006Y-96635504D01*
X92563006Y-96635504D02*
X92601101Y-96559314D01*
X92601101Y-96559314D02*
X92601101Y-96368838D01*
X92601101Y-96368838D02*
X92563006Y-96292647D01*
X92563006Y-96292647D02*
X92524911Y-96254552D01*
X92524911Y-96254552D02*
X92448720Y-96216457D01*
X92448720Y-96216457D02*
X92296339Y-96216457D01*
X92296339Y-96216457D02*
X92220149Y-96254552D01*
X92220149Y-96254552D02*
X92182054Y-96292647D01*
X92182054Y-96292647D02*
X92143958Y-96368838D01*
X94701101Y-75831695D02*
X94243958Y-75831695D01*
X94472530Y-75831695D02*
X94472530Y-75031695D01*
X94472530Y-75031695D02*
X94396339Y-75145980D01*
X94396339Y-75145980D02*
X94320149Y-75222171D01*
X94320149Y-75222171D02*
X94243958Y-75260266D01*
X92524911Y-81311695D02*
X92372530Y-81311695D01*
X92372530Y-81311695D02*
X92296339Y-81349790D01*
X92296339Y-81349790D02*
X92258244Y-81387885D01*
X92258244Y-81387885D02*
X92182054Y-81502171D01*
X92182054Y-81502171D02*
X92143958Y-81654552D01*
X92143958Y-81654552D02*
X92143958Y-81959314D01*
X92143958Y-81959314D02*
X92182054Y-82035504D01*
X92182054Y-82035504D02*
X92220149Y-82073600D01*
X92220149Y-82073600D02*
X92296339Y-82111695D01*
X92296339Y-82111695D02*
X92448720Y-82111695D01*
X92448720Y-82111695D02*
X92524911Y-82073600D01*
X92524911Y-82073600D02*
X92563006Y-82035504D01*
X92563006Y-82035504D02*
X92601101Y-81959314D01*
X92601101Y-81959314D02*
X92601101Y-81768838D01*
X92601101Y-81768838D02*
X92563006Y-81692647D01*
X92563006Y-81692647D02*
X92524911Y-81654552D01*
X92524911Y-81654552D02*
X92448720Y-81616457D01*
X92448720Y-81616457D02*
X92296339Y-81616457D01*
X92296339Y-81616457D02*
X92220149Y-81654552D01*
X92220149Y-81654552D02*
X92182054Y-81692647D01*
X92182054Y-81692647D02*
X92143958Y-81768838D01*
X94205863Y-63171695D02*
X94701101Y-63171695D01*
X94701101Y-63171695D02*
X94434435Y-63476457D01*
X94434435Y-63476457D02*
X94548720Y-63476457D01*
X94548720Y-63476457D02*
X94624911Y-63514552D01*
X94624911Y-63514552D02*
X94663006Y-63552647D01*
X94663006Y-63552647D02*
X94701101Y-63628838D01*
X94701101Y-63628838D02*
X94701101Y-63819314D01*
X94701101Y-63819314D02*
X94663006Y-63895504D01*
X94663006Y-63895504D02*
X94624911Y-63933600D01*
X94624911Y-63933600D02*
X94548720Y-63971695D01*
X94548720Y-63971695D02*
X94320149Y-63971695D01*
X94320149Y-63971695D02*
X94243958Y-63933600D01*
X94243958Y-63933600D02*
X94205863Y-63895504D01*
X92143958Y-76307885D02*
X92182054Y-76269790D01*
X92182054Y-76269790D02*
X92258244Y-76231695D01*
X92258244Y-76231695D02*
X92448720Y-76231695D01*
X92448720Y-76231695D02*
X92524911Y-76269790D01*
X92524911Y-76269790D02*
X92563006Y-76307885D01*
X92563006Y-76307885D02*
X92601101Y-76384076D01*
X92601101Y-76384076D02*
X92601101Y-76460266D01*
X92601101Y-76460266D02*
X92563006Y-76574552D01*
X92563006Y-76574552D02*
X92105863Y-77031695D01*
X92105863Y-77031695D02*
X92601101Y-77031695D01*
X94701101Y-61431695D02*
X94243958Y-61431695D01*
X94472530Y-61431695D02*
X94472530Y-60631695D01*
X94472530Y-60631695D02*
X94396339Y-60745980D01*
X94396339Y-60745980D02*
X94320149Y-60822171D01*
X94320149Y-60822171D02*
X94243958Y-60860266D01*
X92143958Y-61907885D02*
X92182054Y-61869790D01*
X92182054Y-61869790D02*
X92258244Y-61831695D01*
X92258244Y-61831695D02*
X92448720Y-61831695D01*
X92448720Y-61831695D02*
X92524911Y-61869790D01*
X92524911Y-61869790D02*
X92563006Y-61907885D01*
X92563006Y-61907885D02*
X92601101Y-61984076D01*
X92601101Y-61984076D02*
X92601101Y-62060266D01*
X92601101Y-62060266D02*
X92563006Y-62174552D01*
X92563006Y-62174552D02*
X92105863Y-62631695D01*
X92105863Y-62631695D02*
X92601101Y-62631695D01*
X94663006Y-65711695D02*
X94282054Y-65711695D01*
X94282054Y-65711695D02*
X94243958Y-66092647D01*
X94243958Y-66092647D02*
X94282054Y-66054552D01*
X94282054Y-66054552D02*
X94358244Y-66016457D01*
X94358244Y-66016457D02*
X94548720Y-66016457D01*
X94548720Y-66016457D02*
X94624911Y-66054552D01*
X94624911Y-66054552D02*
X94663006Y-66092647D01*
X94663006Y-66092647D02*
X94701101Y-66168838D01*
X94701101Y-66168838D02*
X94701101Y-66359314D01*
X94701101Y-66359314D02*
X94663006Y-66435504D01*
X94663006Y-66435504D02*
X94624911Y-66473600D01*
X94624911Y-66473600D02*
X94548720Y-66511695D01*
X94548720Y-66511695D02*
X94358244Y-66511695D01*
X94358244Y-66511695D02*
X94282054Y-66473600D01*
X94282054Y-66473600D02*
X94243958Y-66435504D01*
X92524911Y-64638361D02*
X92524911Y-65171695D01*
X92334435Y-64333600D02*
X92143958Y-64905028D01*
X92143958Y-64905028D02*
X92639197Y-64905028D01*
X94205863Y-77571695D02*
X94701101Y-77571695D01*
X94701101Y-77571695D02*
X94434435Y-77876457D01*
X94434435Y-77876457D02*
X94548720Y-77876457D01*
X94548720Y-77876457D02*
X94624911Y-77914552D01*
X94624911Y-77914552D02*
X94663006Y-77952647D01*
X94663006Y-77952647D02*
X94701101Y-78028838D01*
X94701101Y-78028838D02*
X94701101Y-78219314D01*
X94701101Y-78219314D02*
X94663006Y-78295504D01*
X94663006Y-78295504D02*
X94624911Y-78333600D01*
X94624911Y-78333600D02*
X94548720Y-78371695D01*
X94548720Y-78371695D02*
X94320149Y-78371695D01*
X94320149Y-78371695D02*
X94243958Y-78333600D01*
X94243958Y-78333600D02*
X94205863Y-78295504D01*
X94663006Y-80111695D02*
X94282054Y-80111695D01*
X94282054Y-80111695D02*
X94243958Y-80492647D01*
X94243958Y-80492647D02*
X94282054Y-80454552D01*
X94282054Y-80454552D02*
X94358244Y-80416457D01*
X94358244Y-80416457D02*
X94548720Y-80416457D01*
X94548720Y-80416457D02*
X94624911Y-80454552D01*
X94624911Y-80454552D02*
X94663006Y-80492647D01*
X94663006Y-80492647D02*
X94701101Y-80568838D01*
X94701101Y-80568838D02*
X94701101Y-80759314D01*
X94701101Y-80759314D02*
X94663006Y-80835504D01*
X94663006Y-80835504D02*
X94624911Y-80873600D01*
X94624911Y-80873600D02*
X94548720Y-80911695D01*
X94548720Y-80911695D02*
X94358244Y-80911695D01*
X94358244Y-80911695D02*
X94282054Y-80873600D01*
X94282054Y-80873600D02*
X94243958Y-80835504D01*
X92524911Y-79038361D02*
X92524911Y-79571695D01*
X92334435Y-78733600D02*
X92143958Y-79305028D01*
X92143958Y-79305028D02*
X92639197Y-79305028D01*
X92524911Y-66911695D02*
X92372530Y-66911695D01*
X92372530Y-66911695D02*
X92296339Y-66949790D01*
X92296339Y-66949790D02*
X92258244Y-66987885D01*
X92258244Y-66987885D02*
X92182054Y-67102171D01*
X92182054Y-67102171D02*
X92143958Y-67254552D01*
X92143958Y-67254552D02*
X92143958Y-67559314D01*
X92143958Y-67559314D02*
X92182054Y-67635504D01*
X92182054Y-67635504D02*
X92220149Y-67673600D01*
X92220149Y-67673600D02*
X92296339Y-67711695D01*
X92296339Y-67711695D02*
X92448720Y-67711695D01*
X92448720Y-67711695D02*
X92524911Y-67673600D01*
X92524911Y-67673600D02*
X92563006Y-67635504D01*
X92563006Y-67635504D02*
X92601101Y-67559314D01*
X92601101Y-67559314D02*
X92601101Y-67368838D01*
X92601101Y-67368838D02*
X92563006Y-67292647D01*
X92563006Y-67292647D02*
X92524911Y-67254552D01*
X92524911Y-67254552D02*
X92448720Y-67216457D01*
X92448720Y-67216457D02*
X92296339Y-67216457D01*
X92296339Y-67216457D02*
X92220149Y-67254552D01*
X92220149Y-67254552D02*
X92182054Y-67292647D01*
X92182054Y-67292647D02*
X92143958Y-67368838D01*
X92524911Y-37911695D02*
X92372530Y-37911695D01*
X92372530Y-37911695D02*
X92296339Y-37949790D01*
X92296339Y-37949790D02*
X92258244Y-37987885D01*
X92258244Y-37987885D02*
X92182054Y-38102171D01*
X92182054Y-38102171D02*
X92143958Y-38254552D01*
X92143958Y-38254552D02*
X92143958Y-38559314D01*
X92143958Y-38559314D02*
X92182054Y-38635504D01*
X92182054Y-38635504D02*
X92220149Y-38673600D01*
X92220149Y-38673600D02*
X92296339Y-38711695D01*
X92296339Y-38711695D02*
X92448720Y-38711695D01*
X92448720Y-38711695D02*
X92524911Y-38673600D01*
X92524911Y-38673600D02*
X92563006Y-38635504D01*
X92563006Y-38635504D02*
X92601101Y-38559314D01*
X92601101Y-38559314D02*
X92601101Y-38368838D01*
X92601101Y-38368838D02*
X92563006Y-38292647D01*
X92563006Y-38292647D02*
X92524911Y-38254552D01*
X92524911Y-38254552D02*
X92448720Y-38216457D01*
X92448720Y-38216457D02*
X92296339Y-38216457D01*
X92296339Y-38216457D02*
X92220149Y-38254552D01*
X92220149Y-38254552D02*
X92182054Y-38292647D01*
X92182054Y-38292647D02*
X92143958Y-38368838D01*
X92524911Y-50038361D02*
X92524911Y-50571695D01*
X92334435Y-49733600D02*
X92143958Y-50305028D01*
X92143958Y-50305028D02*
X92639197Y-50305028D01*
X94663006Y-51111695D02*
X94282054Y-51111695D01*
X94282054Y-51111695D02*
X94243958Y-51492647D01*
X94243958Y-51492647D02*
X94282054Y-51454552D01*
X94282054Y-51454552D02*
X94358244Y-51416457D01*
X94358244Y-51416457D02*
X94548720Y-51416457D01*
X94548720Y-51416457D02*
X94624911Y-51454552D01*
X94624911Y-51454552D02*
X94663006Y-51492647D01*
X94663006Y-51492647D02*
X94701101Y-51568838D01*
X94701101Y-51568838D02*
X94701101Y-51759314D01*
X94701101Y-51759314D02*
X94663006Y-51835504D01*
X94663006Y-51835504D02*
X94624911Y-51873600D01*
X94624911Y-51873600D02*
X94548720Y-51911695D01*
X94548720Y-51911695D02*
X94358244Y-51911695D01*
X94358244Y-51911695D02*
X94282054Y-51873600D01*
X94282054Y-51873600D02*
X94243958Y-51835504D01*
X94205863Y-48571695D02*
X94701101Y-48571695D01*
X94701101Y-48571695D02*
X94434435Y-48876457D01*
X94434435Y-48876457D02*
X94548720Y-48876457D01*
X94548720Y-48876457D02*
X94624911Y-48914552D01*
X94624911Y-48914552D02*
X94663006Y-48952647D01*
X94663006Y-48952647D02*
X94701101Y-49028838D01*
X94701101Y-49028838D02*
X94701101Y-49219314D01*
X94701101Y-49219314D02*
X94663006Y-49295504D01*
X94663006Y-49295504D02*
X94624911Y-49333600D01*
X94624911Y-49333600D02*
X94548720Y-49371695D01*
X94548720Y-49371695D02*
X94320149Y-49371695D01*
X94320149Y-49371695D02*
X94243958Y-49333600D01*
X94243958Y-49333600D02*
X94205863Y-49295504D01*
X92524911Y-35638361D02*
X92524911Y-36171695D01*
X92334435Y-35333600D02*
X92143958Y-35905028D01*
X92143958Y-35905028D02*
X92639197Y-35905028D01*
X94663006Y-36711695D02*
X94282054Y-36711695D01*
X94282054Y-36711695D02*
X94243958Y-37092647D01*
X94243958Y-37092647D02*
X94282054Y-37054552D01*
X94282054Y-37054552D02*
X94358244Y-37016457D01*
X94358244Y-37016457D02*
X94548720Y-37016457D01*
X94548720Y-37016457D02*
X94624911Y-37054552D01*
X94624911Y-37054552D02*
X94663006Y-37092647D01*
X94663006Y-37092647D02*
X94701101Y-37168838D01*
X94701101Y-37168838D02*
X94701101Y-37359314D01*
X94701101Y-37359314D02*
X94663006Y-37435504D01*
X94663006Y-37435504D02*
X94624911Y-37473600D01*
X94624911Y-37473600D02*
X94548720Y-37511695D01*
X94548720Y-37511695D02*
X94358244Y-37511695D01*
X94358244Y-37511695D02*
X94282054Y-37473600D01*
X94282054Y-37473600D02*
X94243958Y-37435504D01*
X92143958Y-32907885D02*
X92182054Y-32869790D01*
X92182054Y-32869790D02*
X92258244Y-32831695D01*
X92258244Y-32831695D02*
X92448720Y-32831695D01*
X92448720Y-32831695D02*
X92524911Y-32869790D01*
X92524911Y-32869790D02*
X92563006Y-32907885D01*
X92563006Y-32907885D02*
X92601101Y-32984076D01*
X92601101Y-32984076D02*
X92601101Y-33060266D01*
X92601101Y-33060266D02*
X92563006Y-33174552D01*
X92563006Y-33174552D02*
X92105863Y-33631695D01*
X92105863Y-33631695D02*
X92601101Y-33631695D01*
X94701101Y-32431695D02*
X94243958Y-32431695D01*
X94472530Y-32431695D02*
X94472530Y-31631695D01*
X94472530Y-31631695D02*
X94396339Y-31745980D01*
X94396339Y-31745980D02*
X94320149Y-31822171D01*
X94320149Y-31822171D02*
X94243958Y-31860266D01*
X92143958Y-47307885D02*
X92182054Y-47269790D01*
X92182054Y-47269790D02*
X92258244Y-47231695D01*
X92258244Y-47231695D02*
X92448720Y-47231695D01*
X92448720Y-47231695D02*
X92524911Y-47269790D01*
X92524911Y-47269790D02*
X92563006Y-47307885D01*
X92563006Y-47307885D02*
X92601101Y-47384076D01*
X92601101Y-47384076D02*
X92601101Y-47460266D01*
X92601101Y-47460266D02*
X92563006Y-47574552D01*
X92563006Y-47574552D02*
X92105863Y-48031695D01*
X92105863Y-48031695D02*
X92601101Y-48031695D01*
X94205863Y-34171695D02*
X94701101Y-34171695D01*
X94701101Y-34171695D02*
X94434435Y-34476457D01*
X94434435Y-34476457D02*
X94548720Y-34476457D01*
X94548720Y-34476457D02*
X94624911Y-34514552D01*
X94624911Y-34514552D02*
X94663006Y-34552647D01*
X94663006Y-34552647D02*
X94701101Y-34628838D01*
X94701101Y-34628838D02*
X94701101Y-34819314D01*
X94701101Y-34819314D02*
X94663006Y-34895504D01*
X94663006Y-34895504D02*
X94624911Y-34933600D01*
X94624911Y-34933600D02*
X94548720Y-34971695D01*
X94548720Y-34971695D02*
X94320149Y-34971695D01*
X94320149Y-34971695D02*
X94243958Y-34933600D01*
X94243958Y-34933600D02*
X94205863Y-34895504D01*
X92524911Y-52311695D02*
X92372530Y-52311695D01*
X92372530Y-52311695D02*
X92296339Y-52349790D01*
X92296339Y-52349790D02*
X92258244Y-52387885D01*
X92258244Y-52387885D02*
X92182054Y-52502171D01*
X92182054Y-52502171D02*
X92143958Y-52654552D01*
X92143958Y-52654552D02*
X92143958Y-52959314D01*
X92143958Y-52959314D02*
X92182054Y-53035504D01*
X92182054Y-53035504D02*
X92220149Y-53073600D01*
X92220149Y-53073600D02*
X92296339Y-53111695D01*
X92296339Y-53111695D02*
X92448720Y-53111695D01*
X92448720Y-53111695D02*
X92524911Y-53073600D01*
X92524911Y-53073600D02*
X92563006Y-53035504D01*
X92563006Y-53035504D02*
X92601101Y-52959314D01*
X92601101Y-52959314D02*
X92601101Y-52768838D01*
X92601101Y-52768838D02*
X92563006Y-52692647D01*
X92563006Y-52692647D02*
X92524911Y-52654552D01*
X92524911Y-52654552D02*
X92448720Y-52616457D01*
X92448720Y-52616457D02*
X92296339Y-52616457D01*
X92296339Y-52616457D02*
X92220149Y-52654552D01*
X92220149Y-52654552D02*
X92182054Y-52692647D01*
X92182054Y-52692647D02*
X92143958Y-52768838D01*
X94701101Y-46831695D02*
X94243958Y-46831695D01*
X94472530Y-46831695D02*
X94472530Y-46031695D01*
X94472530Y-46031695D02*
X94396339Y-46145980D01*
X94396339Y-46145980D02*
X94320149Y-46222171D01*
X94320149Y-46222171D02*
X94243958Y-46260266D01*
D11*
X149814819Y-101273333D02*
X150529104Y-101273333D01*
X150529104Y-101273333D02*
X150671961Y-101320952D01*
X150671961Y-101320952D02*
X150767200Y-101416190D01*
X150767200Y-101416190D02*
X150814819Y-101559047D01*
X150814819Y-101559047D02*
X150814819Y-101654285D01*
X149814819Y-100892380D02*
X149814819Y-100273333D01*
X149814819Y-100273333D02*
X150195771Y-100606666D01*
X150195771Y-100606666D02*
X150195771Y-100463809D01*
X150195771Y-100463809D02*
X150243390Y-100368571D01*
X150243390Y-100368571D02*
X150291009Y-100320952D01*
X150291009Y-100320952D02*
X150386247Y-100273333D01*
X150386247Y-100273333D02*
X150624342Y-100273333D01*
X150624342Y-100273333D02*
X150719580Y-100320952D01*
X150719580Y-100320952D02*
X150767200Y-100368571D01*
X150767200Y-100368571D02*
X150814819Y-100463809D01*
X150814819Y-100463809D02*
X150814819Y-100749523D01*
X150814819Y-100749523D02*
X150767200Y-100844761D01*
X150767200Y-100844761D02*
X150719580Y-100892380D01*
X149814819Y-72273333D02*
X150529104Y-72273333D01*
X150529104Y-72273333D02*
X150671961Y-72320952D01*
X150671961Y-72320952D02*
X150767200Y-72416190D01*
X150767200Y-72416190D02*
X150814819Y-72559047D01*
X150814819Y-72559047D02*
X150814819Y-72654285D01*
X149814819Y-71892380D02*
X149814819Y-71273333D01*
X149814819Y-71273333D02*
X150195771Y-71606666D01*
X150195771Y-71606666D02*
X150195771Y-71463809D01*
X150195771Y-71463809D02*
X150243390Y-71368571D01*
X150243390Y-71368571D02*
X150291009Y-71320952D01*
X150291009Y-71320952D02*
X150386247Y-71273333D01*
X150386247Y-71273333D02*
X150624342Y-71273333D01*
X150624342Y-71273333D02*
X150719580Y-71320952D01*
X150719580Y-71320952D02*
X150767200Y-71368571D01*
X150767200Y-71368571D02*
X150814819Y-71463809D01*
X150814819Y-71463809D02*
X150814819Y-71749523D01*
X150814819Y-71749523D02*
X150767200Y-71844761D01*
X150767200Y-71844761D02*
X150719580Y-71892380D01*
X149814819Y-43273333D02*
X150529104Y-43273333D01*
X150529104Y-43273333D02*
X150671961Y-43320952D01*
X150671961Y-43320952D02*
X150767200Y-43416190D01*
X150767200Y-43416190D02*
X150814819Y-43559047D01*
X150814819Y-43559047D02*
X150814819Y-43654285D01*
X149814819Y-42892380D02*
X149814819Y-42273333D01*
X149814819Y-42273333D02*
X150195771Y-42606666D01*
X150195771Y-42606666D02*
X150195771Y-42463809D01*
X150195771Y-42463809D02*
X150243390Y-42368571D01*
X150243390Y-42368571D02*
X150291009Y-42320952D01*
X150291009Y-42320952D02*
X150386247Y-42273333D01*
X150386247Y-42273333D02*
X150624342Y-42273333D01*
X150624342Y-42273333D02*
X150719580Y-42320952D01*
X150719580Y-42320952D02*
X150767200Y-42368571D01*
X150767200Y-42368571D02*
X150814819Y-42463809D01*
X150814819Y-42463809D02*
X150814819Y-42749523D01*
X150814819Y-42749523D02*
X150767200Y-42844761D01*
X150767200Y-42844761D02*
X150719580Y-42892380D01*
D12*
%TO.C,J3*%
X146550000Y-99300000D02*
X151370000Y-99300000D01*
X146550000Y-99300000D02*
X146550000Y-98750000D01*
X151370000Y-99300000D02*
X151370000Y-92580000D01*
D13*
X146960000Y-98900000D02*
X146550000Y-99040000D01*
X146550000Y-98750000D02*
X146960000Y-98900000D01*
D12*
X146550000Y-98750000D02*
X144550000Y-98750000D01*
X144550000Y-93130000D02*
X144550000Y-98750000D01*
X146550000Y-93130000D02*
X144550000Y-93130000D01*
X146550000Y-92580000D02*
X146550000Y-93130000D01*
X151370000Y-92580000D02*
X146550000Y-92580000D01*
X146550000Y-70300000D02*
X151370000Y-70300000D01*
X146550000Y-70300000D02*
X146550000Y-69750000D01*
X151370000Y-70300000D02*
X151370000Y-63580000D01*
D13*
X146960000Y-69900000D02*
X146550000Y-70040000D01*
X146550000Y-69750000D02*
X146960000Y-69900000D01*
D12*
X146550000Y-69750000D02*
X144550000Y-69750000D01*
X144550000Y-64130000D02*
X144550000Y-69750000D01*
X146550000Y-64130000D02*
X144550000Y-64130000D01*
X146550000Y-63580000D02*
X146550000Y-64130000D01*
X151370000Y-63580000D02*
X146550000Y-63580000D01*
X146550000Y-41300000D02*
X151370000Y-41300000D01*
X146550000Y-41300000D02*
X146550000Y-40750000D01*
X151370000Y-41300000D02*
X151370000Y-34580000D01*
D13*
X146960000Y-40900000D02*
X146550000Y-41040000D01*
X146550000Y-40750000D02*
X146960000Y-40900000D01*
D12*
X146550000Y-40750000D02*
X144550000Y-40750000D01*
X144550000Y-35130000D02*
X144550000Y-40750000D01*
X146550000Y-35130000D02*
X144550000Y-35130000D01*
X146550000Y-34580000D02*
X146550000Y-35130000D01*
X151370000Y-34580000D02*
X146550000Y-34580000D01*
%TD*%
D14*
X141860000Y-86790000D02*
X146360000Y-86790000D01*
X91360000Y-114940000D02*
X91360000Y-85940000D01*
X100360000Y-85940000D02*
X100360000Y-86790000D01*
X151660000Y-90640000D02*
X151660000Y-110240000D01*
X146360000Y-86790000D02*
X146360000Y-90640000D01*
X141860000Y-95090000D02*
X141860000Y-86790000D01*
X151660000Y-110240000D02*
X146360000Y-110240000D01*
X100360000Y-86790000D02*
X114360000Y-86790000D01*
X114360000Y-86790000D02*
X114360000Y-95090000D01*
X91360000Y-85940000D02*
X100360000Y-85940000D01*
X146360000Y-90640000D02*
X151660000Y-90640000D01*
X146360000Y-114090000D02*
X100360000Y-114090000D01*
X146360000Y-110240000D02*
X146360000Y-114090000D01*
X100360000Y-114940000D02*
X91360000Y-114940000D01*
X114360000Y-95090000D02*
X141860000Y-95090000D01*
X100360000Y-114940000D02*
X100360000Y-114090000D01*
X141860000Y-57790000D02*
X146360000Y-57790000D01*
X91360000Y-85940000D02*
X91360000Y-56940000D01*
X100360000Y-56940000D02*
X100360000Y-57790000D01*
X151660000Y-61640000D02*
X151660000Y-81240000D01*
X146360000Y-57790000D02*
X146360000Y-61640000D01*
X141860000Y-66090000D02*
X141860000Y-57790000D01*
X151660000Y-81240000D02*
X146360000Y-81240000D01*
X100360000Y-57790000D02*
X114360000Y-57790000D01*
X114360000Y-57790000D02*
X114360000Y-66090000D01*
X91360000Y-56940000D02*
X100360000Y-56940000D01*
X146360000Y-61640000D02*
X151660000Y-61640000D01*
X146360000Y-85090000D02*
X100360000Y-85090000D01*
X146360000Y-81240000D02*
X146360000Y-85090000D01*
X100360000Y-85940000D02*
X91360000Y-85940000D01*
X114360000Y-66090000D02*
X141860000Y-66090000D01*
X100360000Y-85940000D02*
X100360000Y-85090000D01*
X100360000Y-56940000D02*
X100360000Y-56090000D01*
X114360000Y-37090000D02*
X141860000Y-37090000D01*
X100360000Y-56940000D02*
X91360000Y-56940000D01*
X146360000Y-52240000D02*
X146360000Y-56090000D01*
X146360000Y-56090000D02*
X100360000Y-56090000D01*
X146360000Y-32640000D02*
X151660000Y-32640000D01*
X91360000Y-27940000D02*
X100360000Y-27940000D01*
X114360000Y-28790000D02*
X114360000Y-37090000D01*
X100360000Y-28790000D02*
X114360000Y-28790000D01*
X151660000Y-52240000D02*
X146360000Y-52240000D01*
X141860000Y-37090000D02*
X141860000Y-28790000D01*
X146360000Y-28790000D02*
X146360000Y-32640000D01*
X151660000Y-32640000D02*
X151660000Y-52240000D01*
X100360000Y-27940000D02*
X100360000Y-28790000D01*
X91360000Y-56940000D02*
X91360000Y-27940000D01*
X141860000Y-28790000D02*
X146360000Y-28790000D01*
M02*
