M48
; DRILL file {KiCad 7.0.11+dfsg-1build4} date jue 13 nov 2025 13:24:52
; FORMAT={-:-/ absolute / metric / decimal}
; #@! TF.CreationDate,2025-11-13T13:24:52-05:00
; #@! TF.GenerationSoftware,Kicad,Pcbnew,7.0.11+dfsg-1build4
; #@! TF.FileFunction,NonPlated,1,2,NPTH
FMAT,2
METRIC
; #@! TA.AperFunction,NonPlated,NPTH,ComponentDrill
T1C0.650
; #@! TA.AperFunction,NonPlated,NPTH,ComponentDrill
T2C2.200
; #@! TA.AperFunction,NonPlated,NPTH,ComponentDrill
T3C2.500
; #@! TA.AperFunction,NonPlated,NPTH,ComponentDrill
T4C4.000
%
G90
G05
T1
X146.96Y-34.99
X146.96Y-63.99
X146.96Y-92.99
X150.76Y-40.89
X150.76Y-69.89
X150.76Y-98.89
T2
X93.81Y-30.49
X93.81Y-44.84
X93.81Y-59.49
X93.81Y-73.84
X93.81Y-88.49
X93.81Y-102.84
X95.01Y-40.04
X95.01Y-54.39
X95.01Y-69.04
X95.01Y-83.39
X95.01Y-98.04
X95.01Y-112.39
T3
X93.41Y-42.44
X93.41Y-71.44
X93.41Y-100.44
T4
X98.86Y-32.14
X98.86Y-52.74
X98.86Y-61.14
X98.86Y-81.74
X98.86Y-90.14
X98.86Y-110.74
M30
