M48
; DRILL file {KiCad 7.0.11+dfsg-1build4} date lun 29 dic 2025 16:28:20
; FORMAT={-:-/ absolute / metric / decimal}
; #@! TF.CreationDate,2025-12-29T16:28:20-05:00
; #@! TF.GenerationSoftware,Kicad,Pcbnew,7.0.11+dfsg-1build4
; #@! TF.FileFunction,NonPlated,1,2,NPTH
FMAT,2
METRIC
; #@! TA.AperFunction,NonPlated,NPTH,ComponentDrill
T1C0.650
; #@! TA.AperFunction,NonPlated,NPTH,ComponentDrill
T2C0.750
; #@! TA.AperFunction,NonPlated,NPTH,ComponentDrill
T3C2.200
; #@! TA.AperFunction,NonPlated,NPTH,ComponentDrill
T4C2.500
; #@! TA.AperFunction,NonPlated,NPTH,ComponentDrill
T5C4.000
%
G90
G05
T1
X101.19Y-40.07
X101.19Y-69.07
X101.19Y-98.07
X104.99Y-45.97
X104.99Y-74.97
X104.99Y-103.97
T2
X101.19Y-45.97
X101.19Y-74.97
X101.19Y-103.97
X104.99Y-40.07
X104.99Y-69.07
X104.99Y-98.07
T3
X48.09Y-34.82
X48.09Y-50.67
X48.09Y-63.82
X48.09Y-79.67
X48.09Y-92.82
X48.09Y-108.67
X49.29Y-44.37
X49.29Y-60.22
X49.29Y-73.37
X49.29Y-89.22
X49.29Y-102.37
X49.29Y-118.22
T4
X47.69Y-47.52
X47.69Y-76.52
X47.69Y-105.52
T5
X53.14Y-37.22
X53.14Y-57.82
X53.14Y-66.22
X53.14Y-86.82
X53.14Y-95.22
X53.14Y-115.82
M30
