M48
; DRILL file {KiCad 7.0.11+dfsg-1build4} date jue 13 nov 2025 13:24:52
; FORMAT={-:-/ absolute / metric / decimal}
; #@! TF.CreationDate,2025-11-13T13:24:52-05:00
; #@! TF.GenerationSoftware,Kicad,Pcbnew,7.0.11+dfsg-1build4
; #@! TF.FileFunction,Plated,1,2,PTH
FMAT,2
METRIC
; #@! TA.AperFunction,Plated,PTH,ComponentDrill
T1C0.800
; #@! TA.AperFunction,Plated,PTH,ComponentDrill
T2C0.900
; #@! TA.AperFunction,Plated,PTH,ComponentDrill
T3C1.000
%
G90
G05
T1
X148.86Y-35.94
X148.86Y-37.94
X148.86Y-39.94
X148.86Y-64.94
X148.86Y-66.94
X148.86Y-68.94
X148.86Y-93.94
X148.86Y-95.94
X148.86Y-97.94
T2
X93.71Y-33.36
X93.71Y-35.9
X93.71Y-38.44
X93.71Y-47.71
X93.71Y-50.25
X93.71Y-52.79
X93.71Y-62.36
X93.71Y-64.9
X93.71Y-67.44
X93.71Y-76.71
X93.71Y-79.25
X93.71Y-81.79
X93.71Y-91.36
X93.71Y-93.9
X93.71Y-96.44
X93.71Y-105.71
X93.71Y-108.25
X93.71Y-110.79
X95.66Y-32.09
X95.66Y-34.63
X95.66Y-37.17
X95.66Y-46.44
X95.66Y-48.98
X95.66Y-51.52
X95.66Y-61.09
X95.66Y-63.63
X95.66Y-66.17
X95.66Y-75.44
X95.66Y-77.98
X95.66Y-80.52
X95.66Y-90.09
X95.66Y-92.63
X95.66Y-95.17
X95.66Y-104.44
X95.66Y-106.98
X95.66Y-109.52
T3
X99.68Y-36.02
X99.68Y-38.56
X99.68Y-41.1
X99.68Y-43.64
X99.68Y-46.18
X99.68Y-48.72
X99.68Y-65.02
X99.68Y-67.56
X99.68Y-70.1
X99.68Y-72.64
X99.68Y-75.18
X99.68Y-77.72
X99.68Y-94.02
X99.68Y-96.56
X99.68Y-99.1
X99.68Y-101.64
X99.68Y-104.18
X99.68Y-106.72
X102.22Y-36.02
X102.22Y-38.56
X102.22Y-41.1
X102.22Y-43.64
X102.22Y-46.18
X102.22Y-48.72
X102.22Y-65.02
X102.22Y-67.56
X102.22Y-70.1
X102.22Y-72.64
X102.22Y-75.18
X102.22Y-77.72
X102.22Y-94.02
X102.22Y-96.56
X102.22Y-99.1
X102.22Y-101.64
X102.22Y-104.18
X102.22Y-106.72
X104.76Y-30.94
X104.76Y-33.48
X104.76Y-36.02
X104.76Y-38.56
X104.76Y-38.56
X104.76Y-41.1
X104.76Y-41.1
X104.76Y-43.64
X104.76Y-43.64
X104.76Y-46.18
X104.76Y-46.18
X104.76Y-48.72
X104.76Y-48.72
X104.76Y-51.26
X104.76Y-53.8
X104.76Y-59.94
X104.76Y-62.48
X104.76Y-65.02
X104.76Y-67.56
X104.76Y-67.56
X104.76Y-70.1
X104.76Y-70.1
X104.76Y-72.64
X104.76Y-72.64
X104.76Y-75.18
X104.76Y-75.18
X104.76Y-77.72
X104.76Y-77.72
X104.76Y-80.26
X104.76Y-82.8
X104.76Y-88.94
X104.76Y-91.48
X104.76Y-94.02
X104.76Y-96.56
X104.76Y-96.56
X104.76Y-99.1
X104.76Y-99.1
X104.76Y-101.64
X104.76Y-101.64
X104.76Y-104.18
X104.76Y-104.18
X104.76Y-106.72
X104.76Y-106.72
X104.76Y-109.26
X104.76Y-111.8
X107.3Y-30.94
X107.3Y-33.48
X107.3Y-36.02
X107.3Y-38.56
X107.3Y-41.1
X107.3Y-43.64
X107.3Y-46.18
X107.3Y-48.72
X107.3Y-51.26
X107.3Y-53.8
X107.3Y-59.94
X107.3Y-62.48
X107.3Y-65.02
X107.3Y-67.56
X107.3Y-70.1
X107.3Y-72.64
X107.3Y-75.18
X107.3Y-77.72
X107.3Y-80.26
X107.3Y-82.8
X107.3Y-88.94
X107.3Y-91.48
X107.3Y-94.02
X107.3Y-96.56
X107.3Y-99.1
X107.3Y-101.64
X107.3Y-104.18
X107.3Y-106.72
X107.3Y-109.26
X107.3Y-111.8
X109.84Y-30.94
X109.84Y-33.48
X109.84Y-36.02
X109.84Y-38.56
X109.84Y-41.1
X109.84Y-43.64
X109.84Y-46.18
X109.84Y-48.72
X109.84Y-51.26
X109.84Y-53.8
X109.84Y-59.94
X109.84Y-62.48
X109.84Y-65.02
X109.84Y-67.56
X109.84Y-70.1
X109.84Y-72.64
X109.84Y-75.18
X109.84Y-77.72
X109.84Y-80.26
X109.84Y-82.8
X109.84Y-88.94
X109.84Y-91.48
X109.84Y-94.02
X109.84Y-96.56
X109.84Y-99.1
X109.84Y-101.64
X109.84Y-104.18
X109.84Y-106.72
X109.84Y-109.26
X109.84Y-111.8
X112.38Y-30.94
X112.38Y-33.48
X112.38Y-36.02
X112.38Y-38.56
X112.38Y-41.1
X112.38Y-43.64
X112.38Y-46.18
X112.38Y-48.72
X112.38Y-51.26
X112.38Y-53.8
X112.38Y-59.94
X112.38Y-62.48
X112.38Y-65.02
X112.38Y-67.56
X112.38Y-70.1
X112.38Y-72.64
X112.38Y-75.18
X112.38Y-77.72
X112.38Y-80.26
X112.38Y-82.8
X112.38Y-88.94
X112.38Y-91.48
X112.38Y-94.02
X112.38Y-96.56
X112.38Y-99.1
X112.38Y-101.64
X112.38Y-104.18
X112.38Y-106.72
X112.38Y-109.26
X112.38Y-111.8
X114.92Y-38.56
X114.92Y-41.1
X114.92Y-43.64
X114.92Y-46.18
X114.92Y-48.72
X114.92Y-51.26
X114.92Y-53.8
X114.92Y-67.56
X114.92Y-70.1
X114.92Y-72.64
X114.92Y-75.18
X114.92Y-77.72
X114.92Y-80.26
X114.92Y-82.8
X114.92Y-96.56
X114.92Y-99.1
X114.92Y-101.64
X114.92Y-104.18
X114.92Y-106.72
X114.92Y-109.26
X114.92Y-111.8
X117.46Y-38.56
X117.46Y-41.1
X117.46Y-43.64
X117.46Y-46.18
X117.46Y-48.72
X117.46Y-51.26
X117.46Y-53.8
X117.46Y-67.56
X117.46Y-70.1
X117.46Y-72.64
X117.46Y-75.18
X117.46Y-77.72
X117.46Y-80.26
X117.46Y-82.8
X117.46Y-96.56
X117.46Y-99.1
X117.46Y-101.64
X117.46Y-104.18
X117.46Y-106.72
X117.46Y-109.26
X117.46Y-111.8
X120.0Y-38.56
X120.0Y-41.1
X120.0Y-43.64
X120.0Y-46.18
X120.0Y-48.72
X120.0Y-51.26
X120.0Y-53.8
X120.0Y-67.56
X120.0Y-70.1
X120.0Y-72.64
X120.0Y-75.18
X120.0Y-77.72
X120.0Y-80.26
X120.0Y-82.8
X120.0Y-96.56
X120.0Y-99.1
X120.0Y-101.64
X120.0Y-104.18
X120.0Y-106.72
X120.0Y-109.26
X120.0Y-111.8
X122.54Y-38.56
X122.54Y-41.1
X122.54Y-43.64
X122.54Y-46.18
X122.54Y-48.72
X122.54Y-51.26
X122.54Y-53.8
X122.54Y-67.56
X122.54Y-70.1
X122.54Y-72.64
X122.54Y-75.18
X122.54Y-77.72
X122.54Y-80.26
X122.54Y-82.8
X122.54Y-96.56
X122.54Y-99.1
X122.54Y-101.64
X122.54Y-104.18
X122.54Y-106.72
X122.54Y-109.26
X122.54Y-111.8
X125.08Y-38.56
X125.08Y-41.1
X125.08Y-43.64
X125.08Y-46.18
X125.08Y-48.72
X125.08Y-51.26
X125.08Y-53.8
X125.08Y-67.56
X125.08Y-70.1
X125.08Y-72.64
X125.08Y-75.18
X125.08Y-77.72
X125.08Y-80.26
X125.08Y-82.8
X125.08Y-96.56
X125.08Y-99.1
X125.08Y-101.64
X125.08Y-104.18
X125.08Y-106.72
X125.08Y-109.26
X125.08Y-111.8
X127.62Y-38.56
X127.62Y-41.1
X127.62Y-43.64
X127.62Y-46.18
X127.62Y-48.72
X127.62Y-51.26
X127.62Y-53.8
X127.62Y-67.56
X127.62Y-70.1
X127.62Y-72.64
X127.62Y-75.18
X127.62Y-77.72
X127.62Y-80.26
X127.62Y-82.8
X127.62Y-96.56
X127.62Y-99.1
X127.62Y-101.64
X127.62Y-104.18
X127.62Y-106.72
X127.62Y-109.26
X127.62Y-111.8
X130.16Y-38.56
X130.16Y-41.1
X130.16Y-43.64
X130.16Y-46.18
X130.16Y-48.72
X130.16Y-51.26
X130.16Y-53.8
X130.16Y-67.56
X130.16Y-70.1
X130.16Y-72.64
X130.16Y-75.18
X130.16Y-77.72
X130.16Y-80.26
X130.16Y-82.8
X130.16Y-96.56
X130.16Y-99.1
X130.16Y-101.64
X130.16Y-104.18
X130.16Y-106.72
X130.16Y-109.26
X130.16Y-111.8
X132.7Y-38.56
X132.7Y-41.1
X132.7Y-43.64
X132.7Y-46.18
X132.7Y-48.72
X132.7Y-51.26
X132.7Y-53.8
X132.7Y-67.56
X132.7Y-70.1
X132.7Y-72.64
X132.7Y-75.18
X132.7Y-77.72
X132.7Y-80.26
X132.7Y-82.8
X132.7Y-96.56
X132.7Y-99.1
X132.7Y-101.64
X132.7Y-104.18
X132.7Y-106.72
X132.7Y-109.26
X132.7Y-111.8
X135.24Y-48.72
X135.24Y-51.26
X135.24Y-53.8
X135.24Y-77.72
X135.24Y-80.26
X135.24Y-82.8
X135.24Y-106.72
X135.24Y-109.26
X135.24Y-111.8
X137.78Y-48.72
X137.78Y-51.26
X137.78Y-53.8
X137.78Y-77.72
X137.78Y-80.26
X137.78Y-82.8
X137.78Y-106.72
X137.78Y-109.26
X137.78Y-111.8
X140.32Y-48.72
X140.32Y-51.26
X140.32Y-53.8
X140.32Y-77.72
X140.32Y-80.26
X140.32Y-82.8
X140.32Y-106.72
X140.32Y-109.26
X140.32Y-111.8
X142.86Y-30.94
X142.86Y-33.48
X142.86Y-36.02
X142.86Y-38.56
X142.86Y-46.18
X142.86Y-48.72
X142.86Y-51.26
X142.86Y-53.8
X142.86Y-59.94
X142.86Y-62.48
X142.86Y-65.02
X142.86Y-67.56
X142.86Y-75.18
X142.86Y-77.72
X142.86Y-80.26
X142.86Y-82.8
X142.86Y-88.94
X142.86Y-91.48
X142.86Y-94.02
X142.86Y-96.56
X142.86Y-104.18
X142.86Y-106.72
X142.86Y-109.26
X142.86Y-111.8
X145.4Y-30.94
X145.4Y-33.48
X145.4Y-46.18
X145.4Y-48.72
X145.4Y-51.26
X145.4Y-53.8
X145.4Y-59.94
X145.4Y-62.48
X145.4Y-75.18
X145.4Y-77.72
X145.4Y-80.26
X145.4Y-82.8
X145.4Y-88.94
X145.4Y-91.48
X145.4Y-104.18
X145.4Y-106.72
X145.4Y-109.26
X145.4Y-111.8
X147.94Y-43.64
X147.94Y-46.18
X147.94Y-48.72
X147.94Y-51.26
X147.94Y-72.64
X147.94Y-75.18
X147.94Y-77.72
X147.94Y-80.26
X147.94Y-101.64
X147.94Y-104.18
X147.94Y-106.72
X147.94Y-109.26
M30
