M48
; DRILL file {KiCad 7.0.11+dfsg-1build4} date lun 29 dic 2025 16:28:20
; FORMAT={-:-/ absolute / metric / decimal}
; #@! TF.CreationDate,2025-12-29T16:28:20-05:00
; #@! TF.GenerationSoftware,Kicad,Pcbnew,7.0.11+dfsg-1build4
; #@! TF.FileFunction,Plated,1,2,PTH
FMAT,2
METRIC
; #@! TA.AperFunction,Plated,PTH,ComponentDrill
T1C0.800
; #@! TA.AperFunction,Plated,PTH,ComponentDrill
T2C0.900
; #@! TA.AperFunction,Plated,PTH,ComponentDrill
T3C1.000
%
G90
G05
T1
X103.09Y-41.02
X103.09Y-43.02
X103.09Y-45.02
X103.09Y-70.02
X103.09Y-72.02
X103.09Y-74.02
X103.09Y-99.02
X103.09Y-101.02
X103.09Y-103.02
T2
X47.99Y-37.69
X47.99Y-40.23
X47.99Y-42.77
X47.99Y-53.54
X47.99Y-56.08
X47.99Y-58.62
X47.99Y-66.69
X47.99Y-69.23
X47.99Y-71.77
X47.99Y-82.54
X47.99Y-85.08
X47.99Y-87.62
X47.99Y-95.69
X47.99Y-98.23
X47.99Y-100.77
X47.99Y-111.54
X47.99Y-114.08
X47.99Y-116.62
X49.94Y-36.42
X49.94Y-38.96
X49.94Y-41.5
X49.94Y-52.27
X49.94Y-54.81
X49.94Y-57.35
X49.94Y-65.42
X49.94Y-67.96
X49.94Y-70.5
X49.94Y-81.27
X49.94Y-83.81
X49.94Y-86.35
X49.94Y-94.42
X49.94Y-96.96
X49.94Y-99.5
X49.94Y-110.27
X49.94Y-112.81
X49.94Y-115.35
T3
X53.96Y-41.1
X53.96Y-43.64
X53.96Y-46.18
X53.96Y-48.72
X53.96Y-51.26
X53.96Y-53.8
X53.96Y-70.1
X53.96Y-72.64
X53.96Y-75.18
X53.96Y-77.72
X53.96Y-80.26
X53.96Y-82.8
X53.96Y-99.1
X53.96Y-101.64
X53.96Y-104.18
X53.96Y-106.72
X53.96Y-109.26
X53.96Y-111.8
X56.5Y-41.1
X56.5Y-43.64
X56.5Y-46.18
X56.5Y-48.72
X56.5Y-51.26
X56.5Y-53.8
X56.5Y-70.1
X56.5Y-72.64
X56.5Y-75.18
X56.5Y-77.72
X56.5Y-80.26
X56.5Y-82.8
X56.5Y-99.1
X56.5Y-101.64
X56.5Y-104.18
X56.5Y-106.72
X56.5Y-109.26
X56.5Y-111.8
X59.04Y-36.02
X59.04Y-38.56
X59.04Y-41.1
X59.04Y-43.64
X59.04Y-43.64
X59.04Y-46.18
X59.04Y-46.18
X59.04Y-48.72
X59.04Y-48.72
X59.04Y-51.26
X59.04Y-51.26
X59.04Y-53.8
X59.04Y-53.8
X59.04Y-56.34
X59.04Y-58.88
X59.04Y-65.02
X59.04Y-67.56
X59.04Y-70.1
X59.04Y-72.64
X59.04Y-72.64
X59.04Y-75.18
X59.04Y-75.18
X59.04Y-77.72
X59.04Y-77.72
X59.04Y-80.26
X59.04Y-80.26
X59.04Y-82.8
X59.04Y-82.8
X59.04Y-85.34
X59.04Y-87.88
X59.04Y-94.02
X59.04Y-96.56
X59.04Y-99.1
X59.04Y-101.64
X59.04Y-101.64
X59.04Y-104.18
X59.04Y-104.18
X59.04Y-106.72
X59.04Y-106.72
X59.04Y-109.26
X59.04Y-109.26
X59.04Y-111.8
X59.04Y-111.8
X59.04Y-114.34
X59.04Y-116.88
X61.58Y-36.02
X61.58Y-38.56
X61.58Y-41.1
X61.58Y-43.64
X61.58Y-46.18
X61.58Y-48.72
X61.58Y-51.26
X61.58Y-53.8
X61.58Y-56.34
X61.58Y-58.88
X61.58Y-65.02
X61.58Y-67.56
X61.58Y-70.1
X61.58Y-72.64
X61.58Y-75.18
X61.58Y-77.72
X61.58Y-80.26
X61.58Y-82.8
X61.58Y-85.34
X61.58Y-87.88
X61.58Y-94.02
X61.58Y-96.56
X61.58Y-99.1
X61.58Y-101.64
X61.58Y-104.18
X61.58Y-106.72
X61.58Y-109.26
X61.58Y-111.8
X61.58Y-114.34
X61.58Y-116.88
X64.12Y-36.02
X64.12Y-38.56
X64.12Y-41.1
X64.12Y-43.64
X64.12Y-46.18
X64.12Y-48.72
X64.12Y-51.26
X64.12Y-53.8
X64.12Y-56.34
X64.12Y-58.88
X64.12Y-65.02
X64.12Y-67.56
X64.12Y-70.1
X64.12Y-72.64
X64.12Y-75.18
X64.12Y-77.72
X64.12Y-80.26
X64.12Y-82.8
X64.12Y-85.34
X64.12Y-87.88
X64.12Y-94.02
X64.12Y-96.56
X64.12Y-99.1
X64.12Y-101.64
X64.12Y-104.18
X64.12Y-106.72
X64.12Y-109.26
X64.12Y-111.8
X64.12Y-114.34
X64.12Y-116.88
X66.66Y-36.02
X66.66Y-38.56
X66.66Y-41.1
X66.66Y-43.64
X66.66Y-46.18
X66.66Y-48.72
X66.66Y-51.26
X66.66Y-53.8
X66.66Y-56.34
X66.66Y-58.88
X66.66Y-65.02
X66.66Y-67.56
X66.66Y-70.1
X66.66Y-72.64
X66.66Y-75.18
X66.66Y-77.72
X66.66Y-80.26
X66.66Y-82.8
X66.66Y-85.34
X66.66Y-87.88
X66.66Y-94.02
X66.66Y-96.56
X66.66Y-99.1
X66.66Y-101.64
X66.66Y-104.18
X66.66Y-106.72
X66.66Y-109.26
X66.66Y-111.8
X66.66Y-114.34
X66.66Y-116.88
X69.2Y-43.64
X69.2Y-46.18
X69.2Y-48.72
X69.2Y-51.26
X69.2Y-53.8
X69.2Y-56.34
X69.2Y-58.88
X69.2Y-72.64
X69.2Y-75.18
X69.2Y-77.72
X69.2Y-80.26
X69.2Y-82.8
X69.2Y-85.34
X69.2Y-87.88
X69.2Y-101.64
X69.2Y-104.18
X69.2Y-106.72
X69.2Y-109.26
X69.2Y-111.8
X69.2Y-114.34
X69.2Y-116.88
X71.74Y-43.64
X71.74Y-46.18
X71.74Y-48.72
X71.74Y-51.26
X71.74Y-53.8
X71.74Y-56.34
X71.74Y-58.88
X71.74Y-72.64
X71.74Y-75.18
X71.74Y-77.72
X71.74Y-80.26
X71.74Y-82.8
X71.74Y-85.34
X71.74Y-87.88
X71.74Y-101.64
X71.74Y-104.18
X71.74Y-106.72
X71.74Y-109.26
X71.74Y-111.8
X71.74Y-114.34
X71.74Y-116.88
X74.28Y-43.64
X74.28Y-46.18
X74.28Y-48.72
X74.28Y-51.26
X74.28Y-53.8
X74.28Y-56.34
X74.28Y-58.88
X74.28Y-72.64
X74.28Y-75.18
X74.28Y-77.72
X74.28Y-80.26
X74.28Y-82.8
X74.28Y-85.34
X74.28Y-87.88
X74.28Y-101.64
X74.28Y-104.18
X74.28Y-106.72
X74.28Y-109.26
X74.28Y-111.8
X74.28Y-114.34
X74.28Y-116.88
X76.82Y-43.64
X76.82Y-46.18
X76.82Y-48.72
X76.82Y-51.26
X76.82Y-53.8
X76.82Y-56.34
X76.82Y-58.88
X76.82Y-72.64
X76.82Y-75.18
X76.82Y-77.72
X76.82Y-80.26
X76.82Y-82.8
X76.82Y-85.34
X76.82Y-87.88
X76.82Y-101.64
X76.82Y-104.18
X76.82Y-106.72
X76.82Y-109.26
X76.82Y-111.8
X76.82Y-114.34
X76.82Y-116.88
X79.36Y-43.64
X79.36Y-46.18
X79.36Y-48.72
X79.36Y-51.26
X79.36Y-53.8
X79.36Y-56.34
X79.36Y-58.88
X79.36Y-72.64
X79.36Y-75.18
X79.36Y-77.72
X79.36Y-80.26
X79.36Y-82.8
X79.36Y-85.34
X79.36Y-87.88
X79.36Y-101.64
X79.36Y-104.18
X79.36Y-106.72
X79.36Y-109.26
X79.36Y-111.8
X79.36Y-114.34
X79.36Y-116.88
X81.9Y-43.64
X81.9Y-46.18
X81.9Y-48.72
X81.9Y-51.26
X81.9Y-53.8
X81.9Y-56.34
X81.9Y-58.88
X81.9Y-72.64
X81.9Y-75.18
X81.9Y-77.72
X81.9Y-80.26
X81.9Y-82.8
X81.9Y-85.34
X81.9Y-87.88
X81.9Y-101.64
X81.9Y-104.18
X81.9Y-106.72
X81.9Y-109.26
X81.9Y-111.8
X81.9Y-114.34
X81.9Y-116.88
X84.44Y-43.64
X84.44Y-46.18
X84.44Y-48.72
X84.44Y-51.26
X84.44Y-53.8
X84.44Y-56.34
X84.44Y-58.88
X84.44Y-72.64
X84.44Y-75.18
X84.44Y-77.72
X84.44Y-80.26
X84.44Y-82.8
X84.44Y-85.34
X84.44Y-87.88
X84.44Y-101.64
X84.44Y-104.18
X84.44Y-106.72
X84.44Y-109.26
X84.44Y-111.8
X84.44Y-114.34
X84.44Y-116.88
X86.98Y-43.64
X86.98Y-46.18
X86.98Y-48.72
X86.98Y-51.26
X86.98Y-53.8
X86.98Y-56.34
X86.98Y-58.88
X86.98Y-72.64
X86.98Y-75.18
X86.98Y-77.72
X86.98Y-80.26
X86.98Y-82.8
X86.98Y-85.34
X86.98Y-87.88
X86.98Y-101.64
X86.98Y-104.18
X86.98Y-106.72
X86.98Y-109.26
X86.98Y-111.8
X86.98Y-114.34
X86.98Y-116.88
X89.52Y-53.8
X89.52Y-56.34
X89.52Y-58.88
X89.52Y-82.8
X89.52Y-85.34
X89.52Y-87.88
X89.52Y-111.8
X89.52Y-114.34
X89.52Y-116.88
X92.06Y-53.8
X92.06Y-56.34
X92.06Y-58.88
X92.06Y-82.8
X92.06Y-85.34
X92.06Y-87.88
X92.06Y-111.8
X92.06Y-114.34
X92.06Y-116.88
X94.6Y-53.8
X94.6Y-56.34
X94.6Y-58.88
X94.6Y-82.8
X94.6Y-85.34
X94.6Y-87.88
X94.6Y-111.8
X94.6Y-114.34
X94.6Y-116.88
X97.14Y-36.02
X97.14Y-38.56
X97.14Y-41.1
X97.14Y-43.64
X97.14Y-51.26
X97.14Y-53.8
X97.14Y-56.34
X97.14Y-58.88
X97.14Y-65.02
X97.14Y-67.56
X97.14Y-70.1
X97.14Y-72.64
X97.14Y-80.26
X97.14Y-82.8
X97.14Y-85.34
X97.14Y-87.88
X97.14Y-94.02
X97.14Y-96.56
X97.14Y-99.1
X97.14Y-101.64
X97.14Y-109.26
X97.14Y-111.8
X97.14Y-114.34
X97.14Y-116.88
X99.68Y-36.02
X99.68Y-38.56
X99.68Y-51.26
X99.68Y-53.8
X99.68Y-56.34
X99.68Y-58.88
X99.68Y-65.02
X99.68Y-67.56
X99.68Y-80.26
X99.68Y-82.8
X99.68Y-85.34
X99.68Y-87.88
X99.68Y-94.02
X99.68Y-96.56
X99.68Y-109.26
X99.68Y-111.8
X99.68Y-114.34
X99.68Y-116.88
X102.22Y-48.72
X102.22Y-51.26
X102.22Y-53.8
X102.22Y-56.34
X102.22Y-77.72
X102.22Y-80.26
X102.22Y-82.8
X102.22Y-85.34
X102.22Y-106.72
X102.22Y-109.26
X102.22Y-111.8
X102.22Y-114.34
M30
